P1
50 70
00000000000000000000000000000000000000000000000000
00000000000000000000000000000000000000000000000000
00000000000000000000000000000000000000000000000000
00000000000000000000000000000000000000000000000000
00000000000000000000000000000000000000000000000000
00000000000000000000000000000000000000000000000000
00000000000000000000000000000000000000000000000000
00000000000000000000000000000000000000000000000000
00000000000000000000000000000000000000000000000000
00000000000000000000000000000000000000000000000000
00000000000000000000000000000000000000000000000000
00000000000000000000000000000000000000000000000000
00000000000000000000000000000000000000000000000000
00000000000000000000000000000000000000000000000000
00000000000000000000000000000000000000000000000000
00000000000000000000000000000000000000000000000000
00000000000000000000000000000000000000000000000000
00000000000000000000000000000000000000000000000000
00000000000000000000000000000000000000000000000000
00000000000000000011110000100000000000000000000000
00000000000000000111111111111000000000000000000000
00000000000000111111111111111110000000000000000000
00000000000011111111111111111111000000000000000000
00000000000011111111111111111111100000000000000000
00000000000111111111111111111111110000000000000000
00000000001111111111111111111111111000000000000000
00000000001111111111111111111111111100000000000000
00000000001111111111111111111111111100000000000000
00000000011111111111000011111111111110000000000000
00000000011111111110000000111111111110000000000000
00000000111111111110000000111111111110000000000000
00000000111111111100000000011111111110000000000000
00000000111111111100000000011111111110000000000000
00000000111111111100000000011111111111000000000000
00000000111111111100000000011111111111100000000000
00000000111111111100000000001111111111100000000000
00000000111111111100000000001111111111100000000000
00000000111111111000001110001111111111100000000000
00000000011111111000011111011111111111000000000000
00000000011111111000111111111111111111000000000000
00000000011111111001111111111111111111100000000000
00000000011111111100111111111111111111100000000000
00000000011111111100111111111111111111100000000000
00000000011111111100111111111111111111100000000000
00000000001111111100011111100111111111100000000000
00000000001111111100011111000111111111100000000000
00000000001111111100000000000111111111100000000000
00000000001111111100000000000111111111100000000000
00000000001111111110000000000111111111100000000000
00000000001111111110000000000111111111100000000000
00000000000111111110000000000111111111000000000000
00000000000111111110000000000111111111000000000000
00000000000111111110000000001111111111000000000000
00000000000111111110000000011111111110000000000000
00000000000111111111000000111111111110000000000000
00000000000111111111000000111111111100000000000000
00000000000011111111111011111111111100000000000000
00000000000011111111111111111111111000000000000000
00000000000011111111111111111111110000000000000000
00000000000011111111111111111111100000000000000000
00000000000011111111111111111111000000000000000000
00000000000001111111111111111110000000000000000000
00000000000001111111111111111100000000000000000000
00000000000001111111111111111000000000000000000000
00000000000001111111111111100000000000000000000000
00000000000000011111111110000000000000000000000000
00000000000000000111000000000000000000000000000000
00000000000000000000000000000000000000000000000000
00000000000000000000000000000000000000000000000000
00000000000000000000000000000000000000000000000000
