P1
50 70
00000000000000000000000000000000000000000000000000
00000000000000000000000000000000000000000000000000
00000000000000000000000000000000000000000000000000
00000000000000000000000000000000000000000000000000
00000000000000000000000000000000000000000000000000
00000000000000000000000000000000000000000000000000
00000000000000000000000000000000000000000000000000
00000000000000000000000000000000000000000000000000
00000000000000000000000000000000000000000000000000
00000000000000000000000000000000000000000000000000
00000000000000000000000000000000000000000000000000
00000000000000000000000000000000000000000000000000
00000000000000000000000000000000000000000000000000
00000000000000000000000000000000000000000000000000
00000000000000000000000000001111000000000000000000
00000000000000000000000001111111100000000000000000
00000000000000000000000111111111110000000000000000
00000000000000000000001111111111111000000000000000
00000000000000000000111111111111111000000000000000
00000000000000000000111111111111111000000000000000
00000000000000000001111111011111111000000000000000
00000000000000000011111111000111111000000000000000
00000000000000000011111100000011111100000000000000
00000000000000000111110000000011111100000000000000
00000000000000000111110000000011111110000000000000
00000000000000001111110000000011111110000000000000
00000000000000001111100000000011111100000000000000
00000000000000011111100000000011111100000000000000
00000000000000011111000000000001111100000000000000
00000000000000011111000000000001111100000000000000
00000000000000011111000000000001111100000000000000
00000000000000111110000000000001111100000000000000
00000000000000111110000000000011111110000000000000
00000000000000111100000000000011111100000000000000
00000000000000111110000011000011111100000000000000
00000000000000111110001111100011111100000000000000
00000000000001111110011111100001111100000000000000
00000000000001111110011111100001111100000000000000
00000000000011111110111111110011111100000000000000
00000000000011111100111111110011111000000000000000
00000000000011111000111111110011111000000000000000
00000000000011111000011111100111111100000000000000
00000000000011111100011111000111111100000000000000
00000000000001111100001100000111111000000000000000
00000000000001111100000000000111110000000000000000
00000000000011111100000000000111110000000000000000
00000000000011111100000000000111100000000000000000
00000000000011111000000000000111100000000000000000
00000000000011111100000000001111100000000000000000
00000000000011111100000000001111000000000000000000
00000000000001111100000000011111100000000000000000
00000000000001111100000000011111000000000000000000
00000000000011111100000000011111000000000000000000
00000000000011111100000000111110000000000000000000
00000000000011111100000001111100000000000000000000
00000000000011111110000011111100000000000000000000
00000000000001111111000111111000000000000000000000
00000000000000111111111111111000000000000000000000
00000000000000111111111111110000000000000000000000
00000000000000111111111111100000000000000000000000
00000000000000111111111111000000000000000000000000
00000000000000011111111000000000000000000000000000
00000000000000001111110000000000000000000000000000
00000000000000000001000000000000000000000000000000
00000000000000000000000000000000000000000000000000
00000000000000000000000000000000000000000000000000
00000000000000000000000000000000000000000000000000
00000000000000000000000000000000000000000000000000
00000000000000000000000000000000000000000000000000
00000000000000000000000000000000000000000000000000
