P1
50 70
00000000000000000000000000000000000000000000000000
00000000000000000000000000000000000000000000000000
00000000000000000000000000000000000000000000000000
00000000000000000000000000000000000000000000000000
00000000000000000000000000000000000000000000000000
00000000000000000000000000000000000000000000000000
00000000000000000000000000000000000000000000000000
00000000000000000000000000000000000000000000000000
00000000000000000000000000000000000000000000000000
00000000000000000000000000000000000000000000000000
00000000000000000000000000000000000000000000000000
00000000000000000000000000000000000000000000000000
00000000000000000000000000000000000000000000000000
00000000000000000000000000000000000000000000000000
00000000000000000000000000000000000000000000000000
00000000000000000000000000000000000000000000000000
00000000000000000000000011111100000000000000000000
00000000000000000000000111111110000000000000000000
00000000000000000000011111111111000000000000000000
00000000000000000000111111111111100000000000000000
00000000000000000001111111111111110000000000000000
00000000000000000011111111111111110000000000000000
00000000000000000111111111111111110000000000000000
00000000000000001111111111111111110000000000000000
00000000000000001111111111111111111000000000000000
00000000000000011111111100111111111000000000000000
00000000000000111111100000011111111000000000000000
00000000000001111111100000001111111000000000000000
00000000000001111111000000001111111000000000000000
00000000000001111110000000001111111000000000000000
00000000000011111110000000000111111100000000000000
00000000000011111110000000000111111100000000000000
00000000000011111100000000000111111100000000000000
00000000000011111100000000000111111100000000000000
00000000000011111110000000000111111110000000000000
00000000000011111110000000000111111110000000000000
00000000000111111100000000000011111110000000000000
00000000000011111100000000000011111110000000000000
00000000000011111100000000000011111110000000000000
00000000000011111100000000000001111110000000000000
00000000000011111100000011100001111110000000000000
00000000000011111110001111110001111111000000000000
00000000000011111110001111110001111111000000000000
00000000000001111110001111110000111111000000000000
00000000000001111110001111111000111111000000000000
00000000000001111110001111111001111111000000000000
00000000000001111110001111110001111110000000000000
00000000000001111111000111100000111110000000000000
00000000000000111111100011000001111110000000000000
00000000000000011111100000000001111111000000000000
00000000000000011111100000000000111111000000000000
00000000000000011111100000000000111111000000000000
00000000000000011111100000000000111111000000000000
00000000000000011111110000000000111110000000000000
00000000000000001111110000000000111110000000000000
00000000000000000111111000000001111110000000000000
00000000000000000011111000000001111111000000000000
00000000000000000011111100000001111111000000000000
00000000000000000011111110000001111110000000000000
00000000000000000001111111000011111110000000000000
00000000000000000000111111111111111100000000000000
00000000000000000000011111111111111100000000000000
00000000000000000000011111111111111000000000000000
00000000000000000000000111111111110000000000000000
00000000000000000000000111111111110000000000000000
00000000000000000000000011111100000000000000000000
00000000000000000000000000000000000000000000000000
00000000000000000000000000000000000000000000000000
00000000000000000000000000000000000000000000000000
00000000000000000000000000000000000000000000000000
