P1
50 70
00000000000000000000000000000000000000000000000000
00000000000000000000000000000000000000000000000000
00000000000000000000000000000000000000000000000000
00000000000000000000000000000000000000000000000000
00000000000000000000000000000000000000000000000000
00000000000000000000000000000000000000000000000000
00000000000000000000000000000000000000000000000000
00000000000000000000000000000000000000000000000000
00000000000000000000000000000000000000000000000000
00000000000000000000000000000000000000000000000000
00000000000000000000000000000000000000000000000000
00000000000000000000000000000000000000000000000000
00000000000000000000000000000000000000000000000000
00000000000000000000000000000000000000000000000000
00000000000000000000000000000000000000000000000000
00000000000000000000000000000000000000000000000000
00000000000000000000000000111100000000000000000000
00000000000000000000000001111111100000000000000000
00000000000000000000111111111111110000000000000000
00000000000000000001111111111111111000000000000000
00000000000000000011111111111111111000000000000000
00000000000000000111111111111111111100000000000000
00000000000000001111111111101111111100000000000000
00000000000000011111111000000011111110000000000000
00000000000000011111110000000011111111000000000000
00000000000000111111100000000011111111000000000000
00000000000001111111100000000001111111000000000000
00000000000011111111000000000000111111000000000000
00000000000011111110000000000000011111000000000000
00000000000011111110000000000000011111000000000000
00000000000111111100000000000000011111000000000000
00000000000011111100000000000000111111000000000000
00000000000111111000000000000000111111100000000000
00000000000111111000001110000000111111100000000000
00000000000111111100011111100000111111100000000000
00000000001111111100111111110000111111100000000000
00000000001111111100111111110000011111100000000000
00000000001111111000111111111000011111100000000000
00000000001111111000111111111000111111100000000000
00000000001111110000111111111000111111100000000000
00000000001111110000011111111001111111100000000000
00000000011111110000001111110001111111100000000000
00000000011111111000000000000001111111100000000000
00000000011111110000000000000000111111100000000000
00000000001111110000000000000000111111000000000000
00000000001111110000000000000001111111000000000000
00000000001111110000000000000001111111000000000000
00000000001111110000000000000011111110000000000000
00000000001111110000000000000011111110000000000000
00000000001111111000000000000111111111000000000000
00000000000111111100000000000111111110000000000000
00000000000111111111000000001111111100000000000000
00000000000011111111100000111111111100000000000000
00000000000011111111111111111111111100000000000000
00000000000001111111111111111111111000000000000000
00000000000000011111111111111111110000000000000000
00000000000000000001111111111111100000000000000000
00000000000000000000011111111100000000000000000000
00000000000000000000000000000000000000000000000000
00000000000000000000000000000000000000000000000000
00000000000000000000000000000000000000000000000000
00000000000000000000000000000000000000000000000000
00000000000000000000000000000000000000000000000000
00000000000000000000000000000000000000000000000000
00000000000000000000000000000000000000000000000000
00000000000000000000000000000000000000000000000000
00000000000000000000000000000000000000000000000000
00000000000000000000000000000000000000000000000000
00000000000000000000000000000000000000000000000000
00000000000000000000000000000000000000000000000000
