P1
50 70
00000000000000000000000000000000000000000000000000
00000000000000000000000000000000000000000000000000
00000000000000000000000000000000000000000000000000
00000000000000000000000000000000000000000000000000
00000000000000000000000000000000000000000000000000
00000000000000000000000000000000000000000000000000
00000000000000000000000000000000000000000000000000
00000000000000000000000000000000000000000000000000
00000000000000000000000000000000000000000000000000
00000000000000000000000000000000000000000000000000
00000000000000000000000000000000000000000000000000
00000000000000000000000000000000000000000000000000
00000000000000000000000000000000000000000000000000
00000000000000000000000000000000000000000000000000
00000000000000000000000000000000000000000000000000
00000000000000000000000000000000000000000000000000
00000000000000000000000000000000000000000000000000
00000000000000001111111100000000000000000000000000
00000000000000011111111111100000000000000000000000
00000000000000111111111111110000000000000000000000
00000000000001111111111111111000000000000000000000
00000000000001111110001111111110000000000000000000
00000000000011111100000111111110000000000000000000
00000000000011111000000001111111000000000000000000
00000000000111111000000000111111000000000000000000
00000000000011110000000000111111000000000000000000
00000000000011110000000001111111110000000000000000
00000000000111110000000001111111110000000000000000
00000000000111110000000011111111110000000000000000
00000000000111110000000011111111110000000000000000
00000000000111110000000111110011111000000000000000
00000000000011110000000111110011111000000000000000
00000000000011110000000111110011111000000000000000
00000000000011110000000111100001111100000000000000
00000000000011110000001111100001111100000000000000
00000000000011111000001111000000111100000000000000
00000000000001111000011111000000111100000000000000
00000000000001111000011110000000111100000000000000
00000000000001111000011110000000111100000000000000
00000000000001111000111110000000111100000000000000
00000000000001111100111110000000111100000000000000
00000000000001111111111110000000111110000000000000
00000000000001111111111100000000111110000000000000
00000000000000111111111000000000111110000000000000
00000000000000011111111000000000111100000000000000
00000000000000011111111000000001111100000000000000
00000000000000011111110000000011111000000000000000
00000000000000001111111000000011111000000000000000
00000000000000000011111110000011110000000000000000
00000000000000000011111111001111110000000000000000
00000000000000000001111111111111110000000000000000
00000000000000000000111111111111100000000000000000
00000000000000000000011111111110000000000000000000
00000000000000000000001111110000000000000000000000
00000000000000000000000000000000000000000000000000
00000000000000000000000000000000000000000000000000
00000000000000000000000000000000000000000000000000
00000000000000000000000000000000000000000000000000
00000000000000000000000000000000000000000000000000
00000000000000000000000000000000000000000000000000
00000000000000000000000000000000000000000000000000
00000000000000000000000000000000000000000000000000
00000000000000000000000000000000000000000000000000
00000000000000000000000000000000000000000000000000
00000000000000000000000000000000000000000000000000
00000000000000000000000000000000000000000000000000
00000000000000000000000000000000000000000000000000
00000000000000000000000000000000000000000000000000
00000000000000000000000000000000000000000000000000
00000000000000000000000000000000000000000000000000
