P1
50 70
00000000000000000000000000000000000000000000000000
00000000000000000000000000000000000000000000000000
00000000000000000000000000000000000000000000000000
00000000000000000000000000000000000000000000000000
00000000000000000000000000000000000000000000000000
00000000000000000000000000000000000000000000000000
00000000000000000000000000000000000000000000000000
00000000000000000000000000000000000000000000000000
00000000000000000000000000000000000000000000000000
00000000000000000000000000000000000000000000000000
00000000000000000000000000000000000000000000000000
00000000000000000000000000000000000000000000000000
00000000000000000000000000000000000000000000000000
00000000000000000000000000000000000000000000000000
00000000000000000000000000000000000000000000000000
00000000000000000000000000000000000000000000000000
00000000000000000000000011111000000000000000000000
00000000000000001111111111111111000000000000000000
00000000000000011111111111111111110000000000000000
00000000000001111111111111111111110000000000000000
00000000000111111111111111111111111000000000000000
00000000001111111111111111111111111110000000000000
00000000011111111111111111111111111110000000000000
00000000011111111111101111111111111110000000000000
00000000011111111111000001111111111111100000000000
00000000111111111110000000111111111111100000000000
00000000111111111100000000001111111111100000000000
00000000111111111100000000001111111111100000000000
00000000111111111000000000001111111111100000000000
00000001111111111000000000001111111111100000000000
00000001111111111000000000000111111111100000000000
00000001111111111000000000000111111111100000000000
00000001111111111000000000000011111111110000000000
00000001111111111000001111110011111111110000000000
00000001111111111100011111110011111111110000000000
00000001111111111100111111110011111111110000000000
00000001111111111000111111110001111111110000000000
00000001111111111000111111110011111111110000000000
00000001111111111000111111100011111111110000000000
00000000111111111000011110000011111111110000000000
00000000111111111000000000000011111111110000000000
00000000111111111100000000000011111111110000000000
00000000111111111110000000000001111111100000000000
00000000111111111110000000000011111111100000000000
00000000011111111110000000000011111111000000000000
00000000011111111110000000000111111111000000000000
00000000011111111110000000000111111111000000000000
00000000011111111111000000000111111110000000000000
00000000011111111111100000001111111100000000000000
00000000011111111111110000111111111100000000000000
00000000001111111111111111111111111000000000000000
00000000001111111111111111111111110000000000000000
00000000001111111111111111111111100000000000000000
00000000000111111111111111111111000000000000000000
00000000000111111111111111111100000000000000000000
00000000000111111111111111110000000000000000000000
00000000000001111111111111100000000000000000000000
00000000000000111111111110000000000000000000000000
00000000000000001111111100000000000000000000000000
00000000000000000000000000000000000000000000000000
00000000000000000000000000000000000000000000000000
00000000000000000000000000000000000000000000000000
00000000000000000000000000000000000000000000000000
00000000000000000000000000000000000000000000000000
00000000000000000000000000000000000000000000000000
00000000000000000000000000000000000000000000000000
00000000000000000000000000000000000000000000000000
00000000000000000000000000000000000000000000000000
00000000000000000000000000000000000000000000000000
00000000000000000000000000000000000000000000000000
