P1
50 70
00000000000000000000000000000000000000000000000000
00000000000000000000000000000000000000000000000000
00000000000000000000000000000000000000000000000000
00000000000000000000000000000000000000000000000000
00000000000000000000000000000000000000000000000000
00000000000000000000000000000000000000000000000000
00000000000000000000000000000000000000000000000000
00000000000000000000000000000000000000000000000000
00000000000000000000000000000000000000000000000000
00000000000000000000000000000000000000000000000000
00000000000000000000000000000000000000000000000000
00000000000000000000000000000000000000000000000000
00000000000000000000000000000000000000000000000000
00000000000000000000000000000000000000000000000000
00000000000000000000000000000000000000000000000000
00000000000000000000000000000000000000000000000000
00000000000000000000000000000000000000000000000000
00000000000000000000000000000000000000000000000000
00000000000000000000000000000000000000000000000000
00000000000000000000000000000000000000000000000000
00000000000000111010000000000000000000000000000000
00000000000011111111100000000000000000000000000000
00000000001111111111111100000000000000000000000000
00000000001111111111111111000000000000000000000000
00000000001111111111111111111000000000000000000000
00000000001111111111111111111100000000000000000000
00000000011111111111111111111110000000000000000000
00000000011111111111111111111111000000000000000000
00000000011111111111111111111111100000000000000000
00000000011111111111111111111111110000000000000000
00000000011111111111111111111111111000000000000000
00000000011111111111100011111111111000000000000000
00000000111111111111000000111111111100000000000000
00000000011111111111000000011111111110000000000000
00000000011111111111000000011111111110000000000000
00000000011111111110000000001111111110000000000000
00000000011111111110000000001111111110000000000000
00000000011111111110000000000111111110000000000000
00000000001111111110000000000111111111000000000000
00000000001111111110000000000111111111000000000000
00000000001111111110000000000111111111000000000000
00000000001111111110001111000111111111000000000000
00000000001111111110111111100111111111000000000000
00000000000111111110011111110011111111000000000000
00000000000111111110011111111011111111000000000000
00000000000111111110011111111111111111000000000000
00000000000111111110011111110111111110000000000000
00000000000111111110011111110111111110000000000000
00000000000111111111001111100111111111000000000000
00000000000111111111000000000111111110000000000000
00000000000011111111000000001111111110000000000000
00000000000011111111000000001111111110000000000000
00000000000011111111000000001111111110000000000000
00000000000011111111000000001111111110000000000000
00000000000001111111100000001111111100000000000000
00000000000001111111100000011111111000000000000000
00000000000000111111110000111111111000000000000000
00000000000000111111111111111111111000000000000000
00000000000000111111111111111111110000000000000000
00000000000000011111111111111111110000000000000000
00000000000000011111111111111111000000000000000000
00000000000000001111111111111111000000000000000000
00000000000000000011111111111110000000000000000000
00000000000000000011111111111100000000000000000000
00000000000000000001110111110000000000000000000000
00000000000000000000000000000000000000000000000000
00000000000000000000000000000000000000000000000000
00000000000000000000000000000000000000000000000000
00000000000000000000000000000000000000000000000000
00000000000000000000000000000000000000000000000000
