P1
50 70
00000000000000000000000000000000000000000000000000
00000000000000000000000000000000000000000000000000
00000000000000000000000000000000000000000000000000
00000000000000000000000000000000000000000000000000
00000000000000000000000000000000000000000000000000
00000000000000000000000000000000000000000000000000
00000000000000000000000000000000000000000000000000
00000000000000000000000000000000000000000000000000
00000000000000000000000000000000000000000000000000
00000000000000000000000000000000000000000000000000
00000000000000000000000000000000000000000000000000
00000000000000000000000000000000000000000000000000
00000000000000000001000000000000000000000000000000
00000000000000001111111100000000000000000000000000
00000000000001111111111110000000000000000000000000
00000000000011111111111111000000000000000000000000
00000000000111111111111111110000000000000000000000
00000000001111111111111111111000000000000000000000
00000000001111111111111111111000000000000000000000
00000000011111111111111111111100000000000000000000
00000000111111111111111111111100000000000000000000
00000000111111111100011111111110000000000000000000
00000000111111111000000111111111000000000000000000
00000000111111110000000111111111100000000000000000
00000000111111110000000011111111100000000000000000
00000000011111110000000001111111100000000000000000
00000000111111110000000001111111110000000000000000
00000000111111110000000001111111111000000000000000
00000000111111111000000000111111111000000000000000
00000000111111111000000000111111111100000000000000
00000000111111111000000000011111111100000000000000
00000000111111111000111111001111111100000000000000
00000000111111111001111111101111111100000000000000
00000000011111111001111111101111111110000000000000
00000000011111111100111111101111111110000000000000
00000000011111111110111111100111111111000000000000
00000000011111111100111111100011111111000000000000
00000000011111111100011111110011111111100000000000
00000000001111111100011111110011111111100000000000
00000000000111111111011111100011111111110000000000
00000000000111111111000111000011111111100000000000
00000000000111111111100000000011111111100000000000
00000000000111111111100000000001111111110000000000
00000000000011111111100000000001111111110000000000
00000000000011111111100000000001111111110000000000
00000000000000111111110000000001111111110000000000
00000000000000111111111000000011111111110000000000
00000000000000111111111100000011111111110000000000
00000000000000111111111111000111111111110000000000
00000000000000011111111111111111111111110000000000
00000000000000001111111111111111111111110000000000
00000000000000000111111111111111111111100000000000
00000000000000000011111111111111111111100000000000
00000000000000000001111111111111111111000000000000
00000000000000000000111111111111111110000000000000
00000000000000000000000111111111111000000000000000
00000000000000000000000000111001110000000000000000
00000000000000000000000000000000000000000000000000
00000000000000000000000000000000000000000000000000
00000000000000000000000000000000000000000000000000
00000000000000000000000000000000000000000000000000
00000000000000000000000000000000000000000000000000
00000000000000000000000000000000000000000000000000
00000000000000000000000000000000000000000000000000
00000000000000000000000000000000000000000000000000
00000000000000000000000000000000000000000000000000
00000000000000000000000000000000000000000000000000
00000000000000000000000000000000000000000000000000
00000000000000000000000000000000000000000000000000
00000000000000000000000000000000000000000000000000
