P1
50 70
00000000000000000000000000000000000000000000000000
00000000000000000000000000000000000000000000000000
00000000000000000000000000000000000000000000000000
00000000000000000000000000000000000000000000000000
00000000000000000000000000000000000000000000000000
00000000000000000000000000000000000000000000000000
00000000000000000000000000000000000000000000000000
00000000000000000000000000000000000000000000000000
00000000000000000000000000000000000000000000000000
00000000000000000000000000000000000000000000000000
00000000000000000000000000000000000000000000000000
00000000000000000000000000000000000000000000000000
00000000000000000000000000000000000000000000000000
00000000000000000000000000000010000000000000000000
00000000000000000000000000011111100000000000000000
00000000000000000000000011111111111000000000000000
00000000000000000000000111111111111100000000000000
00000000000000000000001111111111111110000000000000
00000000000000000001111111111111111110000000000000
00000000000000000001111111111111111110000000000000
00000000000000000111111111111111111110000000000000
00000000000000001111111111101111111110000000000000
00000000000000011111111100000111111110000000000000
00000000000000111111110000000001111110000000000000
00000000000000111111110000000001111111000000000000
00000000000000111111000000000001111111000000000000
00000000000001111111000000000001111111000000000000
00000000000001111110000000000000111111000000000000
00000000000011111110000000000000111111000000000000
00000000000011111110000000000000111111000000000000
00000000000111111110000000000001111111000000000000
00000000000011111100000000000001111110000000000000
00000000000011111100000000000001111110000000000000
00000000000011111100000001110001111110000000000000
00000000000011111100011111110001111110000000000000
00000000000111111100011111110000111110000000000000
00000000000111111000011111110000111110000000000000
00000000000011111000011111111000111110000000000000
00000000000011111000011111111001111110000000000000
00000000000011111100011111111001111110000000000000
00000000000011111100011111110001111100000000000000
00000000000011111110001110000001111110000000000000
00000000000011111110000000000001111110000000000000
00000000000001111110000000000001111110000000000000
00000000000001111110000000000001111100000000000000
00000000000001111110000000000001111100000000000000
00000000000001111100000000000011111000000000000000
00000000000001111110000000000011111000000000000000
00000000000000111111000000000011111000000000000000
00000000000000011111000000000111110000000000000000
00000000000000011111100000000111110000000000000000
00000000000000011111110000001111110000000000000000
00000000000000011111111001111111100000000000000000
00000000000000001111111111111111000000000000000000
00000000000000000111111111111110000000000000000000
00000000000000000011111111111100000000000000000000
00000000000000000011111111110000000000000000000000
00000000000000000000011111110000000000000000000000
00000000000000000000000010000000000000000000000000
00000000000000000000000000000000000000000000000000
00000000000000000000000000000000000000000000000000
00000000000000000000000000000000000000000000000000
00000000000000000000000000000000000000000000000000
00000000000000000000000000000000000000000000000000
00000000000000000000000000000000000000000000000000
00000000000000000000000000000000000000000000000000
00000000000000000000000000000000000000000000000000
00000000000000000000000000000000000000000000000000
00000000000000000000000000000000000000000000000000
00000000000000000000000000000000000000000000000000
