P1
50 70
00000000000000000000000000000000000000000000000000
00000000000000000000000000000000000000000000000000
00000000000000000000000000000000000000000000000000
00000000000000000000000000000000000000000000000000
00000000000000000000000000000000000000000000000000
00000000000000000000000000000000000000000000000000
00000000000000000000000000000000000000000000000000
00000000000000000000000000000000000000000000000000
00000000000000000000000000000000000000000000000000
00000000000000000000000000000000000000000000000000
00000000000000000000000000000000000000000000000000
00000000000000000000000000000000000000000000000000
00000000000000000000000000000000000000000000000000
00000000000000000000000000000000000000000000000000
00000000000000000000000000000000000000000000000000
00000000000000000000111011110000000000000000000000
00000000000000000011111111111111000000000000000000
00000000000000000111111111111111110000000000000000
00000000000000001111111111111111111000000000000000
00000000000000011111111111111111111000000000000000
00000000000000111111111111111111111110000000000000
00000000000000111111111111111111111110000000000000
00000000000001111111111111111111111110000000000000
00000000000011111111111111111111111110000000000000
00000000000001111111111100011111111111000000000000
00000000000001111111111000000111111111000000000000
00000000000001111111111000000111111111000000000000
00000000000011111111110000000111111111000000000000
00000000000011111111110000000111111111000000000000
00000000000011111111110000000011111111000000000000
00000000000011111111100000000011111111000000000000
00000000000001111111100000000011111110000000000000
00000000000001111111100000000111111111000000000000
00000000000001111111110000000111111110000000000000
00000000000001111111110111100111111110000000000000
00000000000001111111111111110011111110000000000000
00000000000000111111111111111111111110000000000000
00000000000000111111111111111111111100000000000000
00000000000000111111111111111111111100000000000000
00000000000001111111001111111111111100000000000000
00000000000001111111000111111111111000000000000000
00000000000001111111100011111111111100000000000000
00000000000001111111100000001111111100000000000000
00000000000000111111100000001111111000000000000000
00000000000000111111100000001111111000000000000000
00000000000000111111100000001111111000000000000000
00000000000000011111100000001111111000000000000000
00000000000000011111110000001111110000000000000000
00000000000000011111110000011111110000000000000000
00000000000000001111110000011111100000000000000000
00000000000000001111110000111111110000000000000000
00000000000000001111111000111111100000000000000000
00000000000000001111111101111111100000000000000000
00000000000000000111111111111111000000000000000000
00000000000000000111111111111111000000000000000000
00000000000000000011111111111110000000000000000000
00000000000000000001111111111100000000000000000000
00000000000000000001111111111000000000000000000000
00000000000000000000111111111000000000000000000000
00000000000000000000001111110000000000000000000000
00000000000000000000000100000000000000000000000000
00000000000000000000000000000000000000000000000000
00000000000000000000000000000000000000000000000000
00000000000000000000000000000000000000000000000000
00000000000000000000000000000000000000000000000000
00000000000000000000000000000000000000000000000000
00000000000000000000000000000000000000000000000000
00000000000000000000000000000000000000000000000000
00000000000000000000000000000000000000000000000000
00000000000000000000000000000000000000000000000000
