P1
50 70
00000000000000000000000000000000000000000000000000
00000000000000000000000000000000000000000000000000
00000000000000000000000000000000000000000000000000
00000000000000000000000000000000000000000000000000
00000000000000000000000000000000000000000000000000
00000000000000000000000000000000000000000000000000
00000000000000000000000000000000000000000000000000
00000000000000000000000000000000000000000000000000
00000000000000000000000000000000000000000000000000
00000000000000000010000000000000000000000000000000
00000000000001111110000000000000000000000000000000
00000000001111111110000000000000000000000000000000
00000111111111111110000000000000000000000000000000
00001111111111111110000000000000000000000000000000
00011111111111111111000000000000000000000000000000
01111111111111111111100000000000000000000000000000
11111111111111111111110000000000000000000000000000
11111111111111111111111000000000000000000000000000
11111111111111111111111000000000000000000000000000
11111111111111111111111000000000000000000000000000
01111111111111111111111000000000000000000000000000
01111111100111111111111100000000000000000000000000
01111111000011111111111100000000000000000000000000
00111100000001111111111100000000000000000000000000
00000000000000111111111110000000000000000000000000
00000000000000111111111111000000000000000000000000
00000000000000111111111111000000000000000000000000
00000000000000011111111111100000000000000000000000
00000000000000011111111111100000000000000000000000
00000000000000001111111111100000000000000000000000
00000000000000001111111111110000000000000000000000
00000000000000000111111111111000000000000000000000
00000000000000000011111111111000000000000000000000
00000000000000000011111111111000000000000000000000
00000000000000000001111111111000000000000000000000
00000000000000000001111111111100000000000000000000
00000000000000000001111111111110000000000000000000
00000000000000000001111111111111000000000000000000
00000000000000000000111111111111000000000000000000
00000000000000000000011111111111000000000000000000
00000000000000000000001111111111000000000000000000
00000000000000000000001111111111100000000000000000
00000000000000000000000111111111110000000000000000
00000000000000000000000111111111111000000000000000
00000000000000000000000111111111111000000000000000
00000000000000000000000111111111111000000000000000
00000000000000000000000111111111111100000000000000
00000000000000000000000001111111111110000000000000
00000000000000000000011111111111111111111110000000
00000000000000001111111111111111111111111111111100
00000000000000001111111111111111111111111111111100
00000000000000001111111111111111111111111111111110
00000000000000001111111111111111111111111111111110
00000000000000000111111111111111111111111111111110
00000000000000000111111111111111111111111111111111
00000000000000000011111111111111111111111111111111
00000000000000000000000000000000001000110011111111
00000000000000000000000000000000000000000000000001
00000000000000000000000000000000000000000000000000
00000000000000000000000000000000000000000000000000
00000000000000000000000000000000000000000000000000
00000000000000000000000000000000000000000000000000
00000000000000000000000000000000000000000000000000
00000000000000000000000000000000000000000000000000
00000000000000000000000000000000000000000000000000
00000000000000000000000000000000000000000000000000
00000000000000000000000000000000000000000000000000
00000000000000000000000000000000000000000000000000
00000000000000000000000000000000000000000000000000
00000000000000000000000000000000000000000000000000
