P1
50 70
00000000000000000000000000000000000000000000000000
00000000000000000000000000000000000000000000000000
00000000000000000000000000000000000000000000000000
00000000000000000000000000000000000000000000000000
00000000000000000000000000000000000000000000000000
00000000000000000000000000000000000000000000000000
00000000000000000000000000000000000000000000000000
00000000000000000000000000000000000000000000000000
00000000000000000000000000000000000000000000000000
00000000000000000000000000000111000000000000000000
00000000000000000000000000001111100000000000000000
00000000000000000000000011111111100000000000000000
00000000000000000000001111111111100000000000000000
00000000000000000000011111111111100000000000000000
00000000000000000011111111111111100000000000000000
00000000000000001111111111111111100000000000000000
00000000000000011111111111111111100000000000000000
00000000000001111111111111111111110000000000000000
00000000000001111111111111111111110000000000000000
00000000000011111111111111111111110000000000000000
00000000000011111111111111111111110000000000000000
00000000000011111111111111111111110000000000000000
00000000000111111111111111111111110000000000000000
00000000000111111111111111111111110000000000000000
00000000000011111111111111111111111000000000000000
00000000000011111111011111111111111000000000000000
00000000000011111100001111111111111000000000000000
00000000000011111000001111111111111000000000000000
00000000000011000000001111111111111000000000000000
00000000000000000000001111111111111000000000000000
00000000000000000000001111111111110000000000000000
00000000000000000000001111111111110000000000000000
00000000000000000000001111111111111000000000000000
00000000000000000000000111111111111100000000000000
00000000000000000000000111111111111100000000000000
00000000000000000000001111111111111100000000000000
00000000000000000000001111111111111000000000000000
00000000000000000000001111111111111000000000000000
00000000000000000000001111111111111000000000000000
00000000000000000000001111111111111000000000000000
00000000000000000000000111111111111000000000000000
00000000000000000000000111111111111100000000000000
00000000000000000000000111111111111100000000000000
00000000000000000000001111111111111100000000000000
00000000000000000000001111111111111110000000000000
00000000000000000000001111111111111100000000000000
00000000000000000000001111111111111100000000000000
00000000000000000000000111111111111100000000000000
00000000000000000000001111111111111100000000000000
00000000000000000000001111111111111100000000000000
00000000000000000000001111111111111100000000000000
00000000000000000000001111111111111100000000001100
00000000000000000000001111111111111111111111111100
00000000000000000000000111111111111111111111111100
00000000000000000000000111111111111111111111111100
00000000000000000000001111111111111111111111111100
00000000000000000011111111111111111111111111111100
00000000000000001111111111111111111111111111111110
00000000000011111111111111111111111111111111111110
00000000000111111111111111111111111111111111111110
00000000000111111111111111111111111111111111111000
00000000000111111111111111111111111111111110000000
00000000000111111111111111111111111111110000000000
00000000000111111111111111111110000000000000000000
00000000001111111111111111110000000000000000000000
00000000001111111111100000000000000000000000000000
00000000001111111111000000000000000000000000000000
00000000000100000000000000000000000000000000000000
00000000000000000000000000000000000000000000000000
00000000000000000000000000000000000000000000000000
