P1
50 70
00000000000000000000000000000000000000000000000000
00000000000000000000000000000000000000000000000000
00000000000000000000000000000000000000000000000000
00000000000000000000000000000000000000000000000000
00000000000000000000000000000000000000000000000000
00000000000000000000000000000000000000000000000000
00000000000000000000000000000000000000000000000000
00000000000000000000000000000000000000000000000000
00000000000000000000000000000000000000000000000000
00000000000000000000000000000000000000000000000000
00000000000000000000000000000000000000000000000000
00000000000000000000000000000000000000000000000000
00000000000000000000000000000000000000000000000000
00000000000000000000000000000000000000000000000000
00000000000000000000000000000000000000000000000000
00000000000000000000000000000000000000000000000000
00000000000000000000111100000000000000000000000000
00000000000000000001111110000000000000000000000000
00000000000000000011111110000000000000000000000000
00000000000000000111111110000000000000000000000000
00000000000000000111111110000000000000000000000000
00000000000000001111111111000000000000000000000000
00000000000000011111111111000000000000000000000000
00000000000000001111111111100000000000000000000000
00000000000000011111111111100000000000000000000000
00000000000000111110111111100000000000000000000000
00000000000001111100011111100000000000000000000000
00000000000001111000011111100000000000000000000000
00000000000001111000011111100000000000000000000000
00000000000001111000011111100000000000000000000000
00000000000001110000011111100000000000000000000000
00000000000000000000011111110000000000000000000000
00000000000000000000011111111000000000000000000000
00000000000000000000001111111000000000000000000000
00000000000000000000000111111000000000000000000000
00000000000000000000000111111000000000000000000000
00000000000000000000000111111100000000000000000000
00000000000000000000000111111110000000000000000000
00000000000000000000000111111110000000000000000000
00000000000000000000000011111110000000000000000000
00000000000000000000000001111110000000000000000000
00000000000000000000000001111111000000000000000000
00000000000000000000000001111111100000000000000000
00000000000000000000000001111111100000000000000000
00000000000000000000000001111111100000000000000000
00000000000000000000000001111111100000000000000000
00000000000000000000000000111111110000000000000000
00000000000000000000000000111111110000000000000000
00000000000000000000000000111111110000000000000000
00000000000000000000000000011111111000000000000000
00000000000000000000000000011111111000000000000000
00000000000000000000000000001111111100000000000000
00000000000000000000000000001111111100000000000000
00000000000000000000000000001111111100000000000000
00000000000000000000000000001111111100000000000000
00000000000000000000000000011111111000000000000000
00000000000000000000011011111111111111000000000000
00000000000000000000011111111111111111111111100000
00000000000000000000011111111111111111111111110000
00000000000000000000001100111111111111111111110000
00000000000000000000000000000000000001110011111000
00000000000000000000000000000000000000000001111000
00000000000000000000000000000000000000000000000000
00000000000000000000000000000000000000000000000000
00000000000000000000000000000000000000000000000000
00000000000000000000000000000000000000000000000000
00000000000000000000000000000000000000000000000000
00000000000000000000000000000000000000000000000000
00000000000000000000000000000000000000000000000000
00000000000000000000000000000000000000000000000000
