P1
50 70
00000000000000000000000000000000000000000000000000
00000000000000000000000000000000000000000000000000
00000000000000000000000000000000000000000000000000
00000000000000000000000000000000000000000000000000
00000000000000000000000000000000000000000000000000
00000000000000000000000000000000000000000000000000
00000000000000000000000000000000000000000000000000
00000000000000000000000000000000000000000000000000
00000000000000000000000000000000000000000000000000
00000000000000000000000000000000000000000000000000
00000000000000000000000000000000000000000000000000
00000000000000000000000000000000000000000000000000
00000000000000000000000000000000000000000000000000
00000000000000000000000000000000000000000000000000
00000000000000000000000000000000000000000000000000
00000000000000000000000000000000000000000000000000
00000000000000000000000000000000000000000000000000
00000000000000011100000000000000000000000000000000
00000000000000111110000000000000000000000000000000
00000000000011111111000000000000000000000000000000
00000000000111111111000000000000000000000000000000
00000000011111111111100000000000000000000000000000
00000000111111111111100000000000000000000000000000
00000001111111111111100000000000000000000000000000
00000001111111111111100000000000000000000000000000
00000111111111111111100000000000000000000000000000
00001111111110111111111000000000000000000000000000
00011111111100011111111000000000000000000000000000
00011111111000011111111000000000000000000000000000
00011111110000001111111000000000000000000000000000
00011111000000001111111100000000000000000000000000
00011110000000000111111100000000000000000000000000
00011100000000000111111110000000000000000000000000
00000000000000000111111110000000000000000000000000
00000000000000000011111110000000000000000000000000
00000000000000000001111111000000000000000000000000
00000000000000000000111111100000000000000000000000
00000000000000000000111111100000000000000000000000
00000000000000000000111111110000000000000000000000
00000000000000000000011111111000000000000000000000
00000000000000000000001111111000000000000000000000
00000000000000000000001111111000000000000000000000
00000000000000000000001111111000000000000000000000
00000000000000000000001111111100000000000000000000
00000000000000000000000111111110000000000000000000
00000000000000000000000011111110000000000000000000
00000000000000000000000001111110000000000000000000
00000000000000000000000001111111000000000000000000
00000000000000000000000000111111000000000000000000
00000000000000000000000000111111000000000000000000
00000000000000000000000000111111100000000000000000
00000000000000000000000000011111100000000000000000
00000000000000000000000000011111110000000000000000
00000000000000000000000000001111110000000000000000
00000000000000000000000000001111110000001000000000
00000000000000000000000000001111111011111111100000
00000000000000000000000000001111111111111111100000
00000000000000000000000001111111111111111111100000
00000000000000000000001111111111111111111111110000
00000000000000000000001111111111111111111111110000
00000000000000000000001111111111111111110000000000
00000000000000000000001111111111000100000000000000
00000000000000000000000111100110000000000000000000
00000000000000000000000000000000000000000000000000
00000000000000000000000000000000000000000000000000
00000000000000000000000000000000000000000000000000
00000000000000000000000000000000000000000000000000
00000000000000000000000000000000000000000000000000
00000000000000000000000000000000000000000000000000
00000000000000000000000000000000000000000000000000
