P1
50 70
00000000000000000000000000000000000000000000000000
00000000000000000000000000000000000000000000000000
00000000000000000000000000000000000000000000000000
00000000000000000000000000000000000000000000000000
00000000000000000000000000000000000000000000000000
00000000000000000000000000000000000000000000000000
00000000000000000000000000000000000000000000000000
00000000000000000000000000000000000000000000000000
00000000000000000000000000000000000000000000000000
00000000000000000000000000000000000000000000000000
00000000000000000000000000000000000000000000000000
00000000000000000000000000000000000000000000000000
00000000000000000000000000000000000000000000000000
00000000000000000000000000000000000000000000000000
00000000000000000000000000000000000000000000000000
00000000000000000000000000000000000000000000000000
00000000000000000000000000000000000000000000000000
00000000000000000000000000000000000000000000000000
00000000000000000000000000000000000000000000000000
00000000000000000000000000000000000000000000000000
00000000000000000000000000000000000000000000000000
00000000000000000000000000000000000000000000000000
00000000000000000000000000000000000000000000000000
00000000000000000000000000000000000000000000000000
00000000000000011000000000000000000000000000000000
00000000000000111100000000000000000000000000000000
00000000000001111100000000000000000000000000000000
00000000000011111110000000000000000000000000000000
00000000000111111111000000000000000000000000000000
00000000000111111111000000000000000000000000000000
00000000001111101111100000000000000000000000000000
00000000011111001111100000000000000000000000000000
00000000011110001111100000000000000000000000000000
00000000011100000111110000000000000000000000000000
00000001111100000011111000000000000000000000000000
00000001111000000001111000000000000000000000000000
00000011110000000001111000000000000000000000000000
00000011100000000001111000000000000000000000000000
00000011100000000001111000000000000000000000000000
00000000000000000000111100000000000000000000000000
00000000000000000000111110000000000000000000000000
00000000000000000000011111000000000000000000000000
00000000000000000000011111000000000000000000000000
00000000000000000000011111000000000000000000000000
00000000000000000000001111100000000000000000000000
00000000000000000000001111110000000000000000000000
00000000000000000000001111110000000000000000000000
00000000000000000000000111110000000000000000000000
00000000000000000000000011110000000000000000000000
00000000000000000000000011111000000000000000000000
00000000000000000000000001111100000000000000000000
00000000000000000000000001111100000000000000000000
00000000000000000000000000111110000000000000000000
00000000000000000000000000111110000000000000000000
00000000000000000000000000011111000000000000000000
00000000000000000000000000011111000000011111000000
00000000000000000000000000011111000000011111100000
00000000000000000000000000011111100111111111000000
00000000000000000000000000001111111111111000000000
00000000000000000000000000000111111111110000000000
00000000000000000000000000000111111111000000000000
00000000000000000000000000111111110000000000000000
00000000000000000000000011111111000000000000000000
00000000000000000000001111111100000000000000000000
00000000000000000000111111111000000000000000000000
00000000000000000001111100000000000000000000000000
00000000000000000000110000000000000000000000000000
00000000000000000000000000000000000000000000000000
00000000000000000000000000000000000000000000000000
00000000000000000000000000000000000000000000000000
