P1
50 70
00000000000000000000000000000000000000000000000000
00000000000000000000000000000000000000000000000000
00000000000000000000000000000000000000000000000000
00000000000000000000000000000000000000000000000000
00000000000000000000000000000000000000000000000000
00000000000000000000000000000000000000000000000000
00000000000000000000000000000000000000000000000000
00000000000000000000000000000000000000000000000000
00000000000000000000000000000000000000000000000000
00000000000000000000000000000000000000000000000000
00000000000000000000000000000000000000000000000000
00000000000000000000000000000000000000000000000000
00000000000000000000000000000000000000000000000000
00000000000001100000000000000000000000000000000000
00000000000001100000000000000000000000000000000000
00000000000011110000000000000000000000000000000000
00000000000111111100000000000000000000000000000000
00000000001111111100000000000000000000000000000000
00000000001111111100000000000000000000000000000000
00000000011111111110000000000000000000000000000000
00000000011110111110000000000000000000000000000000
00000000111110011111000000000000000000000000000000
00000000111100011111000000000000000000000000000000
00000001111100001111000000000000000000000000000000
00000011111000001111100000000000000000000000000000
00000011110000000111110000000000000000000000000000
00000001110000000111110000000000000000000000000000
00000000100000000011110000000000000000000000000000
00000000000000000011110000000000000000000000000000
00000000000000000011111000000000000000000000000000
00000000000000000001111000000000000000000000000000
00000000000000000001111000000000000000000000000000
00000000000000000001111100000000000000000000000000
00000000000000000000111100000000000000000000000000
00000000000000000000011110000000000000000000000000
00000000000000000000011110000000000000000000000000
00000000000000000000011110000000000000000000000000
00000000000000000000011110000000000000000000000000
00000000000000000000001110000000000000000000000000
00000000000000000000001111100000000000000000000000
00000000000000000000000111100000000000000000000000
00000000000000000000000111100000000000000000000000
00000000000000000000000111111000000000000000000000
00000000000000000000000011111100000000000000000000
00000000000000000000000011111100000000000000000000
00000000000000000000000001111100000000000000000000
00000000000000000000000000111100000000000000000000
00000000000000000000000000111110000000000000000000
00000000000000000000000000011110000000000000000000
00000000000000000000000000011110000000000000000000
00000000000000000000000000011111000000000000000000
00000000000000000000000000001111000000000000000000
00000000000000000000000000000111100000000000000000
00000000000000000000000000000111100000000000000000
00000000000000000000000000000111100000000000000000
00000000000000000000000000000111100000000000000000
00000000000000000000000000000011110000000000011000
00000000000000000000000000000011111000000011111100
00000000000000000000000000000001111100001111111100
00000000000000000000000000000001111111111111111000
00000000000000000000000000000001111111111100000000
00000000000000000000000000000011111111110000000000
00000000000000000000000000111111111110000000000000
00000000000000000000001111111111100000000000000000
00000000000000000000011111111100000000000000000000
00000000000000000000111111110000000000000000000000
00000000000000000000011100000000000000000000000000
00000000000000000000000000000000000000000000000000
00000000000000000000000000000000000000000000000000
00000000000000000000000000000000000000000000000000
