P1
50 70
00000000000000000000000000000000000000000000000000
00000000000000000000000000000000000000000000000000
00000000000000000000000000000000000000000000000000
00000000000000000000000000000000000000000000000000
00000000000000000000000000000000000000000000000000
00000000000000000000000000000000000000000000000000
00000000000000000000000000000000000000000000000000
00000000000000000000000000000000000000000000000000
00000000000000000000000000000000000000000000000000
00000000000000000000000000000000000000000000000000
00000000000000000000000000000000000000000000000000
00000000000000000000000000000000000000000000000000
00000000000000000000000000000000000000000000000000
00000000000000000000000000000000000000000000000000
00000000000000000000000000000000000000000000000000
00000000000000000000000000000000000000000000000000
00000000000000000000000000000000000000000000000000
00000000000000000000000000000000000000000000000000
00000000000000000000000001110000000000000000000000
00000000000000000000000001110000000000000000000000
00000000000000000000000011110000000000000000000000
00000000000000000000000111110000000000000000000000
00000000000000000000001111111000000000000000000000
00000000000000000000011111111000000000000000000000
00000000000000000000011111111000000000000000000000
00000000000000000000111111111000000000000000000000
00000000000000000001111111111000000000000000000000
00000000000000000001111111111000000000000000000000
00000000000000000011111111111000000000000000000000
00000000000000000011101111111000000000000000000000
00000000000000000111101111111000000000000000000000
00000000000000001111001111111000000000000000000000
00000000000000011110001111111000000000000000000000
00000000000000011100000011111000000000000000000000
00000000000000011000000011111000000000000000000000
00000000000000000000000111111000000000000000000000
00000000000000000000000111111100000000000000000000
00000000000000000000000111111100000000000000000000
00000000000000000000000111111100000000000000000000
00000000000000000000000111111000000000000000000000
00000000000000000000000011111000000000000000000000
00000000000000000000000011111000000000000000000000
00000000000000000000000011111000000000000000000000
00000000000000000000000011111100000000000000000000
00000000000000000000000111111100000000000000000000
00000000000000000000000111111100000000000000000000
00000000000000000000000111111100000000000000000000
00000000000000000000000011111100000000000000000000
00000000000000000000000011111100000000000000000000
00000000000000000000000011111100000000000000000000
00000000000000000000000011111000000000000000000000
00000000000000000000000011111100000000000000000000
00000000000000000000000011111100000000000000000000
00000000000000000000000011111100000000000000000000
00000000000000000000000011111100000000000000000000
00000000000000000000000011111100001100000000000000
00000000000000000000000011111100111110000000000000
00000000000000000000000011111111111100000000000000
00000000000000000000000001111111110000000000000000
00000000000000000000000011111111000000000000000000
00000000000000000000000111111110000000000000000000
00000000000000000000001111111000000000000000000000
00000000000000000000111111000000000000000000000000
00000000000000000011111100000000000000000000000000
00000000000000000011110000000000000000000000000000
00000000000000000011100000000000000000000000000000
00000000000000000000000000000000000000000000000000
00000000000000000000000000000000000000000000000000
00000000000000000000000000000000000000000000000000
00000000000000000000000000000000000000000000000000
