P1
50 70
00000000000000000000000000000000000000000000000000
00000000000000000000000000000000000000000000000000
00000000000000000000000000000000000000000000000000
00000000000000000000000000000000000000000000000000
00000000000000000000000000000000000000000000000000
00000000000000000000000000000000000000000000000000
00000000000000000000000000000000000000000000000000
00000000000000000000000000000000000000000000000000
00000000000000000000000000000000000000000000000000
00000000000000000000000000000000000000000000000000
00000000000000000000000000000000000000000000000000
00000000000000000000000000000000000000000000000000
00000000000000000000000000000000000000000000000000
00000000000000000000000000000000000000000000000000
00000000000000001000000000000000000000000000000000
00000000000000111110000000000000000000000000000000
00000000000111111110000000000000000000000000000000
00000000111111111111000000000000000000000000000000
00000001111111111111100000000000000000000000000000
00000011111111111111100000000000000000000000000000
00001111111111111111110000000000000000000000000000
01111111111111111111110000000000000000000000000000
01111111111111111111110000000000000000000000000000
11111111111101111111110000000000000000000000000000
01111111110000011111110000000000000000000000000000
01111111100000011111111100000000000000000000000000
01111110000000001111111100000000000000000000000000
00111100000000001111111100000000000000000000000000
00000000000000000111111110000000000000000000000000
00000000000000000111111110000000000000000000000000
00000000000000000111111111000000000000000000000000
00000000000000000011111111100000000000000000000000
00000000000000000001111111100000000000000000000000
00000000000000000001111111100000000000000000000000
00000000000000000000111111100000000000000000000000
00000000000000000000111111110000000000000000000000
00000000000000000000011111110000000000000000000000
00000000000000000000011111111000000000000000000000
00000000000000000000001111111000000000000000000000
00000000000000000000001111111000000000000000000000
00000000000000000000000111111110000000000000000000
00000000000000000000000011111110000000000000000000
00000000000000000000000011111110000000000000000000
00000000000000000000000011111111000000000000000000
00000000000000000000000011111111100000000000000000
00000000000000000000000001111111100000000000000000
00000000000000000000000000111111100000000000000000
00000000000000000000000000011111100000000000000000
00000000000000000000000000011111100000000000000000
00000000000000000000000000011111111000000000000000
00000000000000000000000000000111111000000000000000
00000000000000000000000000000111111000000000000000
00000000000000000000000000000111111000000000000000
00000000000000000000000000000111111000000000000000
00000000000000000000000000000011111110000000000000
00000000000000000000000000000111111111111000100000
00000000000000000000001100111111111111111111110000
00000000000000000000001111111111111111111111110000
00000000000000000000001111111111111111111111110000
00000000000000000000000111111111111111111111111000
00000000000000000000000111111111111111111111111000
00000000000000000000000011110110000011000000000000
00000000000000000000000000000000000000000000000000
00000000000000000000000000000000000000000000000000
00000000000000000000000000000000000000000000000000
00000000000000000000000000000000000000000000000000
00000000000000000000000000000000000000000000000000
00000000000000000000000000000000000000000000000000
00000000000000000000000000000000000000000000000000
00000000000000000000000000000000000000000000000000
