P1
50 70
00000000000000000000000000000000000000000000000000
00000000000000000000000000000000000000000000000000
00000000000000000000000000000000000000000000000000
00000000000000000000000000000000000000000000000000
00000000000000000000000000000000000000000000000000
00000000000000000000000000000000000000000000000000
00000000000000000000000000000000000000000000000000
00000000000000000000000000000000000000000000000000
00000000000000000000000000000000000000000000000000
00000000000000000000000000000000000000000000000000
00000000000000000000000000000000000000000000000000
00000000000000000000000000000000000000000000000000
00000000000000000000000000000000000000000000000000
00000000000000000000000000000000000000000000000000
00000000000000000000001111100000000000000000000000
00000000000000000011111111110000000000000000000000
00000000000000011111111111110000000000000000000000
00000001111111111111111111110000000000000000000000
00000111111111111111111111110000000000000000000000
00001111111111111111111111111000000000000000000000
00001111111111111111111111111000000000000000000000
00001111111111111111111111111000000000000000000000
00000111111111111111111111111100000000000000000000
00000111111111111111111111111100000000000000000000
00000111111111111111111111111000000000000000000000
00000111111111111111111111111000000000000000000000
00000111110000001111111111111100000000000000000000
00000001100000001111111111111100000000000000000000
00000000000000000111111111111110000000000000000000
00000000000000000011111111111100000000000000000000
00000000000000000011111111111100000000000000000000
00000000000000000111111111111100000000000000000000
00000000000000000111111111111100000000000000000000
00000000000000000111111111111100000000000000000000
00000000000000000001111111111100000000000000000000
00000000000000000001111111111100000000000000000000
00000000000000000001111111111110000000000000000000
00000000000000000011111111111110000000000000000000
00000000000000000001111111111110000000000000000000
00000000000000000001111111111110000000000000000000
00000000000000000001111111111110000000000000000000
00000000000000000000111111111110000000000000000000
00000000000000000000111111111110000000000000000000
00000000000000000000111111111111000000000000000000
00000000000000000000111111111111000000000000000000
00000000000000000000111111111111000000000000000000
00000000000000000000111111111111000000000000000000
00000000000000000000111111111111000000000000000000
00000000000000000000011111111111000000000000000000
00000000000000000000011111111111000000000000000000
00000000000000000000011111111111100000000000000000
00000000000000000000011111111111100000000000000000
00000000000001110000111111111111100000000000000000
00000000000011111111111111111111111001100000000000
00000000000001111111111111111111111111111100000000
00000000000001111111111111111111111111111110000000
00000000000000111111111111111111111111111100000000
00000000000000111111111111111111111111111100000000
00000000000000111111111111111111111111111100000000
00000000000000011111111111111111111111111100000000
00000000000000000000100100111111111111111100000000
00000000000000000000000000000001000111111100000000
00000000000000000000000000000000000000010000000000
00000000000000000000000000000000000000000000000000
00000000000000000000000000000000000000000000000000
00000000000000000000000000000000000000000000000000
00000000000000000000000000000000000000000000000000
00000000000000000000000000000000000000000000000000
00000000000000000000000000000000000000000000000000
00000000000000000000000000000000000000000000000000
