P1
50 70
00000000000000000000000000000000000000000000000000
00000000000000000000000000000000000000000000000000
00000000000000000000000000000000000000000000000000
00000000000000000000000000000000000000000000000000
00000000000000000000000000000000000000000000000000
00000000000000000000000000000000000000000000000000
00000000000000000000000000000000000000000000000000
00000000000000000000000000000000000000000000000000
00000000000000000000000000000000000000000000000000
00000000000000000000000000000000000000000000000000
00000000000000000000000000000000000000000000000000
00000000000000000000000000000000000000000000000000
00000000000000000000000000000000000000000000000000
00000000000000000000000000000000000000000000000000
00000000000000000000000000000000000000000000000000
00000000000000000000000000000000000000000000000000
00000000000000000000000000000000000000000000000000
00000000000000000000000000000000000000000000000000
00000000000000000000000000000000000000000000000000
00000000000000000011100000000000000000000000000000
00000000000000000111111000000000000000000000000000
00000000000000001111111100000000000000000000000000
00000000000000111111111100000000000000000000000000
00000000011111111111111000000000000000000000000000
00000001111111111111111100000000000000000000000000
00000001111111111111111100000000000000000000000000
00000000111111111001111100000000000000000000000000
00000000111111110000111100000000000000000000000000
00000000111000000000111100000000000000000000000000
00000000000000000000111100000000000000000000000000
00000000000000000000111110000000000000000000000000
00000000000000000000111111000000000000000000000000
00000000000000000000111111000000000000000000000000
00000000000000000000011111000000000000000000000000
00000000000000000000011111000000000000000000000000
00000000000000000000011111000000000000000000000000
00000000000000000000011111000000000000000000000000
00000000000000000000011111000000000000000000000000
00000000000000000000011111100000000000000000000000
00000000000000000000011111100000000000000000000000
00000000000000000000001111100000000000000000000000
00000000000000000000001111110000000000000000000000
00000000000000000000000111110000000000000000000000
00000000000000000000000111110000000000000000000000
00000000000000000000000111111000000000000000000000
00000000000000000000000111111000000000000000000000
00000000000000000000000111111000000000000000000000
00000000000000000000000011111000000000000000000000
00000000000000000000000011111100000000000000000000
00000000000010000000000011111100000000000000000000
00000000001111111100111111111110000000000000000000
00000000000111111111111111111111000000000000000000
00000000000111111111111111111111111101111000000000
00000000000011111111111111111111111111111100000000
00000000000000000110111111111111111111111110000000
00000000000000000000000000000011111111111111000000
00000000000000000000000000000000000000000110000000
00000000000000000000000000000000000000000000000000
00000000000000000000000000000000000000000000000000
00000000000000000000000000000000000000000000000000
00000000000000000000000000000000000000000000000000
00000000000000000000000000000000000000000000000000
00000000000000000000000000000000000000000000000000
00000000000000000000000000000000000000000000000000
00000000000000000000000000000000000000000000000000
00000000000000000000000000000000000000000000000000
00000000000000000000000000000000000000000000000000
00000000000000000000000000000000000000000000000000
00000000000000000000000000000000000000000000000000
00000000000000000000000000000000000000000000000000
