P1
50 70
00000000000000000000000000000000000000000000000000
00000000000000000000000000000000000000000000000000
00000000000000000000000000000000000000000000000000
00000000000000000000000000000000000000000000000000
00000000000000000000000000000000000000000000000000
00000000000000000000000000000000000000000000000000
00000000000000000000000000000000000000000000000000
00000000000000000000000000000000000000000000000000
00000000000000000000000000000000000000000000000000
00000000000000000000000000000000000000000000000000
00000000000000000000000000000000000000000000000000
00000000000000000000000000000000000000000000000000
00000000000000000000000000000000000000000000000000
00000000000000000000000000000000000000000000000000
00000000000000001111000000000000000000000000000000
00000000000000011111000000000000000000000000000000
00000000000000111111000000000000000000000000000000
00000000000001111111000000000000000000000000000000
00000000000011111111100000000000000000000000000000
00000000000111111111100000000000000000000000000000
00000000001111111111110000000000000000000000000000
00000000011111000011110000000000000000000000000000
00000000011110000011110000000000000000000000000000
00000000111100000011110000000000000000000000000000
00000001111100000011110000000000000000000000000000
00000011110000000001111000000000000000000000000000
00000000100000000000111000000000000000000000000000
00000000000000000000111100000000000000000000000000
00000000000000000000111100000000000000000000000000
00000000000000000000111100000000000000000000000000
00000000000000000000011100000000000000000000000000
00000000000000000000011100000000000000000000000000
00000000000000000000011110000000000000000000000000
00000000000000000000001111000000000000000000000000
00000000000000000000000111000000000000000000000000
00000000000000000000000111000000000000000000000000
00000000000000000000000111000000000000000000000000
00000000000000000000000111000000000000000000000000
00000000000000000000000111100000000000000000000000
00000000000000000000000011110000000000000000000000
00000000000000000000000001110000000000000000000000
00000000000000000000000001110000000000000000000000
00000000000000000000000001110000000000000000000000
00000000000000000000000001111000000000000000000000
00000000000000000000000001111100000000000000000000
00000000000000000000000000011100000000000000000000
00000000000000000000000000011100000000000000000000
00000000000000000000000000011110000000000000000000
00000000000000000000000000011110000000000000000000
00000000000000000000000000011110000000000000000000
00000000000000000000000000011111000000000000000000
00000000000000000000000000001111100000000000000000
00000000000000000000000000000111100000000000000000
00000000000000000000000000000111100000001000000000
00000000000000000000000000000111100011111100000000
00000000000000000000000000000111111111111110000000
00000000000000000000000000000111111111111100000000
00000000000000000000000000000111111111100000000000
00000000000000000000000011111111110000000000000000
00000000000000000000001111111111000000000000000000
00000000000000000000001111110000000000000000000000
00000000000000000000001000000000000000000000000000
00000000000000000000000000000000000000000000000000
00000000000000000000000000000000000000000000000000
00000000000000000000000000000000000000000000000000
00000000000000000000000000000000000000000000000000
00000000000000000000000000000000000000000000000000
00000000000000000000000000000000000000000000000000
00000000000000000000000000000000000000000000000000
00000000000000000000000000000000000000000000000000
