P1
50 70
00000000000000000000000000000000000000000000000000
00000000000000000000000000000000000000000000000000
00000000000000000000000000000000000000000000000000
00000000000000000000000000000000000000000000000000
00000000000000000000000000000000000000000000000000
00000000000000000000000000000000000000000000000000
00000000000000000000000000000000000000000000000000
00000000000000000000000000000000000000000000000000
00000000000000000000000000000000000000000000000000
00000000000000000000000000000000000000000000000000
00000000000000000000000000000000000000000000000000
00000000000000000000000000000000000000000000000000
00000000000000000000000000000000000000000000000000
00000000000000000000000000000000000000000000000000
00000000000000000000000000000000000000000000000000
00000000000000000000000000000000000000000000000000
00000000000000000000000000000000001110000000000000
00000000000000000000000000000000011110000000000000
00000000000000000000000000000011111110000000000000
00000000000000000000000000011111111110000000000000
00000000000000000000000000011111111110000000000000
00000000000000000000000000111111111110000000000000
00000000000000000000000001111111111110000000000000
00000000000000000000000011111111111100000000000000
00000000000000000000000111111111111110000000000000
00000000000000000000000111111111111110000000000000
00000000000000000000001111111111111100000000000000
00000000000000000000011111111111111100000000000000
00000000000000000001111111111111111100000000000000
00000000000000000011111111111111111100000000000000
00000000000000001111111111111111111100000000000000
00000000000011111111111111111111111000000000000000
00000000000011111111111101111111111000000000000000
00000000000011111111111000111111111100000000000000
00000000000011111111100000111111111100000000000000
00000000000011111111000001111111111000000000000000
00000000000001111100000001111111111000000000000000
00000000000000000000000001111111111000000000000000
00000000000000000000000001111111110000000000000000
00000000000000000000000000111111110000000000000000
00000000000000000000000001111111110000000000000000
00000000000000000000000001111111110000000000000000
00000000000000000000000011111111110000000000000000
00000000000000000000000011111111110000000000000000
00000000000000000000000011111111110000000000000000
00000000000000000000000011111111110000000000000000
00000000000000000000000011111111110000000000000000
00000000000000000000000011111111100000000000000000
00000000000000000000000011111111100000000000000000
00000000000000000000000011111111100000000000000000
00000000000000000000000011111111110000000000000000
00000000000000000000000011111111100000000000000000
00000000000000000000000011111111100000000000000000
00000000000000000000000111111111100001111100000000
00000000000011111110111111111111111111111100000000
00000000000011111111111111111111111111111100000000
00000000000111111111111111111111111111111110000000
00000000000011111111111111111111111111111100000000
00000000000011111111111111111111111111111100000000
00000000000011111111111100111111111111111100000000
00000000000001100000000000000111000000010000000000
00000000000000000000000000000000000000000000000000
00000000000000000000000000000000000000000000000000
00000000000000000000000000000000000000000000000000
00000000000000000000000000000000000000000000000000
00000000000000000000000000000000000000000000000000
00000000000000000000000000000000000000000000000000
00000000000000000000000000000000000000000000000000
00000000000000000000000000000000000000000000000000
00000000000000000000000000000000000000000000000000
