P1
50 70
00000000000000000000000000000000000000000000000000
00000000000000000000000000000000000000000000000000
00000000000000000000000000000000000000000000000000
00000000000000000000000000000000000000000000000000
00000000000000000000000000000000000000000000000000
00000000000000000000000000000000000000000000000000
00000000000000000000000000000000000000000000000000
00000000000000000000000000000000000000000000000000
00000000000000000000000000000000000000000000000000
00000000000000000000000000000000000000000000000000
00000000000000000000000000000000000000000000000000
00000000000000000000000000000000000000000000000000
00000000000000000000000000000000000000000000000000
00000000000000000000000000000000000000000000000000
00000000000001100000000000000000000000000000000000
00000000000111110000000000000000000000000000000000
00000001111111111000000000000000000000000000000000
00000011111111111000000000000000000000000000000000
00000111111111111000000000000000000000000000000000
01111111111111111000000000000000000000000000000000
01111111111111111000000000000000000000000000000000
01111111110111111100000000000000000000000000000000
00111111100011111110000000000000000000000000000000
00011100000011111110000000000000000000000000000000
00000000000001111111000000000000000000000000000000
00000000000001111111100000000000000000000000000000
00000000000000111111110000000000000000000000000000
00000000000000111111110000000000000000000000000000
00000000000000111111110000000000000000000000000000
00000000000000011111110000000000000000000000000000
00000000000000011111111000000000000000000000000000
00000000000000001111111000000000000000000000000000
00000000000000001111111100000000000000000000000000
00000000000000000111111100000000000000000000000000
00000000000000000011111110000000000000000000000000
00000000000000000001111111000000000000000000000000
00000000000000000001111111000000000000000000000000
00000000000000000001111111000000000000000000000000
00000000000000000001111111100000000000000000000000
00000000000000000000111111110000000000000000000000
00000000000000000000111111110000000000000000000000
00000000000000000000011111110000000000000000000000
00000000000000000000011111111000000000000000000000
00000000000000000000001111111100000000000000000000
00000000000000000000001111111110000000000000000000
00000000000000000000001111111110000000000000000000
00000000000000000000001111111110000000000000000000
00000000000000000000000111111111000000000000000000
00000000000000000000000001111111000000000000000000
00000000000000000000000001111111000000000000000000
00000000000000000000111011111111110000000000000000
00000000000000011111111111111111111111111100010000
00000000000000011111111111111111111111111111111000
00000000000000011111111111111111111111111111111000
00000000000000000111111111111111111111111111111100
00000000000000000000000000000000111101111111111110
00000000000000000000000000000000000000000010001110
00000000000000000000000000000000000000000000000000
00000000000000000000000000000000000000000000000000
00000000000000000000000000000000000000000000000000
00000000000000000000000000000000000000000000000000
00000000000000000000000000000000000000000000000000
00000000000000000000000000000000000000000000000000
00000000000000000000000000000000000000000000000000
00000000000000000000000000000000000000000000000000
00000000000000000000000000000000000000000000000000
00000000000000000000000000000000000000000000000000
00000000000000000000000000000000000000000000000000
00000000000000000000000000000000000000000000000000
00000000000000000000000000000000000000000000000000
