P1
50 70
00000000000000000000000000000000000000000000000000
00000000000000000000000000000000000000000000000000
00000000000000000000000000000000000000000000000000
00000000000000000000000000000000000000000000000000
00000000000000000000000000000000000000000000000000
00000000000000000000000000000000000000000000000000
00000000000000000000000000000000000000000000000000
00000000000000000000000000000000000000000000000000
00000000000000000000000000000000000000000000000000
00000000000000000000000000000000000000000000000000
00000000000000000000000000000000000000000000000000
00000000000000000000000000000000000000000000000000
00000000000000000000000000000000000000000000000000
00000000000000000000000000000000000000000000000000
00000000000000000000000000000000000000000000000000
00000000000000000000000000000000000000000000000000
00000000000000000000000000000000000000000000000000
00000000000000000000000000000000000000000000000000
00000000000000000111110000000000000000000000000000
00000000000000001111111110000000000000000000000000
00000000000000111111111110000000000000000000000000
00000000001111111111111110000000000000000000000000
00000000011111111111111110000000000000000000000000
00000000111111111111111110000000000000000000000000
00000011111111111111111111000000000000000000000000
00000011111111110011111111000000000000000000000000
00000001111111000001111111000000000000000000000000
00000001111100000001111111000000000000000000000000
00000001111000000001111111000000000000000000000000
00000001110000000001111111000000000000000000000000
00000000000000000001111111000000000000000000000000
00000000000000000001111111100000000000000000000000
00000000000000000000111111100000000000000000000000
00000000000000000000111111100000000000000000000000
00000000000000000000111111100000000000000000000000
00000000000000000000111111100000000000000000000000
00000000000000000000111111100000000000000000000000
00000000000000000000111111100000000000000000000000
00000000000000000000111111110000000000000000000000
00000000000000000000111111110000000000000000000000
00000000000000000000011111110000000000000000000000
00000000000000000000001111111000000000000000000000
00000000000000000000001111111000000000000000000000
00000000000000000000001111111000000000000000000000
00000000000000000000001111111000000000000000000000
00000000000000000000001111111000000000000000000000
00000000000000000000001111111000000000000000000000
00000000000000000000000111111000000000000000000000
00000000000000000000000111111100000000000000000000
00000000000000000000000111111100000000000000000000
00000000000000000000000111111110000000000000000000
00000000000000000000000111111110000000000000000000
00000000000001111110100111111110000000000000000000
00000000000001111111111111111111100000000000000000
00000000000000111111111111111111111111100000000000
00000000000000111111111111111111111111111000000000
00000000000000011111111111111111111111111100000000
00000000000000000000111111111111111111111100000000
00000000000000000000000000000111101111111100000000
00000000000000000000000000000000000000101000000000
00000000000000000000000000000000000000000000000000
00000000000000000000000000000000000000000000000000
00000000000000000000000000000000000000000000000000
00000000000000000000000000000000000000000000000000
00000000000000000000000000000000000000000000000000
00000000000000000000000000000000000000000000000000
00000000000000000000000000000000000000000000000000
00000000000000000000000000000000000000000000000000
00000000000000000000000000000000000000000000000000
00000000000000000000000000000000000000000000000000
