P1
50 70
00000000000000000000000000000000000000000000000000
00000000000000000000000000000000000000000000000000
00000000000000000000000000000000000000000000000000
00000000000000000000000000000000000000000000000000
00000000000000000000000000000000000000000000000000
00000000000000000000000000000000000000000000000000
00000000000000000000000000000000000000000000000000
00000000000000000000000000000000000000000000000000
00000000000000000000000000000000000000000000000000
00000000000000000000000000000000000000000000000000
00000000000000000000000000000000000000000000000000
00000000000000000000000000000000000000000000000000
00000000000000000000000000000000000000000000000000
00000000000000000000000000000000000000000000000000
00000000000000000000000000000000000000000000000000
00000000000000000000000000000000000000000000000000
00000000000000000000000000000000000000000000000000
00000000000000000000000000000000000000000000000000
00000000000000000000000000000000000000000000000000
00000000000000000000000000000000000000000000000000
00000000000000000000000000000000000000000000000000
00000000111110000100000000000000000000000000000000
11111111111111111111110000000000000000000000000000
11111111111111111111111000000000000000000000000000
11111111111111111111111000000000000000000000000000
11111111111111111111111100000000000000000000000000
01111111111111111111111100000000000000000000000000
01111111111111111111111110000000000000000000000000
00111111111101111111111110000000000000000000000000
00001110011000111111111110000000000000000000000000
00000000000000011111111110000000000000000000000000
00000000000000011111111111000000000000000000000000
00000000000000011111111111000000000000000000000000
00000000000000001111111111000000000000000000000000
00000000000000001111111111000000000000000000000000
00000000000000000111111111100000000000000000000000
00000000000000000111111111100000000000000000000000
00000000000000000111111111100000000000000000000000
00000000000000000111111111110000000000000000000000
00000000000000000111111111111000000000000000000000
00000000000000000111111111111000000000000000000000
00000000000000000001111111111000000000000000000000
00000000000000000001111111111100000000000000000000
00000000000000000001111111111110000000000000000000
00000000000000000001111111111110000000000000000000
00000000000000000000111111111110000000000000000000
00000000000000000000111111111110000000000000000000
00000000000000000000111111111110000000000000000000
00000000000000000000011111111110000000000000000000
00000000000001111000111111111111000000000000000000
00000000000001111111111111111111111100110000000000
00000000000001111111111111111111111111111100000000
00000000000001111111111111111111111111111100000000
00000000000001111111111111111111111111111110000000
00000000000000111111111111111111111111111100000000
00000000000000011111111111111111111111111110000000
00000000000000000000000000000011111111111100000000
00000000000000000000000000000000000000000000000000
00000000000000000000000000000000000000000000000000
00000000000000000000000000000000000000000000000000
00000000000000000000000000000000000000000000000000
00000000000000000000000000000000000000000000000000
00000000000000000000000000000000000000000000000000
00000000000000000000000000000000000000000000000000
00000000000000000000000000000000000000000000000000
00000000000000000000000000000000000000000000000000
00000000000000000000000000000000000000000000000000
00000000000000000000000000000000000000000000000000
00000000000000000000000000000000000000000000000000
00000000000000000000000000000000000000000000000000
