P1
50 70
00000000000000000000000000000000000000000000000000
00000000000000000000000000000000000000000000000000
00000000000000000000000000000000000000000000000000
00000000000000000000000000000000000000000000000000
00000000000000000000000000000000000000000000000000
00000000000000000000000000000000000000000000000000
00000000000000000000000000000000000000000000000000
00000000000000000000000000000000000000000000000000
00000000000000000000000000000000000000000000000000
00000000000000000000000000000000000000000000000000
00000000000000000000000000000000000000000000000000
00000000000000000000000000000000000000000000000000
00000000000000000000000000000000000000000000000000
00000000000000000000000000000000000000000000000000
00000000000000000000000000000000000000000000000000
00000000000000000000000000000000000000000000000000
00000000000000000000000000000000000000000000000000
00000000000000000000000000000000000000000000000000
00000000000000000000000000000000000000000000000000
00000000000000000000000000000000000000000000000000
00000000000000000000000000000000000000000000000000
00000000000000000000000000000000000000000000000000
00000000000000000000000000000000000000000000000000
00000000000000000000000000000000000000000000000000
00000000000000000001100000000000000000000000000000
00000000000000011111111110000000000000000000000000
00000000000001111111111111000000000000000000000000
00000000000111111111111111000000000000000000000000
00000000000111111111111111000000000000000000000000
00000000001111111111111111000000000000000000000000
00000000011111111111111111000000000000000000000000
00000000011111100111111111100000000000000000000000
00000000001110000111111111100000000000000000000000
00000000000000000111111111100000000000000000000000
00000000000000000011111111110000000000000000000000
00000000000000000001111111110000000000000000000000
00000000000000000011111111110000000000000000000000
00000000000000000011111111111000000000000000000000
00000000000000000011111111111000000000000000000000
00000000000000000001111111111000000000000000000000
00000000000000000001111111111000000000000000000000
00000000000000000000111111111100000000000000000000
00000000000000000000111111111110000000000000000000
00000000000000000000111111111100000000000000000000
00000000000000000000111111111100000000000000000000
00000000000000000000111111111100000000000000000000
00000000000000000000111111111110000000000000000000
00000000000000000000111111111110000000000000000000
00000000000000000000011111111110000000000000000000
00000000000000000000011111111110000000000000000000
00000000000000000000001111111111000000000000000000
00000000000000000000001111111111000000000000000000
00000000000000000000001111111111000000000000000000
00000000000000000000001111111111100000000000000000
00000000000000000000001111111111100000000000000000
00000000000000000000001111111111000000000000000000
00000000000000000011111111111111110111000000000000
00000000000000000111111111111111111111110000000000
00000000000000000111111111111111111111110000000000
00000000000000000011001101111111001111110000000000
00000000000000000000000000000000000000000000000000
00000000000000000000000000000000000000000000000000
00000000000000000000000000000000000000000000000000
00000000000000000000000000000000000000000000000000
00000000000000000000000000000000000000000000000000
00000000000000000000000000000000000000000000000000
00000000000000000000000000000000000000000000000000
00000000000000000000000000000000000000000000000000
00000000000000000000000000000000000000000000000000
00000000000000000000000000000000000000000000000000
