P1
50 70
00000000000000000000000000000000000000000000000000
00000000000000000000000000000000000000000000000000
00000000000000000000000000000000000000000000000000
00000000000000000000000000000000000000000000000000
00000000000000000000000000000000000000000000000000
00000000000000000000000000000000000000000000000000
00000000000000000000000000000000000000000000000000
00000000000000000000000000000000000000000000000000
00000000000000000000000000000000000000000000000000
00000000000000000000000000000000000000000000000000
00000000000000000000000000000000000000000000000000
00000000000000000000000000000000000000000000000000
00000000000000000001100000000000000000000000000000
00000000000000001111100000000000000000000000000000
00000000000000011111110000000000000000000000000000
00000000000000111111110000000000000000000000000000
00000000000011111111110000000000000000000000000000
00000000000011111111111000000000000000000000000000
00000000000011111111111000000000000000000000000000
00000000000111111111111000000000000000000000000000
00000000000111111111111000000000000000000000000000
00000000001111111111111100000000000000000000000000
00000000011111111111111100000000000000000000000000
00000000011111111111111100000000000000000000000000
00000000111111111111111110000000000000000000000000
00000001111111111111111110000000000000000000000000
00000001111100111111111110000000000000000000000000
00000001111000111111111111000000000000000000000000
00000011111000111111111111000000000000000000000000
00000011110000001111111111000000000000000000000000
00000001000000001111111111000000000000000000000000
00000000000000001111111111100000000000000000000000
00000000000000001111111111110000000000000000000000
00000000000000001111111111110000000000000000000000
00000000000000001111111111110000000000000000000000
00000000000000000111111111110000000000000000000000
00000000000000000111111111110000000000000000000000
00000000000000000011111111111000000000000000000000
00000000000000000011111111111000000000000000000000
00000000000000000011111111111000000000000000000000
00000000000000000011111111111100000000000000000000
00000000000000000001111111111110000000000000000000
00000000000000000001111111111111000000000000000000
00000000000000000000111111111110000000000000000000
00000000000000000001111111111110000000000000000000
00000000000000000001111111111111000000000000000000
00000000000000000000111111111111000000000000000000
00000000000000000000111111111111100000000000000000
00000000000000000000011111111111000000000000000000
00000000000000000000011111111111000000000000000000
00000000000000000000011111111111110000000000000000
00000000000000000000011111111111110000000000000000
00000000000000000000011111111111111001111000000000
00000000000000000001111111111111111111111100000000
00000000000000011111111111111111111111111110000000
00000000000000111111111111111111111111111110000000
00000000000000011111111111111100111011111100000000
00000000000000000000000000000000000000000000000000
00000000000000000000000000000000000000000000000000
00000000000000000000000000000000000000000000000000
00000000000000000000000000000000000000000000000000
00000000000000000000000000000000000000000000000000
00000000000000000000000000000000000000000000000000
00000000000000000000000000000000000000000000000000
00000000000000000000000000000000000000000000000000
00000000000000000000000000000000000000000000000000
00000000000000000000000000000000000000000000000000
00000000000000000000000000000000000000000000000000
00000000000000000000000000000000000000000000000000
00000000000000000000000000000000000000000000000000
