P1
50 70
00000000000000000000000000000000000000000000000000
00000000000000000000000000000000000000000000000000
00000000000000000000000000000000000000000000000000
00000000000000000000000000000000000000000000000000
00000000000000000000000000000000000000000000000000
00000000000000000000000000000000000000000000000000
00000000000000000000000000000000000000000000000000
00000000000000000000000000000000000000000000000000
00000000000000000000000000000000000000000000000000
00000000000000000000000000000000000000000000000000
00000000000000000000110000000000000000000000000000
00000000000000010001111110000000000000000000000000
00000000000111111111111110000000000000000000000000
00000000001111111111111110000000000000000000000000
00000000011111111111111100000000000000000000000000
00000001111111111111111110000000000000000000000000
00000011111111111111111111000000000000000000000000
00001111111111111111111111000000000000000000000000
00011111111111111111111111000000000000000000000000
00111111111111111111111111100000000000000000000000
01111111110111111111111111100000000000000000000000
11111111100111111111111111100000000000000000000000
11111111000011111111111111100000000000000000000000
11111110000011111111111111110000000000000000000000
01111000000001111111111111111000000000000000000000
00110000000001111111111111111000000000000000000000
00000000000000111111111111111000000000000000000000
00000000000000111111111111111100000000000000000000
00000000000000111111111111111110000000000000000000
00000000000000111111111111111110000000000000000000
00000000000000001111111111111110000000000000000000
00000000000000001111111111111110000000000000000000
00000000000000000111111111111110000000000000000000
00000000000000000111111111111110000000000000000000
00000000000000000001111111111110000000000000000000
00000000000000000001111111111111000000000000000000
00000000000000000001111111111111100000000000000000
00000000000000000001111111111111100000000000000000
00000000000000000000111111111111100000000000000000
00000000000000000000111111111111100000000000000000
00000000000000000000111111111111110000000000000000
00000000000000000000011111111111110000000000000000
00000000000000000000001111111111111000000000000000
00000000000000000000001111111111111000000000000000
00000000000000000000001111111111111100000000000000
00000000000000000000001111111111111100000000000000
00000000000000000000000111111111111100000000000000
00000000000000000000000011111111111110000000000000
00000000000000000000000011111111111111000000000000
00000000000000000000000011111111111111000000000000
00000000000000000000000011111111111111000000000000
00000000000000000111111111111111111111110000000000
00000000000000000111111111111111111111111111110000
00000000000000000111111111111111111111111111111000
00000000000000000010110011101111111111111111111000
00000000000000000000000000000000000100100011011000
00000000000000000000000000000000000000000000000000
00000000000000000000000000000000000000000000000000
00000000000000000000000000000000000000000000000000
00000000000000000000000000000000000000000000000000
00000000000000000000000000000000000000000000000000
00000000000000000000000000000000000000000000000000
00000000000000000000000000000000000000000000000000
00000000000000000000000000000000000000000000000000
00000000000000000000000000000000000000000000000000
00000000000000000000000000000000000000000000000000
00000000000000000000000000000000000000000000000000
00000000000000000000000000000000000000000000000000
00000000000000000000000000000000000000000000000000
00000000000000000000000000000000000000000000000000
