P1
50 70
00000000000000000000000000000000000000000000000000
00000000000000000000000000000000000000000000000000
00000000000000000000000000000000000000000000000000
00000000000000000000000000000000000000000000000000
00000000000000000000000000000000000000000000000000
00000000000000000000000000000000000000000000000000
00000000000000000000000000000000000000000000000000
00000000000000000000000000000000000000000000000000
00000000000000000000000000000000000000000000000000
00000000000000000000000000000000000000000000000000
00000000000000000000000000000000000000000000000000
00000000000000000000000000000000000000000000000000
00000000000000000000000000000000000000000000000000
00000000000000000000000000000000000000000000000000
00000000000000000000000000000000000000000000000000
00000000000000100000000000000000000000000000000000
00000000000001111000000000000000000000000000000000
00000000001111111000000000000000000000000000000000
00000000111111111000000000000000000000000000000000
00000001111111111000000000000000000000000000000000
00001111111111111100000000000000000000000000000000
00011111111111111110000000000000000000000000000000
00001111111111111110000000000000000000000000000000
00001111110011111111000000000000000000000000000000
00001111100001111111000000000000000000000000000000
00001110000000111111000000000000000000000000000000
00000000000000111111100000000000000000000000000000
00000000000000111111110000000000000000000000000000
00000000000000011111110000000000000000000000000000
00000000000000001111110000000000000000000000000000
00000000000000001111110000000000000000000000000000
00000000000000001111111000000000000000000000000000
00000000000000000111111100000000000000000000000000
00000000000000000111111100000000000000000000000000
00000000000000000011111100000000000000000000000000
00000000000000000011111110000000000000000000000000
00000000000000000001111110000000000000000000000000
00000000000000000001111110000000000000000000000000
00000000000000000001111111000000000000000000000000
00000000000000000000111111100000000000000000000000
00000000000000000000111111100000000000000000000000
00000000000000000000011111100000000000000000000000
00000000000000000000001111110000000000000000000000
00000000000000000000001111110000000000000000000000
00000000000000000000001111111000000000000000000000
00000000000000000000001111111000000000000000000000
00000000000000000000000111111100000000000000000000
00000000000000000000000011111100000000000000000000
00000000000000000000000011111110000000000000000000
00000000000000000000000011111110000000000000000000
00000000000000000000000111111111100000111100000000
00000000000000000000111111111111111111111100000000
00000000000000011111111111111111111111111110000000
00000000000000011111111111111111111111111110000000
00000000000000011111111111111111111111111111000000
00000000000000001111111111111111111101100111000000
00000000000000000000000000000000000000000000000000
00000000000000000000000000000000000000000000000000
00000000000000000000000000000000000000000000000000
00000000000000000000000000000000000000000000000000
00000000000000000000000000000000000000000000000000
00000000000000000000000000000000000000000000000000
00000000000000000000000000000000000000000000000000
00000000000000000000000000000000000000000000000000
00000000000000000000000000000000000000000000000000
00000000000000000000000000000000000000000000000000
00000000000000000000000000000000000000000000000000
00000000000000000000000000000000000000000000000000
00000000000000000000000000000000000000000000000000
00000000000000000000000000000000000000000000000000
