P1
50 70
00000000000000000000000000000000000000000000000000
00000000000000000000000000000000000000000000000000
00000000000000000000000000000000000000000000000000
00000000000000000000000000000000000000000000000000
00000000000000000000000000000000000000000000000000
00000000000000000000000000000000000000000000000000
00000000000000000000000000000000000000000000000000
00000000000000000000000000000000000000000000000000
00000000000000000000000000000000000000000000000000
00000000000000000000000000000000000000000000000000
00000000000000000000000000000000000000000000000000
00000000000000000000000000000000000000000000000000
00000000000000000000000000000000000000000000000000
00000000000000000000000000000000000000000000000000
00000000000000000000000000000000000000000000000000
00000000000000000000000000000000000000000000000000
00000000000000000000000000000100000000000000000000
00000000000000000000000000011100000000000000000000
00000000000000000000000000111100000000000000000000
00000000000000000000000000111100000000000000000000
00000000000000000000000000111100000000000000000000
00000000000000000000000001111110000000000000000000
00000000000000000000000001111110000000000000000000
00000000000000000000000011111110000000000000000000
00000000000000000000000001111100000000000000000000
00000000000000000000000001111100000000000000000000
00000000000000000000000001111100000000000000000000
00000000000000000000000011111100000000000000000000
00000000000000000000000011111110000000000000000000
00000000000000000000000111111110000000000000000000
00000000000000000000001111111110000000000000000000
00000000000000000000001111111100000000000000000000
00000000000000000000011111111100000000000000000000
00000000000000000000111111111100000000000000000000
00000000000000000001111111111100000000000000000000
00000000000000000001111111111100000000000000000000
00000000000000000011111111111110000000000000000000
00000000000000000111111011111110000000000000000000
00000000000000001111111011111100000000000000000000
00000000000000011111100001111100000000000000000000
00000000000000011110000001111100000000000000000000
00000000000000011100000001111100000000000000000000
00000000000000000000000001111100000000000000000000
00000000000000000000000001111110000000000000000000
00000000000000000000000001111110000000000000000000
00000000000000000000000011111110000000000000000000
00000000000000000000000001111110000000000000000000
00000000000000000000000001111110000000000000000000
00000000000000000000000001111110000000000000000000
00000000000000000000000001111110000000000000000000
00000000000000000000000001111110000000000000000000
00000000000000000000000001111110000000000000000000
00000000000000000000000000111110000000000000000000
00000000000000000000000001111110000000000000000000
00000000000000000000000001111110000000000000000000
00000000000000000000000000111110000000000000000000
00000000000000000000000000111110000000000000000000
00000000000000000000000001111111000000000000000000
00000000000000000000000001111110000000000000000000
00000000000000000000000000111110000000000000000000
00000000000000000000000000111110000000000000000000
00000000000000000000000000111110000000000000000000
00000000000000000000000000111100000000000000000000
00000000000000000000000000110000000000000000000000
00000000000000000000000000000000000000000000000000
00000000000000000000000000000000000000000000000000
00000000000000000000000000000000000000000000000000
00000000000000000000000000000000000000000000000000
00000000000000000000000000000000000000000000000000
00000000000000000000000000000000000000000000000000
