P1
50 70
00000000000000000000000000000000000000000000000000
00000000000000000000000000000000000000000000000000
00000000000000000000000000000000000000000000000000
00000000000000000000000000000000000000000000000000
00000000000000000000000000000000000000000000000000
00000000000000000000000000000000000000000000000000
00000000000000000000000000000000000000000000000000
00000000000000000000000000000000000000000000000000
00000000000000000000000000000000000000000000000000
00000000000000000000000000000000000000000000000000
00000000000000000000000000000000000000000000000000
00000000000000000000000000000000000000000000000000
00000000000000000000000000000000000000000000000000
00000000000000000000000001100000000000000000000000
00000000000000000000000011110000000000000000000000
00000000000000000000001111111000000000000000000000
00000000000000000000011111111000000000000000000000
00000000000000000011111111111000000000000000000000
00000000000000000111111111111000000000000000000000
00000000000000000111111111111000000000000000000000
00000000000000001111111111111000000000000000000000
00000000000000011111111111111000000000000000000000
00000000000001111111111111111100000000000000000000
00000000000011111111111111111100000000000000000000
00000000000011111111111111111100000000000000000000
00000000001111111111111111111100000000000000000000
00000000001111110001111111111100000000000000000000
00000000001111100001111111111100000000000000000000
00000000001110000001111111111110000000000000000000
00000000000110000001111111111110000000000000000000
00000000000000000001111111111100000000000000000000
00000000000000000001111111111100000000000000000000
00000000000000000011111111111100000000000000000000
00000000000000000011111111111100000000000000000000
00000000000000000001111111111100000000000000000000
00000000000000000001111111111100000000000000000000
00000000000000000000111111111110000000000000000000
00000000000000000000111111111110000000000000000000
00000000000000000000111111111111000000000000000000
00000000000000000000111111111111000000000000000000
00000000000000000000011111111111000000000000000000
00000000000000000000111111111111000000000000000000
00000000000000000000111111111111100000000000000000
00000000000000000000111111111111100000000000000000
00000000000000000000111111111111100000000000000000
00000000000000000000111111111111100000000000000000
00000000000000000000111111111111100000000000000000
00000000000000000000111111111111100000000000000000
00000000000000000000011111111111100000000000000000
00000000000000000000011111111111100000000000000000
00000000000000000000111111111111110000000000000000
00000000000000000000111111111111100000000000000000
00000000000000000000111111111111100000000000000000
00000000000000000000111111111111110001110000000000
00000000000011111111111111111111111111111100000000
00000000000011111111111111111111111111111100000000
00000000000111111111111111111111111111111110000000
00000000000001111000111100000000110011111100000000
00000000000000000000000000000000000000000000000000
00000000000000000000000000000000000000000000000000
00000000000000000000000000000000000000000000000000
00000000000000000000000000000000000000000000000000
00000000000000000000000000000000000000000000000000
00000000000000000000000000000000000000000000000000
00000000000000000000000000000000000000000000000000
00000000000000000000000000000000000000000000000000
00000000000000000000000000000000000000000000000000
00000000000000000000000000000000000000000000000000
00000000000000000000000000000000000000000000000000
00000000000000000000000000000000000000000000000000
