P1
50 70
00000000000000000000000000000000000000000000000000
00000000000000000000000000000000000000000000000000
00000000000000000000000000000000000000000000000000
00000000000000000000000000000000000000000000000000
00000000000000000000000000000000000000000000000000
00000000000000000000000000000000000000000000000000
00000000000000000000000000000000000000000000000000
00000000000000000000000000000000000000000000000000
00000000000000000000000000000000000000000000000000
00000000000000000000000000000000000000000000000000
00000000000000000000000000000000000000000000000000
00000000001111111110111100000000000000000000000000
00000000011111111111111100000000000000000000000000
00000001111111111111111100000000000000000000000000
00000011111111111111111100000000000000000000000000
00000111111111111111111100000000000000000000000000
00111111111111111111111110000000000000000000000000
00111111111111111111111110000000000000000000000000
00111111111111111111111110000000000000000000000000
00111111111111111111111110000000000000000000000000
00111111111111111111111111000000000000000000000000
00111111111111111111111111000000000000000000000000
00111111111111111111111111000000000000000000000000
00011111111111111111111111100000000000000000000000
00011111110000111111111111100000000000000000000000
00011111100000111111111111100000000000000000000000
00001100000000011111111111100000000000000000000000
00000000000000011111111111100000000000000000000000
00000000000000011111111111110000000000000000000000
00000000000000001111111111110000000000000000000000
00000000000000001111111111111000000000000000000000
00000000000000001111111111111000000000000000000000
00000000000000001111111111111000000000000000000000
00000000000000001111111111111000000000000000000000
00000000000000001111111111111000000000000000000000
00000000000000000111111111111000000000000000000000
00000000000000000111111111111100000000000000000000
00000000000000000111111111111100000000000000000000
00000000000000000011111111111100000000000000000000
00000000000000000011111111111100000000000000000000
00000000000000000011111111111100000000000000000000
00000000000000000011111111111100000000000000000000
00000000000000000011111111111100000000000000000000
00000000000000000011111111111110000000000000000000
00000000000000000011111111111110000000000000000000
00000000000000000011111111111111000000000000000000
00000000000000000011111111111111000000111100000000
00000000000000000001111111111111000011111110000000
00000000000000000000111111111111111111111111000000
00000000000000000000111111111111111111111111000000
00000000000000000000111111111111111111111111000000
00000000000000000000111111111111111111111111000000
00000000000000000000111111111111111111111111000000
00000000000000001111111111111111111111111111000000
00000000000011111111111111111111111111111110000000
00000000000111111111111111111111111111100000000000
00000000001111111111111111111111111100000000000000
00000000000111111111111111111111110000000000000000
00000000000111111111111111111110000000000000000000
00000000000111111111111111000000000000000000000000
00000000000111111111111000000000000000000000000000
00000000000011111111110000000000000000000000000000
00000000000011111100000000000000000000000000000000
00000000000011100000000000000000000000000000000000
00000000000011000000000000000000000000000000000000
00000000000000000000000000000000000000000000000000
00000000000000000000000000000000000000000000000000
00000000000000000000000000000000000000000000000000
00000000000000000000000000000000000000000000000000
00000000000000000000000000000000000000000000000000
