P1
50 70
00000000000000000000000000000000000000000000000000
00000000000000000000000000000000000000000000000000
00000000000000000000000000000000000000000000000000
00000000000000000000000000000000000000000000000000
00000000000000000000000000000000000000000000000000
00000000000000000000000000000000000000000000000000
00000000000000000000000000000000000000000000000000
00000000000000000000000000000000000000000000000000
00000000000000000000000000000000000000000000000000
00000000000000000000000000000000000000000000000000
00000000000000000000000000000000000000000000000000
00000000000000000000000000000000000000000000000000
00000000000000000000000000000000000000000000000000
00000000000000000000000000000000000000000000000000
00000000000000000000000000000000000000000000000000
00000000000000000000000000000000000000000000000000
00000000000000000000000000000000000000000000000000
00000000000000000000000000000000000000000000000000
00000000000000000000000000000000000000000000000000
00000000000000000000000000000000000000000000000000
00000000000000000000000000000000000000000000000000
00000000000000000000000000000000000000000000000000
00000000000000000100000000000000000000000000000000
00000000000000011110000000000000000000000000000000
00000000000000011110000000000000000000000000000000
00000000000000111110000000000000000000000000000000
00000000000001111111000000000000000000000000000000
00000000000001111111000000000000000000000000000000
00000000000011111111100000000000000000000000000000
00000000000011111111110000000000000000000000000000
00000000000111111111110000000000000000000000000000
00000000001111111111110000000000000000000000000000
00000000001111111111110000000000000000000000000000
00000000001110111111111000000000000000000000000000
00000000001000011111111100000000000000000000000000
00000000000000001111111100000000000000000000000000
00000000000000001111111100000000000000000000000000
00000000000000001111111100000000000000000000000000
00000000000000001111111100000000000000000000000000
00000000000000001111111110000000000000000000000000
00000000000000001111111110000000000000000000000000
00000000000000000011111111000000000000000000000000
00000000000000000011111111000000000000000000000000
00000000000000000011111111000000000000000000000000
00000000000000000011111111100000000000000000000000
00000000000000000011111111110000000000000000000000
00000000000000000011111111110000000000000000000000
00000000000000000001111111110000000000000000000000
00000000000000000000111111111000000000000000000000
00000000000000000000111111111000000000000000000000
00000000000000000000111111111000000000000000000000
00000000000000000000111111111100000000000000000000
00000000000000000000111111111100000000000000000000
00000000000000000000111111111100000000000000000000
00000000000000000000011111111110000010000000000000
00000000000000000001111111111111111111000000000000
00000000000000011111111111111111111111111000000000
00000000000000011111111111111111101111110000000000
00000000000000000110011100000000000000000000000000
00000000000000000000000000000000000000000000000000
00000000000000000000000000000000000000000000000000
00000000000000000000000000000000000000000000000000
00000000000000000000000000000000000000000000000000
00000000000000000000000000000000000000000000000000
00000000000000000000000000000000000000000000000000
00000000000000000000000000000000000000000000000000
00000000000000000000000000000000000000000000000000
00000000000000000000000000000000000000000000000000
00000000000000000000000000000000000000000000000000
00000000000000000000000000000000000000000000000000
