P1
50 70
00000000000000000000000000000000000000000000000000
00000000000000000000000000000000000000000000000000
00000000000000000000000000000000000000000000000000
00000000000000000000000000000000000000000000000000
00000000000000000000000000000000000000000000000000
00000000000000000000000000000000000000000000000000
00000000000000000000000000000000000000000000000000
00000000000000000000000000000000000000000000000000
00000000000000000000000000000000000000000000000000
00000000000000000000000000000000000000000000000000
00000000000000000000000000000000000000000000000000
00000000000000000000000000000000000000000000000000
00000000000000000000000000000000000000000000000000
00000000000000000000000000000000000000000000000000
00000000000000000011000000000000000000000000000000
00000000000000111111111011000000000000000000000000
00000000000111111111111111100000000000000000000000
00000000000111111111111111100000000000000000000000
00000000000111111111111111100000000000000000000000
00000000000111111111111111100000000000000000000000
00000000000111111111111111100000000000000000000000
00000000000111111111111111100000000000000000000000
00000000000111111101111111100000000000000000000000
00000000000000000000011111110000000000000000000000
00000000000000000000011111110000000000000000000000
00000000000000000000001111100000000000000000000000
00000000000000000000001111100000000000000000000000
00000000000000000000001111100000000000000000000000
00000000000000000000011111100000000000000000000000
00000000000000000000011111100000000000000000000000
00000000000000000000011111100000000000000000000000
00000000000000000000011111110000000000000000000000
00000000000000000000011111110000000000000000000000
00000000000000000000001111110000000000000000000000
00000000000000000000001111110000000000000000000000
00000000000000000000001111110000000000000000000000
00000000000000000000001111110000000000000000000000
00000000000000000000001111111000000000000000000000
00000000000000000000001111111000000000000000000000
00000000000000000000001111111000000000000000000000
00000000000000000000000111110000000000000000000000
00000000000000000000000111110000000000000000000000
00000000000000000000000111111000000000000000000000
00000000000000000000001111111100000000000000000000
00000000000000000000001111111100000000000000000000
00000000000000000000001111111100000000000000000000
00000000000000000000001111111100000000000000000000
00000000000000000000000111111100000000000000000000
00000000000000000000000111111100000000000000000000
00000000000000000000000111111100000000000000000000
00000000000000000000000111111110000000000000000000
00000000000000000000000111111110000000000000000000
00000000000000000000000111111110000000000000000000
00000000000000000000000011111110000000000000000000
00000000000000000000000011111100000000000000000000
00000000000000000000000011111100000000000000000000
00000000000000000000000011111100000000000000000000
00000000000000000000000111111100000000000000000000
00000000000000001111000111111110000000000000000000
00000000000001111111111111111110000000000000000000
00000000000001111111111111111111111111001000000000
00000000000001111111111111111111111111111100000000
00000000000001111111111111111111111111111100000000
00000000000000111111111111111111111111111100000000
00000000000000000111110111111111111111111110000000
00000000000000000000000000000111111111111110000000
00000000000000000000000000000000000111001110000000
00000000000000000000000000000000000000000000000000
00000000000000000000000000000000000000000000000000
00000000000000000000000000000000000000000000000000
