P1
50 70
00000000000000000000000000000000000000000000000000
00000000000000000000000000000000000000000000000000
00000000000000000000000000000000000000000000000000
00000000000000000000000000000000000000000000000000
00000000000000000000000000000000000000000000000000
00000000000000000000000000000000000000000000000000
00000000000000000000000000000000000000000000000000
00000000000000000000000000000000000000000000000000
00000000000000000000000000000000000000000000000000
00000000000000000000000000000000000000000000000000
00000000000000000000000000000000000000000000000000
00000000000000000000000000000000000000000000000000
00000000000000000000000000000000000000000000000000
00000000000000000000000000000000000000000000000000
00000000000000000000000000000001111000000000000000
00000000000000000000000000001111111100000000000000
00000000000000000000000000111111111100000000000000
00000000000000000000000001111111111000000000000000
00000000000000000000011111111111111000000000000000
00000000000000000001111111111111111000000000000000
00000000000000000011111111111111111000000000000000
00000000000000000111111111111111111000000000000000
00000000000000111111111111111111111000000000000000
00000000000001111111111111111111111000000000000000
00000000000000111111111111111111111100000000000000
00000000000000111111111111111111111000000000000000
00000000000001111111111111111111111000000000000000
00000000000001111111110111111111111000000000000000
00000000000000111111000011111111111000000000000000
00000000000000011110000111111111111000000000000000
00000000000000011100000111111111111000000000000000
00000000000000000000000111111111111000000000000000
00000000000000000000000011111111111000000000000000
00000000000000000000000011111111111000000000000000
00000000000000000000000111111111111000000000000000
00000000000000000000000011111111111000000000000000
00000000000000000000000011111111111000000000000000
00000000000000000000000111111111111000000000000000
00000000000000000000000111111111111000000000000000
00000000000000000000000111111111110000000000000000
00000000000000000000000011111111110000000000000000
00000000000000000000000011111111111100000000000000
00000000000000000000000111111111111100000000000000
00000000000000000000000111111111111000000000000000
00000000000000000000000011111111111000000000000000
00000000000000000000000111111111111000000000000000
00000000000000000000000111111111111000000000000000
00000000000000000000000011111111111000000110000000
00000000000000000000000011111111110000111111000000
00000000000000000000000011111111111111111111000000
00000000000000000000000111111111111111111111000000
00000000000000000000000111111111111111111111000000
00000000000000000000000111111111111111111111000000
00000000000000000001111111111111111111111111000000
00000000000000011011111111111111111111111111000000
00000000000000011111111111111111111111111110000000
00000000000000011111111111111111111111111000000000
00000000000000011111111111111111110000000000000000
00000000000000011111111111111111100000000000000000
00000000000000011111111111000000000000000000000000
00000000000000011111111000000000000000000000000000
00000000000000001100100000000000000000000000000000
00000000000000000000000000000000000000000000000000
00000000000000000000000000000000000000000000000000
00000000000000000000000000000000000000000000000000
00000000000000000000000000000000000000000000000000
00000000000000000000000000000000000000000000000000
00000000000000000000000000000000000000000000000000
00000000000000000000000000000000000000000000000000
00000000000000000000000000000000000000000000000000
