P1
50 70
00000000000000000000000000000000000000000000000000
00000000000000000000000000000000000000000000000000
00000000000000000000000000000000000000000000000000
00000000000000000000000000000000000000000000000000
00000000000000000000000000000000000000000000000000
00000000000000000000000000000000000000000000000000
00000000000000000000000000000000000000000000000000
00000000000000000000000000000000000000000000000000
00000000000000000000000000000000000000000000000000
00000000000000000000000000000000000000000000000000
00000000000000000000000000000000000000000000000000
00000000000000000000000000000000000000000000000000
00000000000000000000000000000000000000000000000000
00000000000000000000000000000000000000000000000000
00000000000000000000000000000000001111110000000000
00000000000000000000000000000000111111110000000000
00000000000000000000000000001111111111110000000000
00000000000000000000000000111111111111110000000000
00000000000000000000000001111111111111100000000000
00000000000000000000000001111111111111100000000000
00000000000000000000001111111111111111100000000000
00000000000000000001111111111111111111100000000000
00000000000000000011111111111111111111100000000000
00000000000000000111111111111111111111100000000000
00000000000000000111111111111111111111100000000000
00000000000000000111111111111111111111000000000000
00000000000000001111111111111111111111000000000000
00000000000000001111111111111111111111000000000000
00000000000000001111111001111111111111000000000000
00000000000000001111100000111111111111000000000000
00000000000000001111000001111111111111000000000000
00000000000000000000000001111111111110000000000000
00000000000000000000000001111111111111000000000000
00000000000000000000000001111111111110000000000000
00000000000000000000000001111111111110000000000000
00000000000000000000000001111111111110000000000000
00000000000000000000000011111111111100000000000000
00000000000000000000000011111111111100000000000000
00000000000000000000000111111111111100000000000000
00000000000000000000000011111111111000000000000000
00000000000000000000000111111111111000000000000000
00000000000000000000000111111111111100000000000000
00000000000000000000000111111111111100000000000000
00000000000000000000001111111111111000000000000000
00000000000000000000001111111111111000000000000000
00000000000000000000001111111111111000000000000000
00000000000000000000011111111111111000000000000000
00000000000000000000001111111111110000000000000000
00000000000000000000011111111111110000000000000000
00000000000000000000011111111111100000000000000000
00000000000000000000011111111111110000000000000000
00000000000000000000111111111111110000000000000000
00000000000000000000111111111111100000000000000000
00000000000000000001111111111111100000000000000000
00000000000000000001111111111111110011111111000000
00000000001110000111111111111111111111111111100000
00000011111111111111111111111111111111111111000000
00000011111111111111111111111111111111111111000000
00000011111111111111111111111111111111111111000000
00000111111111111111111111111111111111111110000000
00001111111111111111111111111111111111111110000000
00001111111111111111111111111111111111111110000000
00000111111111111111111111111111111111111110000000
00000000000011000000010000011110011111100000000000
00000000000000000000000000000000000000000000000000
00000000000000000000000000000000000000000000000000
00000000000000000000000000000000000000000000000000
00000000000000000000000000000000000000000000000000
00000000000000000000000000000000000000000000000000
00000000000000000000000000000000000000000000000000
