P1
50 70
00000000000000000000000000000000000000000000000000
00000000000000000000000000000000000000000000000000
00000000000000000000000000000000000000000000000000
00000000000000000000000000000000000000000000000000
00000000000000000000000000000000000000000000000000
00000000000000000000000000000000000000000000000000
00000000000000000000000000000000000000000000000000
00000000000000000000000000000000000000000000000000
00000000000000000000000000000000000000000000000000
00000000000000000000000000000000000000000000000000
00000000000000000000000000000000000000000000000000
00000000000000000000000000000000000000000000000000
00000000000000000000000000000000000000000000000000
00000000000000000000000000000000000000000000000000
00000000000000000000010000000000000000000000000000
00000000000000000000111100000000000000000000000000
00000000000000000011111110000000000000000000000000
00000000000000001111111111000000000000000000000000
00000000000000011111111111000000000000000000000000
00000000000011111111111110000000000000000000000000
00000000000111111111111110000000000000000000000000
00000000011111111111111111000000000000000000000000
00000000111111111111111111000000000000000000000000
00000011111111111111111111100000000000000000000000
00000111111111111111111111100000000000000000000000
00000111111111111111111111100000000000000000000000
00001111111111111111111111110000000000000000000000
00011111111111111111111111110000000000000000000000
00111111111111111111111111110000000000000000000000
00111111111111111111111111110000000000000000000000
00111111111111111111111111100000000000000000000000
00111111111101111111111111110000000000000000000000
00111111111000111111111111111000000000000000000000
00111111110000011111111111111000000000000000000000
00111111000000011111111111111000000000000000000000
00011100000000111111111111111000000000000000000000
00000000000000011111111111111000000000000000000000
00000000000000011111111111111100000000000000000000
00000000000000011111111111111100000000000000000000
00000000000000001111111111111100000000000000000000
00000000000000001111111111111100000000000000000000
00000000000000001111111111111100000000000000000000
00000000000000000111111111111100000000000000000000
00000000000000000111111111111110000000000000000000
00000000000000000111111111111110000000000000000000
00000000000000000111111111111110000000000000000000
00000000000000000111111111111110000000000000000000
00000000000000000111111111111111000000000000000000
00000000000000000011111111111111000000000000000000
00000000000000000011111111111111000000000000000000
00000000000000000011111111111111100000000000000000
00000000000000000011111111111111100000000000000000
00000000000000000011111111111111100000000000000000
00000000000000000011111111111111100000000000000000
00000000000000000011111111111111100011111111110000
00000000000000000001111111111111111111111111111000
00000000000000000001111111111111111111111111111000
00000000000000000001111111111111111111111111111000
00000000000000000001111111111111111111111111111000
00000000000000001111111111111111111111111111111100
00000000001000011111111111111111111111111111111100
00000000011111111111111111111111111111111111111100
00000000111111111111111111111111111111111111111000
00000000111111111111111111111111111111111110000000
00000000111111111111111111111111111111100000000000
00000000111111111111111111111111000000000000000000
00000000111111111111111111000000000000000000000000
00000000011111111111000000000000000000000000000000
00000000011111111000000000000000000000000000000000
00000000000000000000000000000000000000000000000000
