P1
50 70
00000000000000000000000000000000000000000000000000
00000000000000000000000000000000000000000000000000
00000000000000000000000000000000000000000000000000
00000000000000000000000000000000000000000000000000
00000000000000000000000000000000000000000000000000
00000000000000000000000000000000000000000000000000
00000000000000000000000000000000000000000000000000
00000000000000000000000000000000000000000000000000
00000000000000000000000000000000000000000000000000
00000000000000000000000000000000000000000000000000
00000000000000000000000000000000000000000000000000
00000000000000000000000000000000000000000000000000
00000000000000000000000000000000000000000000000000
00000000000000000000000000000000000000000000000000
00000000000000000000000000000000000000000000000000
00000000000000000000000000000000000000000000000000
00000000000000000000000000000000000000000000000000
00000000000000000000000000000000000000000000000000
00000000000000000000000000000000000000000000000000
00000000000000000000000000000000000000000000000000
00000000000000000000000000000111000000000000000000
00000000000000000000000000011111000000000000000000
00000000000000000000000000111111000000000000000000
00000000000000000000000001111111000000000000000000
00000000000000000000000011111111000000000000000000
00000000000000000000000011111111000000000000000000
00000000000000000000000111111111100000000000000000
00000000000000000000001111111111000000000000000000
00000000000000000000111111111111000000000000000000
00000000000000000001111111111111000000000000000000
00000000000000000001111111111111000000000000000000
00000000000000000001111111111111000000000000000000
00000000000000000011111111111111000000000000000000
00000000000000000011111001111111000000000000000000
00000000000000000001110001111111100000000000000000
00000000000000000011100001111111100000000000000000
00000000000000000011000011111111000000000000000000
00000000000000000000000011111111000000000000000000
00000000000000000000000011111111000000000000000000
00000000000000000000000001111111000000000000000000
00000000000000000000000001111111000000000000000000
00000000000000000000000001111111000000000000000000
00000000000000000000000001111111100000000000000000
00000000000000000000000011111111000000000000000000
00000000000000000000000011111111000000000000000000
00000000000000000000000011111111000000000000000000
00000000000000000000000001111111000000000000000000
00000000000000000000000011111111000000000000000000
00000000000000000000000011111111000000000000000000
00000000000000000000000011111111000000000000000000
00000000000000000000000011111111100000000000000000
00000000000000000000000111111111000000000000000000
00000000000000000000000111111111000000000000000000
00000000000000000000000111111111000000000000000000
00000000000000000001111111111111000010000000000000
00000000000000111111111111111111111111100000000000
00000000000000111111111111111111111111111000000000
00000000000000111111111111111111111111111000000000
00000000000001111111111111111111111111111000000000
00000000000000111111111111111111111111111000000000
00000000000000000111111011111111111111111000000000
00000000000000000000000000000111111111111000000000
00000000000000000000000000000000000111111000000000
00000000000000000000000000000000000000000000000000
00000000000000000000000000000000000000000000000000
00000000000000000000000000000000000000000000000000
00000000000000000000000000000000000000000000000000
00000000000000000000000000000000000000000000000000
00000000000000000000000000000000000000000000000000
00000000000000000000000000000000000000000000000000
