P1
50 70
00000000000000000000000000000000000000000000000000
00000000000000000000000000000000000000000000000000
00000000000000000000000000000000000000000000000000
00000000000000000000000000000000000000000000000000
00000000000000000000000000000000000000000000000000
00000000000000000000000000000000000000000000000000
00000000000000000000000000000000000000000000000000
00000000000000000000000000000000000000000000000000
00000000000000000000000000000000000000000000000000
00000000000000000000000000000000000000000000000000
00000000000000000000000000000000000000000000000000
00000000000000000000000000000000000000000000000000
00000000000000000000000000000000000000000000000000
00000000000000000000000000000000000000000000000000
00000000000000000000000000000000000000000000000000
00000000000000000000000000000000000000000000000000
00000000000000000000000000000000000000000000000000
00000000000000000000000000000000000000000000000000
00000000000000000000000000000000000000000000000000
00000000000000000000000000000000000000000000000000
00000000000000000000000000000000000000000000000000
00000000111111000011110000000000000000000000000000
00000001111111111111111100000000000000000000000000
00000111111111111111111100000000000000000000000000
00000111111111111111111100000000000000000000000000
00000111111111111111111100000000000000000000000000
00000111111111111111111110000000000000000000000000
00000011111011111111111110000000000000000000000000
00000001110000000011111110000000000000000000000000
00000000000000000011111110000000000000000000000000
00000000000000000011111110000000000000000000000000
00000000000000000011111110000000000000000000000000
00000000000000000011111111000000000000000000000000
00000000000000000001111111000000000000000000000000
00000000000000000001111111000000000000000000000000
00000000000000000001111111000000000000000000000000
00000000000000000001111111100000000000000000000000
00000000000000000001111111100000000000000000000000
00000000000000000001111111110000000000000000000000
00000000000000000000111111110000000000000000000000
00000000000000000000111111110000000000000000000000
00000000000000000000011111110000000000000000000000
00000000000000000000011111110000000000000000000000
00000000000000000000011111110000000000000000000000
00000000000000000000011111111000000000000000000000
00000000000000000000011111111000000000000000000000
00000000000000000000011111111000000000000000000000
00000000000000000000001111111000000000000000000000
00000000000000000000001111111100000000000000000000
00000000000000000000001111111100000000000000000000
00000000000000000000000111111110000000000000000000
00000000000000000000000111111110000000000000000000
00000000000000000000000111111110000000000000000000
00000000000000000000000011111110000000000000000000
00000000000000000000000011111110000000000000000000
00000000000000000000000011111110000111111000000000
00000000000000000000000011111111101111111100000000
00000000000000000000000011111111111111111100000000
00000000000000000000000001111111111111111000000000
00000000000000000000000111111111111111111000000000
00000000000000000000001111111111111111000000000000
00000000000000000000111111111111110000000000000000
00000000000000001111111111111111000000000000000000
00000000000000001111111111111110000000000000000000
00000000000000011111111111100000000000000000000000
00000000000000011111111110000000000000000000000000
00000000000000011111100000000000000000000000000000
00000000000000001111000000000000000000000000000000
00000000000000000110000000000000000000000000000000
00000000000000000000000000000000000000000000000000
