P1
50 70
00000000000000000000000000000000000000000000000000
00000000000000000000000000000000000000000000000000
00000000000000000000000000000000000000000000000000
00000000000000000000000000000000000000000000000000
00000000000000000000000000000000000000000000000000
00000000000000000000000000000000000000000000000000
00000000000000000000000000000000000000000000000000
00000000000000000000000000000000000000000000000000
00000000000000000000000000000000000000000000000000
00000000000000000000000000000000000000000000000000
00000000000000000000000000000000000000000000000000
00000000001000000000000000000000000000000000000000
00000000011111111000000000000000000000000000000000
00000000011111111110010000000000000000000000000000
00000000011111111111111111000000000000000000000000
00000000011111111111111111110000000000000000000000
00000000011111111111111111111111000000000000000000
00000000011111111111111111111111000000000000000000
00000000001111111111111111111111100000000000000000
00000000001111111111111111111111100000000000000000
00000000001111111111111111111111100000000000000000
00000000001111111111111111111111000000000000000000
00000000000111111011111111111111000000000000000000
00000000000000000000111111111111000000000000000000
00000000000000000000011111111111000000000000000000
00000000000000000000011111111111000000000000000000
00000000000000000000011111111111100000000000000000
00000000000000000000011111111111100000000000000000
00000000000000000000011111111111000000000000000000
00000000000000000000111111111111000000000000000000
00000000000000000000111111111111000000000000000000
00000000000000000000111111111111000000000000000000
00000000000000000000111111111110000000000000000000
00000000000000000000011111111110000000000000000000
00000000000000000000011111111110000000000000000000
00000000000000000000011111111111000000000000000000
00000000000000000000011111111110000000000000000000
00000000000000000000111111111110000000000000000000
00000000000000000000111111111110000000000000000000
00000000000000000000111111111110000000000000000000
00000000000000000000111111111100000000000000000000
00000000000000000000011111111100000000000000000000
00000000000000000000011111111100000000000000000000
00000000000000000000011111111110000000000000000000
00000000000000000000011111111110000000000000000000
00000000000000000000111111111111000000100000000000
00000000000000000001111111111111111111100000000000
00000000000001111111111111111111111111100000000000
00000000000011111111111111111111111111100000000000
00000000000111111111111111111111111111100000000000
00000000000011111111111111111111111111100000000000
00000000000011111111111111111111111111000000000000
00000000000011111111111111111111111110000000000000
00000000000011111111111111110000000000000000000000
00000000000011111110000000000000000000000000000000
00000000000011000000000000000000000000000000000000
00000000000000000000000000000000000000000000000000
00000000000000000000000000000000000000000000000000
00000000000000000000000000000000000000000000000000
00000000000000000000000000000000000000000000000000
00000000000000000000000000000000000000000000000000
00000000000000000000000000000000000000000000000000
00000000000000000000000000000000000000000000000000
00000000000000000000000000000000000000000000000000
00000000000000000000000000000000000000000000000000
00000000000000000000000000000000000000000000000000
00000000000000000000000000000000000000000000000000
00000000000000000000000000000000000000000000000000
00000000000000000000000000000000000000000000000000
00000000000000000000000000000000000000000000000000
