P1
50 70
00000000000000000000000000000000000000000000000000
00000000000000000000000000000000000000000000000000
00000000000000000000000000000000000000000000000000
00000000000000000000000000000000000000000000000000
00000000000000000000000000000000000000000000000000
00000000000000000000000000000000000000000000000000
00000000000000000000000000000000000000000000000000
00000000000000000000000000000000000000000000000000
00000000000000000000000000000000000000000000000000
00000000000000000000000000000000000000000000000000
00000000000000000000000000000000000000000000000000
00000000000000000000000000000000000000000000000000
00000000000000000000000000000000000000000000000000
00000000000000000000000000000000000000000000000000
00000000000000000000000000000000000000000000000000
00000000000000000000000000000000000000000000000000
00000000000000000000000000000000000000000000000000
00000000000000000000000000000000000000000000000000
00000000000101111111111100000000000000000000000000
00000000111111111111111110000000000000000000000000
00111111111111111111111111000000000000000000000000
00111111111111111111111111000000000000000000000000
00011111111111111111111111000000000000000000000000
00001111111111111111111111100000000000000000000000
00001111111111111111111111100000000000000000000000
00001111111111111111111111100000000000000000000000
00001111111111111111111111100000000000000000000000
00000011111000011111111111100000000000000000000000
00000011110000000111111111110000000000000000000000
00000000000000000111111111110000000000000000000000
00000000000000000111111111111000000000000000000000
00000000000000000111111111111000000000000000000000
00000000000000000111111111111000000000000000000000
00000000000000000111111111111000000000000000000000
00000000000000000011111111111000000000000000000000
00000000000000000011111111111000000000000000000000
00000000000000000001111111111100000000000000000000
00000000000000000001111111111100000000000000000000
00000000000000000001111111111100000000000000000000
00000000000000000000111111111110000000000000000000
00000000000000000000111111111110000000000000000000
00000000000000000000011111111110000000000000000000
00000000000000000000011111111110000000000000000000
00000000000000000000011111111111000000010000000000
00000000000000000000011111111111000000111000000000
00000000000000000000001111111111000011111000000000
00000000000000000000001111111111111111111000000000
00000000000000000000000111111111111111111110000000
00000000000000000000000111111111111111111110000000
00000000000000000000000111111111111111111100000000
00000000000000000000001111111111111111110000000000
00000000000000000000111111111111111110000000000000
00000000000000000001111111111111111100000000000000
00000000000000001111111111111111111000000000000000
00000000000000001111111111111111000000000000000000
00000000000000000111111111110000000000000000000000
00000000000000000111111111100000000000000000000000
00000000000000000111111111000000000000000000000000
00000000000000000111111100000000000000000000000000
00000000000000000111110000000000000000000000000000
00000000000000000011100000000000000000000000000000
00000000000000000000000000000000000000000000000000
00000000000000000000000000000000000000000000000000
00000000000000000000000000000000000000000000000000
00000000000000000000000000000000000000000000000000
00000000000000000000000000000000000000000000000000
00000000000000000000000000000000000000000000000000
00000000000000000000000000000000000000000000000000
00000000000000000000000000000000000000000000000000
00000000000000000000000000000000000000000000000000
