P1
50 70
00000000000000000000000000000000000000000000000000
00000000000000000000000000000000000000000000000000
00000000000000000000000000000000000000000000000000
00000000000000000000000000000000000000000000000000
00000000000000000000000000000000000000000000000000
00000000000000000000000000000000000000000000000000
00000000000000000000000000000000000000000000000000
00000000000000000000000000000000000000000000000000
00000000000000000000000000000000000000000000000000
00000000000000000000000000000000000000000000000000
00000000000000000000000000000000000000000000000000
00000000000000000000000000000000000000000000000000
00000000000000000000000000000000000000000000000000
00000000000000000000000000000000000000000000000000
00000000000000000000000000000000000000000000000000
00000000000000000000000000000000000000000000000000
00000000000000000000000000000000000000000000000000
00000000000000000000000001110000000000000000000000
00000000000000000000111111111000000000000000000000
00000000000000000011111111111111000000000000000000
00000000000000000111111111111111100000000000000000
00000000000000001111111111111111100000000000000000
00000000000000001111111111111111100000000000000000
00000000000000001111111111111111100000000000000000
00000000000000001111111111111111100000000000000000
00000000000000000111111111111111100000000000000000
00000000000000001111111111111111100000000000000000
00000000000000001111100011111111100000000000000000
00000000000000000110000011111111100000000000000000
00000000000000000000000011111111100000000000000000
00000000000000000000000011111111100000000000000000
00000000000000000000000011111111000000000000000000
00000000000000000000000001111111000000000000000000
00000000000000000000000011111111000000000000000000
00000000000000000000000011111111100000000000000000
00000000000000000000000011111111100000000000000000
00000000000000000000000011111111100000000000000000
00000000000000000000000011111111000000000000000000
00000000000000000000000011111111000000000000000000
00000000000000000000000011111111100000000000000000
00000000000000000000000011111111000000000000000000
00000000000000000000000011111111000000000000000000
00000000000000000000000011111111100000000000000000
00000000000000000000000011111111100000000000000000
00000000000000000000000111111111100000000000000000
00000000000000000000000111111111000000000000000000
00000000000000000000000111111111000000000000000000
00000000000000000000000011111111000000000000000000
00000000000000000000000011111111000000000000000000
00000000000000000000000011111111000000000000000000
00000000000000000000000111111111100000000000000000
00000000000000000000000111111111000000000000000000
00000000000000011111000111111111100000000000000000
00000000000000011111111111111111000000000000000000
00000000000000111111111111111111000000000000000000
00000000000000111111111111111111100010000000000000
00000000000000111111111111111111111111000000000000
00000000000000111111111111111111111111110000000000
00000000000000001111111111111111111111110000000000
00000000000000000011111111111111111111110000000000
00000000000000000000000100111111111111110000000000
00000000000000000000000000001110001111110000000000
00000000000000000000000000000000000011110000000000
00000000000000000000000000000000000000000000000000
00000000000000000000000000000000000000000000000000
00000000000000000000000000000000000000000000000000
00000000000000000000000000000000000000000000000000
00000000000000000000000000000000000000000000000000
00000000000000000000000000000000000000000000000000
00000000000000000000000000000000000000000000000000
