P1
50 70
00000000000000000000000000000000000000000000000000
00000000000000000000000000000000000000000000000000
00000000000000000000000000000000000000000000000000
00000000000000000000000000000000000000000000000000
00000000000000000000000000000000000000000000000000
00000000000000000000000000000000000000000000000000
00000000000000000000000000000000000000000000000000
00000000000000000000000000000000000000000000000000
00000000000000000000000000000000000000000000000000
00000000000000000000000000000000000000000000000000
00000000000000000000000000000000000000000000000000
00000000000000000000000000000000000000000000000000
00000000000000100000000000000000000000000000000000
00000000000001111111100000000000000000000000000000
00000000000001111111100000000000000000000000000000
00000000000011111111100000000000000000000000000000
00000000001111111111110000000000000000000000000000
00000000011111111111111000000000000000000000000000
00000000111111111111111000000000000000000000000000
00000001111111111111111000000000000000000000000000
00000111111111111111111000000000000000000000000000
00001111111100111111111000000000000000000000000000
00000111111000011111111100000000000000000000000000
00000111110000001111111100000000000000000000000000
00000111100000001111111110000000000000000000000000
00000110000000001111111110000000000000000000000000
00000000000000001111111110000000000000000000000000
00000000000000000111111111000000000000000000000000
00000000000000000011111111000000000000000000000000
00000000000000000011111111000000000000000000000000
00000000000000000011111111000000000000000000000000
00000000000000000011111111100000000000000000000000
00000000000000000011111111100000000000000000000000
00000000000000000001111111110000000000000000000000
00000000000000000000111111110000000000000000000000
00000000000000000000111111110000000000000000000000
00000000000000000000111111110000000000000000000000
00000000000000000000111111111000000000000000000000
00000000000000000000011111111100000000000000000000
00000000000000000000011111111100000000000000000000
00000000000000000000001111111100000000000000000000
00000000000000000000001111111100000000000000000000
00000000000000000000001111111100000000000000000000
00000000000000000000000111111110000000000000000000
00000000000000000000000111111111000000000000000000
00000000000000000000000111111111000000000000000000
00000000000000000000000111111111000000000000000000
00000000000000000000000011111111000000000000000000
00000000000000000000000011111111100000000000000000
00000000000000000000000001111111100000000000000000
00000000000000000000000001111111110000000000000000
00000000000000000000000001111111110000000000000000
00000000000000000000000000111111110000000000000000
00000000000000000000000000111111111000000000000000
00000000000000000000000000011111111000000000000000
00000000000000000000111011111111111110000000000000
00000000000000000001111111111111111111101110000000
00000000000000000001111111111111111111111111000000
00000000000000000000111111111111111111111111000000
00000000000000000000000000001101000011111110000000
00000000000000000000000000000000000000000000000000
00000000000000000000000000000000000000000000000000
00000000000000000000000000000000000000000000000000
00000000000000000000000000000000000000000000000000
00000000000000000000000000000000000000000000000000
00000000000000000000000000000000000000000000000000
00000000000000000000000000000000000000000000000000
00000000000000000000000000000000000000000000000000
00000000000000000000000000000000000000000000000000
00000000000000000000000000000000000000000000000000
