P1
50 70
00000000000000000000000000000000000000000000000000
00000000000000000000000000000000000000000000000000
00000000000000000000000000000000000000000000000000
00000000000000000000000000000000000000000000000000
00000000000000000000000000000000000000000000000000
00000000000000000000000000000000000000000000000000
00000000000000000000000000000000000000000000000000
00000000000000000000000000000000000000000000000000
00000000000000000000000000000000000000000000000000
00000000000000000000000000000000000000000000000000
00000000000000000000000000000000000000000000000000
00000000000000000000000000000000000000000000000000
00000000000000000000000000000000000000000000000000
00000000000000000000000000000000000000000000000000
00000000000000000000000000000000000000000000000000
00000000000000000000000000000000000000000000000000
00000000000000000000000000000000000000000000000000
00000000000000000000000000000000000000000000000000
00000000000000000000000001110000000000000000000000
00000000000000000000111111110000000000000000000000
00000000000000000011111111110000000000000000000000
00000000000000000111111111110000000000000000000000
00000000000000001111111111100000000000000000000000
00000000000000111111111111110000000000000000000000
00000000000001111111111111110000000000000000000000
00000000000111111111111111110000000000000000000000
00000000001111111111111111110000000000000000000000
00000000011111111111111111110000000000000000000000
00000000011111000111111111110000000000000000000000
00000000011111000111111111110000000000000000000000
00000000011100000111111111110000000000000000000000
00000000001000001111111111110000000000000000000000
00000000000000001111111111110000000000000000000000
00000000000000001111111111110000000000000000000000
00000000000000001111111111110000000000000000000000
00000000000000001111111111110000000000000000000000
00000000000000001111111111110000000000000000000000
00000000000000001111111111111000000000000000000000
00000000000000001111111111110000000000000000000000
00000000000000011111111111110000000000000000000000
00000000000000011111111111110000000000000000000000
00000000000000011111111111110000000000000000000000
00000000000000001111111111110000000000000000000000
00000000000000001111111111100000000000000000000000
00000000000000001111111111110000000000000000000000
00000000000000001111111111110000000000000000000000
00000000000000001111111111111000000000000000000000
00000000000000001111111111111000000000000000000000
00000000000000011111111111110000000000000000000000
00000000000000001111111111110000000000000000000000
00000000000000001111111111110000000000000000000000
00000000000000001111111111111000000000000000000000
00000000000000011111111111111000000000000000000000
00000000000000011111111111111000000000000000000000
00000000000000011111111111111000000000000000000000
00000000000000011111111111110000000000000000000000
00000000000000011111111111110000000000000000000000
00000000000000011111111111110000000000000000000000
00000111110000011111111111111000000000000000000000
00000111111000011111111111111000000000000000000000
00001111111111111111111111111000000000000000000000
00000001111111111111111111111100000000000000000000
00000000001111111111111111111111100000000000000000
00000000000011001111111111111111111111000000000000
00000000000000000000000111111111111111100000000000
00000000000000000000000000111111111111100000000000
00000000000000000000000000000000001111100000000000
00000000000000000000000000000000000010000000000000
00000000000000000000000000000000000000000000000000
00000000000000000000000000000000000000000000000000
