P1
50 70
00000000000000000000000000000000000000000000000000
00000000000000000000000000000000000000000000000000
00000000000000000000000000000000000000000000000000
00000000000000000000000000000000000000000000000000
00000000000000000000000000000000000000000000000000
00000000000000000000000000000000000000000000000000
00000000000000000000000000000000000000000000000000
00000000000000000000000000000000000000000000000000
00000000000000000000000000000000000000000000000000
00000000000000000000000000000000000000000000000000
00000000000000000000000000000000000000000000000000
00000000000000000000000000000000000000000000000000
00000000000000000000000000000000000000000000000000
00000000000000000000000000000000000000000000000000
00000000000000000000000000000000000000000000000000
00000000000000000000000000000000000000000000000000
00000000000000000000000000000000000000000000000000
00000000000000000000000000000000000000000000000000
00000000000000000000000000000000000000000000000000
00000000000000000000000000000000000000000000000000
00000000000000000000000000000000000000000000000000
00000000000000011100000000000000000000000000000000
00000000000011111100000000000000000000000000000000
00000000000011111110000000000000000000000000000000
00000000000011111110000000000000000000000000000000
00000000000111111110000000000000000000000000000000
00000000000111111111000000000000000000000000000000
00000000001111111111100000000000000000000000000000
00000000001111111111100000000000000000000000000000
00000000011111111111100000000000000000000000000000
00000000111110011111100000000000000000000000000000
00000001111111001111110000000000000000000000000000
00000001111110001111110000000000000000000000000000
00000000111100000111111100000000000000000000000000
00000000111100000011111100000000000000000000000000
00000000111100000011111100000000000000000000000000
00000000111000000011111100000000000000000000000000
00000000110000000011111100000000000000000000000000
00000000000000000011111100000000000000000000000000
00000000000000000011111110000000000000000000000000
00000000000000000000111111000000000000000000000000
00000000000000000000011111100000000000000000000000
00000000000000000000011111100000000000000000000000
00000000000000000000011111100000000000000000000000
00000000000000000000011111110000000000000000000000
00000000000000000000011111110000000000000000000000
00000000000000000000011111110000000000000000000000
00000000000000000000001111110000000000000000000000
00000000000000000000000111111000000000000000000000
00000000000000000000000011111100000000110000000000
00000000000000000000000011111110000001111000000000
00000000000000000000000011111110000011111000000000
00000000000000000000000001111110001111111000000000
00000000000000000000000001111111111111111000000000
00000000000000000000000000111111111111110000000000
00000000000000000000000000111111111110000000000000
00000000000000000000000001111111111100000000000000
00000000000000000000011111111111100000000000000000
00000000000000000001111111111111000000000000000000
00000000000000000011111111111100000000000000000000
00000000000000000001111111000000000000000000000000
00000000000000000001111100000000000000000000000000
00000000000000000001111000000000000000000000000000
00000000000000000001100000000000000000000000000000
00000000000000000000000000000000000000000000000000
00000000000000000000000000000000000000000000000000
00000000000000000000000000000000000000000000000000
00000000000000000000000000000000000000000000000000
00000000000000000000000000000000000000000000000000
00000000000000000000000000000000000000000000000000
