P1
50 70
00000000000000000000000000000000000000000000000000
00000000000000000000000000000000000000000000000000
00000000000000000000000000000000000000000000000000
00000000000000000000000000000000000000000000000000
00000000000000000000000000000000000000000000000000
00000000000000000000000000000000000000000000000000
00000000000000000000000000000000000000000000000000
00000000000000000000000000000000000000000000000000
00000000000000000000000000000000000000000000000000
00000000000000000000000000000000000000000000000000
00000000000000000000000000000000000000000000000000
00000000000000000000000000000000000000000000000000
00000000000000000000000000000000000000000000000000
00000000000000000000000000000000000000000000000000
00000000000000000000000000000000000000000000000000
00000000000000000000000000000000000000000000000000
00000000000000000000000000000000000000000000000000
00000000000000000000000000000000000000000000000000
00000000000000000000000000001101111000000000000000
00000000000000000000000000011111111000000000000000
00000000000000000000000000011111111000000000000000
00000000000000000000000000111111111000000000000000
00000000000000000000000011111111111000000000000000
00000000000000000000000111111111111000000000000000
00000000000000000000001111111111110000000000000000
00000000000000000000011111111111111000000000000000
00000000000000000000111111111111111000000000000000
00000000000000000000111110111111111000000000000000
00000000000000000000111000111111111000000000000000
00000000000000000000000001111111110000000000000000
00000000000000000000000001111111110000000000000000
00000000000000000000000001111111100000000000000000
00000000000000000000000001111111100000000000000000
00000000000000000000000001111111100000000000000000
00000000000000000000000001111111110000000000000000
00000000000000000000000001111111110000000000000000
00000000000000000000000001111111100000000000000000
00000000000000000000000011111111100000000000000000
00000000000000000000000011111111100000000000000000
00000000000000000000000011111111100000000000000000
00000000000000000000000011111111100000000000000000
00000000000000000000000111111111100000000000000000
00000000000000000000000111111111100000000000000000
00000000000000000000001111111111100000000000000000
00000000000000000000001111111111100000000000000000
00000000000000000000001111111111100000000000000000
00000000000000000000001111111111000000000000000000
00000000000000000000011111111111000000000000000000
00000000000000000000011111111111000000000000000000
00000000000000000000011111111111000000000000000000
00000000000000000000011111111111100000000000000000
00000000000000000000011111111111100000000000000000
00000000000000000000011111111111000000000000000000
00000000000000000000111111111111000000000000000000
00000000000011000000111111111110000000000000000000
00000000000011111101111111111110000000000000000000
00000000000111111111111111111110000000000000000000
00000000000011111111111111111110000000000000000000
00000000000000011111111111111111000000000000000000
00000000000000000011111111111111000000000000000000
00000000000000000000001111111111110000000000000000
00000000000000000000000000111111111100000000000000
00000000000000000000000000011111111111100000000000
00000000000000000000000000000011111111100000000000
00000000000000000000000000000000111111110000000000
00000000000000000000000000000000001111110000000000
00000000000000000000000000000000000001000000000000
00000000000000000000000000000000000000000000000000
00000000000000000000000000000000000000000000000000
00000000000000000000000000000000000000000000000000
