P1
50 70
00000000000000000000000000000000000000000000000000
00000000000000000000000000000000000000000000000000
00000000000000000000000000000000000000000000000000
00000000000000000000000000000000000000000000000000
00000000000000000000000000000000000000000000000000
00000000000000000000000000000000000000000000000000
00000000000000000000000000000000000000000000000000
00000000000000000000000000000110000000000000000000
00000000000000000000000000011110000000000000000000
00000000000000000000000000011110000000000000000000
00000000000000000000000000011110000000000000000000
00000000000000000000000000111110000000000000000000
00000000000000000000000001111111000000000000000000
00000000000000000000000011111111000000000000000000
00000000000000000000000111111111000000000000000000
00000000000000000000000111111111000000000000000000
00000000000000000000000111111111000000000000000000
00000000000000000000000111111111100000000000000000
00000000000000000000001111111111110000000000000000
00000000000000000000001111111111100000000000000000
00000000000000000000011111111111100000000000000000
00000000000000000000111111111111100000000000000000
00000000000000000000111111111111100000000000000000
00000000000000000001111100111111100000000000000000
00000000000000000001111000111111100000000000000000
00000000000000000011111000011111111000000000000000
00000000000000000011110000011111111000000000000000
00000000000000000001100000011111111000000000000000
00000000000000000001000000111111111000000000000000
00000000000000000000000000111111110000000000000000
00000000000000000000000000111111110000000000000000
00000000000000000000000000011111110000000000000000
00000000000000000000000000011111111000000000000000
00000000000000000000000000011111111000000000000000
00000000000000000000000000011111111000000000000000
00000000000000000000000000011111111000000000000000
00000000000000000000000000011111111000000000000000
00000000000000000000000000011111111000000000000000
00000000000000000000000000001111111000000000000000
00000000000000000000000000001111111000000000000000
00000000000000000000000000001111111000000000000000
00000000000000000000000000001111111100000000000000
00000000000000000000000000011111111100000000000000
00000000000000000000000000001111111100000000000000
00000000000000000000000000000111111100000000000000
00000000000000000000000000001111111100000000000000
00000000000000000000000000001111111100000000000000
00000000000000000000000000001111111100000000000000
00000000000000000000000000001111111100000000000000
00000000000000000000000000001111111100000000000000
00000000000000000000000000001111111100000000000000
00000000000000000000000000000111111110000000000000
00000000000000000000000000001111111110000000000000
00000000000000000000000000001111111110000000000000
00000000000000000000000000001111111100000000000000
00000000000000000000000000001111111100000000000000
00000000000000000000000000001111111100000000000000
00000000000000000000000000001111111100000000000000
00000000000000000000000000000111111100000011110000
00000000000000000000000000000111111111111111100000
00000000000000000000000000001111111111111111100000
00000000000000000000000011111111111111111111100000
00000000000000000000000111111111111111111000000000
00000000000000000000111111111111111100000000000000
00000000000000000001111111111110000000000000000000
00000000000000000001111111111100000000000000000000
00000000000000000000111100000000000000000000000000
00000000000000000000000000000000000000000000000000
00000000000000000000000000000000000000000000000000
00000000000000000000000000000000000000000000000000
