P1
50 70
00000000000000000000000000000000000000000000000000
00000000000000000000000000000000000000000000000000
00000000000000000000000000000000000000000000000000
00000000000000000000000000000000000000000000000000
00000000000000000000000000000000000000000000000000
00000000000000000000000000000000000000000000000000
00000000000000000000000000000000000000000000000000
00000000000000000000000000000000000000000000000000
00000000000000000000000000000000000000000000000000
00000000000000000000000000000000000000000000000000
00000000000000000000000000000000000000000000000000
00000000000000000000000000000000000000000000000000
00000000000000000000000000000000000000000000000000
00000000000000000000000000000000000000000000000000
00000000000000000000000000000000000000000000000000
00000000000000000000000000000000000000000000000000
00000000000000000000000000010000000000000000000000
00000000000000000000000001111111000000000000000000
00000000000000000000011011111111110110000000000000
00000000000000000011111111111111111111000000000000
00000000000000000111111111111111111111100000000000
00000000000000011111111111111111111111000000000000
00000000000000011111111111111111111111000000000000
00000000000000001111111111111111111111100000000000
00000000000000001111110001111111111111000000000000
00000000000000001110000000111111111111000000000000
00000000000000000000000001111111111110000000000000
00000000000000000000000001111111111110000000000000
00000000000000000000000001111111111110000000000000
00000000000000000000000011111111111110000000000000
00000000000000000000000011111111111100000000000000
00000000000000000000000011111111111110000000000000
00000000000000000000000001111111111110000000000000
00000000000000000000000001111111111110000000000000
00000000000000000000000001111111111110000000000000
00000000000000000000000011111111111110000000000000
00000000000000000000000011111111111100000000000000
00000000000000000000000011111111111100000000000000
00000000000000000000000011111111111100000000000000
00000000000000000000000001111111111000000000000000
00000000000000000000000001111111111000000000000000
00000000000000000000000011111111111100000000000000
00000000000000000000000011111111111100000000000000
00000000000000000000000011111111111100000000000000
00000000000000000000000011111111111000000000000000
00000000000000000000000011111111111000000000000000
00000000000000000000000001111111111000000000000000
00000000000000000000000001111111111000000000000000
00000000000000000000000011111111110000000000000000
00000000000000000000000011111111111000000000000000
00000000000000000000000011111111111000000000000000
00000000000000000000000011111111111000000000000000
00000000000000000000000001111111111000000000000000
00000000000000000000000001111111110000000000000000
00000000000000000000000001111111110000000000000000
00000000000000000000000011111111111010000000000000
00000000000000000000000111111111111111111000000000
00000000000000000001111111111111111111111000000000
00000000000000000111111111111111111111110000000000
00000000000000000111111111111111110011100000000000
00000000000000000011111100011111000000000000000000
00000000000000000001111000000000000000000000000000
00000000000000000000000000000000000000000000000000
00000000000000000000000000000000000000000000000000
00000000000000000000000000000000000000000000000000
00000000000000000000000000000000000000000000000000
00000000000000000000000000000000000000000000000000
00000000000000000000000000000000000000000000000000
00000000000000000000000000000000000000000000000000
00000000000000000000000000000000000000000000000000
