P1
50 70
00000000000000000000000000000000000000000000000000
00000000000000000000000000000000000000000000000000
00000000000000000000000000000000000000000000000000
00000000000000000000000000000000000000000000000000
00000000000000000000000000000000000000000000000000
00000000000000000000000000000000000000000000000000
00000000000000000000000000000000000000000000000000
00000000000000000000000000000000000000000000000000
00000000000000000000000000000000000000000000000000
00000000000000000000000000000000000000000000000000
00000000000000000000000000000000000000000000000000
00000000000000000000000000000000000000000000000000
00000000000000000000000000000000000000000000000000
00000000000000000000000000000000000000000000000000
00000000000000000000000000000000000000000000000000
00000000000000000000000000000000001000000000000000
00000000000000000000000000000000111110000000000000
00000000000000000000000000001111111110000000000000
00000000000000000000000000001111111100000000000000
00000000000000000000000000111111111100000000000000
00000000000000000000000000111111111100000000000000
00000000000000000000000001111111111100000000000000
00000000000000000000000111111111111000000000000000
00000000000000000000011111111111111000000000000000
00000000000000000000111111111111111000000000000000
00000000000000000001111111111111111100000000000000
00000000000000000011111111111111111000000000000000
00000000000000000111111110011111111000000000000000
00000000000000000111111000011111111000000000000000
00000000000000000111100000011111111000000000000000
00000000000000001111100000111111111000000000000000
00000000000000001111000000011111110000000000000000
00000000000000000100000000011111110000000000000000
00000000000000000000000000011111111000000000000000
00000000000000000000000000111111111000000000000000
00000000000000000000000000111111110000000000000000
00000000000000000000000000111111110000000000000000
00000000000000000000000000111111110000000000000000
00000000000000000000000000111111100000000000000000
00000000000000000000000000111111100000000000000000
00000000000000000000000000111111100000000000000000
00000000000000000000000000111111110000000000000000
00000000000000000000000000111111100000000000000000
00000000000000000000000000111111100000000000000000
00000000000000000000000000111111100000000000000000
00000000000000000000000001111111100000000000000000
00000000000000000000000000111111100000000000000000
00000000000000000000000000111111000000000000000000
00000000000000000000000001111111000000000000000000
00000000000000000000000001111111000000000000000000
00000000000000000000000001111111000000000000000000
00000000000000000000000001111111000000000000000000
00000000000000000000000001111111100000000000000000
00000000000000000000000001111111100000000000000000
00000000000000000000000001111111000000000000000000
00000000000000000011000011111111000000000000000000
00000000000001111111111111111111100111000000000000
00000000000001111111111111111111111111111100000000
00000000000001111111111111111111111111111110000000
00000000000011111111111111111111111111111110000000
00000000000000100000111000011111111111111100000000
00000000000000000000000000000110001111111100000000
00000000000000000000000000000000000000000000000000
00000000000000000000000000000000000000000000000000
00000000000000000000000000000000000000000000000000
00000000000000000000000000000000000000000000000000
00000000000000000000000000000000000000000000000000
00000000000000000000000000000000000000000000000000
00000000000000000000000000000000000000000000000000
00000000000000000000000000000000000000000000000000
