P1
50 70
00000000000000000000000000000000000000000000000000
00000000000000000000000000000000000000000000000000
00000000000000000000000000000000000000000000000000
00000000000000000000000000000000000000000000000000
00000000000000000000000000000000000000000000000000
00000000000000000000000000000000000000000000000000
00000000000000000000000000000000000000000000000000
00000000000000000000000000000000000000000000000000
00000000000000000000000000000000000000000000000000
00000000000000000000000000000000000000000000000000
00000000000000000000000000000000000000000000000000
00000000000000000000000000000000000000000000000000
00000000000000000000000000000000000000000000000000
00000000000000000000000000000000000000000000000000
00000000000000000000000111000000000000000000000000
00000000000000000000011111100000000000000000000000
00000000000000000000111111100000000000000000000000
00000000000000000001111111100000000000000000000000
00000000000000000011111111100000000000000000000000
00000000000000000111111111100000000000000000000000
00000000000000001111111111100000000000000000000000
00000000000000011111111111100000000000000000000000
00000000000000111111111111100000000000000000000000
00000000000000011111111111110000000000000000000000
00000000000000111111011111110000000000000000000000
00000000000001111110001111110000000000000000000000
00000000000001111100001111110000000000000000000000
00000000000001111100001111110000000000000000000000
00000000000011111000001111110000000000000000000000
00000000000001110000001111110000000000000000000000
00000000000001100000001111110000000000000000000000
00000000000000000000001111110000000000000000000000
00000000000000000000001111110000000000000000000000
00000000000000000000000111110000000000000000000000
00000000000000000000000111110000000000000000000000
00000000000000000000000111110000000000000000000000
00000000000000000000000111110000000000000000000000
00000000000000000000000111111000000000000000000000
00000000000000000000000111110000000000000000000000
00000000000000000000000011110000000000000000000000
00000000000000000000000111110000000000000000000000
00000000000000000000000111110000000000000000000000
00000000000000000000000111111000000000000000000000
00000000000000000000000111111100000000000000000000
00000000000000000000000111111100000000000000000000
00000000000000000000000111111100000000000000000000
00000000000000000000000011111000000000000000000000
00000000000000000000000001111000000000000000000000
00000000000000000000000011111000000111000000000000
00000000000000000000000011111100101111000000000000
00000000000000000000000011111111111110000000000000
00000000000000000000000011111111111110000000000000
00000000000000000000000111111111111110000000000000
00000000000000000000001111111111111110000000000000
00000000000000000000111111111111110000000000000000
00000000000000000001111111111110000000000000000000
00000000000000001111111111110000000000000000000000
00000000000000001111111110000000000000000000000000
00000000000000000111111100000000000000000000000000
00000000000000000111110000000000000000000000000000
00000000000000000011000000000000000000000000000000
00000000000000000000000000000000000000000000000000
00000000000000000000000000000000000000000000000000
00000000000000000000000000000000000000000000000000
00000000000000000000000000000000000000000000000000
00000000000000000000000000000000000000000000000000
00000000000000000000000000000000000000000000000000
00000000000000000000000000000000000000000000000000
00000000000000000000000000000000000000000000000000
00000000000000000000000000000000000000000000000000
