P1
50 70
00000000000000000000000000000000000000000000000000
00000000000000000000000000000000000000000000000000
00000000000000000000000000000000000000000000000000
00000000000000000000000000000000000000000000000000
00000000000000000000000000000000000000000000000000
00000000000000000000000000000000000000000000000000
00000000000000000000000000000000000000000000000000
00000000000000000000000000000000000000000000000000
00000000000000000000000000000000000000000000000000
00000000000000000000000000000000000000000000000000
00000000000000000000000000000000000000000000000000
00000000000000000000000000000000000000000000000000
00000000000000000000000000000000000000000000000000
00000000000011111000100000000000000000000000000000
00000000011111111111111110000000000000000000000000
00000111111111111111111111110000000000000000000000
00011111111111111111111111111000000000000000000000
00011111111111111111111111111100000000000000000000
00111111111111111111111111111111000000000000000000
00111111111111111111111111111111100000000000000000
00011111111111111111111111111111110000000000000000
00011111111111111111111111111111110000000000000000
00000111111111111111111111111111111000000000000000
00000111111111111100111111111111111100000000000000
00000111111110000000001111111111111110000000000000
00000111111000000000000001111111111110000000000000
00000001110000000000000001111111111110000000000000
00000001100000000000000000111111111111000000000000
00000001100000000000000000111111111111000000000000
00000000000000000000000000111111111111000000000000
00000000000000000000000000111111111111000000000000
00000000000000000000000000011111111110000000000000
00000000000000000000000000011111111111000000000000
00000000000000000000000000111111111110000000000000
00000000000000000000000000111111111110000000000000
00000000000000000000000000111111111110000000000000
00000000000000000000000001111111111100000000000000
00000000000000000000000001111111111100000000000000
00000000000000000000000011111111111000000000000000
00000000000000000000000001111111111000000000000000
00000000000000000000000011111111110000000000000000
00000000000000000000000011111111110000000000000000
00000000000000000000000111111111110000000000000000
00000000000000000000001111111111110000000000000000
00000000000000000000001111111111100000000000000000
00000000000000000000001111111111100000000000000000
00000000000000000000011111111111000000000000000000
00000000000000000000111111111110000000111111100000
00000000000000000000111111111100000011111111110000
00000000000000000000111111111111111111111111110000
00000000000000000000111111111111111111111111110000
00000000000000000001111111111111111111111111110000
00000000000000000001111111111111111111111111111000
00000000000000000011111111111111111111111111111000
00000000000000000011111111111111111111111111111000
00000000000000000001111111111111111111111111000000
00000000000000000000111111111111111111111000000000
00000000000000000000011111111111111110000000000000
00000000000000000000011111111111100000000000000000
00000000000000000000001111111110000000000000000000
00000000000000000000001111110000000000000000000000
00000000000000000000001100000000000000000000000000
00000000000000000000000000000000000000000000000000
00000000000000000000000000000000000000000000000000
00000000000000000000000000000000000000000000000000
00000000000000000000000000000000000000000000000000
00000000000000000000000000000000000000000000000000
00000000000000000000000000000000000000000000000000
00000000000000000000000000000000000000000000000000
00000000000000000000000000000000000000000000000000
