P1
50 70
00000000000000000000000000000000000000000000000000
00000000000000000000000000000000000000000000000000
00000000000000000000000000000000000000000000000000
00000000000000000000000000000000000000000000000000
00000000000000000000000000000000000000000000000000
00000000000000000000000000000000000000000000000000
00000000000000000000000000000000000000000000000000
00000000000000000000000000000000000000000000000000
00000000000000000000000000000000000000000000000000
00000000000000000000000000000000000000000000000000
00000000000000000000000000000000000000000000000000
00000000000000000000000000000000000000000000000000
00000000000000000000000000000000000000000000000000
00000000000000000000000000000000000000000000000000
00000000000000000000000000000000000000000000000000
00000000000000000001110000000000000000000000000000
00000000000000011111111111100000000000000000000000
00000000000011111111111111110000000000000000000000
00000000000111111111111111111100000000000000000000
00000000011111111111111111111110000000000000000000
00000000111111111111111111111111000000000000000000
00000111111111111111111111111111000000000000000000
00000111111111111111111111111111100000000000000000
00001111111111111111111111111111100000000000000000
00011111111111111111111111111111110000000000000000
00111111111111100000011111111111111000000000000000
00011111111100000000001111111111111000000000000000
00011111111000000000000111111111111100000000000000
00001111111000000000000111111111111000000000000000
00001111110000000000000111111111111000000000000000
00001111100000000000000011111111111100000000000000
00001111000000000000000011111111111100000000000000
00000110000000000000000001111111111100000000000000
00000000000000000000000011111111111100000000000000
00000000000000000000000011111111111100000000000000
00000000000000000000000111111111111100000000000000
00000000000000000000000111111111111000000000000000
00000000000000000000000111111111111000000000000000
00000000000000000000000111111111110000000000000000
00000000000000000000001111111111110000000000000000
00000000000000000000011111111111100000000000000000
00000000000000000000111111111111100000000000000000
00000000000000000000111111111111100000000000000000
00000000000000000000111111111111000000000000000000
00000000000000000001111111111110000000000000000000
00000000000000000011111111111100000000000000000000
00000000000000000111111111111000000000000000000000
00000000000000001111111111110000000000000000000000
00000000000000011111111111110000000000000000000000
00000000000000011111111111110000000000000000000000
00000000000000111111111111110000000000111000000000
00000000000001111111111111111111111111111111000000
00000000000011111111111111111111111111111111000000
00000000000011111111111111111111111111111111100000
00000000000011111111111111111111111111111111100000
00000000000011111111111111111111111111111111110000
00000000000000111111111111111111111111111111111000
00000000000000111111111111111111111111111111111000
00000000000000111111111111111111111111111111111000
00000000000000011111111111111111111111111111111000
00000000000000000000000100000001000000010000011000
00000000000000000000000000000000000000000000000000
00000000000000000000000000000000000000000000000000
00000000000000000000000000000000000000000000000000
00000000000000000000000000000000000000000000000000
00000000000000000000000000000000000000000000000000
00000000000000000000000000000000000000000000000000
00000000000000000000000000000000000000000000000000
00000000000000000000000000000000000000000000000000
00000000000000000000000000000000000000000000000000
