P1
50 70
00000000000000000000000000000000000000000000000000
00000000000000000000000000000000000000000000000000
00000000000000000000000000000000000000000000000000
00000000000000000000000000000000000000000000000000
00000000000000000000000000000000000000000000000000
00000000000000000000000000000000000000000000000000
00000000000000000000000000000000000000000000000000
00000000000000000000000000000000000000000000000000
00000000000000000000000000000000000000000000000000
00000000000000000000000000000000000000000000000000
00000000000000000000000000000000000000000000000000
00000000000000000000000000000000000000000000000000
00000000000000000000000000000000000000000000000000
00000000000000000000000000000000000000000000000000
00000000000000000000000000000000000000000000000000
00000000000000000000000000000000000000000000000000
00000000000000000000000000000000000000000000000000
00000000000000000000000000000000000000000000000000
00000000000000001111111000000000000000000000000000
00000000001111111111111110100000000000000000000000
00000000111111111111111111111000000000000000000000
00000011111111111111111111111110000000000000000000
00000011111111111100000111111111000000000000000000
00000011111111000000000001111111000000000000000000
00000011111111000000000000111111100000000000000000
00000011111110000000000000011111111000000000000000
00000000111110000000000000011111111000000000000000
00000000011110000000000000001111110000000000000000
00000000011110000000000000001111110000000000000000
00000000011110000000000000001111110000000000000000
00000000011000000000000000000111110000000000000000
00000000000000000000000000000111110000000000000000
00000000000000000000000000000111100000000000000000
00000000000000000000000000001111100000000000000000
00000000000000000000000000001111100000000000000000
00000000000000000000000000001111100000000000000000
00000000000000000000000000011111000000000000000000
00000000000000000000000000011111000000000000000000
00000000000000000000000000011110000000000000000000
00000000000000000000000000011110000000000000000000
00000000000000000000000000011100000000000000000000
00000000000000000000000000111100000000000000000000
00000000000000000000000000111100000000000000000000
00000000000000000000000001111100000000000000000000
00000000000000000000000001111000000111000000000000
00000000000000000000000011111000000111000000000000
00000000000000000000000011110000000111000000000000
00000000000000000000000011110000001111000000000000
00000000000000000000000011100000001111000000000000
00000000000000000000000111100000011111110000000000
00000000000000000000000111100000111111110000000000
00000000000000000000000111000111111111100000000000
00000000000000000000000111101111111110000000000000
00000000000000000000001111111111111110000000000000
00000000000000000000001111111111111000000000000000
00000000000000000000001111111111100000000000000000
00000000000000000000001111111100000000000000000000
00000000000000000000001111111000000000000000000000
00000000000000000000001111110000000000000000000000
00000000000000000000000110000000000000000000000000
00000000000000000000000100000000000000000000000000
00000000000000000000000000000000000000000000000000
00000000000000000000000000000000000000000000000000
00000000000000000000000000000000000000000000000000
00000000000000000000000000000000000000000000000000
00000000000000000000000000000000000000000000000000
00000000000000000000000000000000000000000000000000
00000000000000000000000000000000000000000000000000
00000000000000000000000000000000000000000000000000
00000000000000000000000000000000000000000000000000
