P1
50 70
00000000000000000000000000000000000000000000000000
00000000000000000000000000000000000000000000000000
00000000000000000000000000000000000000000000000000
00000000000000000000000000000000000000000000000000
00000000000000000000000000000000000000000000000000
00000000000000000000000000000000000000000000000000
00000000000000000000000000000000000000000000000000
00000000000000000000000000000000000000000000000000
00000000000000000000000000000000000000000000000000
00000000000000000000000000000000000000000000000000
00000000000000000000000000000000000000000000000000
00000000000000000000000000000000000000000000000000
00000000000000000000000000000000000000000000000000
00000000000000000000000000000000000000000000000000
00000000000000000000000000000000000000000000000000
00000000000000000000000000000000000000000000000000
00000001110011010000000000000000000000000000000000
00000011111111111111000000000000000000000000000000
00011111111111111111110000000000000000000000000000
11111111111111111111111000000000000000000000000000
11111111100111111111111100000000000000000000000000
11111111000000111111111111000000000000000000000000
11111110000000000111111111100000000000000000000000
11111100000000000011111111110000000000000000000000
11111000000000000001111111110000000000000000000000
11111000000000000000111111111000000000000000000000
11111000000000000000011111111000000000000000000000
11111000000000000000001111111000000000000000000000
01110000000000000000001111111000000000000000000000
00000000000000000000001111111100000000000000000000
00000000000000000000000111111110000000000000000000
00000000000000000000000111111110000000000000000000
00000000000000000000000011111110000000000000000000
00000000000000000000000011111110000000000000000000
00000000000000000000000011111111000000000000000000
00000000000000000000000011111110000000000000000000
00000000000000000000000111111110000000000000000000
00000000000000000000000111111110000000000000000000
00000000000000000000000111111100000000000000000000
00000000000000000000001111111000000000000000000000
00000000000000000000001111111000000000000000000000
00000000000000000000011111111000000000000000000000
00000000000000000000111111110000000000000000000000
00000000000000000000111111000000000000000000000000
00000000000000000001111111000000000000000000000000
00000000000000000011111110000000000000000000000000
00000000000000000111111110000000000000000000000000
00000000000000001111111100000000000000000000000000
00000000000000011111111000000000000000000000000000
00000000000000011111110000000000000000011100000000
00000000000001111111000000000000000000011110000000
00000000000011111111000000000000000000001111100000
00000000000011111111000000000000000000001111100000
00000000000111111111111111001111100000001111100000
00000000001111111111111111111111111111111111110000
00000000001111111111111111111111111111111111111100
00000000000111111111111111111111111111111111111100
00000000000000111000111111111111111111111111111100
00000000000000000000000000000001101111111111111110
00000000000000000000000000000000000000011011111110
00000000000000000000000000000000000000000000001110
00000000000000000000000000000000000000000000000000
00000000000000000000000000000000000000000000000000
00000000000000000000000000000000000000000000000000
00000000000000000000000000000000000000000000000000
00000000000000000000000000000000000000000000000000
00000000000000000000000000000000000000000000000000
00000000000000000000000000000000000000000000000000
00000000000000000000000000000000000000000000000000
00000000000000000000000000000000000000000000000000
