P1
50 70
00000000000000000000000000000000000000000000000000
00000000000000000000000000000000000000000000000000
00000000000000000000000000000000000000000000000000
00000000000000000000000000000000000000000000000000
00000000000000000000000000000000000000000000000000
00000000000000000000000000000000000000000000000000
00000000000000000000000000000000000000000000000000
00000000000000000000000000000000000000000000000000
00000000000000000000000000000000000000000000000000
00000000000000000000000000000000000000000000000000
00000000000000000000000000000000000000000000000000
00000000000000000000000000000000000000000000000000
00000000000000000000000000000000000000000000000000
00000000000000000000000000000000000000000000000000
00000000000000000000000000000000000000000000000000
00000000000000000000000000000000000000000000000000
00000000000000000000000000000000000000000000000000
00000000000000000000000000000000000000000000000000
00000000000000000111111111100000000000000000000000
00000000000011001111111111111000000000000000000000
00000000011111111111111111111111000000000000000000
00000000111111111111111111111111100000000000000000
00000000111111111111111111111111110000000000000000
00001111111111111111111111111111110000000000000000
00011111111111111110000000111111111100000000000000
00011111111111110000000000000111111110000000000000
00001111111110000000000000000111111110000000000000
00000111111100000000000000000111111100000000000000
00000111111000000000000000000011111100000000000000
00000111100000000000000000000001111110000000000000
00000000000000000000000000000001111110000000000000
00000000000000000000000000000001111110000000000000
00000000000000000000000000000011111111000000000000
00000000000000000000000000000011111111000000000000
00000000000000000000000000000011111111000000000000
00000000000000000000000000000001111111000000000000
00000000000000000000000000000011111110000000000000
00000000000000000000000000000011111110000000000000
00000000000000000000000000000011111100000000000000
00000000000000000000000000000011111100000000000000
00000000000000000000000000000111111000000000000000
00000000000000000000000000001111111100000000000000
00000000000000000000000000001111111100000000000000
00000000000000000000000000000111111000000000000000
00000000000000000000000000001111111000000000000000
00000000000000000000000000001111110000000000000000
00000000000000000000000000001111110000000000000000
00000000000000000000000000011111100000000000000000
00000000000000000000000000011111100000000000000000
00000000000000000000000000111111000000000000000000
00000000000000000000000001111111100000000000000000
00000000000000000000000001111111000000000000000000
00000000000000000000000001111110000000000000000000
00000000000000000000000001111110000000000000000000
00000000000000000000000011111100000000001111000000
00000000000000000000000011111100000001111111100000
00000000000000000000000011111100000111111111100000
00000000000000000000000011111111111111111111100000
00000000000000000000000111111111111111111111000000
00000000000000000000000011111111111111111000000000
00000000000000000000000011111111111111100000000000
00000000000000000000000011111111111000000000000000
00000000000000000000000001111111000000000000000000
00000000000000000000000001111100000000000000000000
00000000000000000000000001000000000000000000000000
00000000000000000000000000000000000000000000000000
00000000000000000000000000000000000000000000000000
00000000000000000000000000000000000000000000000000
00000000000000000000000000000000000000000000000000
00000000000000000000000000000000000000000000000000
