P1
50 70
00000000000000000000000000000000000000000000000000
00000000000000000000000000000000000000000000000000
00000000000000000000000000000000000000000000000000
00000000000000000000000000000000000000000000000000
00000000000000000000000000000000000000000000000000
00000000000000000000000000000000000000000000000000
00000000000000000000000000000000000000000000000000
00000000000000000000000000000000000000000000000000
00000000000000000000000000000000000000000000000000
00000000000000000000000000000000000000000000000000
00000000000000000000000000000000000000000000000000
00000000000000000000000000000000000000000000000000
00000000000000000000000000000000000000000000000000
00000000000000000000000000000000000000000000000000
00000000000000000000000000000000000000000000000000
00000000000000000000000000000000000000000000000000
00000000000000000000000000000000000000000000000000
00000000000000000000000000000000000000000000000000
00000000000000000100000000000000000000000000000000
00000000000000001111100000000000000000000000000000
00000000000000011111111000000000000000000000000000
00000000000000111111111000000000000000000000000000
00000000000001111111111100000000000000000000000000
00000000000011111111111110000000000000000000000000
00000000000001111111111111000000000000000000000000
00000000000011111000011111100000000000000000000000
00000000000111110000001111100000000000000000000000
00000000000111110000001111100000000000000000000000
00000000000111110000001111100000000000000000000000
00000000000111110000000111100000000000000000000000
00000000000111100000000111110000000000000000000000
00000000000111100000000111100000000000000000000000
00000000000111100000001111100000000000000000000000
00000000000111100000000111100000000000000000000000
00000000000111100000000111100000000000000000000000
00000000000011100000001111000000000000000000000000
00000000000000000000001111000000000000000000000000
00000000000000000000001111000000000000000000000000
00000000000000000000001111000000000000000000000000
00000000000000000000001111000000000000000000000000
00000000000000000000001111000000000000000000000000
00000000000000000000011111000000000000000000000000
00000000000000000000011110000000000000000000000000
00000000000000000000011110000000000100000000000000
00000000000000000000111110000000011110000000000000
00000000000000000000111100000000111110000000000000
00000000000000000000111110000001111110000000000000
00000000000000000000111100000011111100000000000000
00000000000000000000111100000111111100000000000000
00000000000000000001111000001111111000000000000000
00000000000000000001111000011111110000000000000000
00000000000000000001111001111111100000000000000000
00000000000000000001111101111110000000000000000000
00000000000000000011111111111100000000000000000000
00000000000000000001111111111000000000000000000000
00000000000000000011111111110000000000000000000000
00000000000000000011111111100000000000000000000000
00000000000000000111111110000000000000000000000000
00000000000000000111111100000000000000000000000000
00000000000000000111111000000000000000000000000000
00000000000000000011110000000000000000000000000000
00000000000000000011110000000000000000000000000000
00000000000000000000000000000000000000000000000000
00000000000000000000000000000000000000000000000000
00000000000000000000000000000000000000000000000000
00000000000000000000000000000000000000000000000000
00000000000000000000000000000000000000000000000000
00000000000000000000000000000000000000000000000000
00000000000000000000000000000000000000000000000000
00000000000000000000000000000000000000000000000000
