P1
50 70
00000000000000000000000000000000000000000000000000
00000000000000000000000000000000000000000000000000
00000000000000000000000000000000000000000000000000
00000000000000000000000000000000000000000000000000
00000000000000000000000000000000000000000000000000
00000000000000000000000000000000000000000000000000
00000000000000000000000000000000000000000000000000
00000000000000000000000000000000000000000000000000
00000000000000000000000000000000000000000000000000
00000000000000000000000000000000000000000000000000
00000000000000000000000000000000000000000000000000
00000000000000000000000000000000000000000000000000
00000000000000000000000000000000000000000000000000
00000000000000000000000000000000000000000000000000
00000000000000000000000000000000000000000000000000
00000000000000000000000000000000000000000000000000
00000000000000000000000000000000000000000000000000
00000000000000000000000000000000000000000000000000
00000000000000000000000000000000000000000000000000
00000000111000000000000000000000000000000000000000
00011111111111111100000000000000000000000000000000
01111111111111111111110000000000000000000000000000
01111111111111111111111000000000000000000000000000
11111111111111111111111110000000000000000000000000
11111111110000111111111111000000000000000000000000
11111111100000000011111111100000000000000000000000
11111111000000000001111111111000000000000000000000
11111111000000000000001111111100000000000000000000
11111110000000000000000111111110000000000000000000
11111110000000000000000111111111000000000000000000
01001100000000000000000011111111000000000000000000
00000000000000000000000011111111000000000000000000
00000000000000000000000001111111100000000000000000
00000000000000000000000001111111100000000000000000
00000000000000000000000001111111110000000000000000
00000000000000000000000001111111100000000000000000
00000000000000000000000011111111100000000000000000
00000000000000000000000011111111100000000000000000
00000000000000000000000011111111000000000000000000
00000000000000000000000111111110000000000000000000
00000000000000000000001111111110000000000000000000
00000000000000000000111111111100000000000000000000
00000000000000000001111111111000000000000000000000
00000000000000000001111111110000000000000000000000
00000000000000000011111111100000000000000000000000
00000000000000000111111111000000000000000000000000
00000000000000011111111110000000000000000000000000
00000000000000011111111110000000000000000000000000
00000000000000011111111100000000000000000000000000
00000000000000111111110000000000000000000000000000
00000000000001111111100000000000000000000000000000
00000000000001111111100000000000000000000000001000
00000000000011111111000000000000000001101110111100
00000000000111111111100000001110111011111111111100
00000000000111111111111011111111111111111111111111
00000000000111111111111111111111111111111111111110
00000000000011111111111111111111111111111111100000
00000000000011111111111111111111111111110000000000
00000000000001111111111111111111100000000000000000
00000000000001111111111100000000000000000000000000
00000000000000100000000000000000000000000000000000
00000000000000000000000000000000000000000000000000
00000000000000000000000000000000000000000000000000
00000000000000000000000000000000000000000000000000
00000000000000000000000000000000000000000000000000
00000000000000000000000000000000000000000000000000
00000000000000000000000000000000000000000000000000
00000000000000000000000000000000000000000000000000
00000000000000000000000000000000000000000000000000
00000000000000000000000000000000000000000000000000
