P1
50 70
00000000000000000000000000000000000000000000000000
00000000000000000000000000000000000000000000000000
00000000000000000000000000000000000000000000000000
00000000000000000000000000000000000000000000000000
00000000000000000000000000000000000000000000000000
00000000000000000000000000000000000000000000000000
00000000000000000000000000000000000000000000000000
00000000000000000000000000000000000000000000000000
00000000000000000000000000000000000000000000000000
00000000000000000000000000000000000000000000000000
00000000000000000000000000000000000000000000000000
00000000000000000000000000000000000000000000000000
00000000000000000000000000000000000000000000000000
00000000000000000000000000000000000000000000000000
00000000000000000000000000000000000000000000000000
00000000000000000000000000000000000000000000000000
00000000000000000000000000000000000000000000000000
00000000000000000000000000000000000000000000000000
00000000000000000000000000000000000000000000000000
00000000000111111100000000000000000000000000000000
00000000111111111111100000000000000000000000000000
00000001111111111111110000000000000000000000000000
00000001111111111111111000000000000000000000000000
00000011111111111111111000000000000000000000000000
00000111111111111111111110000000000000000000000000
00001111111110001111111110000000000000000000000000
00001111110000000011111111000000000000000000000000
00111111100000000000111111000000000000000000000000
01111111100000000000111111000000000000000000000000
00111111000000000000011111100000000000000000000000
00111110000000000000011111100000000000000000000000
00011100000000000000011111110000000000000000000000
00001100000000000000011111111000000000000000000000
00000000000000000000001111111000000000000000000000
00000000000000000000000111111000000000000000000000
00000000000000000000001111111000000000000000000000
00000000000000000000001111110000000000000000000000
00000000000000000000001111111000000000000000000000
00000000000000000000001111111000000000000000000000
00000000000000000000011111111000000000000000000000
00000000000000000000001111111000000000000000000000
00000000000000000000011111110000000000000000000000
00000000000000000000111111110000000000000000000000
00000000000000000000111111100000000000000000000000
00000000000000000000111111100000000000000000000000
00000000000000000001111111100000000000000000000000
00000000000000000001111111100000000000000000000000
00000000000000000011111111000000000000000000000000
00000000000000000011111111000000000000000000000000
00000000000000000111111110000000000000000000000000
00000000000000000111111100000000000000000000000000
00000000000000001111111100000000000000000000000000
00000000000000001111111000000000000000000000000000
00000000000000111111111000000000000000000000000000
00000000000000111111110000000000000000000000000000
00000000000001111111110000000010000011111000000000
00000000000001111111111101111111111111111111110000
00000000000011111111111111111111111111111111110000
00000000000011111111111111111111111111111111111000
00000000000011111111111111111111111111111111111100
00000000000011111111111011101111011011110111111100
00000000000001101110110000000000000000000000011000
00000000000000000000000000000000000000000000000000
00000000000000000000000000000000000000000000000000
00000000000000000000000000000000000000000000000000
00000000000000000000000000000000000000000000000000
00000000000000000000000000000000000000000000000000
00000000000000000000000000000000000000000000000000
00000000000000000000000000000000000000000000000000
00000000000000000000000000000000000000000000000000
