P1
50 70
00000000000000000000000000000000000000000000000000
00000000000000000000000000000000000000000000000000
00000000000000000000000000000000000000000000000000
00000000000000000000000000000000000000000000000000
00000000000000000000000000000000000000000000000000
00000000000000000000000000000000000000000000000000
00000000000000000000000000000000000000000000000000
00000000000000000000000000000000000000000000000000
00000000000000000000000000000000000000000000000000
00000000000000000000000000000000000000000000000000
00000000000000000000000000000000000000000000000000
00000000000000000000000000000000000000000000000000
00000000000000000000000000000000000000000000000000
00000000000000000000000000000000000000000000000000
00000000000000000000000000000000000000000000000000
00000000000000000000000000000000000000000000000000
00000000000000000000000000000000000000000000000000
00000000000000000000000000000000000000000000000000
00000000000000000000000000000000000000000000000000
00000000000000000000000000000000000000000000000000
00000000000000110111110000000000000000000000000000
00000000000111111111111100000000000000000000000000
00000000011111111111111111110000000000000000000000
00000001111111111111111111111100000000000000000000
00000011111111111111111111111110000000000000000000
00000111111111111111111111111111000000000000000000
00001111111111100100000111111111110000000000000000
00000111111111000000000001111111110000000000000000
00000111111110000000000000111111111000000000000000
00000111111110000000000000011111111000000000000000
00000111111100000000000000001111111100000000000000
00000111111110000000000000000111111100000000000000
00000111111110000000000000000111111100000000000000
00000011111111000000000000000111111110000000000000
00000001111111000000000000000111111110000000000000
00000001111100000000000000000011111110000000000000
00000000000000000000000000000111111110000000000000
00000000000000000000000000001111111110000000000000
00000000000000000000000000011111111100000000000000
00000000000000000000000000011111111100000000000000
00000000000000000000000000111111111000000000000000
00000000000000000000000011111111110000000000000000
00000000000000000000000111111111110000000000000000
00000000000000000000001111111111100000000000000000
00000000000000000000011111111100000000000000000000
00000000000000000000111111111000000000000000000000
00000000000000000000111111110000000000000000000000
00000000000000000001111111110000000000000000000000
00000000000000000001111111100000000000000000000000
00000000000000000011111110000000000000000000000000
00000000000000000011111110000000000000000000000000
00000000000000000011111110000000000000000000000000
00000000000000000011111110000000000000000000000000
00000000000000000011111110001111001101111111000000
00000000000000000001111111111111111111111111000000
00000000000000000001111111111111111111111111100000
00000000000000000001111111111111111111111111100000
00000000000000000000111111111111111111111111100000
00000000000000000000011111111111100001000000000000
00000000000000000000000000000000000000000000000000
00000000000000000000000000000000000000000000000000
00000000000000000000000000000000000000000000000000
00000000000000000000000000000000000000000000000000
00000000000000000000000000000000000000000000000000
00000000000000000000000000000000000000000000000000
00000000000000000000000000000000000000000000000000
00000000000000000000000000000000000000000000000000
00000000000000000000000000000000000000000000000000
00000000000000000000000000000000000000000000000000
00000000000000000000000000000000000000000000000000
