P1
50 70
00000000000000000000000000000000000000000000000000
00000000000000000000000000000000000000000000000000
00000000000000000000000000000000000000000000000000
00000000000000000000000000000000000000000000000000
00000000000000000000000000000000000000000000000000
00000000000000000000000000000000000000000000000000
00000000000000000000000000000000000000000000000000
00000000000000000000000000000000000000000000000000
00000000000000000000000000000000000000000000000000
00000000000000000000000000000000000000000000000000
00000000000000000000000000000000000000000000000000
00000000000000000000000000000000000000000000000000
00000000000000000000000000000000000000000000000000
00000000000000000000000000000000000000000000000000
00000000000000000000000000000000000000000000000000
00000000000000000000000000000000000000000000000000
00000000000000000000000000000000000000000000000000
00000000000000000000000000000000000000000000000000
00000000000000000000000000000000000000000000000000
00000000000000000000000000000000000000000000000000
00000000000000000000000000000000000000000000000000
00000000000000000011111100011000000000000000000000
00000000000011111111111111111110000000000000000000
00000000011111111111111111111111100000000000000000
00000000111111111111111111111111110000000000000000
00000011111111111110000001111111111000000000000000
00000111111111000000000000111111111100000000000000
00000011111111000000000000001111111110000000000000
00000001111110000000000000001111111100000000000000
00000001111110000000000000001111111100000000000000
00000001111100000000000000000111111100000000000000
00000001111110000000000000000011111100000000000000
00000001111110000000000000000111111110000000000000
00000000111100000000000000000111111100000000000000
00000000111000000000000000000111111100000000000000
00000000000000000000000000000011111000000000000000
00000000000000000000000000000111111000000000000000
00000000000000000000000000001111110000000000000000
00000000000000000000000000001111110000000000000000
00000000000000000000000000001111100000000000000000
00000000000000000000000000001111000000000000000000
00000000000000000000000000011111000000000000000000
00000000000000000000000000011111000000000000000000
00000000000000000000000000111110000000000000000000
00000000000000000000000001111100000000010000000000
00000000000000000000000001111100000000110000000000
00000000000000000000000000111100000001110000000000
00000000000000000000000001111000000011110000000000
00000000000000000000000011111000000011111000000000
00000000000000000000000011110000000001111000000000
00000000000000000000000111110000000011111000000000
00000000000000000000000111110000000111111100000000
00000000000000000000000111100000001111111000000000
00000000000000000000000111100000111111110000000000
00000000000000000000000111000001111111100000000000
00000000000000000000001111001111111111000000000000
00000000000000000000011111001111111100000000000000
00000000000000000000011111111111111000000000000000
00000000000000000000111111111111100000000000000000
00000000000000000000011111111111000000000000000000
00000000000000000000011111111110000000000000000000
00000000000000000000111111111100000000000000000000
00000000000000000000111111110000000000000000000000
00000000000000000000111111100000000000000000000000
00000000000000000001111111000000000000000000000000
00000000000000000001111110000000000000000000000000
00000000000000000000111110000000000000000000000000
00000000000000000000111100000000000000000000000000
00000000000000000000010000000000000000000000000000
00000000000000000000000000000000000000000000000000
