P1
50 70
00000000000000000000000000000000000000000000000000
00000000000000000000000000000000000000000000000000
00000000000000000000000000000000000000000000000000
00000000000000000000000000000000000000000000000000
00000000000000000000000000000000000000000000000000
00000000000000000000000000000000000000000000000000
00000000000000000000000000000000000000000000000000
00000000000000000000000000000000000000000000000000
00000000000000000000000000000000000000000000000000
00000000000000000000000000000000000000000000000000
00000000000000000000000000000000000000000000000000
00000000000000000000000000000000000000000000000000
00000000000000000000000000000000000000000000000000
00000000000000000000000000000000000000000000000000
00000000000000000000000000000000000000000000000000
00000000000000000000000000000000000000000000000000
00000000000000000000000000000000000000000000000000
00000000000000000000000000000000000000000000000000
00000000000000000000000000000000000000000000000000
00000000011111000110000000000000000000000000000000
00000000111111111111100000000000000000000000000000
00000111111111111111110000000000000000000000000000
00000111111111111111111100000000000000000000000000
00001111111111111111111111000000000000000000000000
00111111110000000111111111100000000000000000000000
00111111100000000001111111100000000000000000000000
00111111100000000000111111110000000000000000000000
00111111100000000000001111111000000000000000000000
00011111100000000000001111111100000000000000000000
00001111100000000000000111111110000000000000000000
00001111100000000000000111111110000000000000000000
00001111100000000000000011111110000000000000000000
00001111110000000000000001111111000000000000000000
00000111110000000000000001111111000000000000000000
00000011100000000000000000111111100000000000000000
00000000000000000000000000111111100000000000000000
00000000000000000000000001111111100000000000000000
00000000000000000000000000111111100000000000000000
00000000000000000000000000011111000000000000000000
00000000000000000000000000011111000000000000000000
00000000000000000000000000011111000000000000000000
00000000000000000000000000011111000000000000000000
00000000000000000000000000011111100000000000000000
00000000000000000000000000111111000000000000000000
00000000000000000000000000111111000000000000000000
00000000000000000000000000011111000000000000000000
00000000000000000000000000011110000000000000000000
00000000000000000000000000111110000000000000000000
00000000000000000000000000111110000000000000000000
00000000000000000000000000111110000000000000000000
00000000000000000000000000111110000000000000000000
00000000000000000000000001111110000000001100000000
00000000000000000000000001111100000000111110000000
00000000000000000000000001111100000000111110000000
00000000000000000000000011111000000000011110000000
00000000000000000000000011111000000000011111000000
00000000000000000000000011111000000000001111100000
00000000000000000000000011111000000000001111100000
00000000000000000000000011111000000001111111110000
00000000000000000000000011111000000111111111110000
00000000000000000000000111110000011111111111110000
00000000000000000000000111110001111111111111110000
00000000000000000000000111111111111111111111100000
00000000000000000000001111111111111111111100000000
00000000000000000000001111111111111111100000000000
00000000000000000000001111111111111110000000000000
00000000000000000000000111111111111000000000000000
00000000000000000000000111111110000000000000000000
00000000000000000000000111100000000000000000000000
00000000000000000000000011000000000000000000000000
