P1
50 70
00000000000000000000000000000000000000000000000000
00000000000000000000000000000000000000000000000000
00000000000000000000000000000000000000000000000000
00000000000000000000000000000000000000000000000000
00000000000000000000000000000000000000000000000000
00000000000000000000000000000000000000000000000000
00000000000000000000000000000000000000000000000000
00000000000000000000000000000000000000000000000000
00000000000000000000000000000000000000000000000000
00000000000000000000000000000000000000000000000000
00000000000000000000000000000000000000000000000000
00000000000000000000000000000000000000000000000000
00000000000000000000000000000000000000000000000000
00000000000000000000000000000000000000000000000000
00000000000000000000000000000000000000000000000000
00000000000000000000000000000000000000000000000000
00000000000000000000000000000000000000000000000000
00000000000000000000000000000000000000000000000000
00000000000000000000000000000000000000000000000000
00000000011111110110000000000000000000000000000000
00000000111111111111110000000000000000000000000000
00001111111111111111111000000000000000000000000000
00001111111111111111111100000000000000000000000000
00011111111111111111111111000000000000000000000000
00111111111111111111111111100000000000000000000000
00111111111111111111111111100000000000000000000000
00111111111111111111111111111000000000000000000000
00011111111100000011111111111000000000000000000000
00111111111000000001111111111100000000000000000000
00111111111000000000111111111110000000000000000000
00111111111000000000011111111110000000000000000000
00111111111000000000011111111110000000000000000000
00011111110000000000011111111110000000000000000000
00011111000000000000001111111110000000000000000000
00000000000000000000011111111110000000000000000000
00000000000000000000011111111111000000000000000000
00000000000000000000011111111111000000000000000000
00000000000000000000011111111111000000000000000000
00000000000000000000111111111110000000000000000000
00000000000000000000111111111100000000000000000000
00000000000000000011111111111100000000000000000000
00000000000000000011111111111100000000000000000000
00000000000000000011111111111100000000000000000000
00000000000000000011111111111000000000000000000000
00000000000000000111111111110000000000000000000000
00000000000000000111111111100000000000000000000000
00000000000000011111111111100000000000000000000000
00000000000000011111111111100000000000000000000000
00000000000000011111111111100000000000010000000000
00000000000000011111111111000000000000111111000000
00000000000000011111111110000000001111111111100000
00000000000000011111111110000000111111111111110000
00000000000000111111111111001111111111111111110000
00000000000000111111111111111111111111111111110000
00000000000000111111111111111111111111111111100000
00000000000000111111111111111111111111111100000000
00000000000000111111111111111111111111100000000000
00000000000000111111111111111111100000000000000000
00000000000000011111111111111111000000000000000000
00000000000000011111111111111000000000000000000000
00000000000000011111111110000000000000000000000000
00000000000000001111101000000000000000000000000000
00000000000000000000000000000000000000000000000000
00000000000000000000000000000000000000000000000000
00000000000000000000000000000000000000000000000000
00000000000000000000000000000000000000000000000000
00000000000000000000000000000000000000000000000000
00000000000000000000000000000000000000000000000000
00000000000000000000000000000000000000000000000000
00000000000000000000000000000000000000000000000000
