P1
50 70
00000000000000000000000000000000000000000000000000
00000000000000000000000000000000000000000000000000
00000000000000000000000000000000000000000000000000
00000000000000000000000000000000000000000000000000
00000000000000000000000000000000000000000000000000
00000000000000000000000000000000000000000000000000
00000000000000000000000000000000000000000000000000
00000000000000000000000000000000000000000000000000
00000000000000000000000000000000000000000000000000
00000000000000000000000000000000000000000000000000
00000000000000000000000000000000000000000000000000
00000000000000000000000000000000000000000000000000
00000000000000000000000000000000000000000000000000
00000000000000000000000000000000000000000000000000
00000000000000000000000000000000000000000000000000
00000000000000000000000000000000000000000000000000
00000000000000000000000000000000000000000000000000
00000000000000000000000000000000000000000000000000
00000000000000000000000000000000000000000000000000
00000000000000000000000000000000000000000000000000
00000000000000000100011000000000000000000000000000
00000000000011001111111110011110000000000000000000
00000000011111111111111111111111100000000000000000
01111111111111111111111111111111111000000000000000
11111111111111111111111111111111111110000000000000
11111111111111111111111111111111111110000000000000
11111111111111111111111111111111111111000000000000
11111111111111111111111111111111111111100000000000
11111111111111111111111111111111111111100000000000
11111111111111111111111111111111111111100000000000
11111111111110000000000111111111111111100000000000
11111111111000000000000011111111111111000000000000
11111111000000000000000001111111111111100000000000
11111110000000000000000001111111111111100000000000
11111100000000000000000000111111111111100000000000
01110000000000000000000001111111111111000000000000
01100000000000000000000001111111111111000000000000
01000000000000000000000001111111111111000000000000
00000000000000000000000001111111111110000000000000
00000000000000000000000001111111111100000000000000
00000000000000000000000011111111111100000000000000
00000000000000000000000011111111111000000000000000
00000000000000000000000111111111111000000000000000
00000000000000000000000111111111110000000000000000
00000000000000000000001111111111100000000000000000
00000000000000000000001111111111100000000000000000
00000000000000000000011111111111000000000000000000
00000000000000000000111111111110000000000000000000
00000000000000000000111111111100000000000000000000
00000000000000000001111111111100000000000110000000
00000000000000000001111111111100000000111111000000
00000000000000000011111111111000000001111111000000
00000000000000000011111111111000001111111111000000
00000000000000000111111111110000011111111111000000
00000000000000000111111111110011111111111111000000
00000000000000000111111111111111111111111111100000
00000000000000001111111111111111111111111111000000
00000000000000001111111111111111111111111110000000
00000000000000011111111111111111111111111100000000
00000000000000011111111111111111111111110000000000
00000000000000001111111111111111111111100000000000
00000000000000011111111111111111111100000000000000
00000000000000011111111111111111111000000000000000
00000000000000011111111111111111100000000000000000
00000000000000011111111111111111000000000000000000
00000000000000011111111111111100000000000000000000
00000000000000001111111111110000000000000000000000
00000000000000000111111111100000000000000000000000
00000000000000000111111111000000000000000000000000
00000000000000000111111110000000000000000000000000
