P1
50 70
00000000000000000000000000000000000000000000000000
00000000000000000000000000000000000000000000000000
00000000000000000000000000000000000000000000000000
00000000000000000000000000000000000000000000000000
00000000000000000000000000000000000000000000000000
00000000000000000000000000000000000000000000000000
00000000000000000000000000000000000000000000000000
00000000000000000000000000000000000000000000000000
00000000000000000000000000000000000000000000000000
00000000000000000000000000000000000000000000000000
00000000000000000000000000000000000000000000000000
00000000000000000000000000000000000000000000000000
00000000000000000000000000000000000000000000000000
00000000000000000000000000000000000000000000000000
00000000000000001111000000000000000000000000000000
00000000000000111111111100000000000000000000000000
00000000000111111111111111100000000000000000000000
00000000111111111111111111110000000000000000000000
00000011111111111111111111110000000000000000000000
00001111111111111111111111111000000000000000000000
00111111111111111111111111111100000000000000000000
11111111100000111111111111111110000000000000000000
11111111000000000111111111111110000000000000000000
11111110000000000111111111111111000000000000000000
11111110000000000011111111111111100000000000000000
11111100000000000001111111111111100000000000000000
11111100000000000000111111111111110000000000000000
11111100000000000000111111111111110000000000000000
11111100000000000000111111111111100000000000000000
01111100000000000000011111111111100000000000000000
00111100000000000000111111111111100000000000000000
00111000000000000000111111111111000000000000000000
00000000000000000000111111111111000000000000000000
00000000000000000000111111111110000000000000000000
00000000000000000111111111111111110000000000000000
00000000000000001111111111111111111100000000000000
00000000000000111111111111111111111110100000000000
00000000000000111111111111111111111111110000000000
00000000000000011111111111111111111111111000000000
00000000000000011111100111111111111111111110000000
00000000000000000000000000111111111111111111000000
00000000000000000000000000011111111111111111100000
00000000000000000000000000001111111111111111100000
00000000000000000000000000000111111111111111110000
00000000000000000000000000000011111111111111111000
00000000000000000000000000000011111111111111111100
00000000000000000000000000000000111111111111111100
00000000000000000000000000000000111111111111111100
00000000000000000000000000000000011111111111111100
00000000000000000000000000000000011111111111111100
00000000000011000000000000000000001111111111111100
00000000000111100000000000000000011111111111111100
00000000001111110000000000000000011111111111111100
00000000001111110000000000000000111111111111111100
00000000001111111000000000000001111111111111111000
00000000000111111100000000000011111111111111110000
00000000000011111111001100111111111111111111000000
00000000000011111111111111111111111111111100000000
00000000000011111111111111111111111111111000000000
00000000000000111111111111111111111000000000000000
00000000000000000111111011100110000000000000000000
00000000000000000000000000000000000000000000000000
00000000000000000000000000000000000000000000000000
00000000000000000000000000000000000000000000000000
00000000000000000000000000000000000000000000000000
00000000000000000000000000000000000000000000000000
00000000000000000000000000000000000000000000000000
00000000000000000000000000000000000000000000000000
00000000000000000000000000000000000000000000000000
00000000000000000000000000000000000000000000000000
