P1
50 70
00000000000000000000000000000000000000000000000000
00000000000000000000000000000000000000000000000000
00000000000000000000000000000000000000000000000000
00000000000000000000000000000000000000000000000000
00000000000000000000000000000000000000000000000000
00000000000000000000000000000000000000000000000000
00000000000000000000000000000000000000000000000000
00000000000000000000000000000000000000000000000000
00000000000000000000000000000000000000000000000000
00000000000000000000000000000000000000000000000000
00000000000000000000000000000000000000000000000000
00000000000000000000000000000000000000000000000000
00000000000000000000000000000000000000000000000000
00000000000000000000000000000000000000000000000000
00000000000000000000000000000000000000000000000000
00000000000000000000000000000000000000000000000000
00000000000000000000000000000000000000000000000000
00000000000000000000000000000000000000000000000000
00000000000000001000000000000000000000000000000000
00000000000011111111100000000000000000000000000000
00000000000111111111111000000000000000000000000000
00000000001111111111111110100000000000000000000000
00000000011111111111111111110000000000000000000000
00000000011111111111111111111110000000000000000000
00000000011111111111111111111111000000000000000000
00000000011111111111111111111111000000000000000000
00000000011111111111111111111111110000000000000000
00000000011111111111111111111111111000000000000000
00000000001111111111000111111111111100000000000000
00000000000011111110000001111111111110000000000000
00000000000001111110000000011111111110000000000000
00000000000000000110000000001111111111000000000000
00000000000000000000000000001111111111100000000000
00000000000000000000000000000111111111100000000000
00000000000000000000000000000111111111000000000000
00000000000000000000000000000111111111000000000000
00000000000000000000000000001111111111000000000000
00000000000000000000011110111111111111000000000000
00000000000000000000111111111111111110000000000000
00000000000000000001111111111111111110000000000000
00000000000000000001111111111111111000000000000000
00000000000000000000111111111111110000000000000000
00000000000000000000111111111111100000000000000000
00000000000000000000111111111111100000000000000000
00000000000000000000011111111111100000000000000000
00000000000000000000000111111111110000000000000000
00000000000000000000000011111111111000000000000000
00000000000000000000000000011111111000000000000000
00000000000011111100000000011111111000000000000000
00000000001111111100000000001111111100000000000000
00000000000111111110000000001111111100000000000000
00000000000111111110000000001111111100000000000000
00000000000011111110000000011111111000000000000000
00000000000011111111100001111111111000000000000000
00000000000011111111111111111111111000000000000000
00000000000011111111111111111111110000000000000000
00000000000001111111111111111111100000000000000000
00000000000000111111111111111111000000000000000000
00000000000000001111111111111110000000000000000000
00000000000000000111111111111000000000000000000000
00000000000000000000011011100000000000000000000000
00000000000000000000000000000000000000000000000000
00000000000000000000000000000000000000000000000000
00000000000000000000000000000000000000000000000000
00000000000000000000000000000000000000000000000000
00000000000000000000000000000000000000000000000000
00000000000000000000000000000000000000000000000000
00000000000000000000000000000000000000000000000000
00000000000000000000000000000000000000000000000000
00000000000000000000000000000000000000000000000000
