P1
50 70
00000000000000000000000000000000000000000000000000
00000000000000000000000000000000000000000000000000
00000000000000000000000000000000000000000000000000
00000000000000000000000000000000000000000000000000
00000000000000000000000000000000000000000000000000
00000000000000000000000000000000000000000000000000
00000000000000000000000000000000000000000000000000
00000000000000000000000000000000000000000000000000
00000000000000000000000000000000000000000000000000
00000000000000000000000000000000000000000000000000
00000000000000000000000000000000000000000000000000
00000000000000000000000000000000000000000000000000
00000000000011111000111111111100000000000000000000
00000110000111111111111111111111000000000000000000
00000111111111111111111111111111110000000000000000
00011111111111111111111111111111111000000000000000
11111111111111111111111111111111111110000000000000
11111111111111111111111111111111111111000000000000
11111111111111111111111111111111111111000000000000
11111111111111111111111111111111111111100000000000
11111111111111111111111111111111111111100000000000
11111111111111111101111111111111111111110000000000
11111111111110000000001111111111111111111000000000
01111111111100000000000011111111111111111000000000
00111111110000000000000001111111111111111000000000
00011000000000000000000000111111111111110000000000
00000000000000000000000000011111111111100000000000
00000000000000000000000000111111111111100000000000
00000000000000000000000000111111111111000000000000
00000000000000000000000001111111111111000000000000
00000000000000000000000011111111111110000000000000
00000000000000000000001111111111111100000000000000
00000000000000000000111111111111111111110000000000
00000000000000001111111111111111111111111100000000
00000000000000011111111111111111111111111111000000
00000000000000111111111111111111111111111111100000
00000000000000011111111111111111111111111111110000
00000000000000011111111111111111111111111111111000
00000000000000011111111111111111111111111111111000
00000000000000001111111111111111111111111111111000
00000000000000000111111111100011111111111111111000
00000000000000000011100000000000111111111111111000
00000000000000000000000000000000001111111111111000
00000000000000000000000000000000001111111111111000
00000000000000000000000000000000000111111111111000
00000000000000000000000000000000000111111111111000
00000000000000000000000000000000000111111111110000
00000000000000000000000000000000001111111111111000
00000000000000000000000000000000011111111111110000
00000000000000000000000000000000011111111111100000
00000000000000000000000000000001111111111111100000
00000000000000000000000000000111111111111111000000
00000000000000000000000000001111111111111110000000
00000000000000000000000111111111111111111100000000
00000000000000011101111111111111111111111000000000
00000000000000001111111111111111111111100000000000
00000000000000001111111111111111111111000000000000
00000000000000001111111111111111111100000000000000
00000000000000000111111111111111110000000000000000
00000000000000000111111111111111000000000000000000
00000000000000000011111111111100000000000000000000
00000000000000000011111111111000000000000000000000
00000000000000000001111111000000000000000000000000
00000000000000000000110000000000000000000000000000
00000000000000000000000000000000000000000000000000
00000000000000000000000000000000000000000000000000
00000000000000000000000000000000000000000000000000
00000000000000000000000000000000000000000000000000
00000000000000000000000000000000000000000000000000
00000000000000000000000000000000000000000000000000
