P1
50 70
00000000000000000000000000000000000000000000000000
00000000000000000000000000000000000000000000000000
00000000000000000000000000000000000000000000000000
00000000000000000000000000000000000000000000000000
00000000000000000000000000000000000000000000000000
00000000000000000000000000000000000000000000000000
00000000000000000000000000000000000000000000000000
00000000000000000000000000000000000000000000000000
00000000000000000000000000000000000000000000000000
00000000000000000000000000000000000000000000000000
00000000000000000000000000000000000000000000000000
00000000000000000000000000000000000000000000000000
00000000000000000000000000000000000000000000000000
00000000000000000000000000000000000000000000000000
00000000000000000000000000000000000000000000000000
00000000000000000000000000000000000000000000000000
00000000000000000000000000000000000000000000000000
00000000000000000000000000000000000000000000000000
00000000111000000000000000000000000000000000000000
00000001111111000100000000000000000000000000000000
00000001111111111111110000000000000000000000000000
00000001111111111111111100000000000000000000000000
00000000111111111111111111110000000000000000000000
00000000111111111111111111111110000000000000000000
00000001111111100010011111111111000000000000000000
00000001111111000000000111111111110000000000000000
00000000111110000000000011111111111000000000000000
00000000011110000000000011111111111100000000000000
00000000011110000000000001111111111100000000000000
00000000011110000000000000111111111110000000000000
00000000000100000000000000111111111110000000000000
00000000000000000000000000111111111110000000000000
00000000000000000000000000111111111111000000000000
00000000000000000000000000111111111110000000000000
00000000000000000000000000111111111110000000000000
00000000000000000000000001111111111110000000000000
00000000000000000000001111111111111100000000000000
00000000000000000001111111111111111000000000000000
00000000000000000011111111111111100000000000000000
00000000000000000011111111111111110000000000000000
00000000000000000001111111111111111000000000000000
00000000000000000000100011111111111110000000000000
00000000000000000000000000111111111111000000000000
00000000000000000000000000011111111111000000000000
00000000000000000000000000001111111111100000000000
00000000000000000000000000001111111111100000000000
00000000000000000000000000000111111111100000000000
00000000000000000000000000000111111111000000000000
00000000000000000000000000001111111111100000000000
00000000000000000000000000001111111111100000000000
00000000000001110000000000001111111111100000000000
00000000000001111000000000001111111111000000000000
00000000000001111000000000011111111110000000000000
00000000000001111100000000111111111100000000000000
00000000000011111100000011111111111100000000000000
00000000000011111111111111111111110000000000000000
00000000000001111111111111111111000000000000000000
00000000000000111111111111111000000000000000000000
00000000000000111111111100000000000000000000000000
00000000000000010000000000000000000000000000000000
00000000000000000000000000000000000000000000000000
00000000000000000000000000000000000000000000000000
00000000000000000000000000000000000000000000000000
00000000000000000000000000000000000000000000000000
00000000000000000000000000000000000000000000000000
00000000000000000000000000000000000000000000000000
00000000000000000000000000000000000000000000000000
00000000000000000000000000000000000000000000000000
00000000000000000000000000000000000000000000000000
00000000000000000000000000000000000000000000000000
