P1
50 70
00000000000000000000000000000000000000000000000000
00000000000000000000000000000000000000000000000000
00000000000000000000000000000000000000000000000000
00000000000000000000000000000000000000000000000000
00000000000000000000000000000000000000000000000000
00000000000000000000000000000000000000000000000000
00000000000000000000000000000000000000000000000000
00000000000000000000000000000000000000000000000000
00000000000000000000000000000000000000000000000000
00000000000000000000000000000000000000000000000000
00000000000000000000000000000000000000000000000000
00000000000000000000000000000000000000000000000000
00000000000000000000000000000100000000000000000000
00000000000000000000000001111111111000000000000000
00000000000000000000000011111111111111111100000000
00000000000000000000000111111111111111111111111000
00000000000000000000000111111111111111111111111100
00000000000000000000000111111111111111111111111100
00000000000000000000001111111111001001111111111100
00000000000000000000001111111000000000111111111100
00000000000000000000001111110000000000111111111100
00000000000000000000011111100000000000011111111100
00000000000000000000111111000000000000011111111100
00000000000000000000111110000000000000111111111100
00000000000000000000111100000000000000011111111110
00000000000000000000000000000000000000011111111110
00000000000000000000000000000000000000011111111110
00000000000000000000000000000000000000111111111110
00000000000000000000000000000000000000111111111110
00000000000000000000000000000000000000111111111110
00000000000000000000000000000000000001111111111110
00000000000000000000000000000000000011111111111110
00000000000000000000000000000000001111111111111110
00000000000000000000000000000000001111111111111110
00000000000000000000000000000111111111111111111110
00000000000000000000000011111111111111111111111100
00000000000000000000000111111111111111111111111000
00000000000000000000000111111111111111111111100000
00000000000000000000001111111111111111111111000000
00000000000000000000000111111111111111111100000000
00000000000000000000000001111111111111111000000000
00000000000000000000000000001111111111111100000000
00000000000000000000000000000011111111111110000000
10000000000000000000000000000001111111111110000000
00000000000000000000000000000001111111111111000000
10000000000000000000000000000000111111111111000000
00000000000000000000000000000001111111111111100000
11000000000000000000000000000001111111111111110000
11000111000000000000000000000001111111111111110000
11000111110000000000000000000001111111111111110000
00000111111000000000000000000001111111111111110000
11101111110000000000000000000001111111111111110000
01011111110000000000000000000001111111111111100000
00011111110000000000000000000011111111111111100000
00111111110000000000000000000111111111111111100000
11111111110000000000000000001111111111111111000000
11011111111000000000000000011111111111111111000000
00001111111100000000000000111111111111111111000000
00001111111110000000000011111111111111111110000000
00111111111111111111101111111111111111111000000000
11110111111111111111111111111111111111111000000000
00000001111111111111111111111111111111110000000000
11000000001111111111111111111111111111100000000000
11000000000000111111111111111111111110000000000000
00010000000000000111111111111111111000000000000000
00000000000000000000000011111100000000000000000000
00011000000000000000000000000000000000000000000000
00000000000000000000000000000000000000000000000000
00000000000000000000000000000000000000000000000000
00000000000000000000000000000000000000000000000000
