P1
50 70
00000000000000000000000000000000000000000000000000
00000000000000000000000000000000000000000000000000
00000000000000000000000000000000000000000000000000
00000000000000000000000000000000000000000000000000
00000000000000000000000000000000000000000000000000
00000000000000000000000000000000000000000000000000
00000000000000000000000000000000000000000000000000
00000000000000000000000000000000000000000000000000
00000000000000000000000000000000000000000000000000
00000000000000000000000000000000000000000000000000
00000000000000000000000000000000000000000000000000
00000000000000000000000000000000000000000000000000
00000000000000000000000000000000000000000000000000
00000000000000000000000000000000000000000000000000
00000000000000000000000000000000000000000000000000
00000000000000000000000000000000000000000000000000
00000011110000010000000000000000000000000000000000
11111111111111111111111000000000000000000000000000
11111111111111111111111111110000000000000000000000
11111111111111111111111111111000000000000000000000
11111111111111111111111111111100000000000000000000
11111111000001111111111111111111000000000000000000
11111110000000001111111111111111100000000000000000
11111100000000000011111111111111111000000000000000
11111100000000000000111111111111111100000000000000
11111000000000000000111111111111111110000000000000
11111000000000000000001111111111111110000000000000
01111000000000000000001111111111111110000000000000
00000000000000000000001111111111111110000000000000
00000000000000000000001111111111111110000000000000
00000000000000000000001111111111111110000000000000
00000000000000000000001111111111111110000000000000
00000000000000000000001111111111111110000000000000
00000000000000000000111111111111111100000000000000
00000000000000000011111111111111111100000000000000
00000000000000111111111111111111110000000000000000
00000000000000111111111111111111110000000000000000
00000000000000111111111111111111111100000000000000
00000000000000011111111111111111111111100000000000
00000000000000000001101111111111111111111000000000
00000000000000000000000111111111111111111110000000
00000000000000000000000000111111111111111111000000
00000000000000000000000000011111111111111111110000
00000000000000000000000000000111111111111111110000
00000000000000000000000000000011111111111111110000
00000000000000000000000000000011111111111111110000
00000000000000000000000000000001111111111111111000
00000000000000000000000000000000111111111111111000
00000000000000000000000000000000111111111111111110
00000000111100000000000000000000111111111111111110
00000000111111000000000000000000011111111111111100
00000000011111000000000000000000011111111111111100
00000000011111000000000000000000111111111111111000
00000000011111111000000000000001111111111111111000
00000000011111111100000000000111111111111111110000
00000000011111111110000000011111111111111111100000
00000000001111111111111111111111111111111111000000
00000000000111111111111111111111111111111100000000
00000000000111111111111111111111111111100000000000
00000000000011100011111111111111000000000000000000
00000000000000000000000000000000000000000000000000
00000000000000000000000000000000000000000000000000
00000000000000000000000000000000000000000000000000
00000000000000000000000000000000000000000000000000
00000000000000000000000000000000000000000000000000
00000000000000000000000000000000000000000000000000
00000000000000000000000000000000000000000000000000
00000000000000000000000000000000000000000000000000
00000000000000000000000000000000000000000000000000
00000000000000000000000000000000000000000000000000
