P1
50 70
00000000000000000000000000000000000000000000000000
00000000000000000000000000000000000000000000000000
00000000000000000000000000000000000000000000000000
00000000000000000000000000000000000000000000000000
00000000000000000000000000000000000000000000000000
00000000000000000000000000000000000000000000000000
00000000000000000000000000000000000000000000000000
00000000000000000000000000000000000000000000000000
00000000000000000000000000000000000000000000000000
00000000000000000000000000000000000000000000000000
00000000000000000000000000000000000000000000000000
00000000000000000000000000000000000000000000000000
00000000000000000000000000000000000000000000000000
00000000000000000000000000000000000000000000000000
00000000000000000000000000000000000000000000000000
00000000000000000000000000000000000000000000000000
00000000000000000000000000000000000000000000000000
00000000000000000000000000011000000000000000000000
00000000000000000000000001111111101111000000000000
00000000000000000000001111111111111111110000000000
00000000000000000000011111111111111111111110000000
00000000000000000000011111111111111111111111000000
00000000000000000000111111111111111111111111110000
00000000000000000000111111111111111111111111111000
00000000000000000000111111111111111111111111111000
00000000000000000000111111111111111111111111111100
00000000000000000001111111111111111111111111111100
00000000000000000000111111110001111111111111111100
00000000000000000000000000000000000111111111111100
00000000000000000000000000000000000011111111111100
00000000000000000000000000000000000011111111111100
00000000000000000000000000000000000011111111111100
00000000000000000000000000000000000011111111111100
00000000000000000000000000000000000111111111111100
00000000000000000000000000000000000111111111111100
00000000000000000000000000000010001111111111111000
00000000000000000000000000000111111111111111110000
00000000000000000000001111111111111111111111100000
00000000000000000000011111111111111111111111000000
00000000000000000000011111111111111111111110000000
00000000000000000000011111111111111111111100000000
00000000000000000000111111111111111111111100000000
00000000000000000000111111111111111111111110000000
00000000000000000000111111111111111111111111000000
00000000000000000001111111111111111111111111100000
00000000000000000000000000111111111111111111100000
00000000000000000000000000000011111111111111110000
00000000000000000000000000000000111111111111110000
00000000000000000000000000000000111111111111100000
00000000000000000000000000000000111111111111100000
00000000000000000000000000000000011111111111100000
00000000000000000000000000000000011111111111100000
00000000000000000000000000000000111111111111100000
00000000000000000000000000000001111111111111100000
00000001111000000000000000000011111111111111000000
00000001111100000000000000001111111111111111000000
00000011111111100000000000111111111111111110000000
00000011111111111111111111111111111111111100000000
01000011111111111111111111111111111111111000000000
01000111111111111111111111111111111111111000000000
01001111111111111111111111111111111111100000000000
00001111111111111111111111111111111110000000000000
00011111111111111111111111111111111000000000000000
00001111111111111111111111111111000000000000000000
00000111111111111111111111111100000000000000000000
00000000111111100111100000000000000000000000000000
00000000000010000000000000000000000000000000000000
00000000000000000000000000000000000000000000000000
00000000000000000000000000000000000000000000000000
00000000000000000000000000000000000000000000000000
