P1
50 70
00000000000000000000000000000000000000000000000000
00000000000000000000000000000000000000000000000000
00000000000000000000000000000000000000000000000000
00000000000000000000000000000000000000000000000000
00000000000000000000000000000000000000000000000000
00000000000000000000000000000000000000000000000000
00000000000000000000000000000000000000000000000000
00000000000000000000000000000000000000000000000000
00000000000000000000000000000000000000000000000000
00000000000000000000000000000000000000000000000000
00000000000000000000000000001111000000000000000000
00000000000000000001111111111111111100000000000000
00000000000000011111111111111111111111100000000000
00000000000011111111111111111111111111110000000000
00000000000111111111111111111111111111111000000000
00000000001111111111111111111111111111111100000000
00000000001111111111111111111111111111111100000000
00000000001111111111111111111111111111111100000000
00000000000111111111111111111111111111111100000000
00000000000111111111111111011111111111111100000000
00000000001111111111100010001111111111111100000000
00000000001111111100000000001111111111111000000000
00000000001111100000000000000111111111111100000000
00000000001100000000000000000011111111111100000000
00000000000000000000000000000111111111111100000000
00000000000000000000000000000111111111111000000000
00000000000000000000000000000111111111110000000000
00000000000000000000000000000111111111100000000000
00000000000000000000000000001111111111000000000000
00000000000000000000000000011111111111000000000000
00000000000000000000000000111111111110000000000000
00000000000000000000000111111111111000000000000000
00000000000000000000111111111111111100000000000000
00000000000000000001111111111111111111000000000000
00000000000000000111111111111111111111110000000000
00000000000000000111111111111111111111111000000000
00000000000000001111111111111111111111111000000000
00000000000000001111111111111111111111111100000000
00000000000000001111111111111111111111111100000000
00000000000000001111111111111111111111111100000000
00000000000000001111111110011111111111111100000000
00000000000000001111100000001111111111111100000000
00000000000000000000000000000111111111111100000000
00000000000000000000000000000011111111111100000000
00000000000000000000000000000011111111111000000000
00000000000000000000000000000011111111111000000000
00000000000000000000000000000011111111110000000000
00000000000000000000000000000111111111110000000000
00000000000000000000000000000111111111110000000000
00000000000000000000000000000111111111110000000000
00000000000000000000000000001111111111100000000000
00000000000000000000000000011111111111000000000000
00000000000000000000000000111111111110000000000000
00000000000000000000000111111111111110000000000000
00000000000000000000000111111111111100000000000000
00000000000000000011111111111111111000000000000000
00000000001101101111111111111111110000000000000000
00000000011111111111111111111111000000000000000000
00000000011111111111111111111100000000000000000000
00000000011111111111111111111100000000000000000000
00000000011111111111111111110000000000000000000000
00000000011111111111111110000000000000000000000000
00000000011111111111111000000000000000000000000000
00000000011111111111110000000000000000000000000000
00000000011111111111000000000000000000000000000000
00000000011111110000000000000000000000000000000000
00000000011111100000000000000000000000000000000000
00000000011100000000000000000000000000000000000000
00000000000000000000000000000000000000000000000000
00000000000000000000000000000000000000000000000000
