P1
50 70
00000000000000000000000000000000000000000000000000
00000000000000000000000000000000000000000000000000
00000000000000000000000000000000000000000000000000
00000000000000000000000000000000000000000000000000
00000000000000000000000000000000000000000000000000
00000000000000000000000000000000000000000000000000
00000000000000000000000000000000000000000000000000
00000000000000000000000000000000000000000000000000
00000000000000000000000000000000000000000000000000
00000000000000000000000000000000000000000000000000
00000000000000000000000000000000000000000000000000
00000000000000000000000000000000000000000000000000
00000000000000000000000000000000000000000000000000
00000000000000000000001110000000000000000000000000
00000000000000000000111111111000000000000000000000
00000000000000111111111111111110000000000000000000
00000000000011111111111111111111100000000000000000
00000000001111111111111111111111110000000000000000
00000000011111111110001111111111110000000000000000
00000000111111111000000001111111110000000000000000
00000000111111100000000000111111110000000000000000
00000000111110000000000000011111110000000000000000
00000000111110000000000000011111111000000000000000
00000000111100000000000000001111111000000000000000
00000000111110000000000000001111111000000000000000
00000000111110000000000000001111111000000000000000
00000000011100000000000000001111111000000000000000
00000000000000000000000000001111110000000000000000
00000000000000000000000000001111110000000000000000
00000000000000000000000000011111110000000000000000
00000000000000000000000000111111100000000000000000
00000000000000000000000001111111000000000000000000
00000000000000000000000111111110000000000000000000
00000000000000000000111111111000000000000000000000
00000000000000000001111111111100000000000000000000
00000000000000000111111111111111100000000000000000
00000000000000000111111111111111110000000000000000
00000000000000000111111111111111111000000000000000
00000000000000000011100011111111111000000000000000
00000000000000000000000000011111111100000000000000
00000000000000000000000000000111111100000000000000
00000000000000000000000000000011111110000000000000
00000000000000000000000000000011111110000000000000
00000000000000000000000000000001111110000000000000
00000000000000000000000000000000111110000000000000
00000000000000000000000000000001111111000000000000
00000000000000000000000000000001111111000000000000
00000000000000000000000000000001111110000000000000
00000000000000000000000000000001111111000000000000
00000000000000000000000000000001111110000000000000
00000000000001100000000000000001111100000000000000
00000000000001110000000000000011111100000000000000
00000000000001110000000000000111111100000000000000
00000000000001110000000000001111111000000000000000
00000000000001111000000000011111110000000000000000
00000000000001111111111011111111100000000000000000
00000000000000111111111111111111000000000000000000
00000000000000111111111111111100000000000000000000
00000000000000111111111100000000000000000000000000
00000000000000010011110000000000000000000000000000
00000000000000000000000000000000000000000000000000
00000000000000000000000000000000000000000000000000
00000000000000000000000000000000000000000000000000
00000000000000000000000000000000000000000000000000
00000000000000000000000000000000000000000000000000
00000000000000000000000000000000000000000000000000
00000000000000000000000000000000000000000000000000
00000000000000000000000000000000000000000000000000
00000000000000000000000000000000000000000000000000
00000000000000000000000000000000000000000000000000
