P1
50 70
00000000000000000000000000000000000000000000000000
00000000000000000000000000000000000000000000000000
00000000000000000000000000000000000000000000000000
00000000000000000000000000000000000000000000000000
00000000000000000000000000000000000000000000000000
00000000000000000000000000000000000000000000000000
00000000000000000000000000000000000000000000000000
00000000000000000000000000000000000000000000000000
00000000000000000000000000000000000000000000000000
00000000000000000000000000000000000000000000000000
00000000000000000000000000000000000000000000000000
00000000000000000000000000000000000000000000000000
00000000000001110000000000000000000000000000000000
00000000000011111111000000000000000000000000000000
00000000000111111111111000000000000000000000000000
00000000111111111111111100000000000000000000000000
00000001111111111111111110000000000000000000000000
00000001111111111111111111000000000000000000000000
00000001111111111111111111100000000000000000000000
00000011111100001011111111100000000000000000000000
00000001110000000001111111100000000000000000000000
00000001110000000000111111100000000000000000000000
00000001100000000000011111110000000000000000000000
00000011100000000000001111111000000000000000000000
00000011000000000000001111110000000000000000000000
00000011100000000000000111110000000000000000000000
00000111000000000000000111110000000000000000000000
00000001000000000000000111110000000000000000000000
00000000000000000000000111110000000000000000000000
00000000000000000000000111100000000000000000000000
00000000000000000000000111100000000000000000000000
00000000000000000000001111100000000000000000000000
00000000000000000000000111111000000000000000000000
00000000000000000000011111111110000000000000000000
00000000000000000000111111111111000000000000000000
00000000000000000001111111111111110000000000000000
00000000000000000011111111111111111000000000000000
00000000000000000111111111111111111100000000000000
00000000000000001111111111111111111110000000000000
00000000000000000000000000111111111111000000000000
00000000000000000000000000011111111111100000000000
00000000000000000000000000000011111111100000000000
00000000000000000000000000000001111111110000000000
00000000000000000000000000000000011111110000000000
00000000000000000000000000000000011111110000000000
00000000000000000000000000000000001111111000000000
00000000000000000000000000000000001111110000000000
00000000000000000000000000000000001111110000000000
00000000000000000000000000000000001111111000000000
00000000000000000000000000000000000011111000000000
00000000000000000000000000000000000011111000000000
00000000000000000000000000000000000011111000000000
00000000000000000000000000000000000111110000000000
00000000000000000000000000000000000111110000000000
00000000000000000000000000000000001111100000000000
00000000000000000000000000000000001111000000000000
00000000000000000000000000000000011111000000000000
00000000000000000111100000000000111110000000000000
00000000000000001111111111110011111100000000000000
00000000000000011111111111111111110000000000000000
00000000000000011111111111111111000000000000000000
00000000000000001111111111111110000000000000000000
00000000000000001111111111000000000000000000000000
00000000000000000011110000000000000000000000000000
00000000000000000000000000000000000000000000000000
00000000000000000000000000000000000000000000000000
00000000000000000000000000000000000000000000000000
00000000000000000000000000000000000000000000000000
00000000000000000000000000000000000000000000000000
00000000000000000000000000000000000000000000000000
