P1
50 70
00000000000000000000000000000000000000000000000000
00000000000000000000000000000000000000000000000000
00000000000000000000000000000000000000000000000000
00000000000000000000000000000000000000000000000000
00000000000000000000000000000000000000000000000000
00000000000000000000000000000000000000000000000000
00000000000000000000000000000000000000000000000000
00000000000000000000000000000000000000000000000000
00000000000000000000000000000000000000000000000000
00000000000000000000000000000000000000000000000000
00000000000000000000000010001110000001000000000000
00000000000000000001111111111111111111100000000000
00000000000000000111111111111111111111110000000000
00000000000000000111111111111111111111111100000000
00000000000000000011111111111111111111111110000000
00000000000000000011111111111111111111111111000000
00000000000000000111111111111111111111111111100000
00000000000000000111111110000000111111111111100000
00000000000000000111111100000000001011111111110000
00000000000000000000000000000000000001111111110000
00000000000000000000000000000000000000111111110000
00000000000000000000000000000000000000111111111000
00000000000000000000000000000000000000111111111000
00000000000000000000000000000000000000001111111000
00000000000000000000000000000000000000001111111000
00000000000000000000000000000000000000011111110000
00000000000000000000000000000000000000111111111000
00000000000000000000000000000000000000111111110000
00000000000000000000000000000000000000111111110000
00000000000000000000000000000000000000111111100000
00000000000000000000000000000000000001111111100000
00000000000000000000000000000000000111111111100000
00000000000000000000100000000000111111111111000000
00000000000000000000111111100111111111111110000000
00000000000000000001111111111111111111111000000000
00000000000000000001111111111111111111110000000000
00000000000000000011111111111111111111000000000000
00000000000000000011111111111111111110000000000000
00000000000000000001101111111111111110000000000000
00000000000000000000000000011111111111100000000000
00000000000000000000000000000011111111110000000000
00000000000000000000000000000000111111111000000000
00000000000000000000000000000000011111111000000000
00000000000000000000000000000000001111111000000000
00000000000000000000000000000000001111111100000000
00000000000000000000000000000000001111111100000000
00000000000000000000000000000000001111111100000000
00000000000000000000000000000000001111111110000000
00000000000000000000000000000000001111111110000000
00000000000000000000000000000000000111111110000000
00000000000000000000000000000000000111111110000000
00001110000000000000000000000000000111111100000000
00001111100000000000000000000000001111111100000000
00011111100000000000000000000000011111111000000000
00011111111110000000000000000011111111111000000000
00011111111111110000000000001111111111111000000000
00011111111111111111111000111111111111110000000000
00000111111111111111111111111111111111110000000000
00000001111111111111111111111111111111100000000000
00000000011111111111111111111111111111000000000000
00000000000111111111111111111111111100000000000000
00000000000000000011111111111111111000000000000000
00000000000000000001111001111110000000000000000000
00000000000000000000000000000000000000000000000000
00000000000000000000000000000000000000000000000000
00000000000000000000000000000000000000000000000000
00000000000000000000000000000000000000000000000000
00000000000000000000000000000000000000000000000000
00000000000000000000000000000000000000000000000000
00000000000000000000000000000000000000000000000000
