P1
50 70
00000000000000000000000000000000000000000000000000
00000000000000000000000000000000000000000000000000
00000000000000000000000000000000000000000000000000
00000000000000000000000000000000000000000000000000
00000000000000000000000000000000000000000000000000
00000000000000000000000000000000000000000000000000
00000000000000000000000000000000000000000000000000
00000000000000000000000000000000000000000000000000
00000000000000000000000000000000000000000000000000
00000000000000000000000000000000000000000000000000
00000000000000000000000000000000000000000000000000
00000000000000000000000000000000000000000000000000
00000000000000000000000000000000000000000000000000
00000000000000000000000000000000000000000000000000
00000000000000000000000000000000000000000000000000
00000000000000000000000000000000000000000000000000
00000000000000000000000000000000000000000000000000
00000000000000000000000000000000000000000000000000
00000000000000001000110000000000000000000000000000
00000000000000011111111111111000000000000000000000
00000000000111111111111111111111000000000000000000
00000000111111111111111111111111000000000000000000
00000011111111111111111111111111100000000000000000
00111111111111111111111111111111100000000000000000
00111111111111111111111111111111110000000000000000
00111111111111111111111111111111111000000000000000
00111111111111111111111111111111111000000000000000
00111111111111111111101111111111111000000000000000
00011111111111110010000111111111110000000000000000
00001111111100000000000111111111110000000000000000
00001111111000000000000111111111100000000000000000
00001111000000000000000111111111100000000000000000
00001110000000000000000011111111000000000000000000
00000000000000000000000111111110000000000000000000
00000000000000000000011111111110000000000000000000
00000000000000000000111111111111000000000000000000
00000000000000000000111111111111110000000000000000
00000000000000001111111111111111111100000000000000
00000000000000111111111111111111111110000000000000
00000000000000111111111111111111111111000000000000
00000000000000011111111111111111111111100000000000
00000000000000011111111111111111111111100000000000
00000000000000001111111111111111111111100000000000
00000000000000001111111111111111111111100000000000
00000000000000000111110000000111111111110000000000
00000000000000000111100000000011111111110000000000
00000000000000000000000000000011111111110000000000
00000000000000000000000000000011111111100000000000
00000000000000000000000000000011111111110000000000
00000000000000000000000000000011111111110000000000
00000000000000000000000000000111111111100000000000
00000000000000000000000000000011111111000000000000
00000000000000000000000000000111111111000000000000
00000000000000000000000000001111111110000000000000
00000000000000000000000000111111111110000000000000
00000000000000000000000000111111111110000000000000
00000000000000000000000011111111111100000000000000
00000000000000000000001111111111111000000000000000
00000000000000000000011111111111110000000000000000
00000000000000000111111111111111100000000000000000
00000000000000001111111111111111000000000000000000
00000000000000001111111111111110000000000000000000
00000000000000001111111111111100000000000000000000
00000000000000000111111111111000000000000000000000
00000000000000000111111111100000000000000000000000
00000000000000000111111111000000000000000000000000
00000000000000000011111111000000000000000000000000
00000000000000000011111000000000000000000000000000
00000000000000000000000000000000000000000000000000
00000000000000000000000000000000000000000000000000
