P1
50 70
00000000000000000000000000000000000000000000000000
00000000000000000000000000000000000000000000000000
00000000000000000000000000000000000000000000000000
00000000000000000000000000000000000000000000000000
00000000000000000000000000000000000000000000000000
00000000000000000000000000000000000000000000000000
00000000000000000000000000000000000000000000000000
00000000000000000000000000000000000000000000000000
00000000000000000000000000000000000000000000000000
00000000000000000000000000000000000000000000000000
00000000000000000000000000000000000000000000000000
00000000000000000000000000000000000000000000000000
00000000000000000000000000000000000000000000000000
00000000000000000000000000000000000000000000000000
00000000000000000000000100000000000000000000000000
00000000000000111111011111000000000000000000000000
00000000000111111111111111111000000000000000000000
00000000000011111111111111111100000000000000000000
00000000000011111111111111111111000000000000000000
00000000000111111111111111111111100000000000000000
00000000000111111111111111111111110000000000000000
00000000000111111111111111111111110000000000000000
00000000000111111111111111111111111000000000000000
00000000000111111111111111111111111000000000000000
00000000000011111111111111111111111100000000000000
00000000000011111111111111111111111110000000000000
00000000000001110010000011111111111110000000000000
00000000000000000000000000111111111110000000000000
00000000000000000000000000001111111110000000000000
00000000000000000000000000001111111110000000000000
00000000000000000000000000000111111110000000000000
00000000000000000000000000000111111110000000000000
00000000000000000000000000000111111111000000000000
00000000000000000000000000000111111111000000000000
00000000000000000000000000000111111110000000000000
00000000000000000000000000001111111110000000000000
00000000000000000000011111111111111110000000000000
00000000000000000001111111111111111110000000000000
00000000000000000001111111111111111100000000000000
00000000000000000011111111111111111100000000000000
00000000000000000011111111111111111000000000000000
00000000000000000000111111111111110000000000000000
00000000000000000000111111111111100000000000000000
00000000000000000001111111111111110000000000000000
00000000000000000001111111111111111000000000000000
00000000000000000000111111111111111100000000000000
00000000000000000000011111111111111100000000000000
00000000000000000000000001111111111110000000000000
00000000000000000000000000011111111110000000000000
00000000000000000000000000000111111111000000000000
00000000000000000000000000000011111111100000000000
00000000000000000000000000000001111111100000000000
00000000000000000000000000000001111111100000000000
00000000000000000000000000000001111111100000000000
00000000000000000000000000000001111111100000000000
00000000000000000000000000000001111111100000000000
00000000000000000000000000000001111111100000000000
00000000000000000000000000000001111111100000000000
00000000000000111111000000000011111111100000000000
00000000000000111111111110001111111111110000000000
00000000000000111111111111111111111111100000000000
00000000000000011111111111111111111111100000000000
00000000000000011111111111111111111111100000000000
00000000000000011111111111111111111111100000000000
00000000000000011111111111111111111111000000000000
00000000000000011111111111111111111111000000000000
00000000000000001111111111111111111110000000000000
00000000000000000011111111111111111100000000000000
00000000000000000000011111111111111000000000000000
00000000000000000000000110011111110000000000000000
