P1
50 70
00000000000000000000000000000000000000000000000000
00000000000000000000000000000000000000000000000000
00000000000000000000000000000000000000000000000000
00000000000000000000000000000000000000000000000000
00000000000000000000000000000000000000000000000000
00000000000000000000000000000000000000000000000000
00000000000000000000000000000000000000000000000000
00000000000000000000000000000000000000000000000000
00000000000000000000000000000000000000000000000000
00000000000000000000000000000000000000000000000000
00000000000000000000000000000000000000000000000000
00000000000000000000000000000000000000000000000000
00000000000000000000000000000000000000000000000000
00000000000000000000000000000000000000000000000000
00000000000000000000000000000000000000000000000000
00000000000000000000000000000000000000000000000000
00000000000000000000000000000000000000000000000000
00000000000000000000000000000000000000000000000000
00000000000000000000000000000000000000000000000000
00000000000000000000000000000000000000000000000000
00000000000000000000000000000000000110000000000000
00000000000000000000000000001111111110000000000000
00000000000000000000000000011111111110000000000000
00000000000000000000000000011111111110000000000000
00000000000000000000000000111111111111000000000000
00000000000000000000000000111111111111000000000000
00000000000000000000000001111111111111000000000000
00000000000000000000000011111111111111000000000000
00000000000000000000000011111111111111000000000000
00000000000000000000000111111001111111000000000000
00000000000000000000001111110011111111000000000000
00000000000000000000001111110011111110000000000000
00000000000000000000011111110001111111000000000000
00000000000000000000011111110001111111000000000000
00000000000000000000111111100011111111000000000000
00000000000000000000111111000011111111000000000000
00000000000000000000111110000001111111000000000000
00000000000000000001111100000001111111000000000000
00000000000000000011111100000001111111000000000000
00000000000000000011111100000001111111000000000000
00000000000000000111111100000001111110000000000000
00000000000000000111111000000001111111000000000000
00000000000000000111110000000001111111000000000000
00000000000000000111110000000000111111111110000000
00000000000000001111110000000000111111111110000000
00000000000000001111110000000011111111111110000000
00000000000000001111100000001111111111111110000000
00000000000000011111100011111111111111111100000000
00000000000000011111111111111111111111110000000000
00000000000000011111111111111111111111100000000000
00000000000000011111111111111111111111100000000000
00000000000000011111111111111000111111100000000000
00000000000000011111111111110000111111100000000000
00000000000000011111111100000000011111100000000000
00000000000000001111111100000000011111100000000000
00000000000000000111000000000000011111100000000000
00000000000000000000000000000000011111100000000000
00000000000000000000000000000000001111100000000000
00000000000000000000000000000000001110000000000000
00000000000000000000000000000000000100000000000000
00000000000000000000000000000000000000000000000000
00000000000000000000000000000000000000000000000000
00000000000000000000000000000000000000000000000000
00000000000000000000000000000000000000000000000000
00000000000000000000000000000000000000000000000000
00000000000000000000000000000000000000000000000000
00000000000000000000000000000000000000000000000000
00000000000000000000000000000000000000000000000000
00000000000000000000000000000000000000000000000000
00000000000000000000000000000000000000000000000000
