P1
50 70
00000000000000000000000000000000000000000000000000
00000000000000000000000000000000000000000000000000
00000000000000000000000000000000000000000000000000
00000000000000000000000000000000000000000000000000
00000000000000000000000000000000000000000000000000
00000000000000000000000000000000000000000000000000
00000000000000000000000000000000000000000000000000
00000000000000000000000000000000110000000000000000
00000000000000000000000000011111111000000000000000
00000000000000000000000000111111111000000000000000
00000000000000000000000000111111111000000000000000
00000000000000000000000111111111111000000000000000
00000000000000000000001111111111111000000000000000
00000000000000000000001111111111111000000000000000
00000000000000000000011111111111111000000000000000
00000000000000000000011111111111111000000000000000
00000000000000000000011111111111111100000000000000
00000000000000000000111111111111111100000000000000
00000000000000000000111111111111111100000000000000
00000000000000000000111111111111111100000000000000
00000000000000000001111111111111111100000000000000
00000000000000000001111111111111111100000000000000
00000000000000000011111111111111111100000000000000
00000000000000000011111111111111111100000000000000
00000000000000000011111111111111111110000000000000
00000000000000000011111111111111111110000000000000
00000000000000000111111111111111111110000000000000
00000000000000001111110111111111111100000000000000
00000000000000000111100111111111111100000000000000
00000000000000000111100111111111111100000000000000
00000000000000001111000111111111111100000000000000
00000000000000001111000111111111111100000000000000
00000000000000011111000011111111111110000000000000
00000000000000111111000011111111111100000110000000
00000000000000111110000011111111111100011111000000
00000000000000111110000011111111111110111111000000
00000000000000111110000011111111111111111111000000
00000000000001111100000011111111111111111110000000
00000000000001111100000011111111111111111110000000
00000000000011111000000001111111111111100000000000
00000000000011111000000001111111111111000000000000
00000000000011110000000011111111111111000000000000
00000000000111111000000011111111111110000000000000
00000000000111110000000111111111111110000000000000
00000000001111110000011111111111111110000000000000
00000000001111100000111111111111111110000110000000
00000000001111100001111111111111111110001110000000
00000000011111001111111111111111111111111111000000
00000000111111111111111111111111111111111111000000
00000000111111111111111001111111111111111111000000
00000001111111111111100001111111111111111100000000
00000000111111111111000001111111111111110000000000
00000000111111111110000000111111111110000000000000
00000001111111100000000001111111111110000000000000
00000001111111000000000001111111111100000000000000
00000001111100000000000011111111100000000000000000
00000000111000000000000111111111000000000000000000
00000000000000000000011111111000000000000000000000
00000000000000000000111111110000000000000000000000
00000000000000000001111111000000000000000000000000
00000000000000000000111100000000000000000000000000
00000000000000000000111000000000000000000000000000
00000000000000000000110000000000000000000000000000
00000000000000000000000000000000000000000000000000
00000000000000000000000000000000000000000000000000
00000000000000000000000000000000000000000000000000
00000000000000000000000000000000000000000000000000
00000000000000000000000000000000000000000000000000
00000000000000000000000000000000000000000000000000
00000000000000000000000000000000000000000000000000
