P1
50 70
00000000000000000000000000000000000000000000000000
00000000000000000000000000000000000000000000000000
00000000000000000000000000000000000000000000000000
00000000000000000000000000000000000000000000000000
00000000000000000000000000000000000000000000000000
00000000000000000000000000000000000000000000000000
00000000000000000000000000000000000000000000000000
00000000000000000000000000000000000000000000000000
00000000000000000000000000000000000000000000000000
00000000000000000000000000000000000000000000000000
00000000000000000000000000000000000000000000000000
00000000000000000000000000000000000000000000000000
00000000000000000000000000000000000000000000000000
00000000000000000000000000000000000000000000000000
00000000000000000000000000000000000000000000000000
00000000000000000000000000000000000000000000000000
00000000000000000000000010000000000000000000000000
00000000000000000111111111100000000000000000000000
00000000000000001111111111100000000000000000000000
00000000000000001111111111100000000000000000000000
00000000000000001111111111100000000000000000000000
00000000000000011111111111100000000000000000000000
00000000000000011111111111100000000000000000000000
00000000000000111111111111110000000000000000000000
00000000000000011111111111111000000000000000000000
00000000000000111111111111111000000000000000000000
00000000000000111111111111111000000000000000000000
00000000000000111111111111111000000000000000000000
00000000000001111111111111111000000000000000000000
00000000000001111111111111111100000000000000000000
00000000000000111100111111111100000000000000000000
00000000000001111100111111111100000000000000000000
00000000000011111000111111111110000000000000000000
00000000000011111000011111111110000000000000000000
00000000000011111000011111111110000000000000000000
00000000000011111000001111111111000000000000000000
00000000000111111000001111111111000000000000000000
00000000000011110000001111111111000000000000000000
00000000000111110000001111111111000000000000000000
00000000000111100000001111111111100011000000000000
00000000000111100000000111111111111111100000000000
00000000001111100000000111111111111111100000000000
00000000001111110000011111111111111111100000000000
00000000011111110001111111111111111111000000000000
00000000001111111111111111111111110000000000000000
00000000001111111111111111111111110000000000000000
00000000001111111111100111111111110000000000000000
00000000001111111111000001111111110000000000000000
00000000001110000000000001111111111100110000000000
00000000000100000000000001111111111111111000000000
00000000000000000000000001111111111111111000000000
00000000000000000000000001111111111111111000000000
00000000000000000000001101111111111111110000000000
00000000000000000000011111111111111110000000000000
00000000000000000000001111111110000000000000000000
00000000000000000000001111100000000000000000000000
00000000000000000000000000000000000000000000000000
00000000000000000000000000000000000000000000000000
00000000000000000000000000000000000000000000000000
00000000000000000000000000000000000000000000000000
00000000000000000000000000000000000000000000000000
00000000000000000000000000000000000000000000000000
00000000000000000000000000000000000000000000000000
00000000000000000000000000000000000000000000000000
00000000000000000000000000000000000000000000000000
00000000000000000000000000000000000000000000000000
00000000000000000000000000000000000000000000000000
00000000000000000000000000000000000000000000000000
00000000000000000000000000000000000000000000000000
00000000000000000000000000000000000000000000000000
