P1
50 70
00000000000000000000000000000000000000000000000000
00000000000000000000000000000000000000000000000000
00000000000000000000000000000000000000000000000000
00000000000000000000000000000000000000000000000000
00000000000000000000000000000000000000000000000000
00000000000000000000000000000000000000000000000000
00000000000000000000000000000000000000000000000000
00000000000000000000000000000000000000000000000000
00000000000000000000000000000000000000000000000000
00000000000000000000000000011000000000000000000000
00000000000000000000000000111100000000000000000000
00000000000000000000001111111100000000000000000000
00000000000000000000011111111100000000000000000000
00000000000000000000011111111110000000000000000000
00000000000000000000011111111110000000000000000000
00000000000000000000011111111110000000000000000000
00000000000000000000011111111110000000000000000000
00000000000000000000111111111110000000000000000000
00000000000000000001111111111110000000000000000000
00000000000000000000111111111110000000000000000000
00000000000000000000111111111111000000000000000000
00000000000000000001111111111111000000000000000000
00000000000000000001111111111111000000000000000000
00000000000000000001111111111111000000000000000000
00000000000000000001111111111111000000000000000000
00000000000000000011111111111111000000000000000000
00000000000000000011111111111111100000000000000000
00000000000000000011111111111111100000000000000000
00000000000000000111110011111111100000000000000000
00000000000000000111110011111111100000000000000000
00000000000000000111100111111111100000000000000000
00000000000000001111100111111111100000000000000000
00000000000000001111100011111111100000000000000000
00000000000000011111100011111111100000000000000000
00000000000000011111000011111111110000000000000000
00000000000000011111000011111111111000000000000000
00000000000000011111000011111111111000000000000000
00000000000000111110000011111111111000000000000000
00000000000000111110000011111111110000100000000000
00000000000000111100000001111111111011100000000000
00000000000000111100000000111111111111110000000000
00000000000001111100000000111111111111110000000000
00000000000011111100000000111111111111110000000000
00000000000001111000000011111111111111110000000000
00000000000011111000011111111111111111110000000000
00000000000011111000111111111111111111100000000000
00000000000011111111111111111111111111000000000000
00000000000111111111111111111111111110000000000000
00000000000111111111111111111111111100000000000000
00000000001111111111111111111111111100000000000000
00000000000111111111111111111111111100000000000000
00000000000111111111111111111111111110000000000000
00000000000111111111111000011111111110000000000000
00000000000111111110000000001111111110000000000000
00000000000111111100000000001111111100000000000000
00000000000011000000000000001111111100000000000000
00000000000000000000000000001111111000000000000000
00000000000000000000000000001111100000000000000000
00000000000000000000000000011100000000000000000000
00000000000000000000000000000000000000000000000000
00000000000000000000000000000000000000000000000000
00000000000000000000000000000000000000000000000000
00000000000000000000000000000000000000000000000000
00000000000000000000000000000000000000000000000000
00000000000000000000000000000000000000000000000000
00000000000000000000000000000000000000000000000000
00000000000000000000000000000000000000000000000000
00000000000000000000000000000000000000000000000000
00000000000000000000000000000000000000000000000000
00000000000000000000000000000000000000000000000000
