P1
50 70
00000000000000000000000000000000000000000000000000
00000000000000000000000000000000000000000000000000
00000000000000000000000000000000000000000000000000
00000000000000000000000000000000000000000000000000
00000000000000000000000000000000000000000000000000
00000000000000000000000000000000000000000000000000
00000000000000000000000000000000000000000000000000
00000000000000000000000000000000000000000000000000
00000000000000000000000000000000000000000000000000
00000000000000000000000000000000000000000000000000
00000000000000000000000000000000000000000000000000
00000000000000000000000000000000000000000000000000
00000000000000000000000000000000000000000000000000
00000000000000000000000000000000000000000000000000
00000000000000000000000000000000000000000000000000
00000000000000000000000000000000000000000000000000
00000000000000000000000000000000000000000000000000
00000000000000000000000000000000000000000000000000
00000000000000000000000000000000000000000000000000
00000000000000000000000000001111000000000000000000
00000000000000000000000000011111000000000000000000
00000000000000000000000000111111000000000000000000
00000000000000000000000000111111000000000000000000
00000000000000000000000001111111000000000000000000
00000000000000000000000001111111000000000000000000
00000000000000000000000001111111000000000000000000
00000000000000000000000011111111100000000000000000
00000000000000000000000111101111100000000000000000
00000000000000000000000111001111100000000000000000
00000000000000000000001111000111100000000000000000
00000000000000000000001110000111100000000000000000
00000000000000000000001100000111100000000000000000
00000000000000000000011110000111100000000000000000
00000000000000000000011100000111100000000000000000
00000000000000000000111100000111110000000000000000
00000000000000000001111000000111110000000000000000
00000000000000000001110000000011100000000000000000
00000000000000000011110000000011100000000000000000
00000000000000000111110000000011100000000000000000
00000000000000001111100000000011110000000000000000
00000000000000001111000000000011110000000000000000
00000000000000001110000000000011110000000000000000
00000000000000001110000000000011111000000000000000
00000000000000011110000000000111111111100000000000
00000000000000111100000000111111111111100000000000
00000000000011111000011111111111111111000000000000
00000000000011111111111111111111111000000000000000
00000000000011111111111111000111110000000000000000
00000000000111111111100000000011110000000000000000
00000000000000000000000000000011111000000000000000
00000000000000000000000000000001111000000000000000
00000000000000000000000000000001111000000000000000
00000000000000000000000000000111111000000000000000
00000000000000000000000011001111111101100000000000
00000000000000000000000011111111111111100000000000
00000000000000000000000011111111111111100000000000
00000000000000000000000000000000001000000000000000
00000000000000000000000000000000000000000000000000
00000000000000000000000000000000000000000000000000
00000000000000000000000000000000000000000000000000
00000000000000000000000000000000000000000000000000
00000000000000000000000000000000000000000000000000
00000000000000000000000000000000000000000000000000
00000000000000000000000000000000000000000000000000
00000000000000000000000000000000000000000000000000
00000000000000000000000000000000000000000000000000
00000000000000000000000000000000000000000000000000
00000000000000000000000000000000000000000000000000
00000000000000000000000000000000000000000000000000
00000000000000000000000000000000000000000000000000
