P1
50 70
00000000000000000000000000000000000000000000000000
00000000000000000000000000000000000000000000000000
00000000000000000000000000000000000000000000000000
00000000000000000000000000000000000000000000000000
00000000000000000000000000000000000000000000000000
00000000000000000000000000000000000000000000000000
00000000000000000000000000000000000000000000000000
00000000000000000000000000000000000000000000000000
00000000000000000000000000000000000000000000000000
00000000000000000000000000000000000000000000000000
00000000000000000000000000000000000000000000000000
00000000000000000000000000000000000000000000000000
00000000000000000000000000000000000000000000000000
00000000000000000000000000000000000000000000000000
00000000000000000000000000000001000000000000000000
00000000000000000000000001111111110000000000000000
00000000000000000000000011111111111000000000000000
00000000000000000000000011111111110000000000000000
00000000000000000000000111111111110000000000000000
00000000000000000000000111111111110000000000000000
00000000000000000000001111111111110000000000000000
00000000000000000000011111111111110000000000000000
00000000000000000000111111111111110000000000000000
00000000000000000001111111111111110000000000000000
00000000000000000001111111111111110000000000000000
00000000000000000001111111111111100000000000000000
00000000000000000001111111111111110000000000000000
00000000000000000011111101111111110000000000000000
00000000000000000111111001111111110000000000000000
00000000000000000111111001111111110000000000000000
00000000000000000111110001111111110000000000000000
00000000000000001111110001111111110000000000000000
00000000000000011111100000111111110000000000000000
00000000000000011111100000111111110000000000000000
00000000000000011111000000111111110000000000000000
00000000000000011110000000111111100000000000000000
00000000000000011110000000111111100000000000000000
00000000000000111110000000111111100000000000000000
00000000000001111100000000011111100000000000000000
00000000000001111100000000011111100000000000000000
00000000000001111000000000011111100000000000000000
00000000000011111111111100111111100000000000000000
00000000000011111111111111111111111000000000000000
00000000000001111111111111111111111110000000000000
00000000000001111111111111111111111110000000000000
00000000000001111111111111111111111110000000000000
00000000000000111111111111111111111110000000000000
00000000000000000111011111111111111110000000000000
00000000000000000000000000111111111100000000000000
00000000000000000000000000011111111100000000000000
00000000000000000000000000011111110000000000000000
00000000000000000000000000001111110000000000000000
00000000000000000000000000001111110000000000000000
00000000000000000000000000001111110000000000000000
00000000000000000000000000011111110000000000000000
00000000000000000000000000011111110000000000000000
00000000000000000000000000000011110000000000000000
00000000000000000000000000000000000000000000000000
00000000000000000000000000000000000000000000000000
00000000000000000000000000000000000000000000000000
00000000000000000000000000000000000000000000000000
00000000000000000000000000000000000000000000000000
00000000000000000000000000000000000000000000000000
00000000000000000000000000000000000000000000000000
00000000000000000000000000000000000000000000000000
00000000000000000000000000000000000000000000000000
00000000000000000000000000000000000000000000000000
00000000000000000000000000000000000000000000000000
00000000000000000000000000000000000000000000000000
00000000000000000000000000000000000000000000000000
