P1
50 70
00000000000000000000000000000000000000000000000000
00000000000000000000000000000000000000000000000000
00000000000000000000000000000000000000000000000000
00000000000000000000000000000000000000000000000000
00000000000000000000000000000000000000000000000000
00000000000000000000000000000000000000000000000000
00000000000000000000000000000000000000000000000000
00000000000000000000000000000000000000000000000000
00000000000000000000000000000000000000000000000000
00000000000000000000000000000000000000000000000000
00000000000000000000000000000000000000000000000000
00000000000000000000000000000000000000000000000000
00000000000000000000000000000000000000000000000000
00000000000000000000000000000000000000000000000000
00000000000000000000000000000000000000000000000000
00000000000000000000000000000000000000000000000000
00000000000000000000000001111100000000000000000000
00000000000000000000000011111100000000000000000000
00000000000000000000000011111100000000000000000000
00000000000000000000000011111100000000000000000000
00000000000000000000000111111100000000000000000000
00000000000000000000000111111110000000000000000000
00000000000000000000001111111110000000000000000000
00000000000000000000001111111110000000000000000000
00000000000000000000011111111110000000000000000000
00000000000000000000011111111110000000000000000000
00000000000000000000001111111110000000000000000000
00000000000000000000011111111111000000000000000000
00000000000000000000111111111111000000000000000000
00000000000000000001111101111111000000000000000000
00000000000000000001111001111111000000000000000000
00000000000000000001111000111111000000000000000000
00000000000000000011111000111111000000000000000000
00000000000000000111110000111111000000000000000000
00000000000000000111110000111111100000000000000000
00000000000000000111110000111111100000000000000000
00000000000000001111100000111111100000000000000000
00000000000000001111100000111111100000000000000000
00000000000000001111000000011111100000000000000000
00000000000000011110000000011111100000000000000000
00000000000000111110000000011111100000000000000000
00000000000000111100000000011111100000000000000000
00000000000000111100000000111111110000000000000000
00000000000001111100000000111111110000000000000000
00000000000011111100000000111111110000000000000000
00000000000111111000000000011111111000110000000000
00000000000111110000000000011111111111111100000000
00000000000111110000011100111111111111111110000000
00000000001111111111111111111111111111111110000000
00000000011111111111111111111111111111111100000000
00000000011111111111111111111111111110000000000000
00000000011111111111111111001111111000000000000000
00000000011111111111000000000111111000000000000000
00000000011000000000000000000111111000000000000000
00000000000000000000000000000111111000000000000000
00000000000000000000000000000111111000000000000000
00000000000000000000000000001111111000000000000000
00000000000000000000000000001111111100111000000000
00000000000000000000000000000111111111111111000000
00000000000000000000000011001111111111111111000000
00000000000000000000011111111111111111111100000000
00000000000000000000011111111111111111110000000000
00000000000000000000011111111111110000000000000000
00000000000000000000011111000010000000000000000000
00000000000000000000000000000000000000000000000000
00000000000000000000000000000000000000000000000000
00000000000000000000000000000000000000000000000000
00000000000000000000000000000000000000000000000000
00000000000000000000000000000000000000000000000000
00000000000000000000000000000000000000000000000000
