P1
50 70
00000000000000000000000000000000000000000000000000
00000000000000000000000000000000000000000000000000
00000000000000000000000000000000000000000000000000
00000000000000000000000000000000000000000000000000
00000000000000000000000000000000000000000000000000
00000000000000000000000000000000000000000000000000
00000000000000000000000000000000000000000000000000
00000000000000000000000000000000000000000000000000
00000000000000000000000000000000000000000000000000
00000000000000000000000000000000000000000000000000
00000000000000000000000000000000000000000000000000
00000000000000000000000000000000000000000000000000
00000000000000000000000000000000000000000000000000
00000000000000000000000000110000000000000000000000
00000000000000000000000011111000000000000000000000
00000000000000000000001111111000000000000000000000
00000000000000000000111111111000000000000000000000
00000000000000000000111111111000000000000000000000
00000000000000000000111111111000000000000000000000
00000000000000000001111111111000000000000000000000
00000000000000000001111111111000000000000000000000
00000000000000000001111111111000000000000000000000
00000000000000000011111111111100000000000000000000
00000000000000000011111111111100000000000000000000
00000000000000000011111111111100000000000000000000
00000000000000000111111111111100000000000000000000
00000000000000000111111111111100000000000000000000
00000000000000000111111111111100000000000000000000
00000000000000000111111011111110000000000000000000
00000000000000000111110011111110000000000000000000
00000000000000001111110011111110000000000000000000
00000000000000001111110011111110000000000000000000
00000000000000001111110001111111000000000000000000
00000000000000011111110000111111111000000000000000
00000000000000011111110001111111111100000000000000
00000000000000001111110001111111111100000000000000
00000000000000001111100001111111111100000000000000
00000000000000011111100001111111111000000000000000
00000000000000011111000011111111110000000000000000
00000000000000011111000111111111110000000000000000
00000000000000111111111111111111100000000000000000
00000000000000111111111111111111110000000000000000
00000000000000011111111111111111111100000000000000
00000000000000111111111111111111111110000000000000
00000000000000111111111111111111111110000000000000
00000000000000111111111111111111111110000000000000
00000000000000111111111110011111111100000000000000
00000000000000111111111100111111111100000000000000
00000000000000111111111001111111111000000000000000
00000000000000011111100011111111100000000000000000
00000000000000011110000011111111100000000000000000
00000000000000011110000011111111000000000000000000
00000000000000011100000011111100000000000000000000
00000000000000000000000011111000000000000000000000
00000000000000000000000001110000000000000000000000
00000000000000000000000000000000000000000000000000
00000000000000000000000000000000000000000000000000
00000000000000000000000000000000000000000000000000
00000000000000000000000000000000000000000000000000
00000000000000000000000000000000000000000000000000
00000000000000000000000000000000000000000000000000
00000000000000000000000000000000000000000000000000
00000000000000000000000000000000000000000000000000
00000000000000000000000000000000000000000000000000
00000000000000000000000000000000000000000000000000
00000000000000000000000000000000000000000000000000
00000000000000000000000000000000000000000000000000
00000000000000000000000000000000000000000000000000
00000000000000000000000000000000000000000000000000
00000000000000000000000000000000000000000000000000
