P1
50 70
00000000000000000000000000000000000000000000000000
00000000000000000000000000000000000000000000000000
00000000000000000000000000000000000000000000000000
00000000000000000000000000000000000000000000000000
00000000000000000000000000000000000000000000000000
00000000000000000000000000000000000000000000000000
00000000000000000000000000000000000000000000000000
00000000000000000000000000000000000000000000000000
00000000000000000000000000000000000000000000000000
00000000000000000000000000000000000000000000000000
00000000000000000000000000000000000000000000000000
00000000000000000000000000000000000000000000000000
00000000000000000000000000000000000000000000000000
00000000000000000000000000000000000000000000000000
00000000000000000000000000000000000000000000000000
00000000000000000000000000000000000000000000000000
00000000000000000000000000000000000000000000000000
00000000000000000000000000000000000000000000000000
00000000000000000000000000000000000000000000000000
00000000000000000000000000000000000000000000000000
00000000000000000000000000000000000000000000000000
00000000000000000000000000000000000000000000000000
00000000000000000000000000000000000000000000000000
00000000000000000000000000000000000000000000000000
00000000000000000000000000000100000000000000000000
00000000000000000000000000001111000000000000000000
00000000000000000000000000001111110000000000000000
00000000000000000000000000011111110000000000000000
00000000000000000000000000111111110000000000000000
00000000000000000000000001111111110000000000000000
00000000000000000000000011111111110000000000000000
00000000000000000000000111111111110000000000000000
00000000000000000000001111111111110000000000000000
00000000000000000000011111111111111000000000000000
00000000000000000000111111111111111000000000000000
00000000000000000001111001111111111000000000000000
00000000000000000001110001111111110000000000000000
00000000000000000111110001111111110000000000000000
00000000000000001111100001111111110000000000000000
00000000000000111111000000111111110000000000000000
00000000000001111110000000111111110000000000000000
00000000000001111000000000111111110000000000000000
00000000000001111100000001111111111000000000000000
00000000000011111111111001111111111000000000000000
00000000000011111111111111111111111000000000000000
00000000000111111111111111111111111100100000000000
00000000000111111111111111111111111111100000000000
00000000000000111111111111111111111111100000000000
00000000000000000011111111111111111111100000000000
00000000000000000000000011111111111111100000000000
00000000000000000000000001111111111110000000000000
00000000000000000000000011111111111000000000000000
00000000000000000000000001111111111000000000000000
00000000000000000000000000111111111000000000000000
00000000000000000000000001111111111000000000000000
00000000000000000000000001111111110000000000000000
00000000000000000000000000000001110000000000000000
00000000000000000000000000000000000000000000000000
00000000000000000000000000000000000000000000000000
00000000000000000000000000000000000000000000000000
00000000000000000000000000000000000000000000000000
00000000000000000000000000000000000000000000000000
00000000000000000000000000000000000000000000000000
00000000000000000000000000000000000000000000000000
00000000000000000000000000000000000000000000000000
00000000000000000000000000000000000000000000000000
00000000000000000000000000000000000000000000000000
00000000000000000000000000000000000000000000000000
00000000000000000000000000000000000000000000000000
00000000000000000000000000000000000000000000000000
