P1
50 70
00000000000000000000000000000000000000000000000000
00000000000000000000000000000000000000000000000000
00000000000000000000000000000000000000000000000000
00000000000000000000000000000000000000000000000000
00000000000000000000000000000000000000000000000000
00000000000000000000000000000000000000000000000000
00000000000000000000000000000000000000000000000000
00000000000000000000000000000000000000000000000000
00000000000000000000000000000000000000000000000000
00000000000000000000000000000000000000000000000000
00000000000000000000000000000000000000000000000000
00000000000000000000000000000000000000000000000000
00000000000000000000000000000000000000000000000000
00000000000000000000000000000000000000000000000000
00000000000000000000000000000000000000000000000000
00000000000000000000000000000000000000000000000000
00000000000000000000000000000000000000000000000000
00000000000000000000000000000000000000000000000000
00000000000000000000000001111000000000000000000000
00000000000000000000000111111100000000000000000000
00000000000000000000001111111100000000000000000000
00000000000000000000001111111100000000000000000000
00000000000000000000011111111100000000000000000000
00000000000000000000111111111100000000000000000000
00000000000000000000111111111100000000000000000000
00000000000000000001111111111100000000000000000000
00000000000000000001111111111110000000000000000000
00000000000000000001111111111111000000000000000000
00000000000000000011111101111111000000000000000000
00000000000000000011111000111111000000000000000000
00000000000000000011110000111110000000000000000000
00000000000000000111110000111110000000000000000000
00000000000000001111111000111110000000000000000000
00000000000000001111110000111110000000000000000000
00000000000000001111100000111111000000000000000000
00000000000000011111100000111111100000000000000000
00000000000000111111000000111111100000000000000000
00000000000001111111000000111111100000000000000000
00000000000001111111000000111111100000000000000000
00000000000011111110000000011111000000000000000000
00000000000011111100000000001111000000000000000000
00000000000011111100000000011111100000000000000000
00000000000111111100000000011111110000000000000000
00000000001111111000000000011111110000000000000000
00000000001111110000000000001111110000000000000000
00000000011111100000000000001111110000000000000000
00000000011111110000100000001111110000000000000000
00000000011111111111111111011111111000110000000000
00000000011111111111111111111111111111111000000000
00000000011111111111111111111111111111111000000000
00000000001111111111111111111111111111111000000000
00000000001111111111111111111111111111111100000000
00000000001000000001000000011111111110111100000000
00000000000000000000000000001111111110000000000000
00000000000000000000000000000111111100000000000000
00000000000000000000000000000011111100000000000000
00000000000000000000000000000011111100000000000000
00000000000000000000000000000001111110000000000000
00000000000000000000000000000011111110000000000000
00000000000000000000000000000011111110000000000000
00000000000000000000000000000001111110000000000000
00000000000000000000000000000001111111000000000000
00000000000000000000000000000000011111000000000000
00000000000000000000000000000000000000000000000000
00000000000000000000000000000000000000000000000000
00000000000000000000000000000000000000000000000000
00000000000000000000000000000000000000000000000000
00000000000000000000000000000000000000000000000000
00000000000000000000000000000000000000000000000000
00000000000000000000000000000000000000000000000000
