P1
50 70
00000000000000000000000000000000000000000000000000
00000000000000000000000000000000000000000000000000
00000000000000000000000000000000000000000000000000
00000000000000000000000000000000000000000000000000
00000000000000000000000000000000000000000000000000
00000000000000000000000000000000000000000000000000
00000000000000000000000000000000000000000000000000
00000000000000000000000000000000000000000000000000
00000000000000000000000000000000000000000000000000
00000000000000000000000000000000000000000000000000
00000000000000000000000000000000000000000000000000
00000000000000000000000000000000000000000000000000
00000000000000000000000000000000000000000000000000
00000000000000000000000111000000000000000000000000
00000000000000000000000111000000000000000000000000
00000000000000000000011111100000000000000000000000
00000000000000000000111111100000000000000000000000
00000000000000000001111111100000000000000000000000
00000000000000000011111111100000000000000000000000
00000000000000000011111111100000000000000000000000
00000000000000000111111111100000000000000000000000
00000000000000001111111111100000000000000000000000
00000000000000000111111111100000000000000000000000
00000000000000001111111111110000000000000000000000
00000000000000001111111111111000000000000000000000
00000000000000001111111111111000000000000000000000
00000000000000011111111111111000000000000000000000
00000000000000011111111111111000000000000000000000
00000000000000011111111111111000000000000000000000
00000000000000001111001111111100000000000000000000
00000000000000001111001111111100000000000000000000
00000000000000011111001111111100000000000000000000
00000000000000011111001111111100000000000000000000
00000000000000111111000111111100000000000000000000
00000000000000111111000111111100000000000000000000
00000000000000111111000011111100000000000000000000
00000000000000011111000011111110000000000000000000
00000000000000111110000011111111000000000000000000
00000000000000111110000011111111000000000000000000
00000000000000111110000001111111000000000000000000
00000000000001111110000001111111000000000000000000
00000000000001111110000000111111000000000000000000
00000000000001111110000000111111100000000000000000
00000000000000111110000000111111100111100000000000
00000000000000111110000000011111111111100000000000
00000000000001111100000000001111111111000000000000
00000000000001111100000000001111111111100000000000
00000000000001111100000000001111111111100000000000
00000000000001111100000000011111111111000000000000
00000000000011111100000011111111111000000000000000
00000000000001111100000111111111111000000000000000
00000000000001111100011111111111111000000000000000
00000000000011111110111111111111111100000000000000
00000000000011111111111111110011111100000000000000
00000000000011111111111111100011111100000000000000
00000000000011111111111100000011111100000000000000
00000000000001111111100000000011111100000000000000
00000000000001111111000000000011111110000000000000
00000000000000111100000000000001111111000000000000
00000000000000000000000000000000111111000000000000
00000000000000000000000000000000111111000000000000
00000000000000000000000000000000111111000000000000
00000000000000000000000000000000011000000000000000
00000000000000000000000000000000000000000000000000
00000000000000000000000000000000000000000000000000
00000000000000000000000000000000000000000000000000
00000000000000000000000000000000000000000000000000
00000000000000000000000000000000000000000000000000
00000000000000000000000000000000000000000000000000
00000000000000000000000000000000000000000000000000
