P1
50 70
00000000000000000000000000000000000000000000000000
00000000000000000000000000000000000000000000000000
00000000000000000000000000000000000000000000000000
00000000000000000000000000000000000000000000000000
00000000000000000000000000000000000000000000000000
00000000000000000000000000000000000000000000000000
00000000000000000000000000000000000000000000000000
00000000000000000000000000000000000000000000000000
00000000000000000000000000000000000000000000000000
00000000000000000000000000000000000000000000000000
00000000000000000000000000000000000000000000000000
00000000000000000000000000000000000000000000000000
00000000000000000000000000000000000000000000000000
00000000000000000000000000000000000000000000000000
00000000000000000000000000000000000000001111100000
00000000000000000000000000000000111111111111110000
00000000000000000000000000000011111111111111111000
00000000000000000000000000000111111111111111111000
00000000000000000000000000011111111111111111110000
00000000000000000000000000111111111111111111110000
00000000000000000000000000111111111111111111110000
00000000000000000000000001111111111111111111100000
00000000000000000000000011111111111111111111000000
00000000000000000000000111111111111111111111000000
00000000000000000000001111111111111111111111000000
00000000000000000000001111111111111111111111000000
00000000000000000000011111111111111111111111000000
00000000000000000000111111111111111111111110000000
00000000000000000001111111111111111111111110000000
00000000000000000001111111111111111111111110000000
00000000000000000011111111001111111111111110000000
00000000000000000111111100011111111111111100000000
00000000000000001111111100011111111111111100000000
00000000000000011111111100011111111111111100000000
00000000000000011111110000011111111111111100000000
00000000000000111111100000011111111111111000000000
00000000000011111111100000111111111111111000000000
00000000000111111111000000111111111111111000000000
00000000001111111110000000011111111111111000000000
00000000001111111100000000011111111111111000000000
00000000011111111000000000111111111111110000000000
00000000111111111000000001111111111111110000000000
00000001111111110000000001111111111111110000000000
00000001111111000000000001111111111111100000000000
00000111111111000000000011111111111111100000000000
00001111111110000000000011111111111111100000000000
00001111111100000000000001111111111111100000000000
00011111111101000000001111111111111111110001100000
00011111111111111110011111111111111111111111111000
00011111111111111111111111111111111111111111110000
00111111111111111111111111111111111111111111110000
00011111111111111111111111111111111111111111110000
00000001100000011000000111111111111110000000000000
00000000000000000000000111111111111110000000000000
00000000000000000000000111111111111110000000000000
00000000000000000000000111111111111110000000000000
00000000000000000000001111111111111100000000000000
00000000000000000000001111111111111110000000000000
00000000000000000000001111111111111100000000000000
00000000000000000000011111111111111100000000000000
00000000000000011111111111111111111111111100000000
00000000000000011111111111111111111111111100000000
00000000000000011111111111111111111111111100000000
00000000000000001111111111111111111111111100000000
00000000000000000000010000000100000001100000000000
00000000000000000000000000000000000000000000000000
00000000000000000000000000000000000000000000000000
00000000000000000000000000000000000000000000000000
00000000000000000000000000000000000000000000000000
00000000000000000000000000000000000000000000000000
