P1
50 70
00000000000000000000000000000000000000000000000000
00000000000000000000000000000000000000000000000000
00000000000000000000000000000000000000000000000000
00000000000000000000000000000000000000000000000000
00000000000000000000000000000000000000000000000000
00000000000000000000000000000000000000000000000000
00000000000000000000000000000000000000000000000000
00000000000000000000000000000000000000000000000000
00000000000000000000000000000000000000000000000000
00000000000000000000000000000000000000000000000000
00000000000000000000000000000000000000000000000000
00000000000000000000000000000000000000000000000000
00000000000000000000000000000000000000000000000000
00000000000000000000000000000000000000000000000000
00000000000000000000000000000000000000000000000000
00000000000000000000000000000000000000000000000000
00000000000000000000000000000000000000000000000000
00000000000000000000000000000111110000000000000000
00000000000000000000000000001111111000000000000000
00000000000000000000000000001111110000000000000000
00000000000000000000000000001111110000000000000000
00000000000000000000000000011111110000000000000000
00000000000000000000000000111111110000000000000000
00000000000000000000000000111111110000000000000000
00000000000000000000000001111111100000000000000000
00000000000000000000000001111111110000000000000000
00000000000000000000000011111111111000000000000000
00000000000000000000000111110111111000000000000000
00000000000000000000000111100111110000000000000000
00000000000000000000001111001111110000000000000000
00000000000000000000011110000111110000000000000000
00000000000000000000011100000111110000000000000000
00000000000000000000111100000111100000000000000000
00000000000000000001111100001111100000000000000000
00000000000000000001111000001111110000000000000000
00000000000000000001110000001111110000000000000000
00000000000000000011100000001111100000000000000000
00000000000000000111100000011111100000000000000000
00000000000000001111100000001111110000000000000000
00000000000000111111000000001111110000000000000000
00000000000000111110000000001111100000000000000000
00000000000001111000000000001111100000000000000000
00000000000011111000000000001111110000000000000000
00000000000011111000000000001111110000000000000000
00000000000111110000000000000111110000000000000000
00000000000111110000000000001111100000000000000000
00000000001111111100010000001111100000000000000000
00000000001111111111111000001111100000000000000000
00000000001111111111111111111111100000000000000000
00000000000000111111111111111111111100000000000000
00000000000000000000000111111111111111110000000000
00000000000000000000000011111111111111111000000000
00000000000000000000000000011111111111111000000000
00000000000000000000000000001111110010111000000000
00000000000000000000000000011111100000000000000000
00000000000000000000000000011111100000000000000000
00000000000000000000000000011111100000000000000000
00000000000000000000000000011111110000000000000000
00000000000000000000111011111111110000000000000000
00000000000000000001111111111111110000000000000000
00000000000000000000111111111111111000000000000000
00000000000000000000111111111111111111000000000000
00000000000000000000000000011111111111111000000000
00000000000000000000000000001110111111111000000000
00000000000000000000000000000000000001111100000000
00000000000000000000000000000000000000000000000000
00000000000000000000000000000000000000000000000000
00000000000000000000000000000000000000000000000000
00000000000000000000000000000000000000000000000000
00000000000000000000000000000000000000000000000000
