P1
50 70
00000000000000000000000000000000000000000000000000
00000000000000000000000000000000000000000000000000
00000000000000000000000000000000000000000000000000
00000000000000000000000000000000000000000000000000
00000000000000000000000000000000000000000000000000
00000000000000000000000000000000000000000000000000
00000000000000000000000000000000000110000000000000
00000000000000000000000000001111111111000000000000
00000000000000000000000000011111111110000000000000
00000000000000000000000000111111111100000000000000
00000000000000000000000000111111111100000000000000
00000000000000000000000001111111111100000000000000
00000000000000000000000011111111111100000000000000
00000000000000000000000111111111111000000000000000
00000000000000000000000111111111110000000000000000
00000000000000000000001111111111110000000000000000
00000000000000000000011111111111111000000000000000
00000000000000000000111111111111111000000000000000
00000000000000000000111111111111110000000000000000
00000000000000000001111111111111110000000000000000
00000000000000000001111111111111110000000000000000
00000000000000000001111100111111100000000000000000
00000000000000000011111000111111100000000000000000
00000000000000000011111000011111100000000000000000
00000000000000000011110000111111100000000000000000
00000000000000000111110000111111000000000000000000
00000000000000001111100000111111100000000000000000
00000000000000011111100000111111000000000000000000
00000000000000011111000000111111000000000000000000
00000000000000011110000000111111000000000000000000
00000000000000011110000001111111000000000000000000
00000000000000111100000001111110000000000000000000
00000000000000111100000000111110000000000000000000
00000000000001111100000000111110000000000000000000
00000000000001111000000001111110000000000000000000
00000000000011111000000001111111000000000000000000
00000000000011111000000001111110000000000000000000
00000000000011110000000001111110000000000000000000
00000000000111110000000011111100000000000000000000
00000000000111100000000001111100000000000000000000
00000000000111100000000001111110001000000000000000
00000000001111100000000001111111111000000000000000
00000000001111100000000011111111111000000000000000
00000000001111000000011111111111111000000000000000
00000000001111100011111111111111111000000000000000
00000000011111111111111111111111111000000000000000
00000000011111111111111111111111100000000000000000
00000000011111111111111111111100000000000000000000
00000000011111111111111111111100000000000000000000
00000000011111111111110011111000000000000000000000
00000000001111111111000011111100000000000000000000
00000000001111110000000011111100000000000000000000
00000000001000000000000001111000000000000000000000
00000000000000000000000001111000000000000000000000
00000000000000000000000001111000000000000000000000
00000000000000000000000001111000000000000000000000
00000000000000000000000001111000000000000000000000
00000000000000000000000011111000000000000000000000
00000000000000000000000011110000000000000000000000
00000000000000000000000000000000000000000000000000
00000000000000000000000000000000000000000000000000
00000000000000000000000000000000000000000000000000
00000000000000000000000000000000000000000000000000
00000000000000000000000000000000000000000000000000
00000000000000000000000000000000000000000000000000
00000000000000000000000000000000000000000000000000
00000000000000000000000000000000000000000000000000
00000000000000000000000000000000000000000000000000
00000000000000000000000000000000000000000000000000
00000000000000000000000000000000000000000000000000
