P1
50 70
00000000000000000000000000000000000000000000000000
00000000000000000000000000000000000000000000000000
00000000000000000000000000000000000000000000000000
00000000000000000000000000000000000000000000000000
00000000000000000000000000000000000000000000000000
00000000000000000000000000000000000000000000000000
00000000000000000000000000000000000000000000000000
00000000000000000000000000000000000000000000000000
00000000000000000000000000000000000000000000000000
00000000000000000000000000000000011100000000000000
00000000000000000000000000000111111100000000000000
00000000000000000000000000000111111100000000000000
00000000000000000000000000001111111100000000000000
00000000000000000000000000011111111100000000000000
00000000000000000000000000011111111100000000000000
00000000000000000000000000001111111100000000000000
00000000000000000000000000001111111110000000000000
00000000000000000000000000011111111111000000000000
00000000000000000000000000111111111111000000000000
00000000000000000000000000111111111111000000000000
00000000000000000000000000111111111111000000000000
00000000000000000000000000111111111110000000000000
00000000000000000000000001111111111110000000000000
00000000000000000000000001111101111110000000000000
00000000000000000000000011111101111111000000000000
00000000000000000000000011111001111111000000000000
00000000000000000000000011111001111111000000000000
00000000000000000000000111110000111111000000000000
00000000000000000000000111110000111111000000000000
00000000000000000000001111100000111111000000000000
00000000000000000000001111100000111111000000000000
00000000000000000000001111100000111111000000000000
00000000000000000000011111100000111111100000000000
00000000000000000000011111100000111111000000000000
00000000000000000000111111000001111111000000000000
00000000000000000001111110000000111111000000000000
00000000000000000001111100000000111111000000000000
00000000000000000011111000000000111111000000000000
00000000000000000111111000000000111111000000000000
00000000000000000111111000000000111111000000000000
00000000000000001111111000000000111111100000000000
00000000000000001111110000000000111111100000000000
00000000000000001111100000000000011111100000000000
00000000000000011111100000000000111111111100000000
00000000000000111111000000000011111111111111100000
00000000000001111111000000111111111111111111100000
00000000000011111111111111111111111111111111110000
00000000000011111111111111111111111111111111110000
00000000000011111111111111111111111111111111110000
00000000000001111111111111111111111111111111110000
00000000000001111111111111111111111111110000100000
00000000000011111111111111111001111111100000000000
00000000000011111100000000000000111111100000000000
00000000000000000000000000000000111111100000000000
00000000000000000000000000000001111111000000000000
00000000000000000000000000000001111111000000000000
00000000000000000000000000000001111111100000000000
00000000000000000000000000000001111111100000000000
00000000000000000000000000000000111111100000000000
00000000000000000000000000000000111111100000000000
00000000000000000000000000000000111111100000000000
00000000000000000000000000000000001111000000000000
00000000000000000000000000000000000000000000000000
00000000000000000000000000000000000000000000000000
00000000000000000000000000000000000000000000000000
00000000000000000000000000000000000000000000000000
00000000000000000000000000000000000000000000000000
00000000000000000000000000000000000000000000000000
00000000000000000000000000000000000000000000000000
00000000000000000000000000000000000000000000000000
