P1
50 70
00000000000000000000000000000000000000000000000000
00000000000000000000000000000000000000000000000000
00000000000000000000000000000000000000000000000000
00000000000000000000000000000000000000000000000000
00000000000000000000000000000000000000000000000000
00000000000000000000000000000000000000000000000000
00000000000000000000000000000000000000000000000000
00000000000000000000000000000000000000000000000000
00000000000000000000000000000000000000000000000000
00000000000000000000000000000000000000000000000000
00000000000000000000000000000000000110000000000000
00000000000000000000000000000111111110000000000000
00000000000000000000000011111111111110000000000000
00000000000000000000000111111111111100000000000000
00000000000000000000000111111111111100000000000000
00000000000000000000001111111111111100000000000000
00000000000000000000011111111111111100000000000000
00000000000000000000111111111111111100000000000000
00000000000000000000111111111111111100000000000000
00000000000000000000111111111111111000000000000000
00000000000000000000111111111111110000000000000000
00000000000000000001111111111111110000000000000000
00000000000000000011111111111111110000000000000000
00000000000000000011111111111111110000000000000000
00000000000000000011111111111111110000000000000000
00000000000000000111111111111111100000000000000000
00000000000000001111111101111111110000000000000000
00000000000000011111111101111111110000000000000000
00000000000000011111111011111111100000000000000000
00000000000000011111110011111111100000000000000000
00000000000000011111110011111111100000000000000000
00000000000000111111110011111111000000000000000000
00000000000001111111110001111111000000000000000000
00000000000001111111100011111111000000000000000000
00000000000001111111000011111110000000000000000000
00000000000000111111000011111111000000000000000000
00000000000001111111000011111111000000000000000000
00000000000001111110000011111111000000000000000000
00000000000011111110000011111110000000000000000000
00000000000011111100000001111110000000000000000000
00000000000011111100000011111110000000000000000000
00000000000011111100000011111110000000000000000000
00000000000011111100000011111111110000000000000000
00000000000011111100000111111111111000000000000000
00000000000111111000000111111111111000000000000000
00000000000111110000000111111111111000000000000000
00000000001111111000011111111111111000000000000000
00000000001111111111111111111111110000000000000000
00000000001111111111111111111111110000000000000000
00000000001111111111111111111111111000000000000000
00000000000111111111111111111111111000000000000000
00000000000111111111111111111110000000000000000000
00000000000111111111111111111100000000000000000000
00000000000111111111111111111100000000000000000000
00000000000111111111100011111100000000000000000000
00000000000111111100000011111100000000000000000000
00000000000011000000000111111100000000000000000000
00000000000000000000000111111100000000000000000000
00000000000000000000000111111100000000000000000000
00000000000000000000000011111100000000000000000000
00000000000000000000000011111100000000000000000000
00000000000000000000000011110000000000000000000000
00000000000000000000000000000000000000000000000000
00000000000000000000000000000000000000000000000000
00000000000000000000000000000000000000000000000000
00000000000000000000000000000000000000000000000000
00000000000000000000000000000000000000000000000000
00000000000000000000000000000000000000000000000000
00000000000000000000000000000000000000000000000000
00000000000000000000000000000000000000000000000000
