P1
50 70
00000000000000000000000000000000000000000000000000
00000000000000000000000000000000000000000000000000
00000000000000000000000000000000000000000000000000
00000000000000000000000000000000000000000000000000
00000000000000000000000000000000000000000000000000
00000000000000000000000000000000000000000000000000
00000000000000000000000000000000000000000000000000
00000000000000000000000000000000000000000000000000
00000000000000000000000000000000000000000000000000
00000000000000000000000000000000000000000000000000
00000000000000000000000000000000000000000000000000
00000000000000000000000000000000000000000000000000
00000000000000000000000000000010000000000000000000
00000000000000000000000000001111111000000000000000
00000000000000000000000001111111111100000000000000
00000000000000000000000001111111111110000000000000
00000000000000000000000011111111111110000000000000
00000000000000000000000011111111111110000000000000
00000000000000000000000011111111111100000000000000
00000000000000000000000011111111111100000000000000
00000000000000000000000111111111111100000000000000
00000000000000000000001111111111111100000000000000
00000000000000000000001111111111111110000000000000
00000000000000000000011111111111111111000000000000
00000000000000000000111111111111111110000000000000
00000000000000000000111111111111111110000000000000
00000000000000000000111111111111111110000000000000
00000000000000000000111111111111111110000000000000
00000000000000000001111111111111111110000000000000
00000000000000000001111101111111111110000000000000
00000000000000000011111001111111111110000000000000
00000000000000000111110001111111111110000000000000
00000000000000000111111000111111111111000000000000
00000000000000001111110000111111111110000000000000
00000000000000001111100000111111111110000000000000
00000000000000001111000001111111111110000000000000
00000000000000011111000001111111111110000000000000
00000000000000111111000001111111111110000000000000
00000000000001111110000001111111111110000000000000
00000000000001111110000000111111111110000000000000
00000000000001111100000001111111111110000000000000
00000000000011111000000001111111111111000000000000
00000000000111111000000001111111111111000000000000
00000000000111110000000001111111111111000000000000
00000000001111100000000001111111111111000000000000
00000000001111100000000011111111111111000000000000
00000000011111000000000001111111111111111111100000
00000000111110000000011111111111111111111111110000
00000001111111111111111111111111111111111111111000
00000011111111111111111111111111111111111111111000
00000011111111111111111111111111111111111111110000
00000011111111111111111111111111111111000111110000
00000111111111111111111111111111111111000000000000
00000111111111111110000011111111111111000000000000
00000001111000000000000001111111111111000000000000
00000000000000000000000011111111111111000000000000
00000000000000000000000011111111111111100000000000
00000000000000000000000011111111111111100000000000
00000000000000000000000011111111111111100011000000
00000000000000000000000011111111111111111111100000
00000000000000000000000111111111111111111111110000
00000000000000001111111111111111111111111111110000
00000000000000001111111111111111111111111111110000
00000000000000011111111111111111111111100000000000
00000000000000111111111111111100000000000000000000
00000000000000111111100000000000000000000000000000
00000000000000000000000000000000000000000000000000
00000000000000000000000000000000000000000000000000
00000000000000000000000000000000000000000000000000
00000000000000000000000000000000000000000000000000
