P1
50 70
00000000000000000000000000000000000000000000000000
00000000000000000000000000000000000000000000000000
00000000000000000000000000000000000000000000000000
00000000000000000000000000000000000000000000000000
00000000000000000000000000000000000000000000000000
00000000000000000000000000000000000000000000000000
00000000000000000000000000000000000000000000000000
00000000000000000000000000000000000000000000000000
00000000000000000000000000000000000000000000000000
00000000000000000000000000000000000000000000000000
00000000000000000000000000000000000000000000000000
00000000000000000000000000000000000000000000000000
00000000000000000000000000000000000000000000000000
00000000000000000000000000000000000000000000000000
00000000000000000000000000000000000000000000000000
00000000000000000000000000000000000000000000000000
00000000000000000000000000000000000000000000000000
00000000000000000000000000000000000000000000000000
00000000000000000000000000000000000000000000000000
00000000000000000000000000000000000000000000000000
00000000000000000000000000000000000000000000000000
00000000000000000000000111110000000000000000000000
00000000000000000000001111111000000000000000000000
00000000000000000000011111111110000000000000000000
00000000000000000000011111111110000000000000000000
00000000000000000000111111111100000000000000000000
00000000000000000000111111111100000000000000000000
00000000000000000001111111111100000000000000000000
00000000000000000011111111111110000000000000000000
00000000000000000011111111111110000000000000000000
00000000000000000111111011111110000000000000000000
00000000000000001111110111111111000000000000000000
00000000000000011111110011111111000000000000000000
00000000000000011111100011111111000000000000000000
00000000000000011111100011111110000000000000000000
00000000000000111111000001111111000000000000000000
00000000000000111111000001111111000000000000000000
00000000000001111110000001111111000000000000000000
00000000000011111110000001111111000000000000000000
00000000000011111100000000111111000000000000000000
00000000000011111000000000111111000000000000000000
00000000000011110000000000111111000000000000000000
00000000000111111000000000111111100000000000000000
00000000000111110000000000111111100000000000000000
00000000001111100000000000111111100000000000000000
00000000001111100000000001111111100000000000000000
00000000001111111100011111111111110000110000000000
00000000001111111111111111111111111111110000000000
00000000001111111111111111111111111111111000000000
00000000000111111111111111111111111111110000000000
00000000000000000111000000011111110110000000000000
00000000000000000000000000001111110000000000000000
00000000000000000000000000001111110000000000000000
00000000000000000000000000001111110000000000000000
00000000000000000000000000001111110000000000000000
00000000000000000000000000001111111011000000000000
00000000000000000000000111011111111111100000000000
00000000000000000000001111111111111111110000000000
00000000000000000000001111111111111111110000000000
00000000000000000000000111111001000000000000000000
00000000000000000000000000000000000000000000000000
00000000000000000000000000000000000000000000000000
00000000000000000000000000000000000000000000000000
00000000000000000000000000000000000000000000000000
00000000000000000000000000000000000000000000000000
00000000000000000000000000000000000000000000000000
00000000000000000000000000000000000000000000000000
00000000000000000000000000000000000000000000000000
00000000000000000000000000000000000000000000000000
00000000000000000000000000000000000000000000000000
