P1
50 70
00000000000000000000000000000000000000000000000000
00000000000000000000000000000000000000000000000000
00000000000000000000000000000000000000000000000000
00000000000000000000000000000000000000000000000000
00000000000000000000000000000000000000000000000000
00000000000000000000000000000000000000000000000000
00000000000000000000000000000000000000000000000000
00000000000000000000000000000000000000000000000000
00000000000000000000000000000000000000000000000000
00000000000000000000000000000000000000000000000000
00000000000000000000000000000000000000000000000000
00000000000000000000000000000000000000000000000000
00000000000000000000000000000000000000000000000000
00000000000000000000000000000000000000000000000000
00000000000000000000000000000000000000000000000000
00000000000000000000000011111100000000000000000000
00000000000000000000000111111100000000000000000000
00000000000000000000001111111100000000000000000000
00000000000000000000011111111000000000000000000000
00000000000000000000011111111000000000000000000000
00000000000000000000111111111000000000000000000000
00000000000000000001111111111000000000000000000000
00000000000000000001111111111100000000000000000000
00000000000000000001111111111100000000000000000000
00000000000000000001111111111100000000000000000000
00000000000000000011111111111100000000000000000000
00000000000000000011111111111100000000000000000000
00000000000000000011110011111100000000000000000000
00000000000000000111110011111110000000000000000000
00000000000000000111100011111110000000000000000000
00000000000000001111100011111110000000000000000000
00000000000000001111100011111100000000000000000000
00000000000000011111000001111110000000000000000000
00000000000000011111000001111110000000000000000000
00000000000000011111000001111110000000000000000000
00000000000000011110000001111111000000000000000000
00000000000000011110000001111111000000000000000000
00000000000000011110000001111111000000000000000000
00000000000000111110000001111111000000000000000000
00000000000000111100000000111111000000000000000000
00000000000001111100000000111111000011100000000000
00000000000001111000000000111111111111100000000000
00000000000001111100000000111111111111000000000000
00000000000000111100000000111111111110000000000000
00000000000001111100000001111111111110000000000000
00000000000001111000001111111111111000000000000000
00000000000001111000011111111111100000000000000000
00000000000001111000111111111111100000000000000000
00000000000001111111111111111111100000000000000000
00000000000011111111111110001111100000000000000000
00000000000001111111110000001111110000000000000000
00000000000000111111000000000111111011100000000000
00000000000000111100000000000111111111100000000000
00000000000000111000000000000111111111100000000000
00000000000000000000000000000111111111000000000000
00000000000000000000000000011111111110000000000000
00000000000000000000000000111111111000000000000000
00000000000000000000000001111111000000000000000000
00000000000000000000000001111110000000000000000000
00000000000000000000000000111000000000000000000000
00000000000000000000000000000000000000000000000000
00000000000000000000000000000000000000000000000000
00000000000000000000000000000000000000000000000000
00000000000000000000000000000000000000000000000000
00000000000000000000000000000000000000000000000000
00000000000000000000000000000000000000000000000000
00000000000000000000000000000000000000000000000000
00000000000000000000000000000000000000000000000000
00000000000000000000000000000000000000000000000000
00000000000000000000000000000000000000000000000000
