P1
50 70
00000000000000000000000000000000000000000000000000
00000000000000000000000000000000000000000000000000
00000000000000000000000000000000000000000000000000
00000000000000000000000000000000000000000000000000
00000000000000000000000000000000000000000000000000
00000000000000000000000000000000000000000000000000
00000000000000000000000000000000000000000000000000
00000000000000000000000000000000000000000000000000
00000000000000000000000000000000000000000000000000
00000000000000000000000000000000000000000000000000
00000000000000000000000000000000000000000000000000
00000000000000000000000000000000000000000000000000
00000000000000000000000000000000000000000000000000
00000000000000000000000000000000000000000000000000
00000000000000000000000000000000000000000000000000
00000000000000000000000000000000000000000000000000
00000000000000000011110000000000000000000000000000
00000000000000000011111000000000000000000000000000
00000000000000000011111000000000000000000000000000
00000000000000000111111000000000000000000000000000
00000000000000001111111100000000000000000000000000
00000000000000001111111110000000000000000000000000
00000000000000000111111110000000000000000000000000
00000000000000001111111110000000000000000000000000
00000000000000001111111111000000000000000000000000
00000000000000001111111111000000000000000000000000
00000000000000011111111111000000000000000000000000
00000000000000011110111111100000000000000000000000
00000000000000111110011111110000000000000000000000
00000000000000011110011111110000000000000000000000
00000000000000111110011111111000000000000000000000
00000000000000111100001111111000000000000000000000
00000000000000111100001111111000000000000000000000
00000000000000111000000011111100000000000000000000
00000000000000111100000011111100000000000000000000
00000000000001111100000011111100000010000000000000
00000000000000111100000011111110000111000000000000
00000000000000111000000011111111111111100000000000
00000000000001111000000011111111111111100000000000
00000000000001111000000000111111111111000000000000
00000000000001110000000000111111111100000000000000
00000000000011110000000000111111110000000000000000
00000000000011111000000011111111110000000000000000
00000000000001110000000111111111110000000000000000
00000000000011110000011111111111111000000000000000
00000000000011110000111111111111111000000000000000
00000000000011100011111111111111111100000000000000
00000000000011100111111111000111111100000000000000
00000000000011111111111100000111111100000000000000
00000000000111111111111000000011111100000000000000
00000000000111111111100000000001111000000000000000
00000000000111111111000000000000111000000000000000
00000000000111111110000000000000000000000000000000
00000000000011111000000000000000000000000000000000
00000000000011110000000000000000000000000000000000
00000000000011000000000000000000000000000000000000
00000000000000000000000000000000000000000000000000
00000000000000000000000000000000000000000000000000
00000000000000000000000000000000000000000000000000
00000000000000000000000000000000000000000000000000
00000000000000000000000000000000000000000000000000
00000000000000000000000000000000000000000000000000
00000000000000000000000000000000000000000000000000
00000000000000000000000000000000000000000000000000
00000000000000000000000000000000000000000000000000
00000000000000000000000000000000000000000000000000
00000000000000000000000000000000000000000000000000
00000000000000000000000000000000000000000000000000
00000000000000000000000000000000000000000000000000
00000000000000000000000000000000000000000000000000
