P1
50 70
00000000000000000000000000000000000000000000000000
00000000000000000000000000000000000000000000000000
00000000000000000000000000000000000000000000000000
00000000000000000000000000000000000000000000000000
00000000000000000000000000000000000000000000000000
00000000000000000000000000000000000000000000000000
00000000000000000000000000000000000000000000000000
00000000000000000000000000000000000000000000000000
00000000000000000000000000000000000000000000000000
00000000000000000000000000000000000000000000000000
00000000000000000000000000000000000000000000000000
00000000000000000000000000000000000000000000000000
00000000000000000000000000000000000000000000000000
00000000000000000000000000000000000000000000000000
00000000000000000000000000000000000000000000000000
00000000000000000000000000000000000000000000000000
00000000000000000000000000000000000000000000000000
00000000000000000000000001110000000000000000000000
00000000000000000000000011111111100000000000000000
00000000000000000000000011111111100000000000000000
00000000000000000000000111111111100000000000000000
00000000000000000000001111111111100000000000000000
00000000000000000000011111111111100000000000000000
00000000000000000000111111111111100000000000000000
00000000000000000001111111111111100000000000000000
00000000000000000011111111111111100000000000000000
00000000000000000111111111111111110000000000000000
00000000000000000111111001111111100000000000000000
00000000000000000111110001111111100000000000000000
00000000000000001111110001111111100000000000000000
00000000000000011111100000111111110000000000000000
00000000000000111111000000011111110000000000000000
00000000000001111110000000011111100000000000000000
00000000000011111100000000011111100000000000000000
00000000000011111000000000111111110000000000000000
00000000000111111000000000111111110000000000000000
00000000001111111000000000111111110000000000000000
00000000001111110000000000111111110000000000000000
00000000011111100000000000011111110000000000000000
00000000011111100000000000001111110000000000000000
00000000011111000000000000001111110000000000000000
00000000111111000000000000011111110000000000000000
00000001111110000000000000011111111000000000000000
00000001111111111100011100011111111000000000000000
00000000111111111111111111111111111000000000000000
00000000111111111111111111111111111100000000000000
00000000111100111111111111111111111111111000000000
00000000000000000010000111111111111111111110000000
00000000000000000000000000011111111111111100000000
00000000000000000000000000001111111001000000000000
00000000000000000000000000001111111100000000000000
00000000000000000000000000000111111100000000000000
00000000000000000000000000000111111000000000000000
00000000000000000000000000000111111000000000000000
00000000000000000000001111001111111000000000000000
00000000000000000000001111111111111110000000000000
00000000000000000000001111111111111111111100000000
00000000000000000000000011111111111111111110000000
00000000000000000000000000000011101111111110000000
00000000000000000000000000000000000000111000000000
00000000000000000000000000000000000000000000000000
00000000000000000000000000000000000000000000000000
00000000000000000000000000000000000000000000000000
00000000000000000000000000000000000000000000000000
00000000000000000000000000000000000000000000000000
00000000000000000000000000000000000000000000000000
00000000000000000000000000000000000000000000000000
00000000000000000000000000000000000000000000000000
00000000000000000000000000000000000000000000000000
00000000000000000000000000000000000000000000000000
