P1
50 70
00000000000000000000000000000000000000000000000000
00000000000000000000000000000000000000000000000000
00000000000000000000000000000000000000000000000000
00000000000000000000000000000000000000000000000000
00000000000000000000000000000000000000000000000000
00000000000000000000000000000000000000000000000000
00000000000000000000000000000000000000000000000000
00000000000000000000000000000000000000000000000000
00000000000000000000000000000000000000000000000000
00000000000000000000000000000000000000000000000000
00000000000000000000000000000000000000000000000000
00000000000000000000000000000000000000000000000000
00000000000000000000000000000000000000000000000000
00000000000000000000001100000000000000000000000000
00000000000000000000111110000000000000000000000000
00000000000000000011111111000000000000000000000000
00000000000000000111111111000000000000000000000000
00000000000000001111111111000000000000000000000000
00000000000000001111101111000000000000000000000000
00000000000000001111100111000000000000000000000000
00000000000000001111000111000000000000000000000000
00000000000000011111001111000000000000000000000000
00000000000000001110001111100000000000000000000000
00000000000000001110001111110000000000000000000000
00000000000000011110000011110000000000000000000000
00000000000000011110000011110000000000000000000000
00000000000000111100000011111000000000000000000000
00000000000000111110000011111000000000000000000000
00000000000001111100000001111000000000000000000000
00000000000001111100000001111100000000000000000000
00000000000000111100000001111100000000000000000000
00000000000000111100000000111100000000000000000000
00000000000001111000000000011100000000000000000000
00000000000001111000000000011100000000000000000000
00000000000000111000000000011100000000000000000000
00000000000000111000000000001110010000000000000000
00000000000000111000000000001111111000000000000000
00000000000000111000000000001111111000000000000000
00000000000001111000000000011111100000000000000000
00000000000001111000000001111111100000000000000000
00000000000001111000000011111111100000000000000000
00000000000001110000001111111111100000000000000000
00000000000001111000111111110011110000000000000000
00000000000000111000111110000011110000000000000000
00000000000001111111111100000011111000000000000000
00000000000001111111110000000001111111000000000000
00000000000001111111100000000001111111000000000000
00000000000000111111000000000001111111000000000000
00000000000000111100000000000001111110000000000000
00000000000000011000000000000111111000000000000000
00000000000000000000000000001111110000000000000000
00000000000000000000000000011111000000000000000000
00000000000000000000000000001111000000000000000000
00000000000000000000000000000000000000000000000000
00000000000000000000000000000000000000000000000000
00000000000000000000000000000000000000000000000000
00000000000000000000000000000000000000000000000000
00000000000000000000000000000000000000000000000000
00000000000000000000000000000000000000000000000000
00000000000000000000000000000000000000000000000000
00000000000000000000000000000000000000000000000000
00000000000000000000000000000000000000000000000000
00000000000000000000000000000000000000000000000000
00000000000000000000000000000000000000000000000000
00000000000000000000000000000000000000000000000000
00000000000000000000000000000000000000000000000000
00000000000000000000000000000000000000000000000000
00000000000000000000000000000000000000000000000000
00000000000000000000000000000000000000000000000000
00000000000000000000000000000000000000000000000000
