P1
50 70
00000000000000000000000000000000000000000000000000
00000000000000000000000000000000000000000000000000
00000000000000000000000000000000000000000000000000
00000000000000000000000000000000000000000000000000
00000000000000000000000000000000000000000000000000
00000000000000000000000000000000000000000000000000
00000000000000000000000000000000000000000000000000
00000000000000000000000000000000000000000000000000
00000000000000000000000000000000000000000000000000
00000000000000000000000000000000000000000000000000
00000000000000000000000000000000000000000000000000
00000000000000000000000000000000000000000000000000
00000000000000000000000000000000000000000000000000
00000000000000000000000000000000000000000000000000
00000000000000000000000000000000000000000000000000
00000000000000000000000000000000000000000000000000
00000000000000000000000000000000000000000000000000
00000000000000000000000000100000000000000000000000
00000000000000000000000001111110000000000000000000
00000000000000000000000001111111000000000000000000
00000000000000000000000001111111110000000000000000
00000000000000000000000011111111110000000000000000
00000000000000000000000111111111110000000000000000
00000000000000000000001111111111110000000000000000
00000000000000000000001111111111110000000000000000
00000000000000000000011111111111111000000000000000
00000000000000000000011111111111111000000000000000
00000000000000000001111111111111110000000000000000
00000000000000000001111110111111110000000000000000
00000000000000000001111100111111110000000000000000
00000000000000000011111000111111110000000000000000
00000000000000000111111000011111110000000000000000
00000000000000001111111000011111110000000000000000
00000000000000001111110000001111111000000000000000
00000000000000001111110000001111111000000000000000
00000000000000011111100000001111111000000000000000
00000000000000011111100000001111111000000000000000
00000000000000011111000000000111110000000000000000
00000000000000111110000000001111110000000000000000
00000000000000111110000000001111110000000000000000
00000000000000111100000000001111110000000000000000
00000000000001111110000000001111110000000000000000
00000000000001111110000000001111111000000000000000
00000000000011111100000000001111111000000000000000
00000000000011111000000000000111111000000000000000
00000000000011111000000000000111111000000000000000
00000000000011110000000000000111110000000000000000
00000000000111110000011000000111110000000000000000
00000000000111111111111110001111111100110000000000
00000000000111111111111111111111111111111000000000
00000000000011111111111111111111111111111000000000
00000000000000011111111111111111111111111000000000
00000000000000001111000000011111111010000000000000
00000000000000000000000000000111110000000000000000
00000000000000000000000000000111110000000000000000
00000000000000000000000000000111110000000000000000
00000000000000000000000000000111100000000000000000
00000000000000000000000000000111110000000000000000
00000000000000000000000000000111110000000000000000
00000000000000000000000000000111111001110000000000
00000000000000000000000111111111111111110000000000
00000000000000000000000111111111111111110000000000
00000000000000000000000111111111111111100000000000
00000000000000000000000000011110000011000000000000
00000000000000000000000000000000000000000000000000
00000000000000000000000000000000000000000000000000
00000000000000000000000000000000000000000000000000
00000000000000000000000000000000000000000000000000
00000000000000000000000000000000000000000000000000
00000000000000000000000000000000000000000000000000
