P1
50 70
00000000000000000000000000000000000000000000000000
00000000000000000000000000000000000000000000000000
00000000000000000000000000000000000000000000000000
00000000000000000000000000000000000000000000000000
00000000000000000000000000000000000000000000000000
00000000000000000000000000000000000000000000000000
00000000000000000000000000000000000000000000000000
00000000000000000000000000000000000000000000000000
00000000000000000000000000000000000000000000000000
00000000000000000000000000000000000000000000000000
00000000000000000000000000000000000000000000000000
00000000000000000000000000000000000000000000000000
00000000000000000000000000000000000000000000000000
00000000000000000000000000000000000000000000000000
00000000000000000000000000000000000000000000000000
00000000000000000000000000000000000000000000000000
00000000000000000000000000011111100000000000000000
00000000000000000000000000111111110000000000000000
00000000000000000000000000111111110000000000000000
00000000000000000000000000111111110000000000000000
00000000000000000000000001111111110000000000000000
00000000000000000000000011111111110000000000000000
00000000000000000000000011111111110000000000000000
00000000000000000000000111111111110000000000000000
00000000000000000000001111111111110000000000000000
00000000000000000000000111111111111000000000000000
00000000000000000000001111111111111000000000000000
00000000000000000000011111111111111000000000000000
00000000000000000000111111111111111000000000000000
00000000000000000000111110011111111000000000000000
00000000000000000000111100111111111000000000000000
00000000000000000001111000011111110000000000000000
00000000000000000011111100011111110000000000000000
00000000000000000111111000011111111000000000000000
00000000000000000111110000011111111000000000000000
00000000000000001111100000011111111000000000000000
00000000000000011111000000011111111000000000000000
00000000000000011111000000011111111000000000000000
00000000000000111111000000011111111000000000000000
00000000000001111110000000011111111000000000000000
00000000000011111000000000011111110000000000000000
00000000000111111000000000001111110000000000000000
00000000000111110000000000011111111000000000000000
00000000001111100000000000011111111000000000000000
00000000001111100000000000011111110000000000000000
00000000011111100000010000111111111000000000000000
00000000011111111111111111111111111111111100000000
00000000111111111111111111111111111111111111000000
00000001111111111111111111111111111111111111000000
00000000111111111111111111111111111111111111000000
00000000000000000000000000111111111110000000000000
00000000000000000000000000111111111000000000000000
00000000000000000000000000011111111000000000000000
00000000000000000000000000011111110000000000000000
00000000000000000000000000011111110000000000000000
00000000000000000000000000011111110000000000000000
00000000000000000000111001111111111110000000000000
00000000000000000001111111111111111111111000000000
00000000000000000011111111111111111111111100000000
00000000000000000001111100111111111111111100000000
00000000000000000000000000000001000011110000000000
00000000000000000000000000000000000000000000000000
00000000000000000000000000000000000000000000000000
00000000000000000000000000000000000000000000000000
00000000000000000000000000000000000000000000000000
00000000000000000000000000000000000000000000000000
00000000000000000000000000000000000000000000000000
00000000000000000000000000000000000000000000000000
00000000000000000000000000000000000000000000000000
00000000000000000000000000000000000000000000000000
