P1
50 70
00000000000000000000000000000000000000000000000000
00000000000000000000000000000000000000000000000000
00000000000000000000000000000000000000000000000000
00000000000000000000000000000000000000000000000000
00000000000000000000000000000000000000000000000000
00000000000000000000000000000000000000000000000000
00000000000000000000000000000000000000000000000000
00000000000000000000000000000000000000000000000000
00000000000000000000000000000000000000000000000000
00000000000000000000000000000000000000000000000000
00000000000000000000000000000000000000000000000000
00000000000000000000000000000000000000000000000000
00000000000000000000000000000000000000000000000000
00000000000000000000000000000000000000000000000000
00000000000000000000000000000000000000000000000000
00000000000000000000000000000000000000000000000000
00000000000000000000000000000000000000000000000000
00000000000000000000000000000011100000000000000000
00000000000000000000000000000111111000000000000000
00000000000000000000000000001111110000000000000000
00000000000000000000000000001111110000000000000000
00000000000000000000000000011111110000000000000000
00000000000000000000000000111111110000000000000000
00000000000000000000000001111111110000000000000000
00000000000000000000000001111111110000000000000000
00000000000000000000000001111111110000000000000000
00000000000000000000000011111111110000000000000000
00000000000000000000000011111111110000000000000000
00000000000000000000000111111111100000000000000000
00000000000000000000001111011111100000000000000000
00000000000000000000001110001111100000000000000000
00000000000000000000001110001111100000000000000000
00000000000000000000001110001111100000000000000000
00000000000000000000011110001111100000000000000000
00000000000000000000111100011111100000000000000000
00000000000000000001111000011111100000000000000000
00000000000000000001111000011111100000000000000000
00000000000000000001110000011111000000000000000000
00000000000000000011110000001111000000000000000000
00000000000000000111110000001111000000000000000000
00000000000000000111100000011111000110000000000000
00000000000000001111100000011111111111000000000000
00000000000000000111000000011111111110000000000000
00000000000000001111000000111111111110000000000000
00000000000000011110000001111111111000000000000000
00000000000000011110001111111111000000000000000000
00000000000000111100011111111110000000000000000000
00000000000000111111111111111110000000000000000000
00000000000000111111111111111110000000000000000000
00000000000001111111111100111110000000000000000000
00000000000000111111100000111111000000000000000000
00000000000000111110000001111111011000000000000000
00000000000000111100000000111111111000000000000000
00000000000000000000000000111111111000000000000000
00000000000000000000000000111111111000000000000000
00000000000000000000000001111111100000000000000000
00000000000000000000000111111110000000000000000000
00000000000000000000001111111000000000000000000000
00000000000000000000001111110000000000000000000000
00000000000000000000011111000000000000000000000000
00000000000000000000011000000000000000000000000000
00000000000000000000001000000000000000000000000000
00000000000000000000000000000000000000000000000000
00000000000000000000000000000000000000000000000000
00000000000000000000000000000000000000000000000000
00000000000000000000000000000000000000000000000000
00000000000000000000000000000000000000000000000000
00000000000000000000000000000000000000000000000000
00000000000000000000000000000000000000000000000000
00000000000000000000000000000000000000000000000000
