P1
50 70
00000000000000000000000000000000000000000000000000
00000000000000000000000000000000000000000000000000
00000000000000000000000000000000000000000000000000
00000000000000000000000000000000000000000000000000
00000000000000000000000000000000000000000000000000
00000000000000000000000000000000000000000000000000
00000000000000000000000000000000000000000000000000
00000000000000000000000000000000000000000000000000
00000000000000000000000000000000000000000000000000
00000000000000000000000000000000000000000000000000
00000000000000000000000000000000000000000000000000
00000000000000000000000000000000000000000000000000
00000000000000000000000000000000000000000000000000
00000000000000000000000000000000000000000000000000
00000000000000000000000000000000000000000000000000
00000000000000000000000000000000000000000000000000
00000000000000000000000000000000000000000000000000
00000000000000000000000000000000000000000000000000
00000000000000000000000000000000000000000000000000
00000000000000000000000000000000000000000000000000
00000000000000000000000000000000000000000000000000
00000000000000000000000000000000000000000000000000
00000000000000000000000000000000000010000000000000
00000000000000000000000000011111111111111100000000
00000000000000000000000001111111111111111100000000
00000000000000000000000001111111111111111100000000
00000000000000000000000011111111111111111000000000
00000000000000000000000111111111111111111000000000
00000000000000000000001111111111111111111000000000
00000000000000000000011111111111111111110000000000
00000000000000000000011111111111111111110000000000
00000000000000000000111111111111111111111000000000
00000000000000000001111111111111111111110000000000
00000000000000000001111111111111111111110000000000
00000000000000000011111111111111111111110000000000
00000000000000000011111111111111111111110000000000
00000000000000000111111111111111111111110000000000
00000000000000001111111111011111111111110000000000
00000000000000011111111110011111111111100000000000
00000000000000011111111110011111111111000000000000
00000000000000111111111100011111111111100000000000
00000000000000111111111000011111111111100000000000
00000000000001111111111000011111111111100000000000
00000000000011111111110000011111111111100000000000
00000000000011111111110000111111111111000000000000
00000000000111111111100000011111111111000000000000
00000000000111111111000000011111111111000000000000
00000000000111111110000000011111111111000000000000
00000000011111111110000000011111111111000110000000
00000000011111111100000000011111111111111110000000
00000000111111111100000000111111111111111111000000
00000000011111111000110011111111111111111111000000
00000000111111111111111111111111111111111110000000
00000000111111111111111111111111111111111110000000
00000000111111111111111111111111111111111110000000
00000000111111111111111111111111111111111110000000
00000000111111111111111111111111111111111100000000
00000000011111111111111111111111111111011000000000
00000000011111111111111111111111111110000000000000
00000000011111111111111111111111111110000000000000
00000000011111111111111000011111111110000000000000
00000000011111100011100000011111111110000000000000
00000000001111000000000000011111111110000000000000
00000000000000000000000000011111111110000000000000
00000000000000000000000000111111111110000000000000
00000000000000000000000000111111111100000000000000
00000000000000000000000000011111100000000000000000
00000000000000000000000000010000000000000000000000
00000000000000000000000000000000000000000000000000
00000000000000000000000000000000000000000000000000
