P1
50 70
00000000000000000000000000000000000000000000000000
00000000000000000000000000000000000000000000000000
00000000000000000000000000000000000000000000000000
00000000000000000000000000000000000000000000000000
00000000000000000000000000000000000000000000000000
00000000000000000000000000000000000000000000000000
00000000000000000000000000000000000000000000000000
00000000000000000000000000000000000000000000000000
00000000000000000000000000000000000000000000000000
00000000000000000000000000000000000000000000000000
00000000000000000000000000000000000000000000000000
00000000000000000000000000000000000000000000000000
00000000000000000000000000000000000000000000000000
00000000000000000000000000000000000000000000000000
00000000000000000000000000000000000000000000000000
00000000000000000000000000000000000000000000000000
00000000000000000000000000000000000000000000000000
00000000000000000000000000000000000000000000000000
00000000000000000000000000000000000000000000000000
00000000000000000000000000000000000000000000000000
00000000000000000000000000000000000000000000000000
00000000000000000000000000000000000000000000000000
00000000000000000000000000000000000000000000000000
00000000000000000000000000000000000000000000000000
00000000000000000000000000000000000000000000000000
00000000000000000000000000000001110000000000000000
00000000000000000000000000000001111000000000000000
00000000000000000000000000000011111000000000000000
00000000000000000000000000000111111000000000000000
00000000000000000000000000001111111000000000000000
00000000000000000000000000011111110000000000000000
00000000000000000000000000111111110000000000000000
00000000000000000000000000111111110000000000000000
00000000000000000000000001111111110000000000000000
00000000000000000000000011111111110000000000000000
00000000000000000000000111101111110000000000000000
00000000000000000000001111001111110000000000000000
00000000000000000000001110001111100000000000000000
00000000000000000000011100001111100000000000000000
00000000000000000000111100001111100000000000000000
00000000000000000001111000001111100000000000000000
00000000000000000001111000011111110000000000000000
00000000000000000011110000011111100000000000000000
00000000000000000011100000011111100000000000000000
00000000000000000111100000001111100000000000000000
00000000000000001111000000001111110000000000000000
00000000000000001111000000001111111110000000000000
00000000000000011111000111111111111110000000000000
00000000000000011111111111111111111111000000000000
00000000000000111111111111111111111110000000000000
00000000000000111111111111111111111100000000000000
00000000000000111111111111111111000000000000000000
00000000000000111111111000111111000000000000000000
00000000000000111110000000011111000000000000000000
00000000000000000000000000011111000000000000000000
00000000000000000000000000011111000000000000000000
00000000000000000000000000011111000000000000000000
00000000000000000000000000111111000000000000000000
00000000000000000000000000011111000000000000000000
00000000000000000000000000011111000000000000000000
00000000000000000000000000011110000000000000000000
00000000000000000000000000010000000000000000000000
00000000000000000000000000000000000000000000000000
00000000000000000000000000000000000000000000000000
00000000000000000000000000000000000000000000000000
00000000000000000000000000000000000000000000000000
00000000000000000000000000000000000000000000000000
00000000000000000000000000000000000000000000000000
00000000000000000000000000000000000000000000000000
00000000000000000000000000000000000000000000000000
