P1
50 70
00000000000000000000000000000000000000000000000000
00000000000000000000000000000000000000000000000000
00000000000000000000000000000000000000000000000000
00000000000000000000000000000000000000000000000000
00000000000000000000000000000000000000000000000000
00000000000000000000000000000000000000000000000000
00000000000000000000000000000000000000000000000000
00000000000000000000000000000000000000000000000000
00000000000000000000000000000000000000000000000000
00000000000000000000000000000000000000000000000000
00000000000000000000000000000000000000000000000000
00000000000000000000000000000111111000000000000000
00000000000000000000111111111111111100000000000000
00000000000000000000111111111111111100000000000000
00000000000000000000111111111111111000000000000000
00000000000000000000111111111111111000000000000000
00000000000000000001111111111111111100000000000000
00000000000000000011111111111111111100000000000000
00000000000000000111111111111111111110000000000000
00000000000000000111111111111111111110000000000000
00000000000000001111111111111111111110000000000000
00000000000000001111111111111111111110000000000000
00000000000000011111111111111111111110000000000000
00000000000000111111111111111111111100000000000000
00000000000000111111111111111111111110000000000000
00000000000000111111111111111111111110000000000000
00000000000001111111111111111111111110000000000000
00000000000001111111001111111111111110000000000000
00000000000011111111001111111111111110000000000000
00000000000011111110001111111111111110000000000000
00000000000111111110001111111111111110000000000000
00000000001111111100001111111111111100000000000000
00000000001111111100001111111111111100000000000000
00000000001111111000001111111111111110000000000000
00000000011111111000001111111111111110000000000000
00000000111111110000001111111111111110000000000000
00000001111111100000001111111111111110000000000000
00000011111111100000001111111111111111000000000000
00000011111111000000000111111111111110000000000000
00000001111110000000000011111111111110000000000000
00000011111110000000000111111111111110000000000000
00000111111100000000000111111111111111000000000000
00001111111000000000000111111111111111000000000000
00001111111100000000000111111111111111000000000000
00011111111000000000000111111111111111000000000000
00001111111000000000000111111111111111000000000000
00001111110000000000000011111111111110000000000000
00001111100000000000000111111111111111100000000000
00001111100011100000011111111111111111111111110000
00001111111111111111111111111111111111111111111000
00001111111111111111111111111111111111111111111000
00000111111111111111111111111111111111111111111000
00000111111111111111111111111111111111100111110000
00000000000000000010000111111111111111000000000000
00000000000000000000000011111111111111000000000000
00000000000000000000000111111111111111000000000000
00000000000000000000000111111111111111100000000000
00000000000000000000000111111111111111100000000000
00000000000000000000000011111111111111100000000000
00000000000000000000000001111111111111100000000000
00000000000000000000000001111111111111000000000000
00000000000000000000000111111111111111000000000000
00000000000000001111111111111111111111111111110000
00000000000000001111111111111111111111111111111000
00000000000000001111111111111111111111111111111000
00000000000000001111111111111111111111111111110000
00000000000000000000000000000000000000000000000000
00000000000000000000000000000000000000000000000000
00000000000000000000000000000000000000000000000000
00000000000000000000000000000000000000000000000000
