P1
50 70
00000000000000000000000000000000000000000000000000
00000000000000000000000000000000000000000000000000
00000000000000000000000000000000000000000000000000
00000000000000000000000000000000000000000000000000
00000000000000000000000000000000000000000000000000
00000000000000000000000000000000000000000000000000
00000000000000000000000000000000000000000000000000
00000000000000000000000000000000000000000000000000
00000000000000000000000000000000000000000000000000
00000000000000000000000000000000000000000000000000
00000000000000000000000000000000000000000000000000
00000000000000000000000000000000000000000000000000
00000000000000000000000000000000000000000000000000
00000000000000000000000000000000000000000000000000
00000000000000000000000000000000000000000000000000
00000000000000000000000000000000000000000000000000
00000000000000000000000000000000000000000000000000
00000000000000000000000000000000000000000000000000
00000000000000000000000001111000000000000000000000
00000000000000000000000111111111110000000000000000
00000000000000000000001111111111110000000000000000
00000000000000000000001111111111110000000000000000
00000000000000000000011111111111110000000000000000
00000000000000000000011111111111111000000000000000
00000000000000000000111111111111111000000000000000
00000000000000000000111111111111111100000000000000
00000000000000000000011111111111111100000000000000
00000000000000000000111111111111111100000000000000
00000000000000000001111111111111111100000000000000
00000000000000000001111111111111111100000000000000
00000000000000000001111111111111111100000000000000
00000000000000000011111111111111111110000000000000
00000000000000000011111100111111111111000000000000
00000000000000000111111100111111111111000000000000
00000000000000000111111000111111111111000000000000
00000000000000000111111000111111111111100000000000
00000000000000001111110000111111111111100000000000
00000000000000001111110000111111111111100000000000
00000000000000001111110000011111111111100000000000
00000000000000011111100000011111111111100000000000
00000000000000111111100000011111111111110000000000
00000000000000111111100000001111111111111000000000
00000000000000111111000000001111111111111000000000
00000000000001111111000000001111111111111000000000
00000000000001111110000000000111111111111000000000
00000000000011111100000000000111111111111000000000
00000000000011111100000000000111111111111000000000
00000000000111111000000000000111111111111110000000
00000000001111111110011110001111111111111111000111
00000000001111111111111111111111111111111111111111
00000000000111111111111111111111111111111111111111
00000000000111111111111111111111111111111111111111
00000000000000111111000011110111111111111111110000
00000000000000000000000000000001111111111111000000
00000000000000000000000000000001111111111111000000
00000000000000000000000000000001111111111111100000
00000000000000000000000000000001111111111111100000
00000000000000000000000000000001111111111111110000
00000000000000000000000000000000111111111111110000
00000000000000000000000001000001111111111111110001
00000000000000000000000001111111111111111111111111
00000000000000000000000001111111111111111111111111
00000000000000000000000001111111111111111111111111
00000000000000000000000001111110001111100000111100
00000000000000000000000000000000000000000000000000
00000000000000000000000000000000000000000000000000
00000000000000000000000000000000000000000000000000
00000000000000000000000000000000000000000000000000
00000000000000000000000000000000000000000000000000
00000000000000000000000000000000000000000000000000
