P1
50 70
00000000000000000000000000000000000000000000000000
00000000000000000000000000000000000000000000000000
00000000000000000000000000000000000000000000000000
00000000000000000000000000000000000000000000000000
00000000000000000000000000000000000000000000000000
00000000000000000000000000000000000000000000000000
00000000000000000000000000000000000000000000000000
00000000000000000000000000000000000000000000000000
00000000000000000000000000000000000000000000000000
00000000000000000000000000000000000000000000000000
00000000000000000000000000000000000000000000000000
00000000000000000000000000000000000000000000000000
00000000000000000000000000000000000000000000000000
00000000000000000000000000000000000000000000000000
00000000000000000000000000000000000000000000000000
00000000000000000000000000000000000000000000000000
00000000000000000000000000000000000000000000000000
00000000000000000000000000000000000000000000000000
00000000000000000000000000000000000000000000000000
00000000000000000000000000000000000000000000000000
00000000000000000000000000000000000000000000000000
00000000000000000000000000000000000000000000000000
00000000000000000000000000000001100000000000000000
00000000000000000000000000000011111111110000000000
00000000000000000000000000000111111111110000000000
00000000000000000000000000001111111111110000000000
00000000000000000000000000011111111111110000000000
00000000000000000000000000111111111111110000000000
00000000000000000000000001111111111111110000000000
00000000000000000000000011111111111111110000000000
00000000000000000000001111111111111111100000000000
00000000000000000000001111111111111111000000000000
00000000000000000000011111111111111111100000000000
00000000000000000000111111101111111111100000000000
00000000000000000001111110001111111111000000000000
00000000000000000001111100001111111111000000000000
00000000000000000011111000011111111111000000000000
00000000000000000111110000011111111111000000000000
00000000000000001111110000011111111110000000000000
00000000000000011111100000011111111100000000000000
00000000000000111111000000111111111100000000000000
00000000000000111110000000111111111110000000000000
00000000000001111110000000111111111110000000000000
00000000000011111100000001111111111100000000000000
00000000001111111000000001111111111100000000000000
00000000001111111100000011111111111000000000000000
00000000001111111111111111111111111100110000000000
00000000011111111111111111111111111111110000000000
00000000011111111111111111111111111111111000000000
00000000001101111111111111111111111111111000000000
00000000000000000000000111111111110010000000000000
00000000000000000000000111111111110000000000000000
00000000000000000000000111111111100000000000000000
00000000000000000000000111111111100000000000000000
00000000000000000000000111111111100000000000000000
00000000000000000000001111111111100000000000000000
00000000000000000010011111111111111110000000000000
00000000000000000111111111111111111111000000000000
00000000000000000111111111111111111110000000000000
00000000000000001111111111111111000000000000000000
00000000000000001100001000000000000000000000000000
00000000000000000000000000000000000000000000000000
00000000000000000000000000000000000000000000000000
00000000000000000000000000000000000000000000000000
00000000000000000000000000000000000000000000000000
00000000000000000000000000000000000000000000000000
00000000000000000000000000000000000000000000000000
00000000000000000000000000000000000000000000000000
00000000000000000000000000000000000000000000000000
00000000000000000000000000000000000000000000000000
