P1
50 70
00000000000000000000000000000000000000000000000000
00000000000000000000000000000000000000000000000000
00000000000000000000000000000000000000000000000000
00000000000000000000000000000000000000000000000000
00000000000000000000000000000000000000000000000000
00000000000000000000000000000000000000000000000000
00000000000000000000000000000000000000000000000000
00000000000000000000000000000000000000000000000000
00000000000000000000000000000000000000000000000000
00000000000000000000000000000000000000000000000000
00000000000000000000000000000000000000000000000000
00000000000000000000000000000000000000000000000000
00000000000000000000000011000000000000000000000000
00000000000000000000000111000000000000000000000000
00000000000000000000000111000000000000000000000000
00000000000000000000011111100000000000000000000000
00000000000000000000111111100000000000000000000000
00000000000000000011111111100000000000000000000000
00000000000000000111111111100000000000000000000000
00000000000000000111111111100000000000000000000000
00000000000000001111111111110000000000000000000000
00000000000000001111111111110000000000000000000000
00000000000000000111111111111000000000000000000000
00000000000000001111111111110000000000000000000000
00000000000000001111111111110000000000000000000000
00000000000000001111111111111000000000000000000000
00000000000000001111111111111000000000000000000000
00000000000000011111111111111000000000000000000000
00000000000000011111101111111000000000000000000000
00000000000000001111100111111100000000000000000000
00000000000000001111000111111100000000000000000000
00000000000000001111000111111100000000000000000000
00000000000000011111000111111110000000000000000000
00000000000000011111000001111110000000000000000000
00000000000000011111000001111110000000000000000000
00000000000000011111000011111111000000000000000000
00000000000000011111000011111111000000000000000000
00000000000000011110000001111111000000000000000000
00000000000000111110000001111111000000000000000000
00000000000000111110000000111111000000000000000000
00000000000000111111000000111111100000000000000000
00000000000000111110000000011111100000000000000000
00000000000001111110000000011111110111000000000000
00000000000000111110000000011111111111100000000000
00000000000000111110000000001111111111100000000000
00000000000000111110000000001111111111100000000000
00000000000001111100000000001111111111100000000000
00000000000001111100000000011111111111000000000000
00000000000001111110000111111111111000000000000000
00000000000000111110011111111111111100000000000000
00000000000001111111111111111111111100000000000000
00000000000001111111111111110111111100000000000000
00000000000000111111111111100001111110000000000000
00000000000000111111111000000001111110000000000000
00000000000000111111100000000001111110000000000000
00000000000000011111000000000001111110000000000000
00000000000000001100000000000000111110000000000000
00000000000000000000000000000000011111000000000000
00000000000000000000000000000000011111000000000000
00000000000000000000000000000000011110000000000000
00000000000000000000000000000000000000000000000000
00000000000000000000000000000000000000000000000000
00000000000000000000000000000000000000000000000000
00000000000000000000000000000000000000000000000000
00000000000000000000000000000000000000000000000000
00000000000000000000000000000000000000000000000000
00000000000000000000000000000000000000000000000000
00000000000000000000000000000000000000000000000000
00000000000000000000000000000000000000000000000000
00000000000000000000000000000000000000000000000000
