P1
50 70
00000000000000000000000000000000000000000000000000
00000000000000000000000000000000000000000000000000
00000000000000000000000000000000000000000000000000
00000000000000000000000000000000000000000000000000
00000000000000000000000000000000000000000000000000
00000000000000000000000000000000000000000000000000
00000000000000000000000000000000000000000000000000
00000000000000000000000000000000000000000000000000
00000000000000000000000000000000000000000000000000
00000000000000000000000000000000000000000000000000
00000000000000000000000000000000000000000000000000
00000000000000000000000000000000000000000000000000
00000000000000000000000000000000000000000000000000
00000000000000000000000000000000000000000000000000
00000000000000000000000000000000000000000000000000
00000000000000000000000000000000000000000000000000
00000000000000000000000000000000000000000000000000
00000000000000000000000000000000000000000000000000
00000000000000000000000000000000000000000000000000
00000000000000000000000000000000000000000000000000
00000000000000000000000000000000000000000000000000
00000000000000000000000000100000000000000000000000
00000000000000000000000001111110000000000000000000
00000000000000000000000111111111000000000000000000
00000000000000000000001111111111111100000000000000
00000000000000000000001111111111111111100000000000
00000000000000000000011111111111111111100000000000
00000000000000000001111111111111111111100000000000
00000000000000000011111111111111111111100000000000
00000000000000000011111111111111111111100000000000
00000000000000000011111111111111111111100000000000
00000000000000000111111111111111111111000000000000
00000000000000001111111111111111111111100000000000
00000000000000011111111001111111111111100000000000
00000000000000011111111001111111111111100000000000
00000000000000111111110001111111111111000000000000
00000000000001111111100001111111111111000000000000
00000000000011111111100011111111111111000000000000
00000000000111111111000011111111111111000000000000
00000000000111111110000001111111111111100000000000
00000000001111111100000001111111111111110000000000
00000000001111111000000000111111111111100000000000
00000000011111110000000001111111111111100000000000
00000000111111100000000001111111111111100000000000
00000001111111100000000001111111111111100000000000
00000011111111100000000001111111111111100000000000
00000011111111000000000000111111111111100000000000
00000111111110000000000000111111111111000000000000
00001111111110000000000001111111111111100000000000
00001111111111110000000001111111111111100000000000
00001111111111111111111111111111111111100000000000
00000111111111111111111111111111111111100000000000
00000011111111111111111111111111111111111110001000
00000000000000000110011111111111111111111111111000
00000000000000000000000111111111111111111111111000
00000000000000000000000001111111111111111111111000
00000000000000000000000001111111111111100000000000
00000000000000000000000001111111111111100000000000
00000000000000000000000001111111111111100000000000
00000000000000000000000000111111111111100000000000
00000000000000000000000000111111111111100000000000
00000000000000000011110111111111111111111110000000
00000000000000000011111111111111111111111111110000
00000000000000000111111111111111111111111111111000
00000000000000000111111111111111111111111111110000
00000000000000000001100000000100001111000000000000
00000000000000000000000000000000000000000000000000
00000000000000000000000000000000000000000000000000
00000000000000000000000000000000000000000000000000
00000000000000000000000000000000000000000000000000
