P1
50 70
00000000000000000000000000000000000000000000000000
00000000000000000000000000000000000000000000000000
00000000000000000000000000000000000000000000000000
00000000000000000000000000000000000000000000000000
00000000000000000000000000000000000000000000000000
00000000000000000000000000000000000000000000000000
00000000000000000000000000000000000000000000000000
00000000000000000000000000000000000000000000000000
00000000000000000000000000000000000000000000000000
00000000000000000000000000000000000000000000000000
00000000000000000000000000000000000000000000000000
00000000000000000000000000000000000000000000000000
00000000000000000000000000000000000000000000000000
00000000000000000000000000000000000000000000000000
00000000000000000000000000000000000000000000000000
00000000000000000000000000000000000000000000000000
00000000000000000000000000000000000000000000000000
00000000000000000000000000000000001000000000000000
00000000000000000000000000000011111111110000000000
00000000000000000000000000000111111111110000000000
00000000000000000000000000001111111111110000000000
00000000000000000000000000001111111111110000000000
00000000000000000000000000011111111111111000000000
00000000000000000000000000011111111111111000000000
00000000000000000000000000111111111111111000000000
00000000000000000000000000111111111111110000000000
00000000000000000000000001111111111111110000000000
00000000000000000000000011111111111111110000000000
00000000000000000000000111111111111111100000000000
00000000000000000000000111111111111111100000000000
00000000000000000000001111111111111111100000000000
00000000000000000000011111001111111111100000000000
00000000000000000000111111001111111111110000000000
00000000000000000000111111011111111111100000000000
00000000000000000001111110011111111111100000000000
00000000000000000001111100011111111111000000000000
00000000000000000011111000011111111111000000000000
00000000000000000111110000011111111111000000000000
00000000000000001111110000011111111111000000000000
00000000000000011111100000011111111111000000000000
00000000000000111111100000011111111111000000000000
00000000000000111110000000011111111111000000000000
00000000000001111110000000111111111111000000000000
00000000000001111100000001111111111110000000000000
00000000000011111000000001111111111110001100000000
00000000000111110000000001111111111111111110000000
00000000000111100000011111111111111111111110000000
00000000001111111111111111111111111111111111000000
00000000011111111111111111111111111111111111000000
00000000111111111111111111111111111111001100000000
00000001111111111111111111111111111100000000000000
00000000111111111111100111111111111100000000000000
00000000111001100001000011111111111100000000000000
00000000010000000000000011111111111100000000000000
00000000000000000000000011111111111100000000000000
00000000000000000000000011111111111111011000000000
00000000000000000000000011111111111111111100000000
00000000000000000001111111111111111111111100000000
00000000000000000011111111111111111111111000000000
00000000000000000111111111111111101110000000000000
00000000000000000011111111110111000000000000000000
00000000000000000001111000000000000000000000000000
00000000000000000000000000000000000000000000000000
00000000000000000000000000000000000000000000000000
00000000000000000000000000000000000000000000000000
00000000000000000000000000000000000000000000000000
00000000000000000000000000000000000000000000000000
00000000000000000000000000000000000000000000000000
00000000000000000000000000000000000000000000000000
00000000000000000000000000000000000000000000000000
