P1
50 70
00000000000000000000000000000000000000000000000000
00000000000000000000000000000000000000000000000000
00000000000000000000000000000000000000000000000000
00000000000000000000000000000000000000000000000000
00000000000000000000000000000000000000000000000000
00000000000000000000000000000000000000000000000000
00000000000000000000000000000000000000000000000000
00000000000000000000000000000000000000000000000000
00000000000000000000000000000000000000000000000000
00000000000000000000000000000000000000000000000000
00000000000000000000000000000000000000000000000000
00000000000000000000000000000000000000000000000000
00000000000000000000000000000000000000000000000000
00000000000000000000000000000000000000000000000000
00000000000000000000000000000000000000001110000000
00000000000000000000000000000000000000111110000000
00000000000000000000000000000000000111111110000000
00000000000000000000000000000000011111111110000000
00000000000000000000000000000001111111111110000000
00000000000000000000000000000011111111111100000000
00000000000000000000000000000111111111111100000000
00000000000000000000000000000111111111111000000000
00000000000000000000000000001111111111111000000000
00000000000000000000000000011111111111111000000000
00000000000000000000000000111111111111111000000000
00000000000000000000000000111111111111110000000000
00000000000000000000000000111111111111110000000000
00000000000000000000000001111111111111100000000000
00000000000000000000000011111111111111000000000000
00000000000000000000000111111111111111000000000000
00000000000000000000001111100111111111000000000000
00000000000000000000001111001111111110000000000000
00000000000000000000001111001111111111000000000000
00000000000000000000011111001111111110000000000000
00000000000000000000111110001111111110000000000000
00000000000000000000111100011111111110000000000000
00000000000000000000111100011111111110000000000000
00000000000000000000111000011111111100000000000000
00000000000000000001111000011111111100000000000000
00000000000000000011110000011111111100010000000000
00000000000000000111100000011111111111111000000000
00000000000000001111110000111111111111111000000000
00000000000000000111100000111111111111110000000000
00000000000000001111100011111111111111000000000000
00000000000000001111111111111111111111000000000000
00000000000000011111111111111111110000000000000000
00000000000000011111111111111111110000000000000000
00000000000000111111111111111111110000000000000000
00000000000000111111111000111111100000000000000000
00000000000000011111000001111111110000000000000000
00000000000000011100000001111111111110000000000000
00000000000000000000000001111111111110000000000000
00000000000000000000000011111111111110000000000000
00000000000000000000000111111111110000000000000000
00000000000000000000001111111111000000000000000000
00000000000000000000011111100000000000000000000000
00000000000000000000011110000000000000000000000000
00000000000000000000001000000000000000000000000000
00000000000000000000000000000000000000000000000000
00000000000000000000000000000000000000000000000000
00000000000000000000000000000000000000000000000000
00000000000000000000000000000000000000000000000000
00000000000000000000000000000000000000000000000000
00000000000000000000000000000000000000000000000000
00000000000000000000000000000000000000000000000000
00000000000000000000000000000000000000000000000000
00000000000000000000000000000000000000000000000000
00000000000000000000000000000000000000000000000000
00000000000000000000000000000000000000000000000000
00000000000000000000000000000000000000000000000000
