P1
50 70
00000000000000000000000000000000000000000000000000
00000000000000000000000000000000000000000000000000
00000000000000000000000000000000000000000000000000
00000000000000000000000000000000000000000000000000
00000000000000000000000000000000000000000000000000
00000000000000000000000000000000000000000000000000
00000000000000000000000000000000000000000000000000
00000000000000000000000000000000000000000000000000
00000000000000000000000000000000000000000000000000
00000000000000000000000000000000000000000000000000
00000000000000000000000000000000000000000000000000
00000000000000000000000000000000000000000000000000
00000000000000000000000000000000000000000000000000
00000000000000000000000000000000000000000000000000
00000000000000000000000000000000000000000000000000
00000000000000000000000000000000000000000000000000
00000000000000000000000000000000000000000000000000
00000000000000000000000000000000000000000000000000
00000000000000000000000000000000000000000000000000
00000000000000000000000000000000000000000000000000
00000000000000000000000000100000000000000000000000
00000000000000000000000001110000000000000000000000
00000000000000000000000111111000000000000000000000
00000000000000000000001111111000000000000000000000
00000000000000000000011111111000000000000000000000
00000000000000000000001111111000000000000000000000
00000000000000000000011111111000000000000000000000
00000000000000000000011101111000000000000000000000
00000000000000000000011000111000000000000000000000
00000000000000000000111000111100000000000000000000
00000000000000000000111000111100000000000000000000
00000000000000000000110000011100000000000000000000
00000000000000000001111000011110000000000000000000
00000000000000000001110000011110000000000000000000
00000000000000000001110000011111000000000000000000
00000000000000000001100000011110000000000000000000
00000000000000000011100000001110000000000000000000
00000000000000000011100000001110000000000000000000
00000000000000000011000000000110000000000000000000
00000000000000000111000000000110000000000000000000
00000000000000001110000000001111000000000000000000
00000000000000001110000000001111000000000000000000
00000000000000001110000000001111100000000000000000
00000000000000001110000000001111110000000000000000
00000000000000011100000000000111111100000000000000
00000000000000011100000000001111111100000000000000
00000000000000111100011111111111111100000000000000
00000000000001111111111111111111111000000000000000
00000000000001111111111111111111100000000000000000
00000000000000111111000000000011111000000000000000
00000000000000011100000000000001111000000000000000
00000000000000000000000000000001111000000000000000
00000000000000000000000000000001111000000000000000
00000000000000000000000000000001111000000000000000
00000000000000000000000000000001111111000000000000
00000000000000000000000000011111111111000000000000
00000000000000000000000000111111111111000000000000
00000000000000000000000000111111110000000000000000
00000000000000000000000000000000000000000000000000
00000000000000000000000000000000000000000000000000
00000000000000000000000000000000000000000000000000
00000000000000000000000000000000000000000000000000
00000000000000000000000000000000000000000000000000
00000000000000000000000000000000000000000000000000
00000000000000000000000000000000000000000000000000
00000000000000000000000000000000000000000000000000
00000000000000000000000000000000000000000000000000
00000000000000000000000000000000000000000000000000
00000000000000000000000000000000000000000000000000
00000000000000000000000000000000000000000000000000
