P1
50 70
00000000000000000000000000000000000000000000000000
00000000000000000000000000000000000000000000000000
00000000000000000000000000000000000000000000000000
00000000000000000000000000000000000000000000000000
00000000000000000000000000000000000000000000000000
00000000000000000000000000000000000000000000000000
00000000000000000000000000000000000000000000000000
00000000000000000000000000000000000000000000000000
00000000000000000000000000000000000000000000000000
00000000000000000000000000000000000000000000000000
00000000000000000000000000000000000000000000000000
00000000000000000000000000000000000000000000000000
00000000000000000000000000000000000000000000000000
00000000000000000000000000000000000000000000000000
00000000000000000000000000000000000000000000000000
00000000000000000000000000000000000000000000000000
00000000000000000000000000000000000110000000000000
00000000000000000000000000000000011110000000000000
00000000000000000000000000000001111110000000000000
00000000000000000000000000000011111110000000000000
00000000000000000000000000000111111100000000000000
00000000000000000000000000000111111100000000000000
00000000000000000000000000000111111100000000000000
00000000000000000000000000001111111000000000000000
00000000000000000000000000001111111100000000000000
00000000000000000000000000001111111000000000000000
00000000000000000000000000011111111000000000000000
00000000000000000000000000111111111000000000000000
00000000000000000000000001111111110000000000000000
00000000000000000000000011111111110000000000000000
00000000000000000000000111111111110000000000000000
00000000000000000000000111111111110000000000000000
00000000000000000000001111111111100000000000000000
00000000000000000000011111111111100000000000000000
00000000000000000000011111011111110000000000000000
00000000000000000000111110011111100000000000000000
00000000000000000000111100011111000000000000000000
00000000000000000001111000011111000000000000000000
00000000000000000011111000011111000000000000000000
00000000000000001111110000011110000000000000000000
00000000000000011111100000111110000000000000000000
00000000000000011111000000111110000000000000000000
00000000000000111110000001111110000000000000000000
00000000000001111110000001111110000000000000000000
00000000000011111100000001111100000000000000000000
00000000000111111100100011111100000000000000000000
00000000000111111111111111111111000000000000000000
00000000000111111111111111111111100000000000000000
00000000001111111111111111111111100000000000000000
00000000000001111111111111111111100000000000000000
00000000000000000000001111111111100000000000000000
00000000000000000000000111111011000000000000000000
00000000000000000000000111110000000000000000000000
00000000000000000000000111110000000000000000000000
00000000000000000000000111100000000000000000000000
00000000000000000000000111100000000000000000000000
00000000000000000000001111100000000000000000000000
00000000000000000000001111100000000000000000000000
00000000000000000000000000000000000000000000000000
00000000000000000000000000000000000000000000000000
00000000000000000000000000000000000000000000000000
00000000000000000000000000000000000000000000000000
00000000000000000000000000000000000000000000000000
00000000000000000000000000000000000000000000000000
00000000000000000000000000000000000000000000000000
00000000000000000000000000000000000000000000000000
00000000000000000000000000000000000000000000000000
00000000000000000000000000000000000000000000000000
00000000000000000000000000000000000000000000000000
00000000000000000000000000000000000000000000000000
