P1
50 70
00000000000000000000000000000000000000000000000000
00000000000000000000000000000000000000000000000000
00000000000000000000000000000000000000000000000000
00000000000000000000000000000000000000000000000000
00000000000000000000000000000000000000000000000000
00000000000000000000000000000000000000000000000000
00000000000000000000000000000000000000000000000000
00000000000000000000000000000000000000000000000000
00000000000000000000000000000000000000000000000000
00000000000000000000000000000000000000000000000000
00000000000000000000000000000000000000000000000000
00000000000000000000000000000000000000000000000000
00000000000000000000000000000000000000000000000000
00000000000000000000000000000000000000000000000000
00000000000000000000000000000000000000000000000000
00000000000000000000000000000000000000000000000000
00000000000000000000000000000000000000000000000000
00000000000000000000000000000000000000000000000000
00000000000000000000000000000000000000000000000000
00000000000000000000000000000000000000000000000000
00000000000000000000111111100000000000000000000000
00000000000000011111111111100000000000000000000000
00000000000000111111111111100000000000000000000000
00000000000000011111111111110000000000000000000000
00000000000000111111111111111000000000000000000000
00000000000000111111111111111000000000000000000000
00000000000000111111111111111000000000000000000000
00000000000001111111111111111000000000000000000000
00000000000001111111111111111100000000000000000000
00000000000001111111111111111110000000000000000000
00000000000011111111111111111110000000000000000000
00000000000011111111111111111110000000000000000000
00000000000011111111111111111111000000000000000000
00000000000011111111111111111111000000000000000000
00000000000011111101111111111111100000000000000000
00000000000111111101111111111111100000000000000000
00000000000111111000111111111111100000000000000000
00000000000011111000111111111111110000000000000000
00000000000111111000111111111111110000000000000000
00000000000111110000111111111111110000000000000000
00000000000111110000011111111111110000000000000000
00000000001111110000001111111111111100001110000000
00000000001111110000001111111111111100011111000000
00000000011111110000001111111111111110111111000000
00000000001111100000001111111111111111111111000000
00000000001111100000001111111111111111111100000000
00000000001111100000001111111111111111110000000000
00000000011111000000000111111111111111000000000000
00000000011111000000000011111111111111000000000000
00000000111111100000000111111111111111100000000000
00000000011111000000011111111111111111100000000000
00000000011111000001111111111111111111100011110000
00000000111111000011111111111111111111110111110000
00000000111110011111111111111111111111111111110000
00000001111111111111111100111111111111111111100000
00000001111111111111111000111111111111111111000000
00000001111111111111000000111111111111111000000000
00000001111111111110000000111111111111110000000000
00000001111111111000000000011111111111000000000000
00000001111111100000000000011111111100000000000000
00000001111111000000000000011111110000000000000000
00000001111100000000000011111111000000000000000000
00000000110000000000000111111110000000000000000000
00000000000000000000001111111100000000000000000000
00000000000000000000011111111000000000000000000000
00000000000000000000001111100000000000000000000000
00000000000000000000000111000000000000000000000000
00000000000000000000000100000000000000000000000000
00000000000000000000000000000000000000000000000000
00000000000000000000000000000000000000000000000000
