P1
50 70
00000000000000000000000000000000000000000000000000
00000000000000000000000000000000000000000000000000
00000000000000000000000000000000000000000000000000
00000000000000000000000000000000000000000000000000
00000000000000000000000000000000000000000000000000
00000000000000000000000000000000000000000000000000
00000000000000000000000000000000000000000000000000
00000000000000000000000000000000000000000000000000
00000000000000000000000000000000000000000000000000
00000000000000000000000000000000000000000000000000
00000000000000000000000000000000000000000000000000
00000000000000000000000000000000000000000000000000
00000000000000000000000000000000000000000000000000
00000000000000000000000000000000000000000000000000
00000000000000000000000000000000000000000000000000
00000000000000000000000000000000000000000000000000
00000000000000000000000000000000000000000000000000
00000000000000000000000000000000000000000000000000
00000000000000000000000000111100000000000000000000
00000000000000000000000001111100000000000000000000
00000000000000000000000001111100000000000000000000
00000000000000000000000001111110000000000000000000
00000000000000000000000011111110000000000000000000
00000000000000000000000011111110000000000000000000
00000000000000000000000111111111000000000000000000
00000000000000000000000011111111000000000000000000
00000000000000000000000111111111100000000000000000
00000000000000000000000111111111100000000000000000
00000000000000000000000111111111100000000000000000
00000000000000000000001111111111100000000000000000
00000000000000000000011111001111100000000000000000
00000000000000000000011111001111100000000000000000
00000000000000000000011111001111100000000000000000
00000000000000000000011110001111100000000000000000
00000000000000000000111110001111110000000000000000
00000000000000000001111100001111110000000000000000
00000000000000000001111000001111110000000000000000
00000000000000000001111000000111100000000000000000
00000000000000000001111000000111100000000000000000
00000000000000000011110000000111100000000000000000
00000000000000000011110000000111100000000000000000
00000000000000000011110000000111110011000000000000
00000000000000000011100000000111111111000000000000
00000000000000000111100000001111111111000000000000
00000000000000001111100001111111111111000000000000
00000000000000001111111111111111111111000000000000
00000000000000011111111111111111110000000000000000
00000000000000011111111111111111110000000000000000
00000000000000011111111111111111110000000000000000
00000000000000111111111100000111111000000000000000
00000000000000111111110000000111111000000000000000
00000000000000111111000000000011111000000000000000
00000000000000111100000000000011111000000000000000
00000000000000000000000000000011111000000000000000
00000000000000000000000000000011110000000000000000
00000000000000000000000000000000000000000000000000
00000000000000000000000000000000000000000000000000
00000000000000000000000000000000000000000000000000
00000000000000000000000000000000000000000000000000
00000000000000000000000000000000000000000000000000
00000000000000000000000000000000000000000000000000
00000000000000000000000000000000000000000000000000
00000000000000000000000000000000000000000000000000
00000000000000000000000000000000000000000000000000
00000000000000000000000000000000000000000000000000
00000000000000000000000000000000000000000000000000
00000000000000000000000000000000000000000000000000
00000000000000000000000000000000000000000000000000
00000000000000000000000000000000000000000000000000
00000000000000000000000000000000000000000000000000
