P1
50 70
00000000000000000000000000000000000000000000000000
00000000000000000000000000000000000000000000000000
00000000000000000000000000000000000000000000000000
00000000000000000000000000000000000000000000000000
00000000000000000000000000000000000000000000000000
00000000000000000000000000000000000000000000000000
00000000000000000000000000000000000000000000000000
00000000000000000000000000000000000000000000000000
00000000000000000000000000000000000000000000000000
00000000000000000000000000000000000000000000000000
00000000000000000000000000000000000000000000000000
00000000000000000000000000000000000000000000000000
00000000000000000000000000000000000000000000000000
00000000000000000000000000000000000000000000000000
00000000000000000000000000000000000000000000000000
00000000000000000000000000000000000000000000000000
00000000000000000000000000000000000000000000000000
00000000000000000000000000000000000000000000000000
00000000000000000000000000000000000000000000000000
00000000000000000000100000000000000000000000000000
00000000000000000001110000000000000000000000000000
00000000000000000011110000000000000000000000000000
00000000000000000111110000000000000000000000000000
00000000000000000111111000000000000000000000000000
00000000000000000111111000000000000000000000000000
00000000000000001111111100000000000000000000000000
00000000000000001111111100000000000000000000000000
00000000000000001111111100000000000000000000000000
00000000000000000111111110000000000000000000000000
00000000000000000111111111000000000000000000000000
00000000000000001111111111000000000000000000000000
00000000000000001111111111100000000000000000000000
00000000000000001111011111100000000000000000000000
00000000000000001111001111110000000000000000000000
00000000000000001111000111110000000000000000000000
00000000000000001111100111111000000000000000000000
00000000000000001111100111111100000000000000000000
00000000000000001111000111111100000000000000000000
00000000000000001111000011111100000000000000000000
00000000000000011111000000111110000000000000000000
00000000000000011110000000111111111000000000000000
00000000000000011111000000111111111110000000000000
00000000000000001111000000111111111110000000000000
00000000000000001111000000111111111110000000000000
00000000000000001110000000111111111100000000000000
00000000000000011110000001111111111000000000000000
00000000000000011110000001111111110000000000000000
00000000000000011110000111111111110000000000000000
00000000000000011110001111111111110000000000000000
00000000000000011111111111111011111100000000000000
00000000000000011111111111100001111100000000000000
00000000000000011111111110000001111110000000000000
00000000000000011111111000000001111110000000000000
00000000000000011111110000000001111110000000000000
00000000000000011111000000000000111100000000000000
00000000000000001110000000000000000000000000000000
00000000000000000100000000000000000000000000000000
00000000000000000000000000000000000000000000000000
00000000000000000000000000000000000000000000000000
00000000000000000000000000000000000000000000000000
00000000000000000000000000000000000000000000000000
00000000000000000000000000000000000000000000000000
00000000000000000000000000000000000000000000000000
00000000000000000000000000000000000000000000000000
00000000000000000000000000000000000000000000000000
00000000000000000000000000000000000000000000000000
00000000000000000000000000000000000000000000000000
00000000000000000000000000000000000000000000000000
00000000000000000000000000000000000000000000000000
00000000000000000000000000000000000000000000000000
