P1
50 70
00000000000000000000000000000000000000000000000000
00000000000000000000000000000000000000000000000000
00000000000000000000000000000000000000000000000000
00000000000000000000000000000000000000000000000000
00000000000000000000000000000000000000000000000000
00000000000000000000000000000000000000000000000000
00000000000000000000000000000000000000000000000000
00000000000000000000000000000000000000000000000000
00000000000000000000000000000000000000000000000000
00000000000000000000000000000000000000000000000000
00000000000000000000000000000000000000000000000000
00000000000000000000000000000000000000000000000000
00000000000000000000000000000000000000000000000000
00000000000000000000000000000000000000000000000000
00000000000000000000000000000000000000000000000000
00000000000000000000000000000000000000000000000000
00000000000000000000000000000000000000000000000000
00000000000000000000011100000000000000000000000000
00000000000000000000111110000000000000000000000000
00000000000000000000111111000000000000000000000000
00000000000000000000111110000000000000000000000000
00000000000000000000111111000000000000000000000000
00000000000000000001111111000000000000000000000000
00000000000000000001111111100000000000000000000000
00000000000000000001111111100000000000000000000000
00000000000000000011111111110000000000000000000000
00000000000000000001111111110000000000000000000000
00000000000000000011111111110000000000000000000000
00000000000000000011111111111000000000000000000000
00000000000000000011100111111100000000000000000000
00000000000000000011100011111100000000000000000000
00000000000000000011100011111100000000000000000000
00000000000000000111110001111100000000000000000000
00000000000000000111100001111100000000000000000000
00000000000000000111100001111100000000000000000000
00000000000000000111100001111110000000000000000000
00000000000000000111100001111111000000000000000000
00000000000000000111000001111111000000000000000000
00000000000000001111000000111111000000000000000000
00000000000000001111000000011111000000000000000000
00000000000000001110000000011111100011000000000000
00000000000000001110000000011111111111100000000000
00000000000000001110000000011111111111100000000000
00000000000000001110000000011111111111100000000000
00000000000000001110000000011111111111000000000000
00000000000000011110000001111111111110000000000000
00000000000000011100000001111111111000000000000000
00000000000000111100001111111111111000000000000000
00000000000000111000011111111111111000000000000000
00000000000000111101111111111111111100000000000000
00000000000000111111111111111111111100000000000000
00000000000000111111111110000011111110000000000000
00000000000001111111111100000001111110000000000000
00000000000001111111111000000001111110000000000000
00000000000001111111100000000001111100000000000000
00000000000001111110000000000001111100000000000000
00000000000000111100000000000001110000000000000000
00000000000000111000000000000000100000000000000000
00000000000000000000000000000000000000000000000000
00000000000000000000000000000000000000000000000000
00000000000000000000000000000000000000000000000000
00000000000000000000000000000000000000000000000000
00000000000000000000000000000000000000000000000000
00000000000000000000000000000000000000000000000000
00000000000000000000000000000000000000000000000000
00000000000000000000000000000000000000000000000000
00000000000000000000000000000000000000000000000000
00000000000000000000000000000000000000000000000000
00000000000000000000000000000000000000000000000000
00000000000000000000000000000000000000000000000000
