P1
50 70
00000000000000000000000000000000000000000000000000
00000000000000000000000000000000000000000000000000
00000000000000000000000000000000000000000000000000
00000000000000000000000000000000000000000000000000
00000000000000000000000000000000000000000000000000
00000000000000000000000000000000000000000000000000
00000000000000000000000000000000000000000000000000
00000000000000000000000000000000000000000000000000
00000000000000000000000000000000000000000000000000
00000000000000000000000000000000000000000000000000
00000000000000000000000000000000000000000000000000
00000000000000000000000000000000000000000000000000
00000000000000000000000000000000000000000000000000
00000000000000000000000000000000000000000000000000
00000000000000000000000000000000000000000000000000
00000000000000000000000000000000000000000000000000
00000000000000001111000000000000000000000000000000
00000000000000111111100000000000000000000000000000
00000000000001111111110000000000000000000000000000
00000000000011111111110000000000000000000000000000
00000000000011111111110000000000000000000000000000
00000000000011111111110000000000000000000000000000
00000000000111111111111000000000000000000000000000
00000000000111111111111000000000000000000000000000
00000000000011111111111100000000000000000000000000
00000000000011111111111100000000000000000000000000
00000000000011111111111100000000000000000000000000
00000000000111111111111110000000000000000000000000
00000000000111111111111110000000000000000000000000
00000000000111111111111110000000000000000000000000
00000000001111111011111110000000000000000000000000
00000000001111110011111111100000000000000000000000
00000000001111110011111111100000000000000000000000
00000000001111100001111111100000000000000000000000
00000000001111100000111111110000000000000000000000
00000000011111100000111111111000000000000000000000
00000000011111100000111111111100000000000000000000
00000000011111100000011111111100000000000000000000
00000000001111000000011111111100000000000000000000
00000000001111000000011111111100000000000000000000
00000000011111000000011111111110000000000000000000
00000000011111000000000111111110000000000000000000
00000000111111100000000111111110000000000000000000
00000000111111000000000111111111000000000000000000
00000000111110000000000111111111100000000000000000
00000000111110000000000111111111100000000000000000
00000000111110000000000011111111100000111100000000
00000000111110000000000000111111111111111110000000
00000001111100000000000000111111111111111110000000
00000001111100000000111111111111111111111111000000
00000001111110000011111111111111111111111111000000
00000001111111111111111111111111111110000000000000
00000011111111111111111111111111111100000000000000
00000011111111111111111111111111111100000000000000
00000011111111111110000000001111111100000000000000
00000011111110001000000000000111111110000000000000
00000000100000000000000000000111111111000000000000
00000000000000000000000000000111111111100000000000
00000000000000000000000000000011111111100000000000
00000000000000000000000000000011111111110111110000
00000000000000000000000000111011111111111111110000
00000000000000000000000001111111111111111111111000
00000000000000000000000011111111111111111111111000
00000000000000000000000001111111111111100000100000
00000000000000000000000000011100000000000000000000
00000000000000000000000000000000000000000000000000
00000000000000000000000000000000000000000000000000
00000000000000000000000000000000000000000000000000
00000000000000000000000000000000000000000000000000
00000000000000000000000000000000000000000000000000
