P1
50 70
00000000000000000000000000000000000000000000000000
00000000000000000000000000000000000000000000000000
00000000000000000000000000000000000000000000000000
00000000000000000000000000000000000000000000000000
00000000000000000000000000000000000000000000000000
00000000000000000000000000000000000000000000000000
00000000000000000000000000000000000000000000000000
00000000000000000000000000000000000000000000000000
00000000000000000000000000000000000000000000000000
00000000000000000000000000000000000000000000000000
00000000000000000000000000000000000000000000000000
00000000000000000000000000000000000000000000000000
00000000000000000000000000000000000000000000000000
00000000000000000000000000000000000000000000000000
00000000000000000000000000000000000000000000000000
00000000000000000000000000000000000000000000000000
00000000000000000000000000011111010000000000000000
00000000000000000000000000111111111000000000000000
00000000000000000000000000111111111000000000000000
00000000000000000000000000111111111000000000000000
00000000000000000000000001111111111000000000000000
00000000000000000000000011111111111000000000000000
00000000000000000000000011111111110000000000000000
00000000000000000000000111111111110000000000000000
00000000000000000000001111111111110000000000000000
00000000000000000000001111111111110000000000000000
00000000000000000000011111111111110000000000000000
00000000000000000000011111111111110000000000000000
00000000000000000000011110011111110000000000000000
00000000000000000000111100011111110000000000000000
00000000000000000000111100001111100000000000000000
00000000000000000001111000011111100000000000000000
00000000000000000001111100011111100000000000000000
00000000000000000001111000011111100000000000000000
00000000000000000011110000011111110000000000000000
00000000000000000011110000001111110000000000000000
00000000000000000011110000001111110000000000000000
00000000000000000111110000000111110000000000000000
00000000000000000111100000000111110000000000000000
00000000000000000111100000000111100000000000000000
00000000000000001111000000000111100000000000000000
00000000000000001111000000001111100000000000000000
00000000000000001110000000001111110000000000000000
00000000000000001110000000001111110000000000000000
00000000000000011110000000000111110000000000000000
00000000000000011110000000000111110000000000000000
00000000000000111100000000001111110000100000000000
00000000000000111000000110011111111111100000000000
00000000000000111110011111111111111111110000000000
00000000000000111111111111111111111111100000000000
00000000000000111111111111111111111110000000000000
00000000000000111111110000011111110000000000000000
00000000000000000001000000000111110000000000000000
00000000000000000000000000000111110000000000000000
00000000000000000000000000000111110000000000000000
00000000000000000000000000000111100000000000000000
00000000000000000000000000000111000000000000000000
00000000000000000000000000000111101111000000000000
00000000000000000000000011111111111111000000000000
00000000000000000000000011111111111111000000000000
00000000000000000000000011111111000010000000000000
00000000000000000000000000011110000000000000000000
00000000000000000000000000000000000000000000000000
00000000000000000000000000000000000000000000000000
00000000000000000000000000000000000000000000000000
00000000000000000000000000000000000000000000000000
00000000000000000000000000000000000000000000000000
00000000000000000000000000000000000000000000000000
00000000000000000000000000000000000000000000000000
00000000000000000000000000000000000000000000000000
