P1
50 70
00000000000000000000000000000000000000000000000000
00000000000000000000000000000000000000000000000000
00000000000000000000000000000000000000000000000000
00000000000000000000000000000000000000000000000000
00000000000000000000000000000000000000000000000000
00000000000000000000000000000000000000000000000000
00000000000000000000000000000000000000000000000000
00000000000000000000000000000000000000000000000000
00000000000000000000000000000000000000000000000000
00000000000000000000000000000000000000000000000000
00000000000000000000000000000000000000000000000000
00000000000000000000000000000000000000000000000000
00000000000000000000000000000000000000000000000000
00000000000000000000000000000000000000000000000000
00000000000000000000000000000000000000000000000000
00000000000000000000000000000000000000000000000000
00000000000000000000000000000000000000000000000000
00000000000000000000000000000000000000000000000000
00000000000000000000111110000000000000000000000000
00000000000000000000111110000000000000000000000000
00000000000000000000111110000000000000000000000000
00000000000000000001111110000000000000000000000000
00000000000000000001111110000000000000000000000000
00000000000000000001111110000000000000000000000000
00000000000000000001100011000000000000000000000000
00000000000000000011110011100000000000000000000000
00000000000000000011100011100000000000000000000000
00000000000000000011100011100000000000000000000000
00000000000000000111100001110000000000000000000000
00000000000000000111000001110000000000000000000000
00000000000000000111000001111000000000000000000000
00000000000000000111000011111000000000000000000000
00000000000000001111000001111000000000000000000000
00000000000000001111000000111000000000000000000000
00000000000000001110000000111000000000000000000000
00000000000000000110000000111000000000000000000000
00000000000000001110000000111100000000000000000000
00000000000000001110000000011100000000000000000000
00000000000000011100000000001110000000000000000000
00000000000000011100000000001110000000000000000000
00000000000000111000000000011111000000000000000000
00000000000000111110011111111111100000000000000000
00000000000000011111111111111111111000000000000000
00000000000000111111111111111111100000000000000000
00000000000000011111100001111111000000000000000000
00000000000000000000000000000111100000000000000000
00000000000000000000000000000011100000000000000000
00000000000000000000000000000011100000000000000000
00000000000000000000000000000011100000000000000000
00000000000000000000000000000111111000000000000000
00000000000000000000000000111111111100000000000000
00000000000000000000000001111111111110000000000000
00000000000000000000000000111111111110000000000000
00000000000000000000000000010000001000000000000000
00000000000000000000000000000000000000000000000000
00000000000000000000000000000000000000000000000000
00000000000000000000000000000000000000000000000000
00000000000000000000000000000000000000000000000000
00000000000000000000000000000000000000000000000000
00000000000000000000000000000000000000000000000000
00000000000000000000000000000000000000000000000000
00000000000000000000000000000000000000000000000000
00000000000000000000000000000000000000000000000000
00000000000000000000000000000000000000000000000000
00000000000000000000000000000000000000000000000000
00000000000000000000000000000000000000000000000000
00000000000000000000000000000000000000000000000000
00000000000000000000000000000000000000000000000000
00000000000000000000000000000000000000000000000000
00000000000000000000000000000000000000000000000000
