P1
50 70
00000000000000000000000000000000000000000000000000
00000000000000000000000000000000000000000000000000
00000000000000000000000000000000000000000000000000
00000000000000000000000000000000000000000000000000
00000000000000000000000000000000000000000000000000
00000000000000000000000000000000000000000000000000
00000000000000000000000000000000000000000000000000
00000000000000000000000000000000000000000000000000
00000000000000000000000000000000000000000000000000
00000000000000000000000000000000000000000000000000
00000000000000000000000000000000000000000000000000
00000000000000000000000000000000000000000000000000
00000000000000000000000000000000000000000000000000
00000000000000000000000000000000000000000000000000
00000000000000000000000000000000000000000000000000
00000000000000000000000000000000000000000000000000
00000000000000000000000000000000000000000000000000
00000000000000000000000000000000000000000000000000
00000000000000000000000000000000000000000000000000
00000000000000000010000000000000000000000000000000
00000000000000110111111000000000000000000000000000
00000000000001111111111000000000000000000000000000
00000000000001111111111100000000000000000000000000
00000000000011111111111100000000000000000000000000
00000000000001111111111110000000000000000000000000
00000000000001111111111111000000000000000000000000
00000000000011111111111111100000000000000000000000
00000000000011111111111111100000000000000000000000
00000000000011111111111111100000000000000000000000
00000000000011111111111111100000000000000000000000
00000000000111111111111111110000000000000000000000
00000000000011111111111111111000000000000000000000
00000000000111111111111111111000000000000000000000
00000000000111111111111111111000000000000000000000
00000000000111111111111111111100000000000000000000
00000000000111111110111111111110000000000000000000
00000000001111111110011111111111000000000000000000
00000000000111111100011111111111000000000000000000
00000000001111111100011111111111000000000000000000
00000000001111111000011111111111100000000000000000
00000000001111111000001111111111100000000000000000
00000000001111111100000111111111100000000000000000
00000000011111111100000011111111110000000000000000
00000000001111111100000011111111111000010000000000
00000000001111111000000011111111111100111000000000
00000000011111110000000001111111111111111000000000
00000000111111110000000000111111111111111100000000
00000000111111100000010001111111111111111111000000
00000000111111100001111111111111111111111111000000
00000001111111111111111111111111111111111111000000
00000001111111111111111111111111111111111111000000
00000000111111111111111111111111111111111111000000
00000000111111111111111111111111111111111000000000
00000000011111111111111111111111111111110000000000
00000000011111111111111111111111111111110000000000
00000000011111111111111111111111111111111000000000
00000000011111111111111110000111111111111100000000
00000000001111111101110000000011111111111100000000
00000000000111110000000000000000111111111110000000
00000000000000000000000000000000111111111110000000
00000000000000000000000000000000111111111000000000
00000000000000000000000000000000011111110000000000
00000000000000000000000000000000011100000000000000
00000000000000000000000000000000000000000000000000
00000000000000000000000000000000000000000000000000
00000000000000000000000000000000000000000000000000
00000000000000000000000000000000000000000000000000
00000000000000000000000000000000000000000000000000
00000000000000000000000000000000000000000000000000
00000000000000000000000000000000000000000000000000
