P1
50 70
00000000000000000000000000000000000000000000000000
00000000000000000000000000000000000000000000000000
00000000000000000000000000000000000000000000000000
00000000000000000000000000000000000000000000000000
00000000000000000000000000000000000000000000000000
00000000000000000000000000000000000000000000000000
00000000000000000000000000000000000000000000000000
00000000000000000000000000000000000000000000000000
00000000000000000000000000000000000000000000000000
00000000000000000000000000000000000000000000000000
00000000000000000000000000000000000000000000000000
00000000000000000000000000000000000000000000000000
00000000000000000000000000000000000000000000000000
00000000000000000000000000000000000000000000000000
00000000000000000000000000000000000000000000000000
00000000000000000000000000000000000000000000000000
00000000000000000000000000000000000000000000000000
00000000000000000000000000000000000000000000000000
00000000000000000000000000000000000000000000000000
00000000000000000000000000000000000000000000000000
00000000000000000000000000000000000000000000000000
00000000000000000000000000000110000000000000000000
00000000000000000000000000001111100000000000000000
00000000000000000000000000011111110000000000000000
00000000000000000000000000111111110000000000000000
00000000000000000000000000111111111000000000000000
00000000000000000000000011111111111000000000000000
00000000000000000000000111111111111100000000000000
00000000000000000000000111111111111100000000000000
00000000000000000000011111111111111000000000000000
00000000000000000000011111111111111000000000000000
00000000000000000000111111111111111000000000000000
00000000000000000001111111111111111000000000000000
00000000000000000011111111100111111100000000000000
00000000000000000111111111000111111100000000000000
00000000000000000111111110001111111100000000000000
00000000000000001111111100001111111100000000000000
00000000000000011111111000000111111100000000000000
00000000000001111111111000001111111000000000000000
00000000000011111111110000001111111000000000000000
00000000000011111111100000001111111000000000000000
00000000000011111110000000000111111100000000000000
00000000000111111110000000000111111100000000000000
00000000011111111100000000000111111100000000000000
00000000011111111000000000000111111100000000000000
00000000011111110000000000000111111100000000000000
00000000011111110000000000000111111100000000000000
00000000011111111000100000000111111100000000000000
00000000011111111111111000000111111000000000000000
00000000111111111111111111111111111110000000000000
00000000011111111111111111111111111110000000000000
00000000011111111111111111111111111110000000000000
00000000000001111111111111111111111111111100000000
00000000000000000111111111111111111111111100000000
00000000000000000000011111111111111111111110000000
00000000000000000000000000000111111111111111000000
00000000000000000000000000000111111111111110000000
00000000000000000000000000000111111110000100000000
00000000000000000000000000000011111110000000000000
00000000000000000000000000000011111110000000000000
00000000000000000000000000000011111110000000000000
00000000000000000000000000000011111110000000000000
00000000000000000000000000000011111110000000000000
00000000000000000000000000000011111110000000000000
00000000000000000000000000000001111111000000000000
00000000000000000000000000000000000010000000000000
00000000000000000000000000000000000000000000000000
00000000000000000000000000000000000000000000000000
00000000000000000000000000000000000000000000000000
00000000000000000000000000000000000000000000000000
