P1
50 70
00000000000000000000000000000000000000000000000000
00000000000000000000000000000000000000000000000000
00000000000000000000000000000000000000000000000000
00000000000000000000000000000000000000000000000000
00000000000000000000000000000000000000000000000000
00000000000000000000000000000000000000000000000000
00000000000000000000000000000000000000000000000000
00000000000000000000000000000000000000000000000000
00000000000000000000000000000000000000000000000000
00000000000000000000000000000000000000000000000000
00000000000000000000000000000000000000000000000000
00000000000000000000000000000000000000000000000000
00000000000000000000000000000000000000000000000000
00000000000000000000000000000000000000000000000000
00000000000000000000000000000000000000000000000000
00000000000000000000000000000000000000000000000000
00000000000000000000000000000000000000000000000000
00000000000000000000000000000000000000000000000000
00000000000000001100000000000000000000000000000000
00000000000011111110000000000000000000000000000000
00000000000111111110000000000000000000000000000000
00000000000111111111100000000000000000000000000000
00000000000111111111100000000000000000000000000000
00000000000111111111100000000000000000000000000000
00000000001111111111110000000000000000000000000000
00000000000111111111111000000000000000000000000000
00000000000111111111111100000000000000000000000000
00000000000111111111111100000000000000000000000000
00000000000111111011111100000000000000000000000000
00000000000111111001111110000000000000000000000000
00000000000111110000111111000000000000000000000000
00000000000011110000111111100000000000000000000000
00000000000111110000011111100000000000000000000000
00000000000111110000001111110000000000000000000000
00000000000111110000000111111000000000000000000000
00000000000111111000000111111000000000000000000000
00000000000111111000000111111100000000000000000000
00000000000011111000000011111110000000000000000000
00000000000011111000000001111111111100000000000000
00000000000011111000000000111111111100000000000000
00000000000011111000000000111111111110000000000000
00000000000011110000000111111111111100000000000000
00000000000011111000001111111111111000000000000000
00000000000011111000011111111111111000000000000000
00000000000001111101111111111111111100000000000000
00000000000011111111111111100111111100000000000000
00000000000011111111111111000011111100000000000000
00000000000001111111111100000001111111000000000000
00000000000000111111100000000000111111100000000000
00000000000000011110000000000000111111000000000000
00000000000000011100000000000000011110000000000000
00000000000000000000000000000000001100000000000000
00000000000000000000000000000000000000000000000000
00000000000000000000000000000000000000000000000000
00000000000000000000000000000000000000000000000000
00000000000000000000000000000000000000000000000000
00000000000000000000000000000000000000000000000000
00000000000000000000000000000000000000000000000000
00000000000000000000000000000000000000000000000000
00000000000000000000000000000000000000000000000000
00000000000000000000000000000000000000000000000000
00000000000000000000000000000000000000000000000000
00000000000000000000000000000000000000000000000000
00000000000000000000000000000000000000000000000000
00000000000000000000000000000000000000000000000000
00000000000000000000000000000000000000000000000000
00000000000000000000000000000000000000000000000000
00000000000000000000000000000000000000000000000000
00000000000000000000000000000000000000000000000000
00000000000000000000000000000000000000000000000000
