P1
50 70
00000000000000000000000000000000000000000000000000
00000000000000000000000000000000000000000000000000
00000000000000000000000000000000000000000000000000
00000000000000000000000000000000000000000000000000
00000000000000000000000000000000000000000000000000
00000000000000000000000000000000000000000000000000
00000000000000000000000000000000000000000000000000
00000000000000000000000000000000000000000000000000
00000000000000000000000000000000000000000000000000
00000000000000000000000000000000000000000000000000
00000000000000000000000000000000000000000000000000
00000000000000000000000000000000000000000000000000
00000000000000000000000000000000000000000000000000
00000000000000000000000000000000000000000000000000
00000000000000000000000000000000000000000000000000
00000000000000000000000000000000000000000000000000
00000000000000000000000000000000000000000000000000
00000000000000000000000000000000000000000000000000
00000000000000000000000000000000000000000000000000
00000000000000000000000000000000000000000000000000
00000000000000000000000000000000000000000000000000
00000000000000000000000000000000000000000000000000
00000000000000000000000000000000000000000000000000
00000000000000000001111111110000000000000000000000
00000000000000000011111111111000000000000000000000
00000000000000000011111111111100000000000000000000
00000000000000000111111111111100000000000000000000
00000000000000000111111111111100000000000000000000
00000000000000000111111111111110000000000000000000
00000000000000001111111111111110000000000000000000
00000000000000001111111111111110000000000000000000
00000000000000011111111111111110000000000000000000
00000000000000011111110111111110000000000000000000
00000000000000111111110011111111000000000000000000
00000000000000111111100001111111100000000000000000
00000000000001111111100001111111000000000000000000
00000000000000111111100001111111000000000000000000
00000000000001111111100001111111000000000000000000
00000000000001111111100011111111100000000000000000
00000000000011111111000000111111100000000000000000
00000000000011111110000000111111100000000000000000
00000000000011111110000000111111100000000000000000
00000000000111111110000000111111111000000000000000
00000000000111111110000000011111110000000000000000
00000000000111111100000000001111110000000000000000
00000000000111111000000000001111110000000000000000
00000000000111111000000000001111111000000000000000
00000000001111111000000000000111111000000000000000
00000000001111111000000000000111111000000000000000
00000000001111111000000000001111111100000000000000
00000000011111111000000000001111111110111100000000
00000000001111111000000000001111111111111100000000
00000000001111110000000110011111111111111100000000
00000000011111111001111111111111111111111110000000
00000000011111111111111111111111111111111110000000
00000000001111111111111111111111111111011000000000
00000000000111111111111111111111111111000000000000
00000000000111111111111111111001111111000000000000
00000000000111111111111100000000111111100000000000
00000000000011110011100000000000011111100000000000
00000000000001100000000000000000111111100000000000
00000000000000000000000000000000111111000000000000
00000000000000000000000000000000111111100000000000
00000000000000000000000000000000011111100000000000
00000000000000000000000000000000011111110000000000
00000000000000000000000000000000001111110000000000
00000000000000000000000000000000000111000000000000
00000000000000000000000000000000000000000000000000
00000000000000000000000000000000000000000000000000
00000000000000000000000000000000000000000000000000
