P1
50 70
00000000000000000000000000000000000000000000000000
00000000000000000000000000000000000000000000000000
00000000000000000000000000000000000000000000000000
00000000000000000000000000000000000000000000000000
00000000000000000000000000000000000000000000000000
00000000000000000000000000000000000000000000000000
00000000000000000000000000000000000000000000000000
00000000000000000000000000000000000000000000000000
00000000000000000000000000000000000000000000000000
00000000000000000000000000000000000000000000000000
00000000000000000000000000000000000000000000000000
00000000000000000000000000000000000000000000000000
00000000000000000000000000000000000000000000000000
00000000000000000000000000000000000000000000000000
00000000000000000000000000000000000000000000000000
00000000000000000000000000000000000000000000000000
00000000000000000000000011110000000000000000000000
00000000000000000000001111110000000000000000000000
00000000000000000000001111110000000000000000000000
00000000000000000000001111111000000000000000000000
00000000000000000000011111111000000000000000000000
00000000000000000000111111111100000000000000000000
00000000000000000000111111111100000000000000000000
00000000000000000001111111111000000000000000000000
00000000000000000001111111111000000000000000000000
00000000000000000001111011111000000000000000000000
00000000000000000011111011111000000000000000000000
00000000000000000111110011111100000000000000000000
00000000000000000111100011111110000000000000000000
00000000000000000111000011111110000000000000000000
00000000000000001111000011111100000000000000000000
00000000000000011110000111111100000000000000000000
00000000000000111110000111111100000000000000000000
00000000000001111100000001111110000000000000000000
00000000000001111100000001111110000000000000000000
00000000000001111100000001111111000000000000000000
00000000000011111000000001111111000000000000000000
00000000000111110000000001111110000000000000000000
00000000001111100000000001111110000000000000000000
00000000001111000000000001111111000000000000000000
00000000011111000000000000111111000000000000000000
00000000111110000000000000111111000000000000000000
00000001111100000000000000111111100000000000000000
00000001111111111100000000111111100000000000000000
00000000111111111110011111111111000000000000000000
00000000111101111111111111111111110000110000000000
00000000000000111111111111111111111111110000000000
00000000000000000000000111111111111111111000000000
00000000000000000000000000111111111111111100000000
00000000000000000000000000011111100011000000000000
00000000000000000000000000011111110000000000000000
00000000000000000000000000001111110000000000000000
00000000000000000000000000011111110000000000000000
00000000000000000000100000111111110000000000000000
00000000000000000001111111111111110000000000000000
00000000000000000000111111111111111000000000000000
00000000000000000000011111111111111111000000000000
00000000000000000000000000001111111111111100000000
00000000000000000000000000000011111111111110000000
00000000000000000000000000000000000011111111000000
00000000000000000000000000000000000000110011000000
00000000000000000000000000000000000000000000000000
00000000000000000000000000000000000000000000000000
00000000000000000000000000000000000000000000000000
00000000000000000000000000000000000000000000000000
00000000000000000000000000000000000000000000000000
00000000000000000000000000000000000000000000000000
00000000000000000000000000000000000000000000000000
00000000000000000000000000000000000000000000000000
00000000000000000000000000000000000000000000000000
