P1
50 70
00000000000000000000000000000000000000000000000000
00000000000000000000000000000000000000000000000000
00000000000000000000000000000000000000000000000000
00000000000000000000000000000000000000000000000000
00000000000000000000000000000000000000000000000000
00000000000000000000000000000000000000000000000000
00000000000000000000000000000000000000000000000000
00000000000000000000000000000000000000000000000000
00000000000000000000000000000000000000000000000000
00000000000000000000000000000000000000000000000000
00000000000000000000000000000000000000000000000000
00000000000000000000000000000000000000000000000000
00000000000000000000000000000000000000000000000000
00000000000000000000000000000000000000000000000000
00000000000000000000000000000000000000000000000000
00000000000000000000000000000000000000000000000000
00000000000000000000000000000000011111100000000000
00000000000000000000000000000001111111100000000000
00000000000000000000000000000011111111100000000000
00000000000000000000000000000111111111000000000000
00000000000000000000000000001111111111000000000000
00000000000000000000000000001111111111000000000000
00000000000000000000000000011111111111000000000000
00000000000000000000000000111111111110000000000000
00000000000000000000000001111111111110000000000000
00000000000000000000000001111111111100000000000000
00000000000000000000000011111111111100000000000000
00000000000000000000000111111111111100000000000000
00000000000000000000001111111111111100000000000000
00000000000000000000011111111111111100000000000000
00000000000000000000011111111111111000000000000000
00000000000000000000111111000111111000000000000000
00000000000000000001111111000111110000000000000000
00000000000000000011111111001111110000000000000000
00000000000000000111111110001111111000000000000000
00000000000000000111111100011111111000000000000000
00000000000000001111111000011111110000000000000000
00000000000000011111110000011111110000000000000000
00000000000000111111100000011111100000000000000000
00000000000001111111000000011111100000000000000000
00000000000001111110000000011111100000000000000000
00000000000001111100000000111111100000000000000000
00000000000011111100000000111111100000000000000000
00000000000111111000000000111111000000000000000000
00000000001111111000011001111110000000000000000000
00000000001111111111111111111110000000000000000000
00000000001111111111111111111111111000000000000000
00000000011111111111111111111111111100000000000000
00000000011111111111111111111111111000000000000000
00000000000000000011111111111111111000000000000000
00000000000000000000000011111110111000000000000000
00000000000000000000000011111100011000000000000000
00000000000000000000000011111100000000000000000000
00000000000000000000000011111100000000000000000000
00000000000000000000000011111000000000000000000000
00000000000000000000000011111000000000000000000000
00000000000000000000000011110000000000000000000000
00000000000000000000000111110000000000000000000000
00000000000000000000000011111000000000000000000000
00000000000000000000000000110000000000000000000000
00000000000000000000000000000000000000000000000000
00000000000000000000000000000000000000000000000000
00000000000000000000000000000000000000000000000000
00000000000000000000000000000000000000000000000000
00000000000000000000000000000000000000000000000000
00000000000000000000000000000000000000000000000000
00000000000000000000000000000000000000000000000000
00000000000000000000000000000000000000000000000000
00000000000000000000000000000000000000000000000000
00000000000000000000000000000000000000000000000000
