P1
50 70
00000000000000000000000000000000000000000000000000
00000000000000000000000000000000000000000000000000
00000000000000000000000000000000000000000000000000
00000000000000000000000000000000000000000000000000
00000000000000000000000000000000000000000000000000
00000000000000000000000000000000000000000000000000
00000000000000000000000000000000000000000000000000
00000000000000000000000000000000000000000000000000
00000000000000000000000000000000000011100000000000
00000000000000000000000000000000011111100000000000
00000000000000000000000000000111111111100000000000
00000000000000000000000000001111111111100000000000
00000000000000000000000000011111111111100000000000
00000000000000000000000000111111111111000000000000
00000000000000000000000000111111111111000000000000
00000000000000000000000000111111111111100000000000
00000000000000000000000001111111111111100000000000
00000000000000000000000001111111111111000000000000
00000000000000000000000011111111111111000000000000
00000000000000000000000011111111111111000000000000
00000000000000000000000111111111111111000000000000
00000000000000000000001111111111111111000000000000
00000000000000000000001111111111111111000000000000
00000000000000000000011111111111111110000000000000
00000000000000000000011111111111111111000000000000
00000000000000000000011111111111111111000000000000
00000000000000000000111110011111111110000000000000
00000000000000000001111100111111111110000000000000
00000000000000000001111100111111111110000000000000
00000000000000000001111000111111111110000000000000
00000000000000000011111001111111111110000000000000
00000000000000000111111001111111111100000000000000
00000000000000000111110000111111111100000000000000
00000000000000000111100000111111111110000000000000
00000000000000000111100001111111111110000000000000
00000000000000001111000001111111111100000000000000
00000000000000011111000001111111111100000000000000
00000000000000111111000001111111111100000000000000
00000000000000111110000001111111111100011000000000
00000000000001111100000000111111111100111100000000
00000000000001111100000001111111111111111100000000
00000000000001111100000001111111111111111100000000
00000000000001111100000001111111111111111000000000
00000000000011111000000001111111111111110000000000
00000000000111111000000011111111111111100000000000
00000000000111110000011111111111111111000000000000
00000000000111110011111111111111111000000000000000
00000000001111111111111111111111110000000000000000
00000000001111111111111111111111110000000000000000
00000000011111111111111111111111111000000000000000
00000000011111111111110011111111111000000000000000
00000000011111111111100011111111111001100000000000
00000000011111111110000011111111110011100000000000
00000000011111100000000011111111110011100000000000
00000000011111000000000011111111111111100000000000
00000000000000000000000011111111111111100000000000
00000000000000000000000011111111111111100000000000
00000000000000000000000111111111111000000000000000
00000000000000000000000111111111110000000000000000
00000000000000000000011111111111000000000000000000
00000000000000000001111111111000000000000000000000
00000000000000000001111111110000000000000000000000
00000000000000000011111100000000000000000000000000
00000000000000000011111000000000000000000000000000
00000000000000000111110000000000000000000000000000
00000000000000000111000000000000000000000000000000
00000000000000000000000000000000000000000000000000
00000000000000000000000000000000000000000000000000
00000000000000000000000000000000000000000000000000
00000000000000000000000000000000000000000000000000
