P1
50 70
00000000000000000000000000000000000000000000000000
00000000000000000000000000000000000000000000000000
00000000000000000000000000000000000000000000000000
00000000000000000000000000000000000000000000000000
00000000000000000000000000000000000000000000000000
00000000000000000000000000000000000000000000000000
00000000000000000000000000000000000000000000000000
00000000000000000000000000000000000000000000000000
00000000000000000000000000000000000000000000000000
00000000000000000000000000000000000000000000000000
00000000000000000000000000000000000000000000000000
00000000000000000000000000000000000000000000000000
00000000000000000000000000000000000000000000000000
00000000000000000000000000000000000000000000000000
00000000000000000000000000000000000000000000000000
00000000000000000000000000000000000000000000000000
00000000000000000001111110000000000000000000000000
00000000000000001111111110000000000000000000000000
00000000001101111111111110000000000000000000000000
00000000011111111111111110000000000000000000000000
00000000011111111111111111000000000000000000000000
00000000011111111111111111100000000000000000000000
00000000011111111111111111100000000000000000000000
00000000111111111111111111110000000000000000000000
00000000111111111111111111111000000000000000000000
00000000111111111111111111111000000000000000000000
00000000111111111111111111111000000000000000000000
00000000111111111111111111111000000000000000000000
00000000111111111111111111111000000000000000000000
00000001111111111111111111111000000000000000000000
00000001111111101111111111111100000000000000000000
00000001111111001111111111111110000000000000000000
00000001111111000111111111111111000000000000000000
00000000111111000111111111111111000000000000000000
00000000111111000011111111111111100000000000000000
00000001111111000001111111111111100000000000000000
00000001111111100001111111111111110000000000000000
00000001111111000001111111111111110000000000000000
00000001111111000000111111111111110000000000000000
00000000111111000000111111111111110000011000000000
00000000111111000000011111111111111011111110000000
00000000111111000000001111111111111111111100000000
00000001111111100000000111111111111111111000000000
00000001111111000000000111111111111111000000000000
00000000111111000000000111111111111110000000000000
00000000111111000000000111111111111110000000000000
00000000111111000000011111111111111111000000000000
00000000111110000000111111111111111111000000000000
00000001111110000001111111111111111111100000000000
00000001111111001111111111111111111111100111100000
00000000111111111111111000111111111111111111100000
00000000011111111111100000011111111111111111100000
00000000111111111110000000011111111111111111000000
00000000111111111100000000001111111111111100000000
00000000011111100000000000000111111111100000000000
00000000001110000000000000000111111111000000000000
00000000000000000000000000001111111000000000000000
00000000000000000000000000111111110000000000000000
00000000000000000000000001111111100000000000000000
00000000000000000000000000111110000000000000000000
00000000000000000000000000111000000000000000000000
00000000000000000000000000000000000000000000000000
00000000000000000000000000000000000000000000000000
00000000000000000000000000000000000000000000000000
00000000000000000000000000000000000000000000000000
00000000000000000000000000000000000000000000000000
00000000000000000000000000000000000000000000000000
00000000000000000000000000000000000000000000000000
00000000000000000000000000000000000000000000000000
00000000000000000000000000000000000000000000000000
