P1
50 70
00000000000000000000000000000000000000000000000000
00000000000000000000000000000000000000000000000000
00000000000000000000000000000000000000000000000000
00000000000000000000000000000000000000000000000000
00000000000000000000000000000000000000000000000000
00000000000000000000000000000000000000000000000000
00000000000000000000000000000000000000000000000000
00000000000000000000000000000000000000000000000000
00000000000000000000000000000000000000000000000000
00000000000000000000000000000000000000000000000000
00000000000000000000000000000000000000000000000000
00000000000000000000000000000000000000000000000000
00000000000000000000000000000000000000000000000000
00000000000000000000000000000000000000000000000000
00000000000000000000000000000000000000000000000000
00000000000000000000000000000000000000000000000000
00000000000000000000000000000000000000000000000000
00000000000000000000000000000000000000000000000000
00000000000000000000000000000000000000000000000000
00000000000000000000000000000000000000000000000000
00000000000000000000000000000000000110000000000000
00000000000000000000000000000000111111000000000000
00000000000000000000000000000001111111000000000000
00000000000000000000000000000111111111100000000000
00000000000000000000000000001111111111000000000000
00000000000000000000000000011111111111000000000000
00000000000000000000000000011111111111000000000000
00000000000000000000000000111111111110000000000000
00000000000000000000000001111111111110000000000000
00000000000000000000000011111111111100000000000000
00000000000000000000000111111111111100000000000000
00000000000000000000001111111111111000000000000000
00000000000000000000011111111111111000000000000000
00000000000000000000111111111111111100000000000000
00000000000000000001111111101111111100000000000000
00000000000000000001111111001111111000000000000000
00000000000000000011111110001111111000000000000000
00000000000000000111111100001111110000000000000000
00000000000000001111111000001111110000000000000000
00000000000000011111110000001111110000000000000000
00000000000000111111110000001111110000000000000000
00000000000000111111100000001111110000000000000000
00000000000000111111000000011111110000000000000000
00000000000001111111000000011111110000000000000000
00000000000011111100000000011111100000000000000000
00000000000111111100000000011111100000000000000000
00000000000111111000100000011111100000000000000000
00000000000111111111111000111111100000000000000000
00000000000111111111111111111111111111000000000000
00000000000111111111111111111111111111000000000000
00000000001111111111111111111111111111000000000000
00000000000111111111111111111111111110000000000000
00000000000000000001000001111111111100000000000000
00000000000000000000000000111111000000000000000000
00000000000000000000000000111111000000000000000000
00000000000000000000000000111110000000000000000000
00000000000000000000000000111110000000000000000000
00000000000000000000000000111111000000000000000000
00000000000000000000000000111110000000000000000000
00000000000000000000000000111110000000000000000000
00000000000000000000000000111110000000000000000000
00000000000000000000000000001100000000000000000000
00000000000000000000000000000000000000000000000000
00000000000000000000000000000000000000000000000000
00000000000000000000000000000000000000000000000000
00000000000000000000000000000000000000000000000000
00000000000000000000000000000000000000000000000000
00000000000000000000000000000000000000000000000000
00000000000000000000000000000000000000000000000000
00000000000000000000000000000000000000000000000000
