P1
50 70
00000000000000000000000000000000000000000000000000
00000000000000000000000000000000000000000000000000
00000000000000000000000000000000000000000000000000
00000000000000000000000000000000000000000000000000
00000000000000000000000000000000000000000000000000
00000000000000000000000000000000000000000000000000
00000000000000000000000000000000000000000000000000
00000000000000000000000000000000000000000000000000
00000000000000000000000000000000000000000000000000
00000000000000000000000000000000000000000000000000
00000000000000000000000000000000000000000000000000
00000000000000000000000000000000000000000000000000
00000000000000000000000000000000000000000000000000
00000000000000000000000000000000000000000000000000
00000000000000000000000000001100000000000000000000
00000000000000000000000111111111000000000000000000
00000000000000000000011111111111000000000000000000
00000000000000000000111111111110000000000000000000
00000000000000000001111111111110000000000000000000
00000000000000000000111111111111000000000000000000
00000000000000000000111111111111100000000000000000
00000000000000000001111111111111100000000000000000
00000000000000000001111111111111100000000000000000
00000000000000000011111111111111100000000000000000
00000000000000000011111111111111100000000000000000
00000000000000000011111111111111110000000000000000
00000000000000000111111111111111111000000000000000
00000000000000000011111111111111111000000000000000
00000000000000000111111111111111111000000000000000
00000000000000000111111111111111111000000000000000
00000000000000000111111111111111111000000000000000
00000000000000000111110111111111111000000000000000
00000000000000001111110001111111111000000000000000
00000000000000001111100001111111111100000000000000
00000000000000001111100011111111111100000000000000
00000000000000001111100011111111111100000000000000
00000000000000001111100011111111111100000000000000
00000000000000011111100001111111111110000000000000
00000000000000011111100001111111111110000000000000
00000000000000111111000000111111111110000000000000
00000000000000111111000000111111111110000000000000
00000000000000111111000000111111111111000000000000
00000000000001111110000000111111111111100000000000
00000000000000111110000000011111111111100000000000
00000000000001111110000000011111111111100000000000
00000000000001111110000000011111111111111110000000
00000000000011111100000000011111111111111111110000
00000000000011111000010000011111111111111111110000
00000000000011111111111111111111111111111111111000
00000000000111111111111111111111111111111111111000
00000000000011111111111111111111111111111111110000
00000000000011111111111111111111111111111000000000
00000000000011111111111111001111111111111000000000
00000000000001111000000000000111111111111000000000
00000000000000000000000000000011111111111000000000
00000000000000000000000000000011111111111000000000
00000000000000000000000000000011111111111100000000
00000000000000000000000000000011111111111100011000
00000000000000000000000000010011111111111111111100
00000000000000000000000000111111111111111111111100
00000000000000000000000000111111111111111111111100
00000000000000000000000001111111111111111111111100
00000000000000000000000000111110111111110001111000
00000000000000000000000000111000000000000000000000
00000000000000000000000000000000000000000000000000
00000000000000000000000000000000000000000000000000
00000000000000000000000000000000000000000000000000
00000000000000000000000000000000000000000000000000
00000000000000000000000000000000000000000000000000
00000000000000000000000000000000000000000000000000
