P1
50 70
00000000000000000000000000000000000000000000000000
00000000000000000000000000000000000000000000000000
00000000000000000000000000000000000000000000000000
00000000000000000000000000000000000000000000000000
00000000000000000000000000000000000000000000000000
00000000000000000000000000000000000000000000000000
00000000000000000000000000000000000000000000000000
00000000000000000000000000000000000000000000000000
00000000000000000000000000000000000000000000000000
00000000000000000000000000000000000000000000000000
00000000000000000000000000000000000000000000000000
00000000000000000000000000000000000000000000000000
00000000000000000000000000000000000000000000000000
00000000000000000000000000000010000011011000000000
00000000000000000000000000011111111111111100000000
00000000000000000000000000011111111111111100000000
00000000000000000000000000111111111111111100000000
00000000000000000000000001111111111111111100000000
00000000000000000000000011111111111111111100000000
00000000000000000000000011111111111111111100000000
00000000000000000000000111111111111111111100000000
00000000000000000000000111111111111111111110000000
00000000000000000000001111111111111111111110000000
00000000000000000000011111111111111111111100000000
00000000000000000000011111111111111111111100000000
00000000000000000000111111111111111111111100000000
00000000000000000001111111111111111111111100000000
00000000000000000011111111111111111111111100000000
00000000000000000111111111111111111111111100000000
00000000000000000111111111111111111111111100000000
00000000000000001111111100111111111111111110000000
00000000000000001111111100011111111111111100000000
00000000000000011111111000011111111111111000000000
00000000000000111111111000011111111111111000000000
00000000000000111111110000111111111111111000000000
00000000000001111111100000111111111111111000000000
00000000000001111111100000111111111111111000000000
00000000000011111111000000111111111111111000000000
00000000000111111110000000011111111111111000000000
00000000000111111100000000011111111111111100000000
00000000001111111000000000011111111111111000000000
00000000011111111000000000011111111111111000000000
00000000011111110000000000011111111111111000000000
00000000111111110000000000111111111111111000000000
00000000111111100000000000111111111111111000000000
00000001111111000000000000011111111111111000000000
00000011111110000000000000011111111111111000000001
00000111111110000000000000011111111111111111000111
00001111111110000000000000011111111111111111111111
00001111111100011000111111111111111111111111111111
00001111111111111111111111111111111111111111111111
00011111111111111111111111111111111111111111110000
00011111111111111111111111111111111111111100000000
00011111111111111111111000111111111111111000000000
00001111111110000001000000011111111111111000000000
00000000000000000000000000111111111111111100000000
00000000000000000000000000111111111111111000000000
00000000000000000000000000111111111111111000000000
00000000000000000000000000011111111111111000000000
00000000000000000000000000111111111111111000000000
00000000000000000000000000111111111111111111111110
00000000000000000000000000111111111111111111111110
00000000000000000000000111111111111111111111111111
00000000000000000011111111111111111111111111111110
00000000000000000011111111111111111111111110001000
00000000000000000011111111111111100000000000000000
00000000000000000001111100000000000000000000000000
00000000000000000000000000000000000000000000000000
00000000000000000000000000000000000000000000000000
00000000000000000000000000000000000000000000000000
