P1
50 70
00000000000000000000000000000000000000000000000000
00000000000000000000000000000000000000000000000000
00000000000000000000000000000000000000000000000000
00000000000000000000000000000000000000000000000000
00000000000000000000000000000000000000000000000000
00000000000000000000000000000000000000000000000000
00000000000000000000000000000000000000000000000000
00000000000000000000000000000000000000000000000000
00000000000000000000000000000000000000000000000000
00000000000000000000000000000000000000000000000000
00000000000000000000000000000000000000000000000000
00000000000000000000000000000000000000000000000000
00000000000000000000000000000000000000000000000000
00000000000000000000000000000000000000000000000000
00000000000000000000000000000000000000000000000000
00000000000000000000000000000000000000000000000000
00000000000000000000111110000000000000000000000000
00000000000000000011111111100000000000000000000000
00000000000000000111111111100000000000000000000000
00000000000000000111111111100000000000000000000000
00000000000000000111111111110000000000000000000000
00000000000000000011111111110000000000000000000000
00000000000000000011111111111000000000000000000000
00000000000000000111111111111000000000000000000000
00000000000000000111111111111100000000000000000000
00000000000000000111111011111110000000000000000000
00000000000000000111111011111110000000000000000000
00000000000000000011110011111111000000000000000000
00000000000000000111110001111111100000000000000000
00000000000000000111110000111111100000000000000000
00000000000000000111110000111111100000000000000000
00000000000000000111110000011111100000000000000000
00000000000000000111111000011111110000000000000000
00000000000000001111110000001111111100000000000000
00000000000000001111110000000111111100000000000000
00000000000000000111110000000111111100000000000000
00000000000000000111110000000011111100000000000000
00000000000000001111110000000011111110000000000000
00000000000000001111110000000001111110000000000000
00000000000000001111100000000001111111000110000000
00000000000000011111110000000001111111111111000000
00000000000000011111110000000001111111111111100000
00000000000000001111100000000011111111111111100000
00000000000000001111110100011111111111111111100000
00000000000000001111111111111111111111111111100000
00000000000000001111111111111111111111111000000000
00000000000000001111111111111111101111111000000000
00000000000000001111111111111000000111111000000000
00000000000000000111111111110000000001111110000000
00000000000000000011100000000000000000111111000000
00000000000000000010000000000000000000111111000000
00000000000000000000000000000000000000111111000000
00000000000000000000000000000000000000111111100000
00000000000000000000000000000000000000011111100000
00000000000000000000000000000000000000011111100000
00000000000000000000000000000000000000011111100000
00000000000000000000000000000000000000000000000000
00000000000000000000000000000000000000000000000000
00000000000000000000000000000000000000000000000000
00000000000000000000000000000000000000000000000000
00000000000000000000000000000000000000000000000000
00000000000000000000000000000000000000000000000000
00000000000000000000000000000000000000000000000000
00000000000000000000000000000000000000000000000000
00000000000000000000000000000000000000000000000000
00000000000000000000000000000000000000000000000000
00000000000000000000000000000000000000000000000000
00000000000000000000000000000000000000000000000000
00000000000000000000000000000000000000000000000000
00000000000000000000000000000000000000000000000000
