P1
50 70
00000000000000000000000000000000000000000000000000
00000000000000000000000000000000000000000000000000
00000000000000000000000000000000000000000000000000
00000000000000000000000000000000000000000000000000
00000000000000000000000000000000000000000000000000
00000000000000000000000000000000000000000000000000
00000000000000000000000000000000000000000000000000
00000000000000000000000000000000000000000000000000
00000000000000000000000000000000000000000000000000
00000000000000000000000000000000000000000000000000
00000000000000000000000000000000000000000000000000
00000000000000000000000000000000000000000000000000
00000000000000000000000000000000000000000000000000
00000000000000000000000000000000000000000000000000
00000000000000000000000000000000000000000000000000
00000000000000000000000000000000000000000000000000
00000000000000000000000000000000000000000000000000
00000000000000000000000000000000000000000000000000
00000000000000000000000001100000000000000000000000
00000000000000000000000011100000000000000000000000
00000000000000000000000011100000000000000000000000
00000000000000000000000111100000000000000000000000
00000000000000000000000111100000000000000000000000
00000000000000000000001111110000000000000000000000
00000000000000000000001111111000000000000000000000
00000000000000000000001111111000000000000000000000
00000000000000000000001111111000000000000000000000
00000000000000000000001111111000000000000000000000
00000000000000000000011111110000000000000000000000
00000000000000000000011111111000000000000000000000
00000000000000000000111111111100000000000000000000
00000000000000000000111111111100000000000000000000
00000000000000000000111111111100000000000000000000
00000000000000000000111101111100000000000000000000
00000000000000000001111001111100000000000000000000
00000000000000000001111001111100000000000000000000
00000000000000000001110001111110000000000000000000
00000000000000000001110001111111111000000000000000
00000000000000000011110001111111111000000000000000
00000000000000000011110000111111111000000000000000
00000000000000000011110000111111111000000000000000
00000000000000000111100000111111110000000000000000
00000000000000000111100001111111110000000000000000
00000000000000000111100111111111100000000000000000
00000000000000000111001111111111000000000000000000
00000000000000001111111111111111100000000000000000
00000000000000001111111111111111000000000000000000
00000000000000011111111110011111000000000000000000
00000000000000011111111100001111000000000000000000
00000000000000001111100000001111000000000000000000
00000000000000001111000000011111110000000000000000
00000000000000011110000000001111100000000000000000
00000000000000011000000000000111100000000000000000
00000000000000000000000000000110000000000000000000
00000000000000000000000000000000000000000000000000
00000000000000000000000000000000000000000000000000
00000000000000000000000000000000000000000000000000
00000000000000000000000000000000000000000000000000
00000000000000000000000000000000000000000000000000
00000000000000000000000000000000000000000000000000
00000000000000000000000000000000000000000000000000
00000000000000000000000000000000000000000000000000
00000000000000000000000000000000000000000000000000
00000000000000000000000000000000000000000000000000
00000000000000000000000000000000000000000000000000
00000000000000000000000000000000000000000000000000
00000000000000000000000000000000000000000000000000
00000000000000000000000000000000000000000000000000
00000000000000000000000000000000000000000000000000
00000000000000000000000000000000000000000000000000
