P1
50 70
00000000000000000000000000000000000000000000000000
00000000000000000000000000000000000000000000000000
00000000000000000000000000000000000000000000000000
00000000000000000000000000000000000000000000000000
00000000000000000000000000000000000000000000000000
00000000000000000000000000000000000000000000000000
00000000000000000000000000000000000000000000000000
00000000000000000000000000000111100000000000000000
00000000000000000000000000011111100000000000000000
00000000000000000000000000111111000000000000000000
00000000000000000000000000111111100000000000000000
00000000000000000000000000111111100000000000000000
00000000000000000000000000111111100000000000000000
00000000000000000000000001111111100000000000000000
00000000000000000000000011111111000000000000000000
00000000000000000000000011111111000000000000000000
00000000000000000000000011111111000000000000000000
00000000000000000000000011111111000000000000000000
00000000000000000000000111111111100000000000000000
00000000000000000000000111111111100000000000000000
00000000000000000000001111111111100000000000000000
00000000000000000000001111111111100000000000000000
00000000000000000000001111111111100000000000000000
00000000000000000000011111111111100000000000000000
00000000000000000000011110011111100000000000000000
00000000000000000000011110011111100000000000000000
00000000000000000000011110011111110000000000000000
00000000000000000000111100011111100000000000000000
00000000000000000000111100011111100000000000000000
00000000000000000001111000011111100000000000000000
00000000000000000001111000111111100000000000000000
00000000000000000001110000011111100000000000000000
00000000000000000001111000011111100000000000000000
00000000000000000011110000011111100000000000000000
00000000000000000011110000011111100000000000000000
00000000000000000011110000111111100000000000000000
00000000000000000011100000111111100000000000000000
00000000000000000111100000011111110000000000000000
00000000000000000111100000001111100000100000000000
00000000000000001111000000001111100011100000000000
00000000000000001111000000011111111111110000000000
00000000000000001111000000011111111111110000000000
00000000000000001110000000011111111111100000000000
00000000000000011110000000011111111110000000000000
00000000000000011110000000111111111110000000000000
00000000000000011100000001111111111000000000000000
00000000000000111100001111111111100000000000000000
00000000000000111100011111111111100000000000000000
00000000000000111110111111111111100000000000000000
00000000000000111111111111111111100000000000000000
00000000000000111111111110011111110000000000000000
00000000000001111111111000001111110000000000000000
00000000000001111111100000001111110001100000000000
00000000000001111111000000001111110111100000000000
00000000000001111110000000001111111111100000000000
00000000000000010000000000001111111111100000000000
00000000000000000000000000001111111111000000000000
00000000000000000000000000001111111100000000000000
00000000000000000000000001111111111000000000000000
00000000000000000000000011111111000000000000000000
00000000000000000000000111111110000000000000000000
00000000000000000000000111111100000000000000000000
00000000000000000000000111110000000000000000000000
00000000000000000000000000000000000000000000000000
00000000000000000000000000000000000000000000000000
00000000000000000000000000000000000000000000000000
00000000000000000000000000000000000000000000000000
00000000000000000000000000000000000000000000000000
00000000000000000000000000000000000000000000000000
00000000000000000000000000000000000000000000000000
