P1
50 70
00000000000000000000000000000000000000000000000000
00000000000000000000000000000000000000000000000000
00000000000000000000000000000000000000000000000000
00000000000000000000000000000000000000000000000000
00000000000000000000000000000000000000000000000000
00000000000000000000000000000000000000000000000000
00000000000000000000000000000000000000000000000000
00000000000000000000000000000000000000000000000000
00000000000000000000000000000000000000000000000000
00000000000000000000000000000000000000000000000000
00000000000000000000000000000000000000000000000000
00000000000000000000000000000000000000000000000000
00000000000000000000000000000000000000000000000000
00000000000000000000000000000000000000000000000000
00000000000000000000000000000000000000000000000000
00000000000000000000000000111110000000000000000000
00000000000000000000000001111111000000000000000000
00000000000000000000000001111111000000000000000000
00000000000000000000000011111111100000000000000000
00000000000000000000000011111111100000000000000000
00000000000000000000000011111111100000000000000000
00000000000000000000000111111111100000000000000000
00000000000000000000000111111111100000000000000000
00000000000000000000001111111111100000000000000000
00000000000000000000011111111111100000000000000000
00000000000000000000001110001111110000000000000000
00000000000000000000011110001111111000000000000000
00000000000000000000011100001111111000000000000000
00000000000000000000111100001111111000000000000000
00000000000000000001111000001111111000000000000000
00000000000000000001111000000111111000000000000000
00000000000000000011110000000111111000000000000000
00000000000000000111111000000111111000000000000000
00000000000000000111110000000111111000000000000000
00000000000000000111110000000111111000000000000000
00000000000000000111100000000111111000000000000000
00000000000000001111100000000011111100000000000000
00000000000000011111000000000011111100000000000000
00000000000000011110000000000011111100000000000000
00000000000000111100000000000011111100000000000000
00000000000001111100000000000011111100000000000000
00000000000001111000000000000011111110000000000000
00000000000001111000000000000001111110000000000000
00000000000011111000000000000111111111111111000000
00000000000011111111111111111111111111111111100000
00000000000111111111111111111111111111111111100000
00000000000111111111111111111111111111100111100000
00000000000011101111100111000001111111000000000000
00000000000000000000000000000001111111100000000000
00000000000000000000000000000001111111100000000000
00000000000000000000000000000000111111100000000000
00000000000000000000000000000000111111000000000000
00000000000000000000000000000000111111000000000000
00000000000000000000000000000111111111111111010000
00000000000000000000000011101111111111111111111000
00000000000000000000000011111111111111111111111100
00000000000000000000000001110111111111001110000000
00000000000000000000000000000000000000000000000000
00000000000000000000000000000000000000000000000000
00000000000000000000000000000000000000000000000000
00000000000000000000000000000000000000000000000000
00000000000000000000000000000000000000000000000000
00000000000000000000000000000000000000000000000000
00000000000000000000000000000000000000000000000000
00000000000000000000000000000000000000000000000000
00000000000000000000000000000000000000000000000000
00000000000000000000000000000000000000000000000000
00000000000000000000000000000000000000000000000000
00000000000000000000000000000000000000000000000000
00000000000000000000000000000000000000000000000000
