P1
50 70
00000000000000000000000000000000000000000000000000
00000000000000000000000000000000000000000000000000
00000000000000000000000000000000000000000000000000
00000000000000000000000000000000000000000000000000
00000000000000000000000000000000000000000000000000
00000000000000000000000000000000000000000000000000
00000000000000000000000000000000000000000000000000
00000000000000000000000000000000000000000000000000
00000000000000000000000000000000000000000000000000
00000000000000000000001110000000000000000000000000
00000000000000000001111110000000000000000000000000
00000000000000000011111110000000000000000000000000
00000000000000000111110000000000000000000000000000
00000000000000111111100000000000000000000000000000
00000000000001111111000000000000000000000000000000
00000000000011111100000000000000000000000000000000
00000000011111110000000000000000000000000000000000
00000000111111100000000000000000000000000000000000
00000001111110000000000000000000000000000000000000
00001111111100000000000000000000000000000000000000
00011111100000000000000000000000000000000000000000
00111111000000000000000000000000000000000000000000
00111111000000000000000000000000000000000000000000
00011111100000000000000000000000000000000000000000
00011111100000000000000000000000000000000000000000
00001111100000000000000000000000000000000000000000
00001111110000000000000000000000000000000000000000
00000111110000000000000000000000000000000000000000
00000111110000000000000000000000000000000000000000
00000011110000000000111111000100000000000000000000
00000011111000000001111111111111100000000000000000
00000011111100000111111111111111110000000000000000
00000011111100111111111111111111111100000000000000
00000001111111111111111111100111111110000000000000
00000000111111111111100000000001111111000000000000
00000000111111111100000000000000111111100000000000
00000000111111100000000000000000001111110000000000
00000000111110000000000000000000000111111000000000
00000000011100000000000000000000000111111000000000
00000000001000000000000000000000000011111000000000
00000000000000000000000000000000000011111110000000
00000000000000000000000000000000000001111110000000
00000000000000000000000000000000000001111110000000
00000000000000000000000000000000000000111110000000
00000000000000000000000000000000000000111110000000
00000000000000000000000000000000000000111110000000
00000000000000000000000000000000000000111110000000
00000000000000000000000000000000000000111110000000
00000000000000000000000000000000000001111110000000
00000000000000000000000000000000000001111110000000
00000000000000000000000000000000000001111110000000
00000000000000000000000000000000000011111110000000
00000000000000000000000000000000000011111110000000
00000000000000000000000000000000000111111100000000
00000000000000000000000000000000011111111000000000
00000000000000000000000000001111111111110000000000
00000000000000110011111111111111111111100000000000
00000000000000111111111111111111111100000000000000
00000000000000111111111111111111100000000000000000
00000000000000001111111100000000000000000000000000
00000000000000000000000000000000000000000000000000
00000000000000000000000000000000000000000000000000
00000000000000000000000000000000000000000000000000
00000000000000000000000000000000000000000000000000
00000000000000000000000000000000000000000000000000
00000000000000000000000000000000000000000000000000
00000000000000000000000000000000000000000000000000
00000000000000000000000000000000000000000000000000
00000000000000000000000000000000000000000000000000
00000000000000000000000000000000000000000000000000
