P1
50 70
00000000000000000000000000000000000000000000000000
00000000000000000000000000000000000000000000000000
00000000000000000000000000000000000000000000000000
00000000000000000000000000000000000000000000000000
00000000000000000000000000000000000000000000000000
00000000000000000000000000000000000000000000000000
00000000000000000000000000000000000000000000000000
00000011111111100000000000000000000000000000000000
00000011111111111111111100011100000000000000000000
00000011111111111111111111111111111111111111000000
00000011111111111111111111111111111111111111100000
00000011111111111111111111111111111111111111100000
00000011111111111111111111111111111111111111000000
00000011111111111111111111111111111111111111000000
00000001111111111111111111111111111111111110000000
00000001111111111111111111111111111111111110000000
00000001111111111111111111111111111111111110000000
00000001111111111111111111111111111111111110000000
00000001111111111111111111111111111111111100000000
00000001111111111111111111111111111111111000000000
00000001111111111110000001000000111000111000000000
00000001111111111110000000000000000000000000000000
00000001111111111110000000000000000000000000000000
00000001111111111100000000000000000000000000000000
00000001111111111100000000000000000000000000000000
00000001111111111000000010001000000000000000000000
00000001111111111111111111111110000000000000000000
00000001111111111111111111111111100000000000000000
00000001111111111111111111111111111000000000000000
00000001111111111111111111111111111000000000000000
00000001111111111111111111111111111100000000000000
00000000111111111111111111111111111110000000000000
00000001111111111111111111111111111111000000000000
00000000111111111111111111111111111111100000000000
00000000111111111111111111111111111111100000000000
00000000111111111100101111111111111111100000000000
00000000111100000000000011111111111111100000000000
00000000111000000000000001111111111111100000000000
00000000000000000000000001111111111111100000000000
00000000000000000000000000011111111111100000000000
00000000000000000000000000011111111111110000000000
00000000000000000000000000011111111111100000000000
00000000000000000000000000111111111111000000000000
00000000000000000000000000111111111111000000000000
00000000000000000000000000111111111111000000000000
00000000000000000000000000111111111111000000000000
00000000000000000000000000111111111111000000000000
00000000000000000000000000111111111110000000000000
00000000000000000000000001111111111100000000000000
00000000000000000000000011111111111100000000000000
00000001110000000000000111111111111100000000000000
00000001111110000000001111111111111100000000000000
00000001111111111100111111111111111000000000000000
00000001111111111111111111111111110000000000000000
00000001111111111111111111111111100000000000000000
00000011111111111111111111111111000000000000000000
00000011111111111111111111111110000000000000000000
00000001111111111111111111111000000000000000000000
00000001111111111111111111110000000000000000000000
00000000111111111111111110000000000000000000000000
00000000011111111111111100000000000000000000000000
00000000000011011110001000000000000000000000000000
00000000000000000000000000000000000000000000000000
00000000000000000000000000000000000000000000000000
00000000000000000000000000000000000000000000000000
00000000000000000000000000000000000000000000000000
00000000000000000000000000000000000000000000000000
00000000000000000000000000000000000000000000000000
00000000000000000000000000000000000000000000000000
00000000000000000000000000000000000000000000000000
