P1
50 70
00000000000000000000000000000000000000000000000000
00000000000000000000000000000000000000000000000000
00000000000000000000000000000000000000000000000000
00000000000000000000000000000000000000000000000000
00000000000000000000000000000000000000000000000000
00000000000000000000000000000000000000000000000000
00000000000000000000000000000000000000000000000000
00000000000000000000000000000000000000000000000000
00000000000000000000000000000000000000000000000000
00000000000000000000000000000000000000000000000000
00000000000000000000000000000000000000000000000000
00000000000000000000000000000000000000000000000000
00000000000000000000000000000000000000000000000000
00000000000000000000000000000000000000000000000000
00000000000000110000000000000000000000000000000000
00000000000001111111100000000000000000000000000000
00000000000011111111111011100000000000000000000000
00000000000011111111111111111111000000000000000000
00000000000011111111111111111111110110000000000000
00000000000111111111111111111111111111111100000000
00000000000111111111111111111111111111111110000000
00000000001111111110000111111111111111111111100000
00000000001111111110000000011111111111111111000000
00000000001111111100000000000000011111111111000000
00000000011111111100000000000000000001111111000000
00000000011111111000000000000000000000000000000000
00000000011111111000000000000000000000000000000000
00000000011111111000000000000000000000000000000000
00000000111111111000000000000000000000000000000000
00000000111111110000000000000000000000000000000000
00000000111111110000110000000000000000000000000000
00000001111111111111111111100000000000000000000000
00000011111111111111111111111000000000000000000000
00000001111111111111111111111110000000000000000000
00000001111111111111111111111111110000000000000000
00000000011111111111111111111111111000000000000000
00000000000100000001100011111111111100000000000000
00000000000000000000000001111111111100000000000000
00000000000000000000000000001111111110000000000000
00000000000000000000000000000111111110000000000000
00000000000000000000000000000111111110000000000000
00000000000000000000000000000011111111000000000000
00001100000000000000000000000011111111000000000000
00011111000000000000000000000001111111000000000000
00011111110000000000000000000001111111000000000000
00011111110000000000000000000001111111000000000000
00011111111000000000000000000011111111000000000000
00011111111000000000000000000011111111000000000000
00001111111000000000000000000011111110000000000000
00001111111100000000000000000111111110000000000000
00000111111111000000000000001111111100000000000000
00000011111111110000000000111111111100000000000000
00000001111111111110111001111111111100000000000000
00000000111111111111111111111111111000000000000000
00000000001111111111111111111111100000000000000000
00000000000111111111111111111111000000000000000000
00000000000000011111111111111000000000000000000000
00000000000000000001111110000000000000000000000000
00000000000000000000000000000000000000000000000000
00000000000000000000000000000000000000000000000000
00000000000000000000000000000000000000000000000000
00000000000000000000000000000000000000000000000000
00000000000000000000000000000000000000000000000000
00000000000000000000000000000000000000000000000000
00000000000000000000000000000000000000000000000000
00000000000000000000000000000000000000000000000000
00000000000000000000000000000000000000000000000000
00000000000000000000000000000000000000000000000000
00000000000000000000000000000000000000000000000000
00000000000000000000000000000000000000000000000000
