P1
50 70
00000000000000000000000000000000000000000000000000
00000000000000000000000000000000000000000000000000
00000000000000000000000000000000000000000000000000
00000000000000000000000000000000000000000000000000
00000000000000000000000000000000000000000000000000
00000000000000000000000000000000000000000000000000
00000000000000000000000000000000000000000000000000
00000000000000000000000000000000000000000000000000
00000000000000000000000000000000000000000000000000
00000000000000000000000000000000000000000000000000
00000000000000000000000000000000000000000000000000
00000000000000000000000000000000000000000000000000
00000000000000000000100000000011000000111000000000
00000001110011100011111111100111111111111111000000
00000001111111111111111111111111111111111110000000
00000001111111111111111111111111111111111110000000
00000001111111111111111111111111111111111110000000
00000001111111111111111111111111111111111100000000
00000001111111111111111111111111111111111000000000
00000011111111111111111111111111111111111000000000
00000001111111111111111111111111111111110000000000
00000001111111111111111111111111111111110000000000
00000001111111111111111111111111111111110000000000
00000001111111111110001111111111000100000000000000
00000011111111111100000000000000000000000000000000
00000011111111111100000000000000000000000000000000
00000001111111111100000000000000000000000000000000
00000001111111111100000000000000000000000000000000
00000011111111111101110000000000000000000000000000
00000011111111111111111111000000000000000000000000
00000011111111111111111111111000000000000000000000
00000011111111111111111111111100000000000000000000
00000011111111111111111111111111000000000000000000
00000001111111111111111111111111100000000000000000
00000011111111111111111111111111111000000000000000
00000011111111111111111111111111111000000000000000
00000011111111111111111111111111111000000000000000
00000011111000000011111111111111111000000000000000
00000000000000000000011111111111111100000000000000
00000000000000000000001111111111111100000000000000
00000000000000000000000111111111111100000000000000
00000000000000000000000011111111111000000000000000
00000000000000000000000011111111111000000000000000
00000000000000000000000011111111111000000000000000
00000000000000000000000011111111111000000000000000
00001110000000000000000111111111111000000000000000
00001111000000000000000111111111111000000000000000
00001111100000000000000011111111110000000000000000
00001111111000000000001111111111110000000000000000
00001111111111000000011111111111100000000000000000
00011111111111111101111111111111110000000000000000
00001111111111111111111111111111110000000000000000
00000111111111111111111111111111000000000000000000
00000111111111111111111111111111000000000000000000
00000011111111111111111111111110000000000000000000
00000001111111111111111111111100000000000000000000
00000000001111111111111111111000000000000000000000
00000000000000111111111111100000000000000000000000
00000000000000010001111100000000000000000000000000
00000000000000000000000000000000000000000000000000
00000000000000000000000000000000000000000000000000
00000000000000000000000000000000000000000000000000
00000000000000000000000000000000000000000000000000
00000000000000000000000000000000000000000000000000
00000000000000000000000000000000000000000000000000
00000000000000000000000000000000000000000000000000
00000000000000000000000000000000000000000000000000
00000000000000000000000000000000000000000000000000
00000000000000000000000000000000000000000000000000
00000000000000000000000000000000000000000000000000
