P1
50 70
00000000000000000000000000000000000000000000000000
00000000000000000000000000000000000000000000000000
00000000000000000000000000000000000000000000000000
00000000000000000000000000000000000000000000000000
00000000000000000000000000000000000000000000000000
00000000000000000000000000000000000000000000000000
00000000000000000000000000000000000000000000000000
00000000000000000000000000000000000000000000000000
00000000000000000000000000000000000000000000000000
00000000000000000000000000000000000000000000000000
00000000000000000000000000000000000000000000000000
00000000000000000000000000000000000000000000000000
00000000000000000000000000000000000000000000000000
00000000000000000000000000000000000000000000000000
00000000000000000000000000000000000000000000000000
00000000000000000000000000000000000000000000000000
00000000000000000000000000000000000000000000000000
00000000000000000000000000000000000000000000000000
00000000000000000000000000000000000000000000000000
00000000000000000000000000000000000000000000000000
00000000000000000000000000000000000000000000000000
00000000000000000000000000000000000000000000000000
00001111011111100011111000011110000011100000000000
00001111111111111111111111111111111111110000000000
00000111111111111111111111111111111111110000000000
00001111111111111111111111111111111111110000000000
00001111111111111111111111111111111111110000000000
00000111111111111111111111111111111111110000000000
00000111111111111111111111111111111111100000000000
00000111111111111111111111111111111111100000000000
00000111111111111111111111111111111111100000000000
00000111111111111111111111111000110011000000000000
00000111111111111111000000000000000000000000000000
00000111111111111100000000000000000000000000000000
00000011111111111100000000000000000000000000000000
00000011111111111100000000000000000000000000000000
00000011111111111100001110000100000000000000000000
00000011111111111111011111111111110000000000000000
00000011111111111111111111111111111000000000000000
00000001111111111111111111111111111100000000000000
00000001111111111111111111111111111110000000000000
00000000111111111111111111111111111111000000000000
00000000111111111111111111111111111111110000000000
00000000111111111111111111111111111111110000000000
00000000011111111111111111111111111111100000000000
00000000011111111111100011111111111111110000000000
00000000011111110000000000011111111111110000000000
00000000011110000000000000001111111111110000000000
00000000011100000000000000001111111111111000000000
00000000000000000000000000000111111111111000000000
00000000000000000000000000000011111111111000000000
00000000000000000000000000000011111111111000000000
00000000000000000000000000000011111111110000000000
00000000000000000000000000000111111111110000000000
00000000000000000000000000000111111111110000000000
00000000000000000000000000000111111111100000000000
00000000000000000000000000001111111111100000000000
00000000000000000000000000001111111111000000000000
00000000000000000000000000011111111111000000000000
00000000000000000000000001111111111111000000000000
00000000000111111000000111111111111110000000000000
00000000000011111111111111111111111100000000000000
00000000000011111111111111111111111000000000000000
00000000000011111111111111111111110000000000000000
00000000000011111111111111111111100000000000000000
00000000000011111111111111111110000000000000000000
00000000000011111111111111111000000000000000000000
00000000000001111111111111100000000000000000000000
00000000000000111111110000000000000000000000000000
00000000000000000100000000000000000000000000000000
