P1
50 70
00000000000000000000000000000000000000000000000000
00000000000000000000000000000000000000000000000000
00000000000000000000000000000000000000000000000000
00000000000000000000000000000000000000000000000000
00000000000000000000000000000000000000000000000000
00000000000000000000000000000000000000000000000000
00000000000000000000000000000000000000000000000000
00000000000000000000000000000000000000000000000000
00000000000000000000000000000000000000000000000000
00000000000000000000000000000000000000000000000000
00000000001000000010000000000000000000000000000000
00000111111111111111111111000111110000110000000000
00000111111111111111111111111111111111110000000000
00000111111111111111111111111111111111111000000000
00000111111111111111111111111111111111111000000000
00001111111111111111111111111111111111111000000000
00000111111111111111111111111111111111111100000000
00000111111111111111111111111111111111111100000000
00000011111111111111111111111111111111111100000000
00000011111111111111111111111111111111111000000000
00000001111111111111111111111111111111111000000000
00000011111111111111000011100000111100111000000000
00000011111000000100000000000000000000000000000000
00000011111000000000000000000000000000000000000000
00000011111100000000000000000000000000000000000000
00000011111100000000000000000000000000000000000000
00000001111000000000000000000000000000000000000000
00000001111000000000000000000000000000000000000000
00000001111000000001111000000100000000000000000000
00000001111000011111111111111111110000000000000000
00000001111111111111111111111111111000000000000000
00000001111111111111111111111111111110000000000000
00000001111111111111111111111111111111000000000000
00000000111111111111011111111111111111111000000000
00000000111111110000000001111111111111111100000000
00000001111111100000000000111111111111111100000000
00000001111111000000000000111111111111111110000000
00000001111100000000000000011111111111111110000000
00000001100000000000000000001111111111111111000000
00000000000000000000000000000111111111111111100000
00000000000000000000000000000111111111111111100000
00000000000000000000000000000011111111111111100000
00000000000000000000000000000011111111111111100000
00000000000000000000000000000001111111111111100000
00000000000000000000000000000001111111111111100000
00000000000000000000000000000001111111111111000000
00000000000000000000000000000011111111111111000000
00000000000000000000000000000011111111111111100000
00000000000000000000000000000011111111111111100000
00000000000000000000000000000011111111111111100000
00000000000000000000000000000111111111111111100000
00000000111000000000000000000011111111111111100000
00000000111100000000000000000111111111111111000000
00000000111100000000000000000111111111111110000000
00000001111110000000000000001111111111111100000000
00000001111111000000000000001111111111111000000000
00000001111111100000000000001111111111110000000000
00000000111111100000000000111111111111110000000000
00000000111111110000000001111111111111100000000000
00000000011111111111100011111111111110000000000000
00000000011111111111111111111111111100000000000000
00000000111111111111111111111111100000000000000000
00000000011111111111111111111110000000000000000000
00000000001111111111111100010000000000000000000000
00000000000000000000010000000000000000000000000000
00000000000000000000000000000000000000000000000000
00000000000000000000000000000000000000000000000000
00000000000000000000000000000000000000000000000000
00000000000000000000000000000000000000000000000000
00000000000000000000000000000000000000000000000000
