P1
50 70
00000000000000000000000000000000000000000000000000
00000000000000000000000000000000000000000000000000
00000000000000000000000000000000000000000000000000
00000000000000000000000000000000000000000000000000
00000000000000000000000000000000000000000000000000
00000000000000000000000000000000000000000000000000
00000000000000000000000000000000000000000000000000
00000000000000000000000000000000000000000000000000
00000000000000000000000000000000000000000000000000
00000000000000000011110000011000000000000000000000
00000000000000000111111111111111111001110000000000
00000000000000000111111111111111111111111111110000
00000000000000001111111111111111111111111111111000
00000000000000001111111111111111111111111111110010
00000000000000001111111111111111111111111111110000
00000000000000001111111111111111111111111111110000
00000000000000001111111111111111111111111111110000
00000000000000011111100000000011110001111111000000
00000000000000011111100000000000000000000000000000
00000000000000011111100000000000000000000000000000
00000000000000011111000000000000000000000000000000
00000000000000111111000000000000000000000000000000
00000000000000111110000000000000000000000000000000
00000000000001111100000000000000000000000000000000
00000000000000111100000000000000000000000000000000
00000000000000111100000000000000000000000000000000
00000000000001111000000000000000000000000000000000
00000000000011111001111111001000000000000000000000
00000000000011111101111111111111100000000000000000
00000000000011111111111111111111110000000000000000
00000000000111111111111111111111111000000000000000
00000000000111111111111111111111111110000000000000
00000000000111111111000000011111111110000000000000
00000000001111111000000000000011111111000000000000
00000000001111110000000000000011111111100000000000
00000000001111100000000000000001111111110000000000
00000000000100000000000000000001111111110000000000
00000000000000000000000000000001111111110000000000
00000000000000000000000000000001111111110000000000
00000000000000000000000000000001111111100000000000
00000000000000000000000000000001111111110000000000
00000000000000000000000000000001111111100000000000
00000000000000000000000000000001111111100000000000
00000000000000000000000000000001111111100000000000
00000000000000000000000000000001111111000000000000
00000000000000000000000000000011111111000000000000
00000000000000000000000000000011111111000000000000
00000000000000000000000000000111111110000000000000
00000111100000000000000000000111111110000000000000
00001111110000000000000000001111111110000000000000
00001111110000000000000000011111111100000000000000
00001111110000000000000000111111111000000000000000
00001111110000000000000001111111111000000000000000
00001111110000000000000011111111110000000000000000
00011111111000000000000111111111100000000000000000
00011111111100000000011111111111000000000000000000
00011111111111000011111111111100000000000000000000
00111111111111111111111111111000000000000000000000
00001111111111111111111111000000000000000000000000
00000111111111111111111100000000000000000000000000
00000000001111111110000000000000000000000000000000
00000000000000000000000000000000000000000000000000
00000000000000000000000000000000000000000000000000
00000000000000000000000000000000000000000000000000
00000000000000000000000000000000000000000000000000
00000000000000000000000000000000000000000000000000
00000000000000000000000000000000000000000000000000
00000000000000000000000000000000000000000000000000
00000000000000000000000000000000000000000000000000
00000000000000000000000000000000000000000000000000
