P1
50 70
00000000000000000000000000000000000000000000000000
00000000000000000000000000000000000000000000000000
00000000000000000000000000000000000000000000000000
00000000000000000000000000000000000000000000000000
00000000000000000000000000000000000000000000000000
00000000000000000000000000000000000000000000000000
00000000000000000000000000000000000000000000000000
00000000000000000000000000000000000000000000000000
00000000000000000000000000000000000000000000000000
00000000000000000000000000000000000000000000000000
00000000000000000000000000000000000000000000000000
00000000000000000000000000000000000000000000000000
00000000000000000000000000000000000000000000000000
00000000000000000000000000000000000000000000000000
00000000000000000000000000000000000000000000000000
00000000000000000000000000000000000000000000000000
11111111100000000000000000000000000000000000000000
11111111111111111111111001100000000000000000000000
11111111111111111111111111111111111110000000000000
11111111111111111111111111111111111110000000000000
11111111111111111111111111111111111111000000000000
11111111111111111111111111111111111111000000000000
11111111111111111111111111111111111111000000000000
11111111111111111111111111111111111110000000000000
01111111111111111111111111111111111111000000000000
01111111111111111111111111111111111111000000000000
01111111111111111111111111111111111111000000000000
01111111111110000001000000110000001110000000000000
00111111111110000000000000000000000000000000000000
00111111111110000000000000000000000000000000000000
00111111111110000000000000000000000000000000000000
00111111111111100100110011000000000000000000000000
00011111111111111111111111111110000000000000000000
00011111111111111111111111111111100000000000000000
00001111111111111111111111111111111110000000000000
00001111111111111111111111111111111111100000000000
00001111111111111111111111111111111111110000000000
00001111111111111111111111111111111111111000000000
00001111111111111111111111111111111111111100000000
00001111111111111111111111111111111111111110000000
00000111111100000000000111111111111111111111000000
00000011100000000000000000111111111111111111000000
00000000000000000000000000000111111111111111000000
00000000000000000000000000000011111111111111100000
00000000000000000000000000000011111111111111100000
00000000000000000000000000000001111111111111100000
00000000000000000000000000000000111111111111110000
00000000000000000000000000000001111111111111110000
00000000000000000000000000000001111111111111110000
00000000000000000000000000000001111111111111110000
00000000000000000000000000000001111111111111110000
00000001100000000000000000000001111111111111110000
00000001111100000000000000000111111111111111110000
00000000111111100000000000001111111111111111100000
00000000111111111110111111111111111111111111000000
00000000111111111111111111111111111111111110000000
00000000111111111111111111111111111111111100000000
00000000011111111111111111111111111111111000000000
00000000011111111111111111111111111111110000000000
00000000001111111111111111111111111111000000000000
00000000001111111111111111111111110100000000000000
00000000000001000011111111111110000000000000000000
00000000000000000000000000000000000000000000000000
00000000000000000000000000000000000000000000000000
00000000000000000000000000000000000000000000000000
00000000000000000000000000000000000000000000000000
00000000000000000000000000000000000000000000000000
00000000000000000000000000000000000000000000000000
00000000000000000000000000000000000000000000000000
00000000000000000000000000000000000000000000000000
