P1
50 70
00000000000000000000000000000000000000000000000000
00000000000000000000000000000000000000000000000000
00000000000000000000000000000000000000000000000000
00000000000000000000000000000000000000000000000000
00000000000000000000000000000000000000000000000000
00000000000000000000000000000000000000000000000000
00000000000000000000000000000000000000000000000000
00000000000000000000000000000000000000000000000000
00000000000000000000000000000000000000000000000000
00000000000000000000000000000000000000000000000000
00000000000000000000000000000000000000000000000000
00000000000000000000000000000000000000000000000000
00000000000000000000000000000000000000000000000000
00000000000000000000000000000000000000000000000000
00000000000000000000000000000000000000000000000000
00000000000000000000000000000000000000000000000000
00000000000000000000000000000000000000000000000000
00000000000000000000000000000000000000000000000000
00000000000000000000000000000000000000000000000000
00000000000000000000000000000000000000000000000000
00000000000000000000000000000000000000000000000000
11111100111111111011111100100000000000000000000000
11111111111111111111111111110000000000000000000000
11111111111111111111111111111000000000000000000000
11111111111111111111111111111100000000000000000000
11111111111111111111111111111100000000000000000000
11111111111111111111111111111100000000000000000000
01111111111111111111111111111100000000000000000000
00111111111111111111111111111110000000000000000000
00111111111111111111111111111111000000000000000000
00111111111111111111110011110000000000000000000000
00111111111111000000000000000000000000000000000000
00011111111111000000000000000000000000000000000000
00011111111111000000000000000000000000000000000000
00001111111111100000000000000000000000000000000000
00000111111111110000011001000000000000000000000000
00000111111111111011111111111000000000000000000000
00000111111111111111111111111111110000000000000000
00000011111111111111111111111111111000000000000000
00000001111111111111111111111111111100000000000000
00000001111111111111111111111111111111100000000000
00000001111111111111111111111111111111111000000000
00000001111111111111111111111111111111111000000000
00000001111111111111111111111111111111111100000000
00000000011111111111100011111111111111111110000000
00000000011111111000000000011111111111111111000000
00000000011110000000000000000111111111111111000000
00000000011100000000000000000001111111111111100000
00000000001000000000000000000000111111111111100000
00000000000000000000000000000000111111111111111000
00000000000000000000000000000000011111111111111000
00000000000000000000000000000000011111111111111000
00000000000000000000000000000000011111111111110000
00000000000000000000000000000000011111111111111000
00000000000000000000000000000000111111111111111000
00000000000100000000000000000001111111111111110000
00000000000111110010000000001111111111111111110000
00000000000001111111100001111111111111111111110000
00000000000001111111111111111111111111111111000000
00000000000001111111111111111111111111111110000000
00000000000000111111111111111111111111111100000000
00000000000000011111111111111111111111111100000000
00000000000000011111111111111111111111110000000000
00000000000000011111111111111111111000000000000000
00000000000000001111111111111110000000000000000000
00000000000000000001100000111100000000000000000000
00000000000000000000000000000000000000000000000000
00000000000000000000000000000000000000000000000000
00000000000000000000000000000000000000000000000000
00000000000000000000000000000000000000000000000000
