P1
50 70
00000000000000000000000000000000000000000000000000
00000000000000000000000000000000000000000000000000
00000000000000000000000000000000000000000000000000
00000000000000000000000000000000000000000000000000
00000000000000000000000000000000000000000000000000
00000000000000000000000000000000000000000000000000
00000000000000000000000000000000000000000000000000
00000000000000000000000000000000000000000000000000
00000000000000000000000000000000000000000000000000
00000000000000000000000000000000000000000000000000
00000000000000000000000000000000000000000000000000
00000000000000000000000000000000000000000000000000
00000000000000000000000000000000000000000000000000
00000000000000000000000000000000000000000000000000
00000000000000000000001110000000000000000000000000
00000000000000000000011111111000000000000000000000
00000000000000000000011111111100000000000000000000
00000000000000000000111111111111110000000000000000
00000000000000000000111111111111111111100000000000
00000000000000000000111111111111111111111100000000
00000000000000000001111111111111111111111110111000
00000000000000000011111111111111111111111111111100
00000000000000000111111111111111111111111111111110
00000000000000000111111111111111111111111111111111
00000000000000000111111111111111111111111111111111
00000000000000000111111111111111111111111111111110
00000000000000001111111111110011111111111111111100
00000000000000011111111111100000000111111111111000
00000000000000111111111111000000000010011111111000
00000000000000011111111110000000000000000000110000
00000000000000111111111110000000000000000000000000
00000000000001111111111111000000000000000000000000
00000000000001111111111111111111100000000000000000
00000000000001111111111111111111111000000000000000
00000000000001111111111111111111111100000000000000
00000000000011111111111111111111111111000000000000
00000000000111111111111111111111111111000000000000
00000000000111111111111111111111111111000000000000
00000000001111111111111111111111111111100000000000
00000000001110000001101111111111111111100000000000
00000000000000000000000111111111111111110000000000
00000000000000000000000000111111111111110000000000
00000000000000000000000000111111111111110000000000
00000000000000000000000000011111111111100000000000
00000000000000000000000000001111111111100000000000
00000000000000000000000000011111111111100000000000
00000000000000000000000000011111111111000000000000
10001100000000000000000000111111111111000000000000
10011110000000000000000000111111111111000000000000
00011111000000000000000001111111111110000000000000
00011111110000000000000111111111111100000000000000
00111111111000000000001111111111111100000000000000
10111111111111000000111111111111111100000000000000
01111111111111111111111111111111110000000000000000
01111111111111111111111111111111100000000000000000
00111111111111111111111111111111100000000000000000
00111111111111111111111111111110000000000000000000
10111111111111111111111111111000000000000000000000
10011111111111111111111111111000000000000000000000
00000111111111111111111100000000000000000000000000
10000000111111111111111000000000000000000000000000
10100000000010000000000000000000000000000000000000
10100000000000000000000000000000000000000000000000
10000000000000000000000000000000000000000000000000
00010000000000000000000000000000000000000000000000
00010000000000000000000000000000000000000000000000
00010000000000000000000000000000000000000000000000
00000000000000000000000000000000000000000000000000
00000000000000000000000000000000000000000000000000
00000000000000000000000000000000000000000000000000
