P1
50 70
00000000000000000000000000000000000000000000000000
00000000000000000000000000000000000000000000000000
00000000000000000000000000000000000000000000000000
00000000000000000000000000000000000000000000000000
00000000000000000000000000000000000000000000000000
00000000000000000000000000000000000000000000000000
00000000000000000000000000000000000000000000000000
00000000000000000000000000000000000000000000000000
00000000000000000000000000000000000000000000000000
00000000000000000000000000000000000000000000000000
00000000001000000000000000000000000000000000000000
00000001111111000000000000000000000000000000000000
00000001111111110001000000000000000000000000000000
00000001111111111111110000000000000000000000000000
00000000111111111111111111000000000000000000000000
00000000111111111111111111111100000000000000000000
00000000111111111111111111111111011000000000000000
00000000111111111111111111111111111111000000000000
00000001111111111111111111111111111111100000000000
00000000111111111011111111111111111111000000000000
00000000111111110000000111111111111111000000000000
00000000111111100000000011101111111111000000000000
00000000111111110000000000000000011111000000000000
00000000111111110000000000000000000000000000000000
00000000111111100000000000000000000000000000000000
00000000111111100000000000000000000000000000000000
00000000111111100000000000000000000000000000000000
00000000111111100000000000000000000000000000000000
00000000111111100000000000000000000000000000000000
00000000111111110000000000000000000000000000000000
00000000111111110000000000000000000000000000000000
00000000111111111100111000000000000000000000000000
00000000111111111111111111100000000000000000000000
00000000111111111111111111110000000000000000000000
00000000111111111111111111111100000000000000000000
00000000111111111111111111111110000000000000000000
00000000111111111111111111111111100000000000000000
00000000111111111111101111111111111000000000000000
00000000011100000000000011111111111000000000000000
00000000000000000000000000111111111000000000000000
00000000000000000000000000011111111100000000000000
00000000000000000000000000001111111110000000000000
00000000000000000000000000000111111110000000000000
00000000000000000000000000000011111110000000000000
00000000000000000000000000000011111110000000000000
00000000000000000000000000000011111110000000000000
00000000000000000000000000000011111110000000000000
00000000000000000000000000000011111110000000000000
00000000000000000000000000000011111110000000000000
00000000000000000000000000000011111110000000000000
00000000000000000000000000000011111110000000000000
00000000000000000000000000000011111100000000000000
00000000000000000000000000000111111100000000000000
00000000000000000000000000001111111100000000000000
00000000000000000000000000011111111100000000000000
00000000000000000000000000111111111000000000000000
00000000000000000000000001111111110000000000000000
00000001110000000000000011111111110000000000000000
00000001111110001100111111111111100000000000000000
00000001111111111111111111111111000000000000000000
00000001111111111111111111111110000000000000000000
00000001111111111111111111111000000000000000000000
00000000111111111111111111100000000000000000000000
00000000111111111111111100000000000000000000000000
00000000111111111111110000000000000000000000000000
00000000000010000000000000000000000000000000000000
00000000000000000000000000000000000000000000000000
00000000000000000000000000000000000000000000000000
00000000000000000000000000000000000000000000000000
00000000000000000000000000000000000000000000000000
