P1
50 70
00000000000000000000000000000000000000000000000000
00000000000000000000000000000000000000000000000000
00000000000000000000000000000000000000000000000000
00000000000000000000000000000000000000000000000000
00000000000000000000000000000000000000000000000000
00000000000000000000000000000000000000000000000000
00000000000000000000000000000000000000000000000000
00000000000000000000000000000000000000000000000000
00000000000000000000000000000000000000000000000000
00000000000000000000000000000000000000000000000000
00000000000000000000000000000100001101110000000000
00000000000000000000000000000111111111111111100100
00000000000000000000000000001111111111111111111100
00000000000000000000000000011111111111111111111111
00000000000000000000000000011111111111111111111111
00000000000000000000000000011111111111111111111111
00000000000000000000000000011111111111111111111111
00000000000000000000000000111111100111111111111111
00000000000000000000000001111111000000000010000001
00000000000000000000000001111110000000000000000000
00000000000000000000000001111110000000000000000000
00000000000000000000000011111110000000000000000000
00000000000000000000000111111110000000000000000000
00000000000000000000000111111100000000000000000000
00000000000000000000001111111000000000000000000000
00000000000000000000001111110000000000000000000000
00000000000000000000011111110000000000000000000000
00000000000000000000011111110000000000000000000000
00000000000000000000011111111100000000000000000000
00000000000000000000111111111111111000000000000000
00000000000000000001111111111111111100000000000000
00000000000000000011111111111111111111000000000000
00000000000000000011111111111111111111100000000000
00000000000000000011111111111111111111110000000000
00000000000000000011110111111111111111110000000000
00000000000000000011100000000001111111110000000000
00000000000000000000000000000000011111110000000000
00000000000000000000000000000000011111110000000000
00000000000000000000000000000000011111110000000000
00000000000000000000000000000000011111110000000000
00000000000000000000000000000000011111111000000000
00000000000000000000000000000000001111110000000000
00000000000000000000000000000000011111110000000000
00000000000000000000000000000000011111100000000000
00000000000000000000000000000000011111100000000000
00000000000000000000000000000000011111100000000000
00000000000000000000000000000000111111000000000000
00000000000000000000000000000001111111000000000000
00000000000000000000000000000011111111000000000000
00000000000000000000000000000111111100000000000000
00000011110000000000000000001111111100000000000000
00000011111000000000000000011111111100000000000000
00000111111110000000000001111111111000000000000000
00000111111111100001000111111111110000000000000000
00000111111111111111111111111111100000000000000000
00000111111111111111111111111110000000000000000000
00000001111111111111111111111100000000000000000000
00000000001111111111111111111000000000000000000000
00000000000111111111111111100000000000000000000000
00000000000000000111110000000000000000000000000000
00000000000000000000000000000000000000000000000000
00000000000000000000000000000000000000000000000000
00000000000000000000000000000000000000000000000000
00000000000000000000000000000000000000000000000000
00000000000000000000000000000000000000000000000000
00000000000000000000000000000000000000000000000000
00000000000000000000000000000000000000000000000000
00000000000000000000000000000000000000000000000000
00000000000000000000000000000000000000000000000000
00000000000000000000000000000000000000000000000000
