P1
50 70
00000000000000000000000000000000000000000000000000
00000000000000000000000000000000000000000000000000
00000000000000000000000000000000000000000000000000
00000000000000000000000000000000000000000000000000
00000000000000000000000000000000000000000000000000
00000000000000000000000000000000000000000000000000
00000000000000000000000000000000000000000000000000
00000000000000000000000000000000000000000000000000
00000000000000000000000000000000000000000000000000
00000000000000000000000000000000000000000000000000
00000000000000000000000000000000000000000000000000
00000000000000000000000000000000000000000000000000
00000000000000000000000000000000000000110000000000
00000000000000000000000000000000111011111000000000
00000000000000000000000000111001111111111000000000
00000000000000001100011111111111111111111000000000
00000000001110011111111111111111111111111000000000
00000000001111111111111111111111111111110000000000
00000000001111111111111111111111111111110000000000
00000000001111111111111111111111111111100000000000
00000000001111111111111111111111111111100000000000
00000000001111111111111111111111111111100000000000
00000000001111111111111111111111111111100000000000
00000000001111111111111111110011110000000000000000
00000000011111111111110001100000000000000000000000
00000000001111111110000000000000000000000000000000
00000000001111111100000000000000000000000000000000
00000000001111111100000000000000000000000000000000
00000000001111111100000000000000000000000000000000
00000000011111111100000000000000000000000000000000
00000000011111111100001100000000000000000000000000
00000000011111111111111111100000000000000000000000
00000000001111111111111111111110000000000000000000
00000000001111111111111111111110000000000000000000
00000000011111111111111111111111000000000000000000
00000000011111111111111111111111110000000000000000
00000000011111111111111111111111110000000000000000
00000000011111111111111111111111110000000000000000
00000000011111111111111111111111111000000000000000
00000000011111111111111111111111111000000000000000
00000000011111110000111111111111110000000000000000
00000000011110000000001111111111110000000000000000
00000000011100000000000011111111111000000000000000
00000000000000000000000011111111111000000000000000
00000000000000000000000011111111111000000000000000
00000000000000000000000011111111110000000000000000
00000000000000000000000001111111110000000000000000
00000000000000000000000001111111100000000000000000
00000000000000000000000011111111100000000000000000
00000000000000000000000111111111100000000000000000
00000000000000000000001111111111100000000000000000
00000000000000000000001111111111000000000000000000
00000001000000000000111111111110000000000000000000
00000001111100000011111111111110000000000000000000
00000001111111111111111111111100000000000000000000
00000001111111111111111111111000000000000000000000
00000011111111111111111111110000000000000000000000
00000001111111111111111111110000000000000000000000
00000001111111111111111111100000000000000000000000
00000001111111111111111110000000000000000000000000
00000001111111111111111000000000000000000000000000
00000000011111111111110000000000000000000000000000
00000000000001000000000000000000000000000000000000
00000000000000000000000000000000000000000000000000
00000000000000000000000000000000000000000000000000
00000000000000000000000000000000000000000000000000
00000000000000000000000000000000000000000000000000
00000000000000000000000000000000000000000000000000
00000000000000000000000000000000000000000000000000
00000000000000000000000000000000000000000000000000
