P1
50 70
00000000000000000000000000000000000000000000000000
00000000000000000000000000000000000000000000000000
00000000000000000000000000000000000000000000000000
00000000000000000000000000000000000000000000000000
00000000000000000000000000000000000000000000000000
00000000000000000000000000000000000000000000000000
00000000000000000000000000000000000000000000000000
00000000000000000000000000000000000000000000000000
00000000000000000000000000000000000000000000000000
00000000000000000000000000000000000000000000000000
00000000000000000000000000000000000000000000000000
00000000000000000000000000000000000000000000000000
00000000000000000000000000000000000000000000000000
00000000000000000000000000000000000000000000000000
00000000000000000000000000000000000000000000000000
00000000000000000000000000000000000000000000000000
00000000000000000000000000000000000000000000000000
00000000000000000000000000000000000000000000111000
00000000000000000000000000000000000000000001111000
00000000000000000000000000000000000000011111110000
00000000000000000000000000000000000111111111110000
00000000000000000000000000000000001111111111100000
00000000000000000000000000011111111111111111100000
00000000000000000000000000111111111111111111000000
00000000000000000000011111111111111111111110000000
00000000000000000001111111111111111111110000000000
00000000000000000011111111111111111110000000000000
00000000000000000011111111111111110000000000000000
00000000000000000011111111110000000000000000000000
00000000000000000011111110000000000000000000000000
00000000000000000111111000000000000000000000000000
00000000000000000111111000000000000000000000000000
00000000000000001111111000000000000000000000000000
00000000000000011111110000000000000000000000000000
00000000000000111111110000000000000000000000000000
00000000000000111111100000000000000000000000000000
00000000000000011111100000000000000000000000000000
00000000000000111111111111111110000000000000000000
00000000000001111111111111111111100000000000000000
00000000000001111111111111111111110000000000000000
00000000000001111111111111111111110000000000000000
00000000000001111111111111111111110000000000000000
00000000000011111111100111111111111000000000000000
00000000000001111100000001111111111000000000000000
00000000000000000000000000011111111100000000000000
00000000000000000000000000001111111100000000000000
00000000000000000000000000001111111000000000000000
00000000000000000000000000001111110000000000000000
00000000000000000000000000001111110000000000000000
00000000000000000000000000011111111000000000000000
00000000000000000000000000011111111000000000000000
00000000000000000000000000111111110000000000000000
00000000000000000000000000111111100000000000000000
00000000000000000000000001111111100000000000000000
00000000000000000000000011111111000000000000000000
00000011000000000000000011111110000000000000000000
00000111110000000000000111111100000000000000000000
00000111111111000111111111111000000000000000000000
00000111111111111111111111111000000000000000000000
00000111111111111111111111110000000000000000000000
00000011111111111111111111000000000000000000000000
00000000001111111111111000000000000000000000000000
00000000000011011111110000000000000000000000000000
00000000000000000000000000000000000000000000000000
00000000000000000000000000000000000000000000000000
00000000000000000000000000000000000000000000000000
00000000000000000000000000000000000000000000000000
00000000000000000000000000000000000000000000000000
00000000000000000000000000000000000000000000000000
00000000000000000000000000000000000000000000000000
