P1
50 70
00000000000000000000000000000000000000000000000000
00000000000000000000000000000000000000000000000000
00000000000000000000000000000000000000000000000000
00000000000000000000000000000000000000000000000000
00000000000000000000000000000000000000000000000000
00000000000000000000000000000000000000000000000000
00000000000000000000000000000000000000000000000000
00000000000000000000000000000000000000000000000000
00000000000000000000000000000000000000000000000000
00000000000000000000000000000000000000000000000000
00000000000000000000000000000000000000000000000000
00000000000000000000000000000000000000000000000000
00000000000000000000000000000000000000000000000000
00000000000000000000000000000000000000000000000000
00000000000000000000000000000000000000000000000000
00000000000000000000000000000000000000000000000000
00000000000000000000000000000000000000000000000000
00000000000000000000000000000000000000000000000000
00000000000000000000000000000000000000000000000000
00000000000000000000000000000000000000000000000000
00000000000000000000000000000000000000000000000000
00000000000000000000000000000000000000000000000000
00000000000000000000000000000000000000000000000000
00000000000000000000000000011111111000000000000000
00000000000000000000000001111111111100000000000000
00000000000000000000000011111111111000000000000000
00000000000000000000001111111111110000000000000000
00000000000000000000111111111111100000000000000000
00000000000000000001111111110011100000000000000000
00000000000000000011111111000000000000000000000000
00000000000000000011111000000000000000000000000000
00000000000000000111111000000000000000000000000000
00000000000000001111110000000000000000000000000000
00000000000000011111100000000000000000000000000000
00000000000000111111000000000000000000000000000000
00000000000000011111000000000000000000000000000000
00000000000000111111000000000000000000000000000000
00000000000000111110000000111000000000000000000000
00000000000001111110001111111111100000000000000000
00000000000000111100011111111111100000000000000000
00000000000000111100111111111111110000000000000000
00000000000000111111111111111111110000000000000000
00000000000000111111111000001111111000000000000000
00000000000001111111110000000111111000000000000000
00000000000001111111100000000011111000000000000000
00000000000001111111000000000011111000000000000000
00000000000001111110000000000011111000000000000000
00000000000001111100000000000001111000000000000000
00000000000001111110000000000001111000000000000000
00000000000000111110000000000001111100000000000000
00000000000000111110000000000011111000000000000000
00000000000000111110000000000011111000000000000000
00000000000000111111000000000011111000000000000000
00000000000000111111100000000111110000000000000000
00000000000000011111100000001111110000000000000000
00000000000000001111111000011111100000000000000000
00000000000000000111111100111111000000000000000000
00000000000000000011111111111110000000000000000000
00000000000000000001111111111100000000000000000000
00000000000000000000001111111100000000000000000000
00000000000000000000000100000000000000000000000000
00000000000000000000000000000000000000000000000000
00000000000000000000000000000000000000000000000000
00000000000000000000000000000000000000000000000000
00000000000000000000000000000000000000000000000000
00000000000000000000000000000000000000000000000000
00000000000000000000000000000000000000000000000000
00000000000000000000000000000000000000000000000000
00000000000000000000000000000000000000000000000000
00000000000000000000000000000000000000000000000000
