P1
50 70
00000000000000000000000000000000000000000000000000
00000000000000000000000000000000000000000000000000
00000000000000000000000000000000000000000000000000
00000000000000000000000000000000000000000000000000
00000000000000000000000000000000000000000000000000
00000000000000000000000000000000000000000000000000
00000000000000000000000000000000000000000000000000
00000000000000000000000000000000000000000000000000
00000000000000000000000000000000000000000000001000
00000000000000000000000000000000000001111111111100
00000000000000000000000000000000111001111111111110
00000000000000000000000000000111111111111111111111
00000000000000000000000000111111111111111111111111
00000000000000000000000001111111111111111111111111
00000000000000000000000111111111111111111111111111
00000000000000000000011111111111111111111111111111
00000000000000000000111111111111111111111111111111
00000000000000000001111111111111111111111111111111
00000000000000000011111111111111111111111111111111
00000000000000001111111111111111111101111111111111
00000000000000011111111111111111111000001111011111
00000000000000111111111111111110000000000000000001
00000000000001111111111111111000000000000000000000
00000000000001111111111111110000000000000000000000
00000000000001111111111111100000000000000000000000
00000000000011111111111111000000000000000000000000
00000000000111111111111110000000000000000000000000
00000000001111111111111100000000000000000000000000
00000000001111111111111100000000000000000000000000
00000000011111111111111000000111111100000000000000
00000000011111111111111000111111111111110000000000
00000000111111111111111111111111111111111100000000
00000001111111111111111111111111111111111110000000
00000000111111111111111111111111111111111111000000
00000001111111111111111111111111111111111111100000
00000001111111111111111111111111111111111111110000
00000001111111111111111111111111111111111111110000
00000011111111111111111111111111111111111111111000
00000011111111111111111111111111111111111111111000
00000011111111111111111110001111111111111111111000
00000011111111111111111100000000111111111111111000
00000111111111111111111000000000111111111111111000
00000111111111111111110000000000011111111111111000
00000111111111111111100000000000011111111111111000
00000111111111111111100000000000011111111111111000
00000011111111111111100000000000011111111111111100
00000011111111111111000000000000111111111111111000
00000011111111111110000000000000111111111111111000
00000111111111111111000000000000111111111111111000
00000111111111111111000000000000111111111111110000
00000011111111111111000000000001111111111111110000
00000001111111111111000000000001111111111111110000
00000001111111111111100000000111111111111111100000
00000001111111111111110000001111111111111111100000
00000001111111111111111111111111111111111111000000
00000000111111111111111111111111111111111110000000
00000000011111111111111111111111111111111110000000
00000000000111111111111111111111111111111100000000
00000000000011111111111111111111111111111000000000
00000000000000111111111111111111111111100000000000
00000000000000001111111111111111111110000000000000
00000000000000000000111111111111111000000000000000
00000000000000000000011000011110000000000000000000
00000000000000000000000000000000000000000000000000
00000000000000000000000000000000000000000000000000
00000000000000000000000000000000000000000000000000
00000000000000000000000000000000000000000000000000
00000000000000000000000000000000000000000000000000
00000000000000000000000000000000000000000000000000
00000000000000000000000000000000000000000000000000
