P1
50 70
00000000000000000000000000000000000000000000000000
00000000000000000000000000000000000000000000000000
00000000000000000000000000000000000000000000000000
00000000000000000000000000000000000000000000000000
00000000000000000000000000000000000000000000000000
00000000000000000000000000000000000000000000000000
00000000000000000000000000000000000000000000000000
00000000000000000000000000000000000000000000000000
00000000000000000000000000000000000000000000000000
00000000000000000000000000000000000000000000000000
00000000000000000000000000000000000000000000000000
00000000000000000000000000000000000000000000000000
00000000000000000000000000000000000000000000000000
00000000000000000000000000000000000000000000000000
00000000000000000000000000000000000000000000000000
00000000000000000000000000000000000000000000000000
00000000000000000000000000000000000000000000000000
00000000000000000000000000000000000000000000000000
00000000000000000000000000000000000000000000000000
00000000000000000000000000000000000000000000000000
00000000000000000000000000000000000000000000000000
00000000000000000000000000000000000001101111111000
00000000000000000000000000000000000011111111111100
00000000000000000000000000000000011111111111111100
00000000000000000000000000000111111111111111111110
00000000000000000000000000001111111111111111111110
00000000000000000000000000011111111111111111111110
00000000000000000000000000111111111111111111111111
00000000000000000000000011111111111111111111111111
00000000000000000000000111111111111111111111111110
00000000000000000000011111111111111111111111111110
00000000000000000000011111111111100000111111111110
00000000000000000000111111111111000000011111111000
00000000000000000001111111111110000000001111100000
00000000000000000011111111111000000000000000000000
00000000000000000011111111110000000000000000000000
00000000000000000111111111100000000000000000000000
00000000000000001111111111100000000000000000000000
00000000000000011111111110000011111011100000000000
00000000000000011111111110000111111111111000000000
00000000000000111111111110011111111111111110000000
00000000000000111111111111111111111111111110000000
00000000000001111111111111111111111111111110000000
00000000000011111111111111111111111111111111000000
00000000000011111111111111111111111111111111000000
00000000000111111111111111111111111111111111000000
00000000000111111111111111111011111111111110000000
00000000001111111111111000000000111111111111000000
00000000011111111111110000000000111111111111000000
00000000011111111111100000000000111111111111000000
00000000111111111111000000000000111111111110000000
00000000011111111111000000000000111111111110000000
00000000011111111110000000000001111111111110000000
00000000111111111110000000000001111111111100000000
00000001111111111100000000000011111111111000000000
00000000111111111110000000000111111111111000000000
00000000011111111110000000001111111111110000000000
00000000111111111111000001111111111111110000000000
00000000111111111111111111111111111111110000000000
00000000011111111111111111111111111111100000000000
00000000011111111111111111111111111111000000000000
00000000001111111111111111111111111100000000000000
00000000000011111111111111111111111000000000000000
00000000000001111111111111111111100000000000000000
00000000000000001111111111111110000000000000000000
00000000000000000000100000001100000000000000000000
00000000000000000000000000000000000000000000000000
00000000000000000000000000000000000000000000000000
00000000000000000000000000000000000000000000000000
00000000000000000000000000000000000000000000000000
