P1
50 70
00000000000000000000000000000000000000000000000000
00000000000000000000000000000000000000000000000000
00000000000000000000000000000000000000000000000000
00000000000000000000000000000000000000000000000000
00000000000000000000000000000000000000000000000000
00000000000000000000000000000000000000000000000000
00000000000000000000000000000000000000000000000000
00000000000000000000000000000000000000000000000000
00000000000000000000000000000000000000000000000000
00000000000000000000000000000000000000000000000000
00000000000000000000000000000000000000000000000000
00000000000000000000000000000000000000000000000000
00000000000000000000000000000000000000000000000000
00000000000000000000000000000000000000000000000000
00000000000000000000000000000000000000000000000000
00000000000000000000000000000000000000000000000000
00000000000000000000000000000000000000000000000000
00000000000000000000000000111111100000000000000000
00000000000000000001111001111111110000000000000000
00000000000000000111111111111111111000000000000000
00000000111111111111111111111111111100000000000000
01111111111111111111111111111111111100000000000000
11111111111111111111111111111111111100000000000000
11111111111111111111111111111111111110000000000000
11111111111111111111111111111111111111000000000000
11111111111111111111111111111111111111000000000000
11111111111111111111111111111111111111000000000000
11111111111111111111111111111111111110000000000000
11111111111111111111111111101111111110000000000000
11111111111111111111000000001111111110000000000000
11111111111011100000000000000111111110000000000000
11111111100000000000000000000111111110000000000000
11111100000000000000000000000111111110000000000000
11111100000000000000000000000111111110000000000000
11111100000000000000000000000111111110000000000000
01111100000000000000000000001111111110000000000000
00111110000000000000000000001111111110000000000000
00111110000000000000000000000111111110000000000000
00011011000000000000000000000111111110000000000000
00000000000000000000000000000111111100000000000000
00000000000000000000000000001111111100000000000000
00000000000000000000000000001111111100000000000000
00000000000000000000000000001111111110000000000000
00000000000000000000000000001111111110000000000000
00000000000000000000000000001111111100000000000000
00000000000000000000000000001111111100000000000000
00000000000000000000000000001111111100000000000000
00000000000000000000000000001111111000000000000000
00000000000000000000000000001111111000000000000000
00000000000000000000000000011111111100000000000000
00000000000000000000000000011111111100000000000000
00000000000000000000000000011111111100000000000000
00000000000000000000000000011111111000000000000000
00000000000000000000000000011111111000000000000000
00000000000000000000000000001111111000000000000000
00000000000000000000000000011111111000000000000000
00000000000000000000000000011111110000000000000000
00000000000000000000000000011111111000000000000000
00000000000000000000000000111111111000000000000000
00000000000000000000000000011111111000000000000000
00000000000000000000000000011111111000000000000000
00000000000000000000000000011111110000000000000000
00000000000000000000000000011111110000000000000000
00000000000000000000000000111111100000000000000000
00000000000000000000000000111111110000000000000000
00000000000000000000000000011111111000000000000000
00000000000000000000000000111111111000000000000000
00000000000000000000000000111111110000000000000000
00000000000000000000000000111111110000000000000000
00000000000000000000000000110000000000000000000000
