P1
50 70
00000000000000000000000000000000000000000000000000
00000000000000000000000000000000000000000000000000
00000000000000000000000000000000000000000000000000
00000000000000000000000000000000000000000000000000
00000000000000000000000000000000000000000000000000
00000000000000000000000000000000000000000000000000
00000000000000000000000000000000000111000000000000
00000000000000000000000000000011111111000000000000
00000000000000000000000000011111111111000000000000
00000000000000000000000001111111111111000000000000
00000000000000000000111111111111111111000000000000
00000000000000000001111111111111111111000000000000
00000000000000111111111111111111111111000000000000
00000000000011111111111111111111111111000000000000
00000000111111111111111111111111111110000000000000
00000111111111111111111100000111111110000000000000
00011111111111111111111000000011111100000000000000
00011111111111111000000000000111111100000000000000
00011111111111110000000000001111111100000000000000
00011111111100000000000000001111111000000000000000
00011111000000000000000000001111111000000000000000
00011100000000000000000000011111111000000000000000
00000000000000000000000000011111110000000000000000
00000000000000000000000000111111100000000000000000
00000000000000000000000000111111100000000000000000
00000000000000000000000000111111100000000000000000
00000000000000000000000000111111100000000000000000
00000000000000000000000000111111100000000000000000
00000000000000000000000001111111000000000000000000
00000000000000000000000011111111000000000000000000
00000000000000000000000011111111000000000000000000
00000000000000000000000011111110000000000000000000
00000000000000000000000001111110000000000000000000
00000000000000000000000011111110000000000000000000
00000000000000000000000011111110000000000000000000
00000000000000000000000111111100000000000000000000
00000000000000000000000111111110000000000000000000
00000000000000000000000111111110000000000000000000
00000000000000000000000111111100000000000000000000
00000000000000000000000111111100000000000000000000
00000000000000000000000111111100000000000000000000
00000000000000000000000111111100000000000000000000
00000000000000000000000111111110000000000000000000
00000000000000000000000111111100000000000000000000
00000000000000000000000111111100000000000000000000
00000000000000000000000111111100000000000000000000
00000000000000000000001111111100000000000000000000
00000000000000000000000111111100000000000000000000
00000000000000000000000111111100000000000000000000
00000000000000000000000111111100000000000000000000
00000000000000000000000111111110000000000000000000
00000000000000000000000111111110000000000000000000
00000000000000000000000011111110000000000000000000
00000000000000000000000001111110000000000000000000
00000000000000000000000001111110000000000000000000
00000000000000000000000001100000000000000000000000
00000000000000000000000000000000000000000000000000
00000000000000000000000000000000000000000000000000
00000000000000000000000000000000000000000000000000
00000000000000000000000000000000000000000000000000
00000000000000000000000000000000000000000000000000
00000000000000000000000000000000000000000000000000
00000000000000000000000000000000000000000000000000
00000000000000000000000000000000000000000000000000
00000000000000000000000000000000000000000000000000
00000000000000000000000000000000000000000000000000
00000000000000000000000000000000000000000000000000
00000000000000000000000000000000000000000000000000
00000000000000000000000000000000000000000000000000
00000000000000000000000000000000000000000000000000
