P1
50 70
00000000000000000000000000000000000000000000000000
00000000000000000000000000000000000000000000000000
00000000000000000000000000000000000000000000000000
00000000000000000000000000000000000000000000000000
00000000000000000000000000000000000000000000000000
00000000000000000000000000000000000000000000000000
00000000000000000000000000000000000000000000000000
00000000000000000000000000000000000000000000000000
00000000000000000000000000000000000000000000000000
00100000000000000000000000000000000000000000000000
00111110001000000000000000000000000000000000000000
00111111111111000000000000000000000000000000000000
01111111111111111000100000000000000000000000000000
01111111111111111111111111000100000000000000000000
01111111111111111111111111111111111000000000000000
01111111111111111111111111111111111111110000000000
01111111111111111111111111111111111111111000000000
00111111111111111111111111111111111111111000000000
00111111000011111111111111111111111111110000000000
00111110000000000000011111011111111111100000000000
01111111000000000000000000000111111111000000000000
01111111000000000000000000000111111110000000000000
01111111000000000000000000001111111110000000000000
00111110000000000000000000001111111100000000000000
00000000000000000000000000011111110000000000000000
00000000000000000000000000111111100000000000000000
00000000000000000000000000111111100000000000000000
00000000000000000000000001111111000000000000000000
00000000000000000000000011111110000000000000000000
00000000000000000000000111111100000000000000000000
00000000000000000000001111111000000000000000000000
00000000000000000000001111110000000000000000000000
00000000000000000000001111110000000000000000000000
00000000000000000000011111100000000000000000000000
00000000000000000000111111000000000000000000000000
00000000000000000001111111000000000000000000000000
00000000000000000001111110000000000000000000000000
00000000000000000011111100000000000000000000000000
00000000000000000011111100000000000000000000000000
00000000000000000111111000000000000000000000000000
00000000000000001111110000000000000000000000000000
00000000000000001111110000000000000000000000000000
00000000000000011111100000000000000000000000000000
00000000000000011111100000000000000000000000000000
00000000000000111111000000000000000000000000000000
00000000000000111110000000000000000000000000000000
00000000000001111110000000000000000000000000000000
00000000000001111100000000000000000000000000000000
00000000000001111000000000000000000000000000000000
00000000000011111000000000000000000000000000000000
00000000000011111000000000000000000000000000000000
00000000000111110000000000000000000000000000000000
00000000001111100000000000000000000000000000000000
00000000001111100000000000000000000000000000000000
00000000001111000000000000000000000000000000000000
00000000001111000000000000000000000000000000000000
00000000011111000000000000000000000000000000000000
00000000011110000000000000000000000000000000000000
00000000011110000000000000000000000000000000000000
00000000011100000000000000000000000000000000000000
00000000000000000000000000000000000000000000000000
00000000000000000000000000000000000000000000000000
00000000000000000000000000000000000000000000000000
00000000000000000000000000000000000000000000000000
00000000000000000000000000000000000000000000000000
00000000000000000000000000000000000000000000000000
00000000000000000000000000000000000000000000000000
00000000000000000000000000000000000000000000000000
00000000000000000000000000000000000000000000000000
00000000000000000000000000000000000000000000000000
