P1
50 70
00000000000000000000000000000000000000000000000000
00000000000000000000000000000000000000000000000000
00000000000000000000000000000000000000000000000000
00000000000000000000000000000000000000000000000000
00000000000000000000000000000000000000000000000000
00000000000000000000000000000000000000000000000000
00000000000000000000000000000000000000000000000000
00000000000000000000000000000000000000000000000000
00000000000000000000000000000000000000000000000000
00000000000000000000000000000000000000000000000000
00000000000000000000000000000000000000000000000000
00000000000000000000000000000000000000000000000000
00000000000000000000000000000000000000000000000000
00000000000000000000000000000000000000000000000000
00000000000000000000000000000000000000000000000000
00000000000000000000000000000000000000000000000000
00000011001111111111000011111111101111110000000000
00011111111111111111111111111111111111110000000000
00011111111111111111111111111111111111110000000000
00011111111111111111111111111111111111110000000000
00011111111111111111111111111111111111110000000000
00011111111111111111111111111111111111110000000000
00001111111111111111111111111111111111110000000000
00001111111111111111111111111111111111110000000000
00001111111111111111111111111111111111110000000000
00011111110000001110011111111111111111110000000000
00011111110000000000000000000011111111100000000000
00011111110000000000000000000011111111100000000000
00001111110000000000000000000001111111000000000000
00000111110000000000000000000011111111000000000000
00000111100000000000000000000011111111000000000000
00000000000000000000000000000111111110000000000000
00000000000000000000000000001111111110000000000000
00000000000000000000000000001111111100000000000000
00000000000000000000000000001111111100000000000000
00000000000000000000000000011111111000000000000000
00000000000000000000000000111111111000000000000000
00000000000000000000000000111111111000000000000000
00000000000000000000000001111111110000000000000000
00000000000000000000000001111111100000000000000000
00000000000000000000000001111111000000000000000000
00000000000000000000000011111111000000000000000000
00000000000000000000000111111111000000000000000000
00000000000000000000000111111111000000000000000000
00000000000000000000001111111110000000000000000000
00000000000000000000001111111100000000000000000000
00000000000000000000011111111000000000000000000000
00000000000000000000111111110000000000000000000000
00000000000000000000111111110000000000000000000000
00000000000000000000111111110000000000000000000000
00000000000000000000111111110000000000000000000000
00000000000000000001111111100000000000000000000000
00000000000000000011111111000000000000000000000000
00000000000000000111111111000000000000000000000000
00000000000000001111111110000000000000000000000000
00000000000000001111111110000000000000000000000000
00000000000000001111111110000000000000000000000000
00000000000000001111111100000000000000000000000000
00000000000000000111111000000000000000000000000000
00000000000000000001110000000000000000000000000000
00000000000000000000000000000000000000000000000000
00000000000000000000000000000000000000000000000000
00000000000000000000000000000000000000000000000000
00000000000000000000000000000000000000000000000000
00000000000000000000000000000000000000000000000000
00000000000000000000000000000000000000000000000000
00000000000000000000000000000000000000000000000000
00000000000000000000000000000000000000000000000000
00000000000000000000000000000000000000000000000000
00000000000000000000000000000000000000000000000000
