P1
50 70
00000000000000000000000000000000000000000000000000
00000000000000000000000000000000000000000000000000
00000000000000000000000000000000000000000000000000
00000000000000000000000000000000000000000000000000
00000000000000000000000000000000000000000000000000
00000000000000000000000000000000000000000000000000
00000000000000000000000000000000000000000000000000
00000000000000000000000000000000000000000000000000
00000000000000000000000000000000000000000000000000
00000000000000000000000000000000000000000000000000
00000000000000000000000000000000000000000000000000
01111100001000000000000000000000000000000000000000
01111111111111110000100000000110000000000000000000
01111111111111111111111111111111111110000000000000
01111111111111111111111111111111111111000000000000
01111111111111111111111111111111111111100000000000
01111111111111111111111111111111111111100000000000
00111111111111111111111111111111111111100000000000
00111111111111111111111111111111111111110000000000
00111111111111111111111111111111111111110000000000
00111111111111111111111111111111111111110000000000
00111111111111111111111111111111111111100000000000
00111111111111111111111111111111111111100000000000
00000111101111111111111111111111111111110000000000
00000000000000000010000000111111111111110000000000
00000000000000000000000000111111111111110000000000
00000000000000000000000000111111111111100000000000
00000000000000000000000001111111111111100000000000
00000000000000000000000001111111111111000000000000
00000000000000000000000011111111111111000000000000
00000000000000000000000011111111111111000000000000
00000000000000000000000011111111111111000000000000
00000000000000000000000011111111111111000000000000
00000000000000000000000011111111111111000000000000
00000000000000000000000011111111111111000000000000
00000000000000000000000011111111111111000000000000
00000000000000000000000011111111111110000000000000
00000000000000000000000111111111111110000000000000
00000000000000000000000111111111111100000000000000
00000000000000000000000111111111111100000000000000
00000000000000000000000111111111111100000000000000
00000000000000000000000111111111111100000000000000
00000000000000000000001111111111111100000000000000
00000000000000000000001111111111111100000000000000
00000000000000000000001111111111111100000000000000
00000000000000000000011111111111111100000000000000
00000000000000000000011111111111111000000000000000
00000000000000000000111111111111111000000000000000
00000000000000000000011111111111110000000000000000
00000000000000000000011111111111110000000000000000
00000000000000000000011111111111110000000000000000
00000000000000000000011111111111110000000000000000
00000000000000000000011111111111110000000000000000
00000000000000000000111111111111100000000000000000
00000000000000000000011111111111100000000000000000
00000000000000000000111111111111100000000000000000
00000000000000000000111111111111100000000000000000
00000000000000000001111111111111100000000000000000
00000000000000000001111111111111100000000000000000
00000000000000000001111111111111000000000000000000
00000000000000000001111111111111000000000000000000
00000000000000000001111111111111000000000000000000
00000000000000000001111111111110000000000000000000
00000000000000000011110000000000000000000000000000
00000000000000000011100000000000000000000000000000
00000000000000000000000000000000000000000000000000
00000000000000000000000000000000000000000000000000
00000000000000000000000000000000000000000000000000
00000000000000000000000000000000000000000000000000
00000000000000000000000000000000000000000000000000
