P1
50 70
00000000000000000000000000000000000000000000000000
00000000000000000000000000000000000000000000000000
00000000000000000000000000000000000000000000000000
00000000000000000000000000000000000000000000000000
00000000000000000000000000000000000000000000000000
00000000000000000000000000000000000000000000000000
00000000000000000000000000000000000000000000000000
00000000000000000000000000000000000000000000000000
00000000000000000000000000000000000000000000000000
00000000000000000000000000000000000000000000000000
00000000000000000000000000000000000000000000000000
00000000000000000000000000000000000000000000000000
00000000000000000000000000000000000000000000000000
00000000000000000000000000000000000000000000000000
00000000000000000000000000000000000000000000000000
00000000000000000000000000000000000000000000000000
00000000000000000000000000000000000000000000000000
00000000000000000000000000000011001000000000000000
00000000000000000000000001111111111100000000000000
00000000000000000011111111111111111100000000000000
00000000000000000111111111111111111000000000000000
00000000111111111111111111111111111000000000000000
00001111111111111111111111111111111000000000000000
00011111111111111111111111111111111000000000000000
00011111111111111111111111111111110000000000000000
00011111111111111111111111111111100000000000000000
00011111111111111111101111111111100000000000000000
00111111111111111110000111111111000000000000000000
00011111111111110000000111111110000000000000000000
00011111111000000000001111111100000000000000000000
00001011110000000000011111111100000000000000000000
00000000000000000000011111111000000000000000000000
00000000000000000000111111110000000000000000000000
00000000000000000000111111110000000000000000000000
00000000000000000001111111100000000000000000000000
00000000000000000001111111100000000000000000000000
00000000000000000011111111000000000000000000000000
00000000000000000011111110000000000000000000000000
00000000000000000111111110000000000000000000000000
00000000000000000111111110000000000000000000000000
00000000000000001111111110000000000000000000000000
00000000000000001111111100000000000000000000000000
00000000000000001111111100000000000000000000000000
00000000000000001111111100000000000000000000000000
00000000000000001111111000000000000000000000000000
00000000000000011111111000000000000000000000000000
00000000000000011111111000000000000000000000000000
00000000000000011111111000000000000000000000000000
00000000000000011111111000000000000000000000000000
00000000000000011111110000000000000000000000000000
00000000000000011111110000000000000000000000000000
00000000000000011111110000000000000000000000000000
00000000000000111111110000000000000000000000000000
00000000000000111111110000000000000000000000000000
00000000000000111111110000000000000000000000000000
00000000000000111111110000000000000000000000000000
00000000000000111111110000000000000000000000000000
00000000000000111111110000000000000000000000000000
00000000000000111111110000000000000000000000000000
00000000000000111111110000000000000000000000000000
00000000000001111111110000000000000000000000000000
00000000000000111111110000000000000000000000000000
00000000000000111111000000000000000000000000000000
00000000000000111110000000000000000000000000000000
00000000000000111100000000000000000000000000000000
00000000000000000000000000000000000000000000000000
00000000000000000000000000000000000000000000000000
00000000000000000000000000000000000000000000000000
00000000000000000000000000000000000000000000000000
00000000000000000000000000000000000000000000000000
