P1
50 70
00000000000000000000000000000000000000000000000000
00000000000000000000000000000000000000000000000000
00000000000000000000000000000000000000000000000000
00000000000000000000000000000000000000000000000000
00000000000000000000000000000000000000000000000000
00000000000000000000000000000000000000000000000000
00000000000000000000000000000000000000000000000000
00000000000000000000000000000000000000000000000000
00000000000000000000000000000000000000000000000000
00000000000000000000000000000000000000000000000000
00000000000000000000000000000000000000000000000000
00000000000000000000000000000000000000000000000000
00000000000000000000000000000000000000000000000000
00000000000000000000000000000000000000000000000000
00000000000000000000000000000000000000000000000000
00000000000000000000000000000000000000000000000000
00000000000000000000000000000000000000000000000000
00000000000000000000000000000000000000000000000000
00000000000000000000000000000000000000000000000000
00000000000000000000000000000000000000000000000000
00000000000000000000000000000000000110000000000000
00000000000000000000001000011111111111100000000000
00000000011101110111111111111111111111100000000000
00001111111111111111111111111111111111110000000000
00001111111111111111111111111111111111110000000000
00001111111111111111111111111111111111110000000000
00001111111111111111111111111111111111110000000000
00000011111011111110000001100001111111110000000000
00000000010000000000000000000000111111110000000000
00000000000000000000000000000000111111110000000000
00000000000000000000000000000000111111110000000000
00000000000000000000000000000000111111111000000000
00000000000000000000000000000000111111111000000000
00000000000000000000000000000000111111111000000000
00000000000000000000000000000000011111111000000000
00000000000000000000000000000000111111111000000000
00000000000000000000000000000000111111110000000000
00000000000000000000000000000000011111111000000000
00000000000000000000000000000000111111111000000000
00000000000000000000000000000000111111111000000000
00000000000000000000000000000000111111111000000000
00000000000000000000000000000000111111111000000000
00000000000000000000000000000000001111111100000000
00000000000000000000000000000000011111111000000000
00000000000000000000000000000000011111111000000000
00000000000000000000000000000000011111111000000000
00000000000000000000000000000000011111111000000000
00000000000000000000000000000000011111111000000000
00000000000000000000000000000000011111111100000000
00000000000000000000000000000000011111111100000000
00000000000000000000000000000000001111111100000000
00000000000000000000000000000000001111111100000000
00000000000000000000000000000000001111111100000000
00000000000000000000000000000000001111111100000000
00000000000000000000000000000000001111111100000000
00000000000000000000000000000000001111111100000000
00000000000000000000000000000000001111111110000000
00000000000000000000000000000000001111111110000000
00000000000000000000000000000000001111111110000000
00000000000000000000000000000000000111111110000000
00000000000000000000000000000000000111111110000000
00000000000000000000000000000000000111111100000000
00000000000000000000000000000000000000000000000000
00000000000000000000000000000000000000000000000000
00000000000000000000000000000000000000000000000000
00000000000000000000000000000000000000000000000000
00000000000000000000000000000000000000000000000000
00000000000000000000000000000000000000000000000000
00000000000000000000000000000000000000000000000000
00000000000000000000000000000000000000000000000000
