P1
50 70
00000000000000000000000000000000000000000000000000
00000000000000000000000000000000000000000000000000
00000000000000000000000000000000000000000000000000
00000000000000000000000000000000000000000000000000
00000000000000000000000000000000000000000000000000
00000000000000000000000000000000000000000000000000
00000000000000000000000000000000000000000000000000
00000000000000000000000000000000000000000000000000
00000000000000000000000000000000000000000000000000
00000000000000000000000000000000000000000000000000
00000000000000000000000000000011000111000000000000
00000000000000000000000000000111111111000000000000
00000000000000000000000111111111111111000000000000
00000000000000000011011111111111111111000000000000
00000000000000011111111111111111111111000000000000
00000000001110111111111111111111111111000000000000
00000001111111111111111111111111111111000000000000
00001111111111111111111111111111111110000000000000
00001111111111111111111110001111111110000000000000
00011111111111111111001100001111111100000000000000
00011111111111111000000000001111111000000000000000
00001111111000000000000000001111111000000000000000
00000110000000000000000000011111111000000000000000
00000000000000000000000000011111110000000000000000
00000000000000000000000000011111110000000000000000
00000000000000000000000000011111100000000000000000
00000000000000000000000000111111110000000000000000
00000000000000000000000000111111110000000000000000
00000000000000000000000001111111100000000000000000
00000000000000000000000001111111100000000000000000
00000000000000000000000001111111000000000000000000
00000000000000000000000011111111000000000000000000
00000000000000000000000001111111000000000000000000
00000000000000000000000001111111000000000000000000
00000000000000000000000011111111100000000000000000
00000000000000000000000011111111000000000000000000
00000000000000000000000111111111000000000000000000
00000000000000000000000111111110000000000000000000
00000000000000000000000111111110000000000000000000
00000000000000000000001111111100000000000000000000
00000000000000000000000111111100000000000000000000
00000000000000000000001111111100000000000000000000
00000000000000000000001111111000000000000000000000
00000000000000000000001111111000000000000000000000
00000000000000000000001111111000000000000000000000
00000000000000000000011111111000000000000000000000
00000000000000000000011111110000000000000000000000
00000000000000000000111111110000000000000000000000
00000000000000000000111111110000000000000000000000
00000000000000000000111111110000000000000000000000
00000000000000000000011111100000000000000000000000
00000000000000000000111111110000000000000000000000
00000000000000000000111111100000000000000000000000
00000000000000000001111111000000000000000000000000
00000000000000000000110010000000000000000000000000
00000000000000000000000000000000000000000000000000
00000000000000000000000000000000000000000000000000
00000000000000000000000000000000000000000000000000
00000000000000000000000000000000000000000000000000
00000000000000000000000000000000000000000000000000
00000000000000000000000000000000000000000000000000
00000000000000000000000000000000000000000000000000
00000000000000000000000000000000000000000000000000
00000000000000000000000000000000000000000000000000
00000000000000000000000000000000000000000000000000
00000000000000000000000000000000000000000000000000
00000000000000000000000000000000000000000000000000
00000000000000000000000000000000000000000000000000
00000000000000000000000000000000000000000000000000
00000000000000000000000000000000000000000000000000
