P1
50 70
00000000000000000000000000000000000000000000000000
00000000000000000000000000000000000000000000000000
00000000000000000000000000000000000000000000000000
00000000000000000000000000000000000000000000000000
00000000000000000000000000000000000000000000000000
00000000000000000000000000000000000000000000000000
00000000000000000000000000000000000000000000000000
00000000000000000000000000000000000000000000000000
00000000000000000000000000000000000000000000000000
00000000000000000000000000000000000000000000000000
01000000000000000000000000000000000000000000000000
01111111101111100001100000000000000000000000000000
01111111111111111111111111100111110000110000000000
01111111111111111111111111111111111111111000000000
01111111111111111111111111111111111111111000000000
01111111111111111111111111111111111111111000000000
01111111111111111111111111111111111111111000000000
00111111111111111111111111111111111111110000000000
00111111111111110000001110011111111111110000000000
00111111100000000000000000000000111111100000000000
00111111100000000000000000000001111111000000000000
00111111000000000000000000000001111110000000000000
00111111000000000000000000000001111110000000000000
00011111000000000000000000000011111110000000000000
00001111000000000000000000000011111110000000000000
00000000000000000000000000000111111100000000000000
00000000000000000000000000000111111000000000000000
00000000000000000000000000001111111000000000000000
00000000000000000000000000001111111000000000000000
00000000000000000000000000011111110000000000000000
00000000000000000000000000111111110000000000000000
00000000000000000000000001111111100000000000000000
00000000000000000000000000111111100000000000000000
00000000000000000000000000111111100000000000000000
00000000000000000000000000111111000000000000000000
00000000000000000000000001111110000000000000000000
00000000000000000000000011111110000000000000000000
00000000000000000000000111111100000000000000000000
00000000000000000000000111111100000000000000000000
00000000000000000000000011111000000000000000000000
00000000000000000000000111111000000000000000000000
00000000000000000000000111111000000000000000000000
00000000000000000000001111110000000000000000000000
00000000000000000000011111110000000000000000000000
00000000000000000000011111100000000000000000000000
00000000000000000000011111000000000000000000000000
00000000000000000000111111000000000000000000000000
00000000000000000000011111100000000000000000000000
00000000000000000000111111000000000000000000000000
00000000000000000000111111000000000000000000000000
00000000000000000000111110000000000000000000000000
00000000000000000001111100000000000000000000000000
00000000000000000011111100000000000000000000000000
00000000000000000011111100000000000000000000000000
00000000000000000011111000000000000000000000000000
00000000000000000011111000000000000000000000000000
00000000000000000011111000000000000000000000000000
00000000000000000011110000000000000000000000000000
00000000000000000111110000000000000000000000000000
00000000000000001111110000000000000000000000000000
00000000000000001111100000000000000000000000000000
00000000000000001111100000000000000000000000000000
00000000000000000000000000000000000000000000000000
00000000000000000000000000000000000000000000000000
00000000000000000000000000000000000000000000000000
00000000000000000000000000000000000000000000000000
00000000000000000000000000000000000000000000000000
00000000000000000000000000000000000000000000000000
00000000000000000000000000000000000000000000000000
00000000000000000000000000000000000000000000000000
