P1
50 70
00000000000000000000000000000000000000000000000000
00000000000000000000000000000000000000000000000000
00000000000000000000000000000000000000000000000000
00000000000000000000000000000000000000000000000000
00000000000000000000000000000000000000000000000000
00000000000000000000000000000000000000000000000000
00000000000000000000000000000000000000000000000000
00000000000000000000000000000000000000000000000000
00000000000000000000000000000000000000000000000000
00000000000000000000000000000000000000000000000000
00000000000000000000000000000000000000000000000000
00000000000000000000000000000000000000000000000000
00000000000000000000000000000000000000000000000000
00000000000000000000000000000000000000000000000000
00000000000000000000000000000000000000000000000000
00000000000000000000000000000000000000000000000000
00000000000000000000000000000000000000000000000000
00000000000000000000000000000000000000000000000000
00000000000000000000000000000000000000000000000000
00000000000000000000000000000000000000000000000000
00000000000000000000000000000000000000000000000000
00011111111111111111100000011110000110000000000000
00001111111111111111111111111111111111100000000000
00001111111111111111111111111111111111110000000000
00000111111111111111111111111111111111110000000000
00000111111111111111111111111111111111100000000000
00000111111111111111111111111111111111100000000000
00000001111111111111111111111111111111100000000000
00000001111111111111111111111111111111100000000000
00000001111110000111001101111011111111100000000000
00000001111100000000000000000001111111000000000000
00000000111110000000000000000001111111100000000000
00000000011110000000000000000001111111000000000000
00000000001110000000000000000001111110000000000000
00000000000000000000000000000001111110000000000000
00000000000000000000000000000011111110000000000000
00000000000000000000000000000011111100000000000000
00000000000000000000000000000111111100000000000000
00000000000000000000000000000111111000000000000000
00000000000000000000000000001111111000000000000000
00000000000000000000000000001111110000000000000000
00000000000000000000000000001111110000000000000000
00000000000000000000000000001111110000000000000000
00000000000000000000000000011111110000000000000000
00000000000000000000000000011111110000000000000000
00000000000000000000000000011111100000000000000000
00000000000000000000000000011111100000000000000000
00000000000000000000000000011111000000000000000000
00000000000000000000000000011110000000000000000000
00000000000000000000000000011110000000000000000000
00000000000000000000000000111111000000000000000000
00000000000000000000000000111111000000000000000000
00000000000000000000000000111110000000000000000000
00000000000000000000000000111110000000000000000000
00000000000000000000000000111110000000000000000000
00000000000000000000000000111100000000000000000000
00000000000000000000000001111100000000000000000000
00000000000000000000000001111100000000000000000000
00000000000000000000000000111100000000000000000000
00000000000000000000000000000000000000000000000000
00000000000000000000000000000000000000000000000000
00000000000000000000000000000000000000000000000000
00000000000000000000000000000000000000000000000000
00000000000000000000000000000000000000000000000000
00000000000000000000000000000000000000000000000000
00000000000000000000000000000000000000000000000000
00000000000000000000000000000000000000000000000000
00000000000000000000000000000000000000000000000000
00000000000000000000000000000000000000000000000000
00000000000000000000000000000000000000000000000000
