P1
50 70
00000000000000000000000000000000000000000000000000
00000000000000000000000000000000000000000000000000
00000000000000000000000000000000000000000000000000
00000000000000000000000000000000000000000000000000
00000000000000000000000000000000000000000000000000
00000000000000000000000000000000000000000000000000
00000000000000000000000000000000000000000000000000
00000000000000000000000000000000000000000000000000
00000000000000000000000000000000000000000000000000
00000000000000000000000000000000000000000000000000
00000000000000000000000000000000000000000000000000
01110000000000000000000000000000000000000000000000
01111111100000000000000000000000000000000000000000
01111111110011100000000000000000000000000000000000
01111111111111111000000000000000000000000000000000
00111111111111111111000000000000000000000000000000
00111111111111111111111111110000000000000000000000
00111111111111111111111111111000000000000000000000
00111111100111111111111111111111110100000000000000
00111111000011111111111111111111111110000000000000
00111111000000001001111111111111111111100000000000
00011111000000000000011111111111111111110000000000
00000111000000000000000011101111111111110000000000
00000011000000000000000000000011111111110000000000
00000000000000000000000000000000111111110000000000
00000000000000000000000000000000111111100000000000
00000000000000000000000000000000111111000000000000
00000000000000000000000000000001111111000000000000
00000000000000000000000000000001111111000000000000
00000000000000000000000000000011111110000000000000
00000000000000000000000000000111111100000000000000
00000000000000000000000000001111111000000000000000
00000000000000000000000000001111110000000000000000
00000000000000000000000000011111110000000000000000
00000000000000000000000000111111110000000000000000
00000000000000000000000000111111110000000000000000
00000000000000000000000000111111110000000000000000
00000000000000000000000001111111100000000000000000
00000000000000000000000011111111000000000000000000
00000000000000000000000001111110000000000000000000
00000000000000000000000011111110000000000000000000
00000000000000000000000111111100000000000000000000
00000000000000000000001111111000000000000000000000
00000000000000000000001111111000000000000000000000
00000000000000000000001111111000000000000000000000
00000000000000000000011111110000000000000000000000
00000000000000000000011111110000000000000000000000
00000000000000000000111111110000000000000000000000
00000000000000000000111111100000000000000000000000
00000000000000000001111111000000000000000000000000
00000000000000000001111110000000000000000000000000
00000000000000000001111110000000000000000000000000
00000000000000000011111110000000000000000000000000
00000000000000000111111100000000000000000000000000
00000000000000000111111100000000000000000000000000
00000000000000000111111000000000000000000000000000
00000000000000000111110000000000000000000000000000
00000000000000000011110000000000000000000000000000
00000000000000000001110000000000000000000000000000
00000000000000000000000000000000000000000000000000
00000000000000000000000000000000000000000000000000
00000000000000000000000000000000000000000000000000
00000000000000000000000000000000000000000000000000
00000000000000000000000000000000000000000000000000
00000000000000000000000000000000000000000000000000
00000000000000000000000000000000000000000000000000
00000000000000000000000000000000000000000000000000
00000000000000000000000000000000000000000000000000
00000000000000000000000000000000000000000000000000
00000000000000000000000000000000000000000000000000
