P1
50 70
00000000000000000000000000000000000000000000000000
00000000000000000000000000000000000000000000000000
00000000000000000000000000000000000000000000000000
00000000000000000000000000000000000000000000000000
00000000000000000000000000000000000000000000000000
00000000000000000000000000000000000000000000000000
00000000000000000000000000000000000000000000000000
00000000000000000000000000000000000000000000000000
00000000000000000000000000000000000000000000000000
00000000000000000000000000000000000000000000000000
00000000000000000000000000000000000000000000000000
00000000000000000000000000000000000000000000000000
00000000000000000000000000000000000000000000000000
00000000000000000000000000000000000000000000000000
00000000000000000000000000000000000000000000000000
00000000000000000000000000000000000000000000000000
00000000000000000000000000000000111000000000000000
00000000000000000000000001111111111100000000000000
00000000000000000010001111111111111100000000000000
00000000000000001111111111111111111100000000000000
00000000111111111111111111110011111000000000000000
00000001111111111111111111100001111000000000000000
00000001111111111100000000000011111000000000000000
00000001111111100000000000000011110000000000000000
00000001111100000000000000000011110000000000000000
00000001111100000000000000000111100000000000000000
00000000111100000000000000000111110000000000000000
00000000111000000000000000000111100000000000000000
00000000010000000000000000001111100000000000000000
00000000000000000000000000001111000000000000000000
00000000000000000000000000011111000000000000000000
00000000000000000000000000011111000000000000000000
00000000000000000000000000011110000000000000000000
00000000000000000000000000011110000000000000000000
00000000000000000000000000111110000000000000000000
00000000000000000000000000111100000000000000000000
00000000000000000000000001111000000000000000000000
00000000000000000000000001111000000000000000000000
00000000000000000000000011111000000000000000000000
00000000000000000000000001111000000000000000000000
00000000000000000000000011111000000000000000000000
00000000000000000000000011110000000000000000000000
00000000000000000000000111110000000000000000000000
00000000000000000000000111110000000000000000000000
00000000000000000000000111100000000000000000000000
00000000000000000000000111100000000000000000000000
00000000000000000000000111100000000000000000000000
00000000000000000000000111100000000000000000000000
00000000000000000000000111000000000000000000000000
00000000000000000000001111000000000000000000000000
00000000000000000000001110000000000000000000000000
00000000000000000000001110000000000000000000000000
00000000000000000000011110000000000000000000000000
00000000000000000000011100000000000000000000000000
00000000000000000000011100000000000000000000000000
00000000000000000000011100000000000000000000000000
00000000000000000000011100000000000000000000000000
00000000000000000000000000000000000000000000000000
00000000000000000000000000000000000000000000000000
00000000000000000000000000000000000000000000000000
00000000000000000000000000000000000000000000000000
00000000000000000000000000000000000000000000000000
00000000000000000000000000000000000000000000000000
00000000000000000000000000000000000000000000000000
00000000000000000000000000000000000000000000000000
00000000000000000000000000000000000000000000000000
00000000000000000000000000000000000000000000000000
00000000000000000000000000000000000000000000000000
00000000000000000000000000000000000000000000000000
00000000000000000000000000000000000000000000000000
