P1
50 70
00000000000000000000000000000000000000000000000000
00000000000000000000000000000000000000000000000000
00000000000000000000000000000000000000000000000000
00000000000000000000000000000000000000000000000000
00000000000000000000000000000000000000000000000000
00000000000000000000000000000000000000000000000000
00000000000000000000000000000000000000000000000000
00000000000000000000000000000000000000000000000000
00000000000000000000000000000000000000000000000000
00000000000000000000000000000000000000000000000000
00000000000000000000000000000000000001100000000000
00000000000000000000000000000110000001111100000000
00000000000000000000000001111111111111111110000000
00000000000000111110011111111111111111111100000000
00001000000011111111111111111111111111111100000000
01111111111111111111111111111111111111111100000000
11111111111111111111111111111111111111111100000000
11111111111111111111111111111111111111111000000000
11111111111111111111111111111111111111111000000000
11111111111111111111111111111111111111111000000000
11111111111111111111111111111111111111110000000000
11111111111111111111111111111111111111110000000000
11111111111111111111111111111111111111110000000000
11111111111111111110001111101111111111100000000000
11111111111111111100000000000111111111000000000000
11111110000000000000000000000111111110000000000000
11111100000000000000000000000111111110000000000000
11111100000000000000000000001111111110000000000000
11111000000000000000000000011111111100000000000000
01111000000000000000000000111111111000000000000000
01111000000000000000000001111111110000000000000000
01111000000000000000000011111111100000000000000000
01100000000000000000000001111111100000000000000000
01000000000000000000000011111111000000000000000000
00000000000000000000000011111111100000000000000000
00000000000000000000000111111111000000000000000000
00000000000000000000000111111110000000000000000000
00000000000000000000001111111100000000000000000000
00000000000000000000001111111000000000000000000000
00000000000000000000011111111000000000000000000000
00000000000000000000011111110000000000000000000000
00000000000000000000111111100000000000000000000000
00000000000000000000111111100000000000000000000000
00000000000000000000111111000000000000000000000000
00000000000000000001111111000000000000000000000000
00000000000000000011111110000000000000000000000000
00000000000000000011111110000000000000000000000000
00000000000000000111111110000000000000000000000000
00000000000000000111111100000000000000000000000000
00000000000000000111111000000000000000000000000000
00000000000000000111111000000000000000000000000000
00000000000000001111110000000000000000000000000000
00000000000000001111110000000000000000000000000000
00000000000000011111110000000000000000000000000000
00000000000000111111100000000000000000000000000000
00000000000000111111100000000000000000000000000000
00000000000000111111000000000000000000000000000000
00000000000001111111000000000000000000000000000000
00000000000001111110000000000000000000000000000000
00000000000011111110000000000000000000000000000000
00000000000011111110000000000000000000000000000000
00000000000011111100000000000000000000000000000000
00000000000011111100000000000000000000000000000000
00000000000011111000000000000000000000000000000000
00000000000111111000000000000000000000000000000000
00000000000010110000000000000000000000000000000000
00000000000000000000000000000000000000000000000000
00000000000000000000000000000000000000000000000000
00000000000000000000000000000000000000000000000000
00000000000000000000000000000000000000000000000000
