P1
50 70
00000000000000000000000000000000000000000000000000
00000000000000000000000000000000000000000000000000
00000000000000000000000000000000000000000000000000
00000000000000000000000000000000000000000000000000
00000000000000000000000000000000000000000000000000
00000000000000000000000000000000000000000000000000
00000000000000000000000000000000000000000000000000
00000000000000000000000000000000000000000000000000
00000000000000000000000000000000000000000000000000
00000000000000000000000000000000000000000000000000
00000000000000000000000000000000000000000000000000
00000000000000000000000000000000000000000000000000
00000000000000000000000000000000000000000000000000
00000000000000000000000000000000000000000000000000
00000000000000000000000000000000000000000000000000
00000000000000000000000000000000000000000000000000
00000000000000000000000000000000000000000000000000
00000000000000000000000000000000000000000000000000
00000000000000000000000000000000000000000000000000
00000000000000000000000000000000000000000000000000
00001111110000000000000000000000000000000000000000
00011111111111110100000000000000000000000000000000
00001111111111111111111111011110000010000000000000
00001111111111111111111111111111111111110000000000
00001111111111111111111111111111111111111000000000
00000111111111111111111111111111111111111000000000
00000001111111111111111111111111111111110000000000
00000000000000011110110111111111111111110000000000
00000000000000000000000000110011111111100000000000
00000000000000000000000000000001111111100000000000
00000000000000000000000000000011111111000000000000
00000000000000000000000000000011111110000000000000
00000000000000000000000000000011111111000000000000
00000000000000000000000000000111111111000000000000
00000000000000000000000000001111111110000000000000
00000000000000000000000000001111111110000000000000
00000000000000000000000000011111111100000000000000
00000000000000000000000000011111111100000000000000
00000000000000000000000000011111111000000000000000
00000000000000000000000000011111110000000000000000
00000000000000000000000000011111110000000000000000
00000000000000000000000000111111110000000000000000
00000000000000000000000001111111110000000000000000
00000000000000000000000001111111110000000000000000
00000000000000000000000011111111100000000000000000
00000000000000000000000011111111100000000000000000
00000000000000000000000001111111000000000000000000
00000000000000000000000011111110000000000000000000
00000000000000000000000011111110000000000000000000
00000000000000000000000111111110000000000000000000
00000000000000000000000111111111000000000000000000
00000000000000000000000111111110000000000000000000
00000000000000000000000111111110000000000000000000
00000000000000000000000111111100000000000000000000
00000000000000000000001111111000000000000000000000
00000000000000000000001111111000000000000000000000
00000000000000000000001111111000000000000000000000
00000000000000000000001111111000000000000000000000
00000000000000000000001111111000000000000000000000
00000000000000000000011111111000000000000000000000
00000000000000000000011111110000000000000000000000
00000000000000000000011111110000000000000000000000
00000000000000000000011111110000000000000000000000
00000000000000000000011111100000000000000000000000
00000000000000000000111111100000000000000000000000
00000000000000000000111111000000000000000000000000
00000000000000000000000000000000000000000000000000
00000000000000000000000000000000000000000000000000
00000000000000000000000000000000000000000000000000
00000000000000000000000000000000000000000000000000
