P1
50 70
00000000000000000000000000000000000000000000000000
00000000000000000000000000000000000000000000000000
00000000000000000000000000000000000000000000000000
00000000000000000000000000000000000000000000000000
00000000000000000000000000000000000000000000000000
00000000000000000000000000000000000000000000000000
00000000000000000000000000000000000000000000000000
00000000000000000000000000000000000000000000000000
00000000000000000000000000000000000000000000000000
00000000000000000000000000000000000000000000000000
00000000000000000000000000000000000000000000000000
00000000000000000000000000000000000000000000000000
00000000000000000000000000000000000000000000000000
00000000000000000000000000000000000000000000000000
00000000000000000000000000000000000000000000000000
00000000000000000000000000000000000000000000000000
00000000000000000000000000000000000000000000000000
00000000000000000000000000000000000000000000000000
00000000000000000000000000000000000000000000000000
00000000000000000000000000000000000000000000000000
01111111111000000000000000000000000000000000000000
01111111111111111111111110011001100000000000000000
01111111111111111111111111111111111100000000000000
00111111111111111111111111111111111100000000000000
00011111111111111111111111111111111110000000000000
00001111111111111111111111111111111111000000000000
00000111111111111111111111111111111110000000000000
00000000000000000110000011111111111100000000000000
00000000000000000000000000001111111100000000000000
00000000000000000000000000001111111000000000000000
00000000000000000000000000011111110000000000000000
00000000000000000000000000011111110000000000000000
00000000000000000000000000011111100000000000000000
00000000000000000000000000011111000000000000000000
00000000000000000000000000111111100000000000000000
00000000000000000000000001111111000000000000000000
00000000000000000000000001111110000000000000000000
00000000000000000000000001111110000000000000000000
00000000000000000000000011111100000000000000000000
00000000000000000000000001111100000000000000000000
00000000000000000000000001111100000000000000000000
00000000000000000000000011111100000000000000000000
00000000000000000000000111111000000000000000000000
00000000000000000000000111111100000000000000000000
00000000000000000000000111111000000000000000000000
00000000000000000000000111111000000000000000000000
00000000000000000000000011111000000000000000000000
00000000000000000000000111111000000000000000000000
00000000000000000000000111110000000000000000000000
00000000000000000000000111110000000000000000000000
00000000000000000000001111110000000000000000000000
00000000000000000000001111110000000000000000000000
00000000000000000000001111110000000000000000000000
00000000000000000000000111110000000000000000000000
00000000000000000000000111110000000000000000000000
00000000000000000000000111110000000000000000000000
00000000000000000000000111110000000000000000000000
00000000000000000000000111110000000000000000000000
00000000000000000000000111111000000000000000000000
00000000000000000000000011111000000000000000000000
00000000000000000000000011110000000000000000000000
00000000000000000000000011110000000000000000000000
00000000000000000000000011110000000000000000000000
00000000000000000000000011110000000000000000000000
00000000000000000000000000000000000000000000000000
00000000000000000000000000000000000000000000000000
00000000000000000000000000000000000000000000000000
00000000000000000000000000000000000000000000000000
00000000000000000000000000000000000000000000000000
00000000000000000000000000000000000000000000000000
