P1
50 70
00000000000000000000000000000000000000000000000000
00000000000000000000000000000000000000000000000000
00000000000000000000000000000000000000000000000000
00000000000000000000000000000000000000000000000000
00000000000000000000000000000000000000000000000000
00000000000000000000000000000000000000000000000000
00000000000000000000000000000000000000000000000000
00000000000000000000000000000000000000000000000000
00000000000000000000000000000000000000000000000000
00000000000000000000000000000000000000000000000000
00000000000000000000000000000000000000000000000000
00000000000000000000000000000000000000000000000000
00000000000000000000000000000011111000000000000000
00000000000000000000000000000111111000000000000000
00000000000000000000000001111111111000000000000000
00000000000000000000000111111111111000000000000000
00000000000000000000111111111111111100000000000000
00000000000000000111111111111111111100000000000000
00000000000000011111111111111111111100000000000000
00000000000111111111111111111111111000000000000000
00000000111111111111111111111111111000000000000000
00000011111111111111111111111111111000000000000000
00111111111111111111111111111111110000000000000000
11111111111111111111111111111111110000000000000000
11111111111111111111100011111111100000000000000000
11111111111111111111000011111111100000000000000000
11111111111111111110000111111111100000000000000000
11111111111111100000000111111111000000000000000000
11111111111100000000000111111111000000000000000000
11111111111000000000001111111110000000000000000000
11111100000000000000001111111110000000000000000000
11000000000000000000001111111100000000000000000000
00000000000000000000001111111100000000000000000000
00000000000000000000011111111100000000000000000000
00000000000000000000111111111000000000000000000000
00000000000000000000111111111000000000000000000000
00000000000000000000111111111000000000000000000000
00000000000000000000111111110000000000000000000000
00000000000000000001111111110000000000000000000000
00000000000000000001111111110000000000000000000000
00000000000000000001111111100000000000000000000000
00000000000000000001111111100000000000000000000000
00000000000000000001111111100000000000000000000000
00000000000000000001111111100000000000000000000000
00000000000000000011111111100000000000000000000000
00000000000000000011111111100000000000000000000000
00000000000000000011111111100000000000000000000000
00000000000000000011111111100000000000000000000000
00000000000000000011111111100000000000000000000000
00000000000000000011111111000000000000000000000000
00000000000000000011111111000000000000000000000000
00000000000000000011111111100000000000000000000000
00000000000000000011111111100000000000000000000000
00000000000000000111111111100000000000000000000000
00000000000000000111111111100000000000000000000000
00000000000000000011111111100000000000000000000000
00000000000000000011111111100000000000000000000000
00000000000000000011111111100000000000000000000000
00000000000000000011111111110000000000000000000000
00000000000000000011111111110000000000000000000000
00000000000000000001111111110000000000000000000000
00000000000000000001111111110000000000000000000000
00000000000000000001111111110000000000000000000000
00000000000000000001111110000000000000000000000000
00000000000000000000111100000000000000000000000000
00000000000000000000010000000000000000000000000000
00000000000000000000000000000000000000000000000000
00000000000000000000000000000000000000000000000000
00000000000000000000000000000000000000000000000000
00000000000000000000000000000000000000000000000000
