P1
50 70
00000000000000000000000000000000000000000000000000
00000000000000000000000000000000000000000000000000
00000000000000000000000000000000000000000000000000
00000000000000000000000000000000000000000000000000
00000000000000000000000000000000000000000000000000
00000000000000000000000000000000000000000000000000
00000000000000000000000000000000000000000000000000
00000000000000000000000000000000000000000000000000
00000000000000000000000000000000000000000000000000
00000000000000000000000000000000000000000000000000
00000000000000000000000000000000000000000000000000
00000000000000000000000000000000000000000000000000
00000000000000000000000000000000000000000000000000
00000000000000000000000000000010000000000000000000
00000000000000000000000001111111000000000000000000
00000000000000000000000111111111000000000000000000
00000000000000000001111111111111000000000000000000
00000000000000001111111111011111000000000000000000
00000001111111111111111110011111000000000000000000
00000011111111111111000000011110000000000000000000
00011111111111111000000000011110000000000000000000
00111111111110000000000000111110000000000000000000
00111111100000000000000000111110000000000000000000
00011111000000000000000000111100000000000000000000
00001111000000000000000000111000000000000000000000
00001111100000000000000000110000000000000000000000
00001111000000000000000001110000000000000000000000
00000011000000000000000001110000000000000000000000
00000000000000000000000011110000000000000000000000
00000000000000000000000011100000000000000000000000
00000000000000000000000011100000000000000000000000
00000000000000000000000111100000000000000000000000
00000000000000000000000011100000000000000000000000
00000000000000000000000111100000000000000000000000
00000000000000000000000111100000000000000000000000
00000000000000000000000111100000000000000000000000
00000000000000000000001111000000000000000000000000
00000000000000000000001111000000000000000000000000
00000000000000000000001111000000000000000000000000
00000000000000000000001111000000000000000000000000
00000000000000000000000111000000000000000000000000
00000000000000000000000111000000000000000000000000
00000000000000000000001110000000000000000000000000
00000000000000000000001110000000000000000000000000
00000000000000000000001110000000000000000000000000
00000000000000000000001110000000000000000000000000
00000000000000000000011111000000000000000000000000
00000000000000000000001111000000000000000000000000
00000000000000000000001110000000000000000000000000
00000000000000000000001110000000000000000000000000
00000000000000000000001110000000000000000000000000
00000000000000000000001100000000000000000000000000
00000000000000000000001110000000000000000000000000
00000000000000000000011110000000000000000000000000
00000000000000000000001110000000000000000000000000
00000000000000000000001110000000000000000000000000
00000000000000000000001110000000000000000000000000
00000000000000000000001100000000000000000000000000
00000000000000000000000000000000000000000000000000
00000000000000000000000000000000000000000000000000
00000000000000000000000000000000000000000000000000
00000000000000000000000000000000000000000000000000
00000000000000000000000000000000000000000000000000
00000000000000000000000000000000000000000000000000
00000000000000000000000000000000000000000000000000
00000000000000000000000000000000000000000000000000
00000000000000000000000000000000000000000000000000
00000000000000000000000000000000000000000000000000
00000000000000000000000000000000000000000000000000
00000000000000000000000000000000000000000000000000
