P1
50 70
00000000000000000000000000000000000000000000000000
00000000000000000000000000000000000000000000000000
00000000000000000000000000000000000000000000000000
00000000000000000000000000000000000000000000000000
00000000000000000000000000000000000000000000000000
00000000000000000000000000000000000000000000000000
00000000000000000000000000000000000000000000000000
00000000000000000000000000000000000000000000000000
00000000000000000000000000000000000000000000000000
00000000000000000000000000000000000000000000000000
00000000000000000000000000000000000000000000000000
00000000000000000000000000000000000000000000000000
00000000000000000000000000000000000000000000000000
00000000000000000000000000000000000000000000000000
00000000000000000000000000000000000000000000000000
00000000000000000000000000000000000000000000000000
00000000000000000000000000000000000000000000000000
00000000000000000000000000000000000000000000000000
00000000000000000000000001111110000000000000000000
00000000000000000000000011111110000000000000000000
00000000000000000000001111111111000000000000000000
00000000000000000000011111111111100000000000000000
00000000000000000000111111111111110000000000000000
00000000000000000001111000011111110000000000000000
00000000000000000001110000001111111000000000000000
00000000000000000011111000000111111100000000000000
00000000000000000111110000000111111100000000000000
00000000000000000111100000000111111100000000000000
00000000000000000111000000000111111100000000000000
00000000000000001111000000000111111100000000000000
00000000000000001111000000000011111110000000000000
00000000000000001111000000000001111110000000000000
00000000000000011110000000000011111111000000000000
00000000000000011110000000000011111111000000000000
00000000000000111111000000000011111111000000000000
00000000000000011110000000000001111111000000000000
00000000000000111110000000000011111111000000000000
00000000000000111110000000000011111111000000000000
00000000000000111110000000000111111110000000000000
00000000000000111110000000000111111111000000000000
00000000000000111110000000000111111111000000000000
00000000000000111111000000001111111111000000000000
00000000000001111111000000011110011111000000000000
00000000000000111111100001111100011111000000000000
00000000000000111111110011111000011110000000000000
00000000000000111111111111110000011110000000000000
00000000000000111111111111100000111110000000000000
00000000000000011111111111100000111100000000000000
00000000000000011111111110000000111100000000000000
00000000000000001111111000000000111000000000000000
00000000000000000111000000000000111000000000000000
00000000000000000000000000000001111000000000000000
00000000000000000000000000000011111000000000000000
00000000000000000000000000000011110000000000000000
00000000000000000000000000000111100000000000000000
00000000000000000000000000001111000000000000000000
00000000000000000000000000011111000000000000000000
00000000000000000000000000011110000000000000000000
00000000000000000000000000111100000000000000000000
00000000000000000110000011111100000000000000000000
00000000000000001111000111110000000000000000000000
00000000000000011111111111100000000000000000000000
00000000000000011111111111000000000000000000000000
00000000000000011111111100000000000000000000000000
00000000000000011111111100000000000000000000000000
00000000000000111111100000000000000000000000000000
00000000000000111111000000000000000000000000000000
00000000000000011100000000000000000000000000000000
00000000000000000000000000000000000000000000000000
00000000000000000000000000000000000000000000000000
