P1
50 70
00000000000000000000000000000000000000000000000000
00000000000000000000000000000000000000000000000000
00000000000000000000000000000000000000000000000000
00000000000000000000000000000000000000000000000000
00000000000000000000000000000000000000000000000000
00000000000000000000000000000000000000000000000000
00000000000000000000000000000000000000000000000000
00000000000000000000000000000000000000000000000000
00000000000000000000000000000000000000000000000000
00000000000000000000000000000000000000000000000000
00000000000000000000000000000000000000000000000000
00000000000000000000000000000000000000000000000000
00000000000000000000000000000000000000000000000000
00000000000000000000000000000000000000000000000000
00000000000000000000000000000000000000000000000000
00000000000000000000000110000000000000000000000000
00000000000000000000001111111000000000000000000000
00000000000000000001111111111100000000000000000000
00000000000000000011111111111110000000000000000000
00000000000000000111111001111111000000000000000000
00000000000000001111100000011111100000000000000000
00000000000000011111000000001111110000000000000000
00000000000000011111000000000111110000000000000000
00000000000001111110000000000111110000000000000000
00000000000000111110000000000011111000000000000000
00000000000001111110000000000011111100000000000000
00000000000001111110000000000011111100000000000000
00000000000001111110000000000011111100000000000000
00000000000001111100000000000001111100000000000000
00000000000001111100000000000001111110000000000000
00000000000011111100000000000001111110000000000000
00000000000001111100000000000001111100000000000000
00000000000001111100000000000011111100000000000000
00000000000001111100000000000011111110000000000000
00000000000001111110000000000011111111000000000000
00000000000011111110000000000001111111000000000000
00000000000001111110000000000011111110000000000000
00000000000001111110000000000111111110000000000000
00000000000001111110000000000111111110000000000000
00000000000000111111000000001111111110000000000000
00000000000000111111100000011110111110000000000000
00000000000000111111110001111100111110000000000000
00000000000000111111111111111000111110000000000000
00000000000000001111111111100000111110000000000000
00000000000000001111111111000000111110000000000000
00000000000000000111011000000000111110000000000000
00000000000000000000000000000000111100000000000000
00000000000000000000000000000001111100000000000000
00000000000000000000000000000001111000000000000000
00000000000000000000000000000001111000000000000000
00000000000000000000000000000011110000000000000000
00000000000000000000000000000001110000000000000000
00000000000000000000000000000011110000000000000000
00000000000000000000000000000111100000000000000000
00000000000000000000000000001111000000000000000000
00000000000000011100000000111110000000000000000000
00000000000000011100000001111100000000000000000000
00000000000000011110000011111000000000000000000000
00000000000000111111111111111000000000000000000000
00000000000001111111111111100000000000000000000000
00000000000001111111111110000000000000000000000000
00000000000000111111111000000000000000000000000000
00000000000000111111110000000000000000000000000000
00000000000000111111000000000000000000000000000000
00000000000000000000000000000000000000000000000000
00000000000000000000000000000000000000000000000000
00000000000000000000000000000000000000000000000000
00000000000000000000000000000000000000000000000000
00000000000000000000000000000000000000000000000000
00000000000000000000000000000000000000000000000000
