P1
50 70
00000000000000000000000000000000000000000000000000
00000000000000000000000000000000000000000000000000
00000000000000000000000000000000000000000000000000
00000000000000000000000000000000000000000000000000
00000000000000000000000000000000000000000000000000
00000000000000000000000000000000000000000000000000
00000000000000000000000000000000000000000000000000
00000000000000000000000000000000000000000000000000
00000000000000000000000000000000000000000000000000
00000000000000000000000000000000000000000000000000
00000000000000000000000000000000000000000000000000
00000000000000000000000000000001000000000000000000
00000000000000000000000000011011110000000000000000
00000000000000000000000111111111111000000000000000
00000000000000000000001111111111111100000000000000
00000000000000000000111111111111111110000000000000
00000000000000000001111111111111111111000000000000
00000000000000000011111111111111111111000000000000
00000000000000000111111111111111111111000000000000
00000000000000000111111111111111111111100000000000
00000000000000001111111111111111111111100000000000
00000000000000001111111111100111111111100000000000
00000000000000011111111110000011111111111000000000
00000000000000111111111100000001111111111000000000
00000000000000011111111100000001111111111000000000
00000000000000111111111100000001111111111000000000
00000000000000111111111100000001111111111000000000
00000000000001111111111100000000111111111000000000
00000000000001111111111000000000111111111000000000
00000000000001111111111000000001111111111000000000
00000000000011111111111000000001111111111000000000
00000000000001111111111000000001111111111100000000
00000000000001111111111100000001111111111100000000
00000000000001111111111100000011111111111100000000
00000000000001111111111100000111111111111100000000
00000000000001111111111110001111111111111100000000
00000000000000111111111111111111111111111100000000
00000000000000111111111111111111111111111100000000
00000000000000011111111111111111111111111100000000
00000000000000011111111111111111111111111100000000
00000000000000011111111111111111111111111100000000
00000000000000001111111111111111111111111100000000
00000000000000000011111111111111111111111000000000
00000000000000000001100001110001111111111000000000
00000000000000000000000000000001111111111000000000
00000000000000000000000000000011111111110000000000
00000000000000000000000000000111111111110000000000
00000000000000000000000000000111111111110000000000
00000000000000000000000000001111111111110000000000
00000000000011000000000000011111111111100000000000
00000000000111111100111111111111111111000000000000
00000000000111111111111111111111111111000000000000
00000000000111111111111111111111111110000000000000
00000000001111111111111111111111111110000000000000
00000000001111111111111111111111111000000000000000
00000000001111111111111111111111100000000000000000
00000000000111111111111111111110000000000000000000
00000000000011111111111111101100000000000000000000
00000000000000010000011100000000000000000000000000
00000000000000000000000000000000000000000000000000
00000000000000000000000000000000000000000000000000
00000000000000000000000000000000000000000000000000
00000000000000000000000000000000000000000000000000
00000000000000000000000000000000000000000000000000
00000000000000000000000000000000000000000000000000
00000000000000000000000000000000000000000000000000
00000000000000000000000000000000000000000000000000
00000000000000000000000000000000000000000000000000
00000000000000000000000000000000000000000000000000
00000000000000000000000000000000000000000000000000
