P1
50 70
00000000000000000000000000000000000000000000000000
00000000000000000000000000000000000000000000000000
00000000000000000000000000000000000000000000000000
00000000000000000000000000000000000000000000000000
00000000000000000000000000000000000000000000000000
00000000000000000000000000000000000000000000000000
00000000000000000000000000000000000000000000000000
00000000000000000000000000000000000000000000000000
00000000000000000000000000000000000000000000000000
00000000000000000000000000000000000000000000000000
00000000000000000000000000000000000000000000000000
00000000000000000000000000000000000000000000000000
00000000000000000000000000000000000000000000000000
00000000000000000000000000000000000000000000000000
00000000000000000000000000000000000000000000000000
00000000000000000000000000000000000000000000000000
00000000000000000000000000000000000000000000000000
00000000000000000000000000000000000000000000000000
00000000000000000000000000000000000000000000000000
00000000000000000000000000000000000000000000000000
00000000000000000000000000000000000000000000000000
00000000000000000000000011010000000000000000000000
00000000000000000000001111111111000000000000000000
00000000000000000000011111111111100000000000000000
00000000000000000000011111111111110000000000000000
00000000000000000000111111111111111000000000000000
00000000000000000001111111111111111100000000000000
00000000000000000001111111110111111100000000000000
00000000000000000011111110000111111100000000000000
00000000000000000011111100000011111100000000000000
00000000000000000111111100000011111100000000000000
00000000000000000111111000000011111100000000000000
00000000000000000111111100000111111110000000000000
00000000000000000111111000000111111100000000000000
00000000000000000111111000000111111100000000000000
00000000000000000111111100001111111100000000000000
00000000000000000111111100011111111000000000000000
00000000000000000111111111111111111000000000000000
00000000000000000111111111111111111000000000000000
00000000000000000111111111111111110000000000000000
00000000000000000111111111111111110000000000000000
00000000000000000001111111111111110000000000000000
00000000000000000001111100111111110000000000000000
00000000000000000000000000111111100000000000000000
00000000000000000000000000111111100000000000000000
00000000000000000000000001111111000000000000000000
00000000000000000000000000111110000000000000000000
00000000000000001110000001111110000000000000000000
00000000000000111111000111111110000000000000000000
00000000000001111111111111111100000000000000000000
00000000000001111111111111111000000000000000000000
00000000000001111111111111110000000000000000000000
00000000000001111111111111000000000000000000000000
00000000000001111111111110000000000000000000000000
00000000000001111111111100000000000000000000000000
00000000000000111111111000000000000000000000000000
00000000000000011111110000000000000000000000000000
00000000000000000000000000000000000000000000000000
00000000000000000000000000000000000000000000000000
00000000000000000000000000000000000000000000000000
00000000000000000000000000000000000000000000000000
00000000000000000000000000000000000000000000000000
00000000000000000000000000000000000000000000000000
00000000000000000000000000000000000000000000000000
00000000000000000000000000000000000000000000000000
00000000000000000000000000000000000000000000000000
00000000000000000000000000000000000000000000000000
00000000000000000000000000000000000000000000000000
00000000000000000000000000000000000000000000000000
00000000000000000000000000000000000000000000000000
